<svg xmlns="http://www.w3.org/2000/svg" width="112" height="72" viewBox="0 0 112 72">
    <g id="prefix__그룹_23579" data-name="그룹 23579" transform="translate(-32 -670)">
        <path id="prefix__패스_19122" fill="rgba(255,255,255,0.4)" d="M4 0h104a4 4 0 0 1 4 4v64a4 4 0 0 1-4 4H4a4 4 0 0 1-4-4V4a4 4 0 0 1 4-4z" data-name="패스 19122" opacity="0.997" transform="translate(32 670)"/>
        <g id="prefix__그룹_18731" data-name="그룹 18731" transform="translate(-133 221)">
            <g id="prefix__check_box_checked_20x20" transform="translate(183 479)">
                <path id="prefix__패스_4" fill="#333" d="M0 0h14v14H0z" data-name="패스 4"/>
                <path id="prefix__패스_18779" fill="#fff" d="M922.99 395.219l3.551 3.551 6.248-6.251-.914-.914-5.334 5.337-2.624-2.624z" data-name="패스 18779" transform="translate(-920.9 -388.301)"/>
            </g>
            <text id="prefix__Check_box" fill="#333" data-name="Check box" font-family="NotoSansCJKkr-Regular, Noto Sans CJK KR" font-size="12px" transform="translate(203 491)">
                <tspan x="0" y="0">Check box</tspan>
            </text>
        </g>
    </g>
</svg>
