<svg xmlns="http://www.w3.org/2000/svg" width="112" height="72" viewBox="0 0 112 72">
    <g id="prefix__그룹_23594" data-name="그룹 23594" transform="translate(-148 -1310)">
        <rect id="prefix__사각형_14878" width="112" height="72" fill="rgba(255,255,255,0.4)" data-name="사각형 14878" opacity="0.997" rx="5" transform="translate(148 1310)"/>
        <g id="prefix__그룹_23384" data-name="그룹 23384" transform="translate(-507 -31)">
            <g id="prefix__그룹_23370" data-name="그룹 23370" transform="translate(665 1368)">
                <path id="prefix__box" fill="#fff" d="M0 0H98V10H0z" transform="translate(-3 4)"/>
            </g>
            <text id="prefix__LOGO" fill="#333" font-family="NotoSansCJKkr-Bold, Noto Sans CJK KR" font-size="5px" font-weight="700" transform="translate(665 1379)">
                <tspan x="0" y="0">LOGO</tspan>
            </text>
            <g id="prefix__serach_bar" data-name="serach bar" transform="translate(465.5 1273)">
                <g id="prefix__icon_search_hover" transform="translate(288 102)">
                    <path id="prefix__합치기_7" fill="#333" d="M0 2.739L.737 2a1.224 1.224 0 1 1 .193.192l-.738.74zm.736-1.511a.952.952 0 1 0 .952-.955.954.954 0 0 0-.952.955z" data-name="합치기 7" transform="translate(.162 .437)"/>
                </g>
                <text id="prefix__Search" fill="#333" font-family="SegoeUI, Segoe UI" font-size="3px" transform="translate(260 105)">
                    <tspan x="0" y="0">Search</tspan>
                </text>
            </g>
            <path id="prefix__선_1738" fill="none" stroke="#707070" stroke-width="0.3px" d="M0 0L32 0" data-name="선 1738" transform="translate(725 1379.5)"/>
        </g>
    </g>
</svg>
