<svg xmlns="http://www.w3.org/2000/svg" width="112" height="72" viewBox="0 0 112 72">
    <defs>
        <style>
            .prefix__cls-2{fill:#333;font-size:5px;font-family:NotoSansCJKkr-Regular,Noto Sans CJK KR;opacity:.7}.prefix__cls-5,.prefix__cls-7{fill:none}.prefix__cls-5{stroke:#ccc}.prefix__cls-6{fill:transparent}.prefix__cls-7{stroke:#767676;stroke-linecap:round;stroke-miterlimit:10;stroke-width:.5px}
        </style>
    </defs>
    <g id="prefix__그룹_23598" data-name="그룹 23598" transform="translate(-148 -1584)">
        <rect id="prefix__사각형_14878" width="112" height="72" fill="rgba(255,255,255,0.4)" data-name="사각형 14878" opacity="0.997" rx="5" transform="translate(148 1584)"/>
        <g id="prefix__그룹_23393" data-name="그룹 23393" transform="translate(100 -1142)">
            <text id="prefix__LNB_Menu3" class="prefix__cls-2" data-name="LNB Menu3" transform="translate(62 2782)">
                <tspan x="0" y="0">LNB Menu3</tspan>
            </text>
            <text id="prefix__LNB_Menu2" class="prefix__cls-2" data-name="LNB Menu2" transform="translate(62 2758)">
                <tspan x="0" y="0">LNB Menu2</tspan>
            </text>
            <text id="prefix___2depth_Menu2" fill="#333" data-name="2depth Menu2" font-family="NotoSansCJKkr-Regular, Noto Sans CJK KR" font-size="4px" opacity="0.7" transform="translate(67 2773)">
                <tspan x="0" y="0">2depth Menu2</tspan>
            </text>
            <text id="prefix__LNB_Menu1" class="prefix__cls-2" data-name="LNB Menu1" transform="translate(62 2749)">
                <tspan x="0" y="0">LNB Menu1</tspan>
            </text>
            <text id="prefix___2depth_Menu1" fill="#333" data-name="2depth Menu1" font-family="NotoSansCJKkr-Bold, Noto Sans CJK KR" font-size="4px" font-weight="700" transform="translate(67 2766)">
                <tspan x="0" y="0">2depth Menu1</tspan>
            </text>
        </g>
        <path id="prefix__선_1739" d="M0 0L85 0" class="prefix__cls-5" data-name="선 1739" transform="translate(161.5 1597.5)"/>
        <path id="prefix__선_1740" d="M0 0L0 46" class="prefix__cls-5" data-name="선 1740" transform="translate(213.5 1597.5)"/>
        <g id="prefix__ico_collapse" transform="translate(202 1602)">
            <path id="prefix__click_area" d="M0 0H7V7H0z" class="prefix__cls-6"/>
            <path id="prefix__ico_collapse-2" d="M0 0l2.2 2.2L0 4.406" class="prefix__cls-7" data-name="ico_collapse" transform="rotate(90 1.653 3.975)"/>
        </g>
        <g id="prefix__ico_collapse-3" data-name="ico_collapse" transform="translate(202 1634)">
            <path id="prefix__click_area-2" d="M0 0H7V7H0z" class="prefix__cls-6" data-name="click_area"/>
            <path id="prefix__ico_collapse-4" d="M0 0l2.2 2.2L0 4.406" class="prefix__cls-7" data-name="ico_collapse" transform="rotate(90 1.653 3.975)"/>
        </g>
        <g id="prefix__ico_collapse-5" data-name="ico_collapse" transform="translate(202 1611)">
            <path id="prefix__click_area-3" d="M0 0H7V7H0z" class="prefix__cls-6" data-name="click_area"/>
            <path id="prefix__ico_collapse-6" d="M0 4.406L2.2 2.2 0 0" class="prefix__cls-7" data-name="ico_collapse" transform="rotate(-90 2.95 1.727)"/>
        </g>
    </g>
</svg>
