<svg xmlns="http://www.w3.org/2000/svg" width="112" height="72" viewBox="0 0 112 72">
    <defs>
        <style>
            .prefix__cls-4,.prefix__cls-5{fill:#333;font-family:NotoSansCJKkr-Regular,Noto Sans CJK KR;opacity:.7}.prefix__cls-4{font-size:5px}.prefix__cls-5{font-size:4px}.prefix__cls-6,.prefix__cls-8{fill:none}.prefix__cls-6{stroke:#ccc}.prefix__cls-7{fill:transparent}.prefix__cls-8{stroke:#767676;stroke-linecap:round;stroke-miterlimit:10;stroke-width:.5px}
        </style>
    </defs>
    <g id="prefix__그룹_23597" data-name="그룹 23597" transform="translate(-264 -1584)">
        <rect id="prefix__사각형_14878" width="112" height="72" fill="rgba(255,255,255,0.4)" data-name="사각형 14878" opacity="0.997" rx="5" transform="translate(264 1584)"/>
        <g id="prefix__그룹_23395" data-name="그룹 23395" transform="translate(7 3)">
            <g id="prefix__그룹_23396" data-name="그룹 23396" transform="translate(209 -1145)">
                <text id="prefix___3depth_Menu1" fill="#333" data-name="3depth Menu1" font-family="NotoSansCJKkr-Bold, Noto Sans CJK KR" font-size="3px" font-weight="700" transform="translate(74 2772)">
                    <tspan x="0" y="0">3depth Menu1</tspan>
                </text>
                <text id="prefix___3depth_Menu2" fill="#333" data-name="3depth Menu2" font-family="NotoSansCJKkr-Regular, Noto Sans CJK KR" font-size="3px" opacity="0.7" transform="translate(74 2778)">
                    <tspan x="0" y="0">3depth Menu2</tspan>
                </text>
                <text id="prefix__LNB_Menu1" class="prefix__cls-4" data-name="LNB Menu1" transform="translate(62 2749)">
                    <tspan x="0" y="0">LNB Menu1</tspan>
                </text>
                <text id="prefix__LNB_Menu2" class="prefix__cls-4" data-name="LNB Menu2" transform="translate(62 2758)">
                    <tspan x="0" y="0">LNB Menu2</tspan>
                </text>
                <text id="prefix___2depth_Menu1" class="prefix__cls-5" data-name="2depth Menu1" transform="translate(67 2766)">
                    <tspan x="0" y="0">2depth Menu1</tspan>
                </text>
                <text id="prefix___2depth_Menu2" class="prefix__cls-5" data-name="2depth Menu2" transform="translate(67 2785)">
                    <tspan x="0" y="0">2depth Menu2</tspan>
                </text>
            </g>
            <path id="prefix__선_1743" d="M0 0L85 0" class="prefix__cls-6" data-name="선 1743" transform="translate(270.5 1594.5)"/>
            <path id="prefix__선_1744" d="M0 0L0 46" class="prefix__cls-6" data-name="선 1744" transform="translate(322.5 1594.5)"/>
            <g id="prefix__ico_collapse" transform="translate(311 1599)">
                <path id="prefix__click_area" d="M0 0H7V7H0z" class="prefix__cls-7"/>
                <path id="prefix__ico_collapse-2" d="M0 0l2.2 2.2L0 4.406" class="prefix__cls-8" data-name="ico_collapse" transform="rotate(90 1.653 3.975)"/>
            </g>
            <g id="prefix__ico_collapse-3" data-name="ico_collapse" transform="translate(311 1608)">
                <path id="prefix__click_area-2" d="M0 0H7V7H0z" class="prefix__cls-7" data-name="click_area"/>
                <path id="prefix__ico_collapse-4" d="M0 4.406L2.2 2.2 0 0" class="prefix__cls-8" data-name="ico_collapse" transform="rotate(-90 2.95 1.727)"/>
            </g>
            <g id="prefix__ico_collapse-5" data-name="ico_collapse" transform="translate(312 1617)">
                <path id="prefix__click_area-3" d="M0 0H5V5H0z" class="prefix__cls-7" data-name="click_area"/>
                <path id="prefix__ico_collapse-6" d="M0 3.147l1.574-1.573L0 0" class="prefix__cls-8" data-name="ico_collapse" transform="rotate(-90 2.108 1.234)"/>
            </g>
            <g id="prefix__ico_collapse-7" data-name="ico_collapse" transform="translate(312 1636)">
                <path id="prefix__click_area-4" d="M0 0H5V5H0z" class="prefix__cls-7" data-name="click_area"/>
                <path id="prefix__ico_collapse-8" d="M0 0l1.574 1.574L0 3.147" class="prefix__cls-8" data-name="ico_collapse" transform="rotate(90 1.181 2.84)"/>
            </g>
        </g>
    </g>
</svg>
