<svg xmlns="http://www.w3.org/2000/svg" width="112" height="72" viewBox="0 0 112 72">
    <defs>
        <style>
            .prefix__cls-2{fill:#a5a5a5}.prefix__cls-3{fill:#ccc}
        </style>
    </defs>
    <g id="prefix__그룹_23600" data-name="그룹 23600" transform="translate(-380 -1729)">
        <rect id="prefix__사각형_14878" width="112" height="72" fill="rgba(255,255,255,0.4)" data-name="사각형 14878" opacity="0.997" rx="5" transform="translate(380 1729)"/>
        <g id="prefix__그룹_8154" data-name="그룹 8154" transform="translate(391.103 1754)">
            <path id="prefix__ico_Next" d="M0 9.635a.381.381 0 0 1 .1-.257L4.185 5 .1.62a.383.383 0 0 1 0-.514.323.323 0 0 1 .479 0L4.9 4.743a.393.393 0 0 1 0 .514L.579 9.894a.323.323 0 0 1-.479 0 .383.383 0 0 1-.1-.259z" class="prefix__cls-2" transform="translate(81.897)"/>
            <path id="prefix__ico_prev" d="M5 9.635a.381.381 0 0 0-.1-.257L.815 5 4.9.62a.383.383 0 0 0 0-.514.323.323 0 0 0-.479 0L.1 4.743a.393.393 0 0 0 0 .514l4.321 4.637a.323.323 0 0 0 .479 0 .383.383 0 0 0 .1-.259z" class="prefix__cls-2" transform="translate(2.896)"/>
        </g>
        <g id="prefix__그룹_23410" data-name="그룹 23410" transform="translate(-923.083 1018.648)">
            <path id="prefix__사각형_4076" d="M0 0H16V10H0z" class="prefix__cls-3" data-name="사각형 4076" transform="translate(1329.083 759.352)"/>
            <path id="prefix__사각형_4076-2" d="M0 0H16V10H0z" class="prefix__cls-3" data-name="사각형 4076" transform="translate(1347.083 759.352)"/>
            <path id="prefix__사각형_4076-3" d="M0 0H16V10H0z" class="prefix__cls-3" data-name="사각형 4076" transform="translate(1365.083 759.352)"/>
            <path id="prefix__사각형_4076-4" d="M0 0H6V10H0z" class="prefix__cls-3" data-name="사각형 4076" transform="translate(1383.083 759.352)"/>
            <g id="prefix__Thumbnail" transform="translate(1330.014 697)">
                <path id="prefix__사각형_11629" d="M0 0H60V34H0z" class="prefix__cls-2" data-name="사각형 11629" transform="translate(-.931 26.352)"/>
            </g>
            <path id="prefix__패스_19327" d="M0 0h16v10H0z" class="prefix__cls-2" data-name="패스 19327" transform="translate(1329.083 759.352)"/>
        </g>
    </g>
</svg>
