<svg xmlns="http://www.w3.org/2000/svg" width="112" height="72" viewBox="0 0 112 72">
    <defs>
        <style>
            .prefix__cls-2{fill:#a5a5a5;font-size:7px;font-family:NotoSansCJKkr-Bold,Noto Sans CJK KR;font-weight:700}.prefix__cls-3{fill:#1aaf14;opacity:0}
        </style>
    </defs>
    <g id="prefix__그룹_23614" data-name="그룹 23614" transform="translate(-32 -2390)">
        <path id="prefix__패스_19314" fill="rgba(255,255,255,0.4)" d="M4 0h104a4 4 0 0 1 4 4v64a4 4 0 0 1-4 4H4a4 4 0 0 1-4-4V4a4 4 0 0 1 4-4z" data-name="패스 19314" opacity="0.997" transform="translate(32 2390)"/>
        <g id="prefix__그룹_23405" data-name="그룹 23405" transform="translate(2 24)">
            <text id="prefix__Step2" class="prefix__cls-2" transform="translate(76 2405)">
                <tspan x="0" y="0">Step2</tspan>
            </text>
            <text id="prefix__Step3" class="prefix__cls-2" transform="translate(109 2405)">
                <tspan x="0" y="0">Step3</tspan>
            </text>
            <g id="prefix__icon_" data-name="icon &gt;" transform="translate(66.667 2399.933)">
                <path id="prefix___32" d="M0 0H5V6H0z" class="prefix__cls-3" data-name="32" transform="translate(.333 .067)"/>
                <path id="prefix__icon__" fill="none" stroke="#333" stroke-linecap="round" stroke-linejoin="round" stroke-width="0.5px" d="M778.043 217.6l2.817 2.817-2.817 2.817" data-name="icon_&gt;" transform="translate(-776.304 -217.438)"/>
            </g>
            <g id="prefix__icon_2" data-name="icon &gt;" transform="translate(99.667 2399.933)">
                <path id="prefix___32-2" d="M0 0H5V6H0z" class="prefix__cls-3" data-name="32" transform="translate(.333 .067)"/>
                <path id="prefix__icon__2" fill="none" stroke="#a5a5a5" stroke-linecap="round" stroke-linejoin="round" stroke-width="0.5px" d="M778.043 217.6l2.817 2.817-2.817 2.817" data-name="icon_&gt;" transform="translate(-776.304 -217.438)"/>
            </g>
            <text id="prefix__Step1" fill="#333" font-family="NotoSansCJKkr-Bold, Noto Sans CJK KR" font-size="7px" font-weight="700" transform="translate(43 2405)">
                <tspan x="0" y="0">Step1</tspan>
            </text>
        </g>
    </g>
</svg>
