<svg xmlns="http://www.w3.org/2000/svg" width="112" height="72" viewBox="0 0 112 72">
    <defs>
        <style>
            .prefix__cls-4{fill:#333}
        </style>
    </defs>
    <g id="prefix__그룹_23627" data-name="그룹 23627" transform="translate(-148 -3317)">
        <path id="prefix__패스_19325" fill="rgba(255,255,255,0.4)" d="M4 0h104a4 4 0 0 1 4 4v64a4 4 0 0 1-4 4H4a4 4 0 0 1-4-4V4a4 4 0 0 1 4-4z" data-name="패스 19325" opacity="0.997" transform="translate(148 3317)"/>
        <g id="prefix__그룹_23409" data-name="그룹 23409" transform="translate(11766 5876)">
            <g id="prefix__ico_tooltip" transform="translate(-11569.097 -2540)">
                <path id="prefix__click_area" fill="rgba(255,255,255,0)" d="M0 0H13V13H0z" transform="translate(.097)"/>
                <path id="prefix__ico_tooltip-2" fill="#767676" d="M0 6.184a6.184 6.184 0 1 1 6.184 6.185A6.191 6.191 0 0 1 0 6.184zm.846 0A5.338 5.338 0 1 0 6.184.847 5.343 5.343 0 0 0 .846 6.184zm4.378 3.3a.423.423 0 1 1 0-.846h.552V5.642h-.529a.423.423 0 0 1 0-.846H6.2a.424.424 0 0 1 .425.423v3.416h.554a.423.423 0 1 1 0 .846zm.182-6.087a.719.719 0 1 1 .72.72.719.719 0 0 1-.72-.723z" data-name="ico_tooltip" transform="translate(.412 .411)"/>
            </g>
            <g id="prefix__tooltip_h32" transform="translate(-11627 -2528.875)">
                <g id="prefix__구성_요소_163_8" data-name="구성 요소 163 – 8" transform="translate(27 3.876)">
                    <path id="prefix__container" d="M0 0H76V14H0z" class="prefix__cls-4" transform="translate(0 5)"/>
                    <path id="prefix__합치기_52" d="M11848.863 2505.795H11843l5.864-8.794 5.863 8.794z" class="prefix__cls-4" data-name="합치기 52" transform="translate(-11811.362 -2497)"/>
                    <text id="prefix__Information_Tooltip" fill="#fff" data-name="Information Tooltip" font-family="NotoSansCJKkr-Regular, Noto Sans CJK KR" font-size="7px" transform="translate(37.999 15)">
                        <tspan x="-31.759" y="0">Information Tooltip</tspan>
                    </text>
                </g>
            </g>
        </g>
    </g>
</svg>
