<svg xmlns="http://www.w3.org/2000/svg" width="112" height="72" viewBox="0 0 112 72">
    <defs>
        <style>
            .prefix__cls-2{fill:#767676}
        </style>
    </defs>
    <g id="prefix__그룹_23626" data-name="그룹 23626" transform="translate(-32 -3317)">
        <path id="prefix__패스_19324" fill="rgba(255,255,255,0.4)" d="M4 0h104a4 4 0 0 1 4 4v64a4 4 0 0 1-4 4H4a4 4 0 0 1-4-4V4a4 4 0 0 1 4-4z" data-name="패스 19324" opacity="0.997" transform="translate(32 3317)"/>
        <g id="prefix__Label_Tootip" data-name="Label Tootip" transform="translate(-1050 -10476)">
            <g id="prefix__Ico_menu" transform="translate(1133.179 13815)">
                <rect id="prefix__사각형_4123" width="4.576" height="4.577" class="prefix__cls-2" data-name="사각형 4123" rx="1"/>
                <rect id="prefix__사각형_4124" width="4.576" height="4.577" class="prefix__cls-2" data-name="사각형 4124" rx="1" transform="translate(5.708)"/>
                <rect id="prefix__사각형_4125" width="4.576" height="4.577" class="prefix__cls-2" data-name="사각형 4125" rx="1" transform="translate(0 5.707)"/>
                <rect id="prefix__사각형_4126" width="4.576" height="4.577" class="prefix__cls-2" data-name="사각형 4126" rx="1" transform="translate(5.708 5.707)"/>
            </g>
            <g id="prefix__tooltip" transform="translate(1105 13829.223)">
                <path id="prefix__사각형_4121" fill="#333" d="M0 0H54V14H0z" data-name="사각형 4121" transform="translate(6 -.223)"/>
                <text id="prefix__Label_Tooltip" fill="#fff" data-name="Label Tooltip" font-family="NotoSansCJKkr-Regular, Noto Sans CJK KR" font-size="7px" transform="translate(33 9.777)">
                    <tspan x="-21.284" y="0">Label Tooltip</tspan>
                </text>
            </g>
        </g>
    </g>
</svg>
