<svg id="레이어_2" data-name="레이어 2" xmlns="http://www.w3.org/2000/svg" width="30" height="30" viewBox="0 0 30 30"><title>대지 1</title><path d="M25.4,21.2H23.9V14A8.3,8.3,0,1,0,7.3,14v7.1H5.8V14a9.8,9.8,0,1,1,19.6,0Z"/><path d="M27.5,26.9H3.6a.8.8,0,0,1-.7-.7v-4a1.8,1.8,0,0,1,1.8-1.7H26.5a1.8,1.8,0,0,1,1.8,1.8v4A.8.8,0,0,1,27.5,26.9ZM4.4,25.4H26.7V22.2a.3.3,0,0,0-.2-.2H4.6a.3.3,0,0,0-.2.3Z"/><path d="M9.4,14.6a.8.8,0,0,1-.7-.7,6.6,6.6,0,0,1,5.3-6.5.7.7,0,0,1,.3,1.5,5.1,5.1,0,0,0-4.1,5A.8.8,0,0,1,9.4,14.6Z"/></svg>