<svg id="레이어_2" data-name="레이어 2" xmlns="http://www.w3.org/2000/svg" width="30" height="30" viewBox="0 0 30 30"><title>대지 1</title><path d="M21.3,9.2a.9.9,0,1,1-.9.8.9.9,0,0,1,.9-.8m0-1.5a2.4,2.4,0,1,0,2.4,2.3,2.4,2.4,0,0,0-2.4-2.3Z"/><path d="M29.6,25.5l-3.8-9.7-.5-.7-.4.6,1.2-1.8h0a5.7,5.7,0,1,0-9.6,0H12l1.7-2.6h0a5.7,5.7,0,1,0-9.6,0h.1l1.8,2.7a3.2,3.2,0,0,0-1.8,1.7L.4,25.5a1.3,1.3,0,0,0,1.3,1.9H28.4A1.3,1.3,0,0,0,29.6,25.5ZM21.3,6.6a4.2,4.2,0,0,1,3.6,6.5l-.4.6-3.2,4.8-3.3-5-.3-.4a4.2,4.2,0,0,1,3.5-6.5Zm-16,3.9a4.2,4.2,0,1,1,7.1,0l-.4.6L8.9,16,5.6,11ZM17,25.9H1.8l3.7-9.5a1.7,1.7,0,0,1,1.2-.9l-.3-.5,2.4,3.7h0L11,15.5h6.5l-1-1.5,4.7,7.2h0l3.1-4.8,3.7,9.4H17Z"/><path d="M8.9,6.7a.9.9,0,1,1-.8.8.9.9,0,0,1,.8-.8m0-1.5a2.4,2.4,0,1,0,2.4,2.3A2.3,2.3,0,0,0,8.9,5.2Z"/></svg>