<svg id="레이어_2" data-name="레이어 2" xmlns="http://www.w3.org/2000/svg" width="30" height="30" viewBox="0 0 30 30"><title>대지 1</title><path d="M25.3,28.7h-.1a29.2,29.2,0,0,1-4.3-.5h-.7A25.6,25.6,0,0,1,14,25.5h-.1l-1.3-.8h-.3l-1.1-.8-.3-.3-.4-.4-.6-.5-.7-.6H9l-.2-.2-.3-.2-.6-.6L7.3,20l-.7-.8-.3-.3-.2-.2-.9-1.2v-.2l-.9-1.4A25.7,25.7,0,0,1,1.8,9.6V8.9a27.9,27.9,0,0,1-.4-3.4V4.6A3.2,3.2,0,0,1,4.3,1.3H7.9a3.4,3.4,0,0,1,3.1,2v.3l.3,1.2c.5,1.9,1.4,4.3,1.4,4.3a1.2,1.2,0,0,1,0,.7,1.3,1.3,0,0,1-.3.6l-2.2,2.2,1.1,1.7a18.3,18.3,0,0,0,1.8,2.1h.1a18.4,18.4,0,0,0,3.7,2.9l2.2-2.2a1.2,1.2,0,0,1,1.3-.3l3,1,2.5.7h.4a3.3,3.3,0,0,1,1.9,2.4,3.3,3.3,0,0,1,.1.6v3.6a3.2,3.2,0,0,1-3.2,3.2Zm-4.4-2h.3a27.6,27.6,0,0,0,4,.5A1.7,1.7,0,0,0,27,25.5V21.6a1.8,1.8,0,0,0-1.1-1.4h-.1l-2.6-.7-2.9-.9-2.9,2.9-.5-.3a19.9,19.9,0,0,1-4.7-3.5h-.1a19.9,19.9,0,0,1-1.9-2.2A19.9,19.9,0,0,1,8.7,13l-.3-.5,2.9-2.9C11.1,9,10.4,7,10,5.3L9.7,4A1.9,1.9,0,0,0,7.9,2.8H4.3A1.7,1.7,0,0,0,2.6,4.6v.8a26.4,26.4,0,0,0,.4,3.2h0V9a25.3,25.3,0,0,0,2.4,6l.8,1.4v.2l.8,1.1.4.5.6.8.6.6.5.6.2.2.2.2h.1l.6.6.5.4.5.4.3.2,1,.7.3.2,1.2.8h.1a24.2,24.2,0,0,0,6,2.4Zm6.9-4.7h0ZM11.4,9.7h0Z"/><circle cx="17.4" cy="9.3" r="1"/><circle cx="21.2" cy="9.3" r="1"/><circle cx="24.9" cy="9.3" r="1"/></svg>