<svg id="레이어_2" data-name="레이어 2" xmlns="http://www.w3.org/2000/svg" width="30" height="30" viewBox="0 0 30 30"><title>대지 1</title><path d="M27,24.4H3a1.8,1.8,0,0,1-1.7-1.7V8.6A1.8,1.8,0,0,1,3,6.9H8l.2-.2V6.6L10,4.2a.7.7,0,0,1,.6-.3h8.9a.7.7,0,0,1,.6.3l1.7,2.4H27a1.8,1.8,0,0,1,1.8,1.8v14h0A1.8,1.8,0,0,1,27,24.4ZM3,8.4a.3.3,0,0,0-.2.3v14a.3.3,0,0,0,.3.3H27a.3.3,0,0,0,.3-.2V8.6a.3.3,0,0,0-.2-.2H22l-.8-.2h-.2l-.3-.2-.2-.2L19.1,5.4H11l-1.4,2A1.7,1.7,0,0,1,8,8.4Z"/><path d="M15.3,21.3a5.8,5.8,0,1,1,5.8-5.8A5.8,5.8,0,0,1,15.3,21.3Zm0-10.1a4.3,4.3,0,1,0,4.3,4.3A4.3,4.3,0,0,0,15.3,11.2Z"/><rect x="21" y="9.9" width="4.6" height="1.5"/></svg>