<svg id="레이어_2" data-name="레이어 2" xmlns="http://www.w3.org/2000/svg" width="30" height="30" viewBox="0 0 30 30"><title>대지 1</title><rect x="10.4" y="13.3" width="1.5" height="12.78" transform="translate(-10.6 13.7) rotate(-45)"/><path d="M18.4,4.2l8.2,8.2L12.9,26h-6L1.7,20.9,18.4,4.2m0-1.7a1.1,1.1,0,0,0-.8.3L.4,20.1a1.1,1.1,0,0,0,0,1.5l5.9,5.9h7.3L27.9,13.1a1.1,1.1,0,0,0,0-1.5L19.2,2.8a1.1,1.1,0,0,0-.8-.3Z"/><path d="M25.7,27.5H24.2l-.6-1.6H20.8l-.6,1.6H18.7l2.7-6.9h1.5Zm-2.6-2.7-1-2.6-.9,2.6Z"/><path d="M26.2,27.5V20.6h1.3v6.9Z"/><path d="M28.6,27.5V20.6H30v6.9Z"/></svg>