<svg id="레이어_2" data-name="레이어 2" xmlns="http://www.w3.org/2000/svg" width="30" height="30" viewBox="0 0 30 30"><title>대지 1</title><path d="M16.5,24.3H6A6.7,6.7,0,0,1,3.4,11.9,6.5,6.5,0,0,1,9.8,6.4l1.6.2a7.6,7.6,0,0,1,13.7,4.5c0,.2,0,.3,0,.5a6.5,6.5,0,0,1,4.5,8,.7.7,0,1,1-1.4-.4,5,5,0,0,0-4-6.3h-.7v-.7a6,6,0,0,0-6-7,6,6,0,0,0-5.2,2.9l-.3.5-.6-.2L9.8,7.9a5,5,0,0,0-5,4.5v.4l-.4.2a5.2,5.2,0,0,0,2.3,9.8h9.8a.8.8,0,0,1,0,1.5Z"/><rect x="22.3" y="18.6" width="1.5" height="7.14"/><polygon points="23 26.8 19.8 23.6 20.9 22.5 23 24.6 25.2 22.5 26.2 23.6 23 26.8"/></svg>