<svg id="레이어_2" data-name="레이어 2" xmlns="http://www.w3.org/2000/svg" width="30" height="30" viewBox="0 0 30 30"><defs><style>.cls-1{fill:#010101;}</style></defs><title>대지 1</title><path class="cls-1" d="M25.6,27.3a3.7,3.7,0,0,1-3-5.8L25,17.7a.7.7,0,0,1,.6-.3.7.7,0,0,1,.6.3l2.4,3.7a3.7,3.7,0,0,1-3,5.8Zm0-7.7-1.8,2.7a2.2,2.2,0,1,0,4,1.3,2.2,2.2,0,0,0-.4-1.3h0Z"/><path d="M12.8,28.4a1.5,1.5,0,0,1-1-.4L1.2,17.3a1.5,1.5,0,0,1,0-2.1L12.3,4.1a.7.7,0,0,1,1.1,1.1L2.2,16.3,12.8,26.9,23.4,16.3a.7.7,0,0,1,0-1,.7.7,0,0,1,1.1,0,1.5,1.5,0,0,1,0,2.1L13.9,27.9A1.5,1.5,0,0,1,12.8,28.4Z"/><path d="M23.9,15.8a.7.7,0,0,1,0,1L13.3,27.4a.7.7,0,0,1-1,0L1.7,16.8a.7.7,0,0,1,0-1"/><path d="M23.9,16.5l-.5-.2L10,2.9a.7.7,0,0,1,1.1-1.1L24.5,15.3a.7.7,0,0,1,0,1.1Z"/></svg>