<svg id="레이어_2" data-name="레이어 2" xmlns="http://www.w3.org/2000/svg" width="30" height="30" viewBox="0 0 30 30"><defs><style>.cls-1{fill:#050505;}</style></defs><title>대지 1</title><polygon class="cls-1" points="20 29.1 16.7 25.7 17.7 24.6 20 26.9 26.1 20.9 27.2 21.9 20 29.1"/><path d="M14.8,27.8H5.4a1.3,1.3,0,0,1-1.3-1.3V2.4A1.3,1.3,0,0,1,5.4,1H24.1a1.3,1.3,0,0,1,1.3,1.3V16.5a.7.7,0,0,1-1.5,0V2.5H5.6V26.3h9.2a.8.8,0,0,1,0,1.5Z"/><rect x="9.8" y="8" width="10" height="1.5"/><rect x="9.8" y="12.8" width="5.4" height="1.5"/><rect x="9.8" y="17.6" width="1.9" height="1.5"/></svg>