<svg id="레이어_2" data-name="레이어 2" xmlns="http://www.w3.org/2000/svg" width="30" height="30" viewBox="0 0 30 30"><title>대지 1</title><path d="M28.2,29.3H1.8A1.7,1.7,0,0,1,.1,27.6V4.3A1.7,1.7,0,0,1,1.8,2.6H28.2a1.7,1.7,0,0,1,1.7,1.7V27.6A1.7,1.7,0,0,1,28.2,29.3ZM1.8,4.1a.2.2,0,0,0-.2.2V27.6a.2.2,0,0,0,.2.2H28.2a.2.2,0,0,0,.2-.2V4.3a.2.2,0,0,0-.2-.2Z"/><path d="M25.2,25.3H4.8A1.7,1.7,0,0,1,3,23.6V11.3A1.7,1.7,0,0,1,4.8,9.6H25.2A1.7,1.7,0,0,1,27,11.3V23.6A1.7,1.7,0,0,1,25.2,25.3ZM4.8,11.1c-.2,0-.3.1-.3.2V23.6a.2.2,0,0,0,.3.2H25.2a.2.2,0,0,0,.3-.2V11.3c0-.1-.1-.2-.3-.2Z"/><circle cx="15" cy="6.7" r="0.8"/><path d="M15,19.8h0a3.2,3.2,0,1,1,3.2-3.2h0A3.2,3.2,0,0,1,15,19.8Zm0-4.8a1.7,1.7,0,1,0,0,3.3h0a1.7,1.7,0,0,0,0-3.3Z"/><path d="M11,24.6H9.5V23.1c0-.8.9-4,5.5-4v1.5c-3.7,0-4,2.5-4,2.5Z"/><path d="M19,24.6V23.1s-.3-2.5-4-2.5V19.1c4.6,0,5.5,3.2,5.5,4v1.5Z"/></svg>