<svg id="레이어_2" data-name="레이어 2" xmlns="http://www.w3.org/2000/svg" width="30" height="30" viewBox="0 0 30 30"><title>대지 1</title><path d="M13.9,23.5H3.4a1.5,1.5,0,0,1-1.5-1.5V20.2a4.9,4.9,0,0,1,1.7-4,12.5,12.5,0,0,1,8.9-3.4h0a13.3,13.3,0,0,1,7.4,2.1l-.8,1.2a11.8,11.8,0,0,0-6.5-1.8h0a11,11,0,0,0-7.9,2.9,3.5,3.5,0,0,0-1.3,2.9v1.7H13.9Z"/><path d="M12.7,11.7A5.3,5.3,0,1,1,18,6.4,5.3,5.3,0,0,1,12.7,11.7Zm0-9.1a3.8,3.8,0,1,0,3.8,3.8A3.8,3.8,0,0,0,12.7,2.7Z"/><polygon points="21.2 26.2 17.9 23 19 21.9 21.2 24.1 25.8 19.7 26.9 20.8 21.2 26.2"/></svg>