<svg id="레이어_2" data-name="레이어 2" xmlns="http://www.w3.org/2000/svg" width="30" height="30" viewBox="0 0 30 30"><title>대지 1</title><path d="M26,28.6H5a1.3,1.3,0,0,1-1.3-1.3V2.7A1.3,1.3,0,0,1,5,1.4H26a1.3,1.3,0,0,1,1.3,1.3V27.3A1.3,1.3,0,0,1,26,28.6ZM5.2,27.1H25.8V2.9H5.2Z"/><path d="M6.9,9.8H2A.7.7,0,1,1,2,8.3H6.9a.8.8,0,1,1,0,1.5Z"/><path d="M6.9,21.7H2a.8.8,0,1,1,0-1.5H6.9a.8.8,0,1,1,0,1.5Z"/><path d="M15.5,13.9a3.4,3.4,0,1,1,3.4-3.4A3.4,3.4,0,0,1,15.5,13.9Zm0-5.3a1.9,1.9,0,1,0,1.9,1.9A1.9,1.9,0,0,0,15.5,8.5Z"/><path d="M20.9,22.2H10A1.2,1.2,0,0,1,8.8,21V20a3.2,3.2,0,0,1,1.1-2.6,7.7,7.7,0,0,1,5.5-2.1A7.7,7.7,0,0,1,21,17.4h0A3.2,3.2,0,0,1,22.1,20v1A1.2,1.2,0,0,1,20.9,22.2ZM10.3,20.7H20.6V20a1.8,1.8,0,0,0-.7-1.5h0a6.2,6.2,0,0,0-4.4-1.7A6.2,6.2,0,0,0,11,18.4a1.8,1.8,0,0,0-.7,1.5Z"/></svg>