<svg id="레이어_2" data-name="레이어 2" xmlns="http://www.w3.org/2000/svg" width="30" height="30" viewBox="0 0 30 30"><title>대지 1</title><path d="M27,28.9H3a1.7,1.7,0,0,1-1.7-1.7V3.1A1.7,1.7,0,0,1,3,1.4H27a1.7,1.7,0,0,1,1.7,1.7v24A1.7,1.7,0,0,1,27,28.9ZM3,2.9a.2.2,0,0,0-.2.2v24a.2.2,0,0,0,.2.2H27a.2.2,0,0,0,.2-.2V3.1a.2.2,0,0,0-.2-.2Z"/><rect x="15.1" y="14.2" width="10" height="1.5"/><rect x="5" y="7.3" width="10" height="1.5"/><rect x="5" y="14.2" width="6" height="1.5"/><rect x="19.1" y="7.3" width="6" height="1.5"/><rect x="5" y="21.1" width="6" height="1.5"/><rect x="15.1" y="21.2" width="10" height="1.5"/><rect x="18.4" y="6.1" width="1.5" height="4.03"/><rect x="10.2" y="12.9" width="1.5" height="4.03"/><rect x="14.4" y="19.8" width="1.5" height="4.03"/></svg>