<svg id="레이어_2" data-name="레이어 2" xmlns="http://www.w3.org/2000/svg" width="30" height="30" viewBox="0 0 30 30"><title>대지 1</title><path d="M22.1,0H10.2A2.1,2.1,0,0,0,8.1,2.1V5.5h-4A2.1,2.1,0,0,0,1.9,7.7V27.9A2.1,2.1,0,0,0,4.1,30H19.8a2.1,2.1,0,0,0,2.1-2.1V24.5h4a2.1,2.1,0,0,0,2.1-2.1V6Zm.2,2.3,3.5,3.5H22.3ZM20.4,27.9a.6.6,0,0,1-.6.6H4.1a.6.6,0,0,1-.6-.6V7.7A.6.6,0,0,1,4.1,7h4V22.4a2.1,2.1,0,0,0,2.1,2.1H20.4ZM25.9,23H10.2a.6.6,0,0,1-.6-.6V2.1a.6.6,0,0,1,.6-.6H20.8V7.3h5.8V22.4A.6.6,0,0,1,25.9,23Z"/></svg>