<svg id="레이어_2" data-name="레이어 2" xmlns="http://www.w3.org/2000/svg" width="30" height="30" viewBox="0 0 30 30"><title>대지 1</title><path d="M23.8,26.3H7.6a1.8,1.8,0,0,1-1.7-1.7V22.4H7.4v2.1a.3.3,0,0,0,.3.3H23.8a.3.3,0,0,0,.3-.2V22.4h1.5v2.1A1.8,1.8,0,0,1,23.8,26.3Z"/><path d="M25.6,7H24.1V5a.3.3,0,0,0-.2-.2H7.6a.3.3,0,0,0-.2.3V7H5.9V5A1.8,1.8,0,0,1,7.6,3.2H23.8A1.8,1.8,0,0,1,25.6,5Z"/><polygon points="28.8 21.5 26.7 21.5 26.7 20.3 27.6 20.3 27.6 19.4 28.8 19.4 28.8 21.5"/><path d="M24.7,21.5H21.8V20.3h2.9Zm-4.9,0H16.9V20.3h2.9Zm-4.9,0H11.9V20.3h2.9Zm-4.9,0H7V20.3H10Z"/><polygon points="5.1 21.5 3 21.5 3 19.4 4.2 19.4 4.2 20.3 5.1 20.3 5.1 21.5"/><path d="M4.2,17.9H3V15.5H4.2Zm0-3.9H3V11.6H4.2Z"/><polygon points="4.2 10.1 3 10.1 3 8 5.1 8 5.1 9.2 4.2 9.2 4.2 10.1"/><path d="M24.7,9.2H21.8V8h2.9Zm-4.9,0H16.9V8h2.9Zm-4.9,0H11.9V8h2.9ZM10,9.2H7V8H10Z"/><polygon points="28.8 10.1 27.6 10.1 27.6 9.2 26.7 9.2 26.7 8 28.8 8 28.8 10.1"/><path d="M28.8,17.9H27.6V15.5h1.2Zm0-3.9H27.6V11.6h1.2Z"/></svg>