<svg id="레이어_2" data-name="레이어 2" xmlns="http://www.w3.org/2000/svg" width="30" height="30" viewBox="0 0 30 30"><title>대지 1</title><path d="M15,26.5h-.7v3.3h1.5V26.5Z"/><path d="M15,3.5h.7V.2H14.3V3.5Z"/><path d="M15,5A10,10,0,1,1,5,15,10,10,0,0,1,15,5m0-1.5A11.5,11.5,0,1,0,26.6,15,11.5,11.5,0,0,0,15,3.5Z"/><path d="M15,20.5A5.5,5.5,0,1,1,20.5,15,5.5,5.5,0,0,1,15,20.5ZM15,11a4,4,0,1,0,4,4A4,4,0,0,0,15,11Z"/><path d="M3.5,15c0-.3,0-.5,0-.7H.2v1.5H3.6C3.5,15.5,3.5,15.3,3.5,15Z"/><path d="M26.5,14.3c0,.2,0,.5,0,.8s0,.5,0,.8h3.2V14.3Z"/></svg>