<svg id="레이어_2" data-name="레이어 2" xmlns="http://www.w3.org/2000/svg" width="30" height="30" viewBox="0 0 30 30"><title>대지 1</title><path d="M15,23.1a8.3,8.3,0,1,1,8.3-8.3A8.3,8.3,0,0,1,15,23.1ZM15,8a6.8,6.8,0,1,0,6.8,6.8A6.8,6.8,0,0,0,15,8Z"/><rect x="14.3" y="1.8" width="1.5" height="3.03"/><path d="M15,4.1a.8.8,0,0,1-.7-.7V1.8a.7.7,0,1,1,1.5,0V3.3A.8.8,0,0,1,15,4.1Z"/><rect x="25" y="14" width="3" height="1.5"/><path d="M28,15.5H26.5a.8.8,0,0,1,0-1.5H28a.8.8,0,0,1,0,1.5Z"/><rect x="14.3" y="24.8" width="1.5" height="3.03"/><path d="M15,28.5a.8.8,0,0,1-.7-.7V26.3a.7.7,0,1,1,1.5,0v1.5A.8.8,0,0,1,15,28.5Z"/><rect x="2" y="14" width="3" height="1.5"/><path d="M3.5,15.5H2A.8.8,0,1,1,2,14H3.5a.8.8,0,1,1,0,1.5Z"/><rect x="21.5" y="5.8" width="3" height="1.5" transform="translate(2.1 18.2) rotate(-45)"/><path d="M23,7.3l-.5-.2a.7.7,0,0,1,0-1.1l1.1-1.1A.7.7,0,0,1,24.6,6L23.5,7.1Z"/><rect x="22.5" y="21.3" width="1.5" height="3.03" transform="translate(-9.3 23.1) rotate(-45)"/><path d="M24.3,24.6l-.5-.2-1.1-1.1a.7.7,0,0,1,1.1-1.1l1.1,1.1a.7.7,0,0,1,0,1.1Z"/><rect x="5.5" y="22.3" width="3" height="1.5" transform="translate(-14.2 11.7) rotate(-45)"/><path d="M5.9,24.9l-.5-.2a.7.7,0,0,1,0-1.1l1.1-1.1a.7.7,0,1,1,1.1,1.1L6.5,24.6Z"/><rect x="6" y="5.3" width="1.5" height="3.03" transform="translate(-2.8 6.8) rotate(-45)"/><path d="M6.7,7.6l-.5-.2L5.1,6.3A.8.8,0,0,1,6.2,5.2L7.3,6.3a.8.8,0,0,1,0,1.1Z"/></svg>