<svg id="레이어_2" data-name="레이어 2" xmlns="http://www.w3.org/2000/svg" width="30" height="30" viewBox="0 0 30 30"><title>대지 1</title><path d="M15,11.7a4.8,4.8,0,1,0,4.8,4.8A4.8,4.8,0,0,0,15,11.7Zm0,8a3.3,3.3,0,1,1,3.3-3.2A3.3,3.3,0,0,1,15,19.7Z"/><path d="M29.1,11.3a.8.8,0,0,0-1.1.1l-1.3,1.7a16.3,16.3,0,0,0-4.1-3.7L23.9,7a.7.7,0,0,0-1.3-.7L21.5,8.6a14.2,14.2,0,0,0-5.7-1.5V4.9a.8.8,0,0,0-1.5,0V7.1A14.2,14.2,0,0,0,8.6,8.6L7.4,6.4A.7.7,0,0,0,6.1,7L7.3,9.4a16.3,16.3,0,0,0-4,3.7L1.9,11.4a.8.8,0,1,0-1.2.9l1.6,2.1-.9,1.5-.3.5.3.5c2.8,5.5,8,8.9,13.6,8.9S25.8,22.4,28.6,17l.3-.5-.3-.5-.9-1.6,1.6-2A.8.8,0,0,0,29.1,11.3ZM15,24.3c-5,0-9.6-3-12.2-7.9C5.4,11.6,10.1,8.5,15,8.5s9.6,3,12.2,7.9C24.6,21.3,20,24.3,15,24.3Z"/></svg>