<svg id="레이어_2" data-name="레이어 2" xmlns="http://www.w3.org/2000/svg" width="30" height="30" viewBox="0 0 30 30"><title>대지 1</title><path d="M25.3,28.5H3.7A1.7,1.7,0,0,1,2,26.8v-2c0-2,.2-4.8,2-7a14.6,14.6,0,0,1,10.5-4,14.6,14.6,0,0,1,10.5,4c1.5,1.5,2,5.1,2,7v2A1.7,1.7,0,0,1,25.3,28.5ZM14.5,15.3a13.1,13.1,0,0,0-9.4,3.5c-1.4,1.7-1.6,4.3-1.6,6v2l.2.2H25.3l.2-.2v-2c0-2.1-.6-5-1.6-6h0A13.1,13.1,0,0,0,14.5,15.3Z"/><path d="M14.5,12.6a6.1,6.1,0,1,1,6.1-6.1A6.1,6.1,0,0,1,14.5,12.6Zm0-10.7a4.6,4.6,0,1,0,4.6,4.6A4.6,4.6,0,0,0,14.5,1.8Z"/><circle cx="14.5" cy="23" r="1.9"/><rect x="13.7" y="19.7" width="1.5" height="2.13"/><path d="M14.5,19.9a5.1,5.1,0,0,1-4.9-5.3h1.5a3.6,3.6,0,0,0,3.4,3.8,3.6,3.6,0,0,0,3.4-3.8h1.5A5.1,5.1,0,0,1,14.5,19.9Z"/></svg>