<svg id="레이어_2" data-name="레이어 2" xmlns="http://www.w3.org/2000/svg" width="30" height="30" viewBox="0 0 30 30"><defs><style>.cls-1{fill:#010101;}</style></defs><title>대지 1</title><path d="M19.6,11.1a1,1,0,0,0-1.4.2l-3.1,4-3.1-4a1,1,0,0,0-1.6,1.2L13.8,17l-3.4,4.4a1,1,0,0,0,.2,1.4l.6.2a1,1,0,0,0,.8-.4l3.1-4,3.1,4a1,1,0,0,0,.8.4l.6-.2a1,1,0,0,0,.2-1.4L16.3,17l3.4-4.4A1,1,0,0,0,19.6,11.1Z"/><path class="cls-1" d="M25.1,29.7H5.1a1.8,1.8,0,0,1-1.7-1.7V2.2A1.8,1.8,0,0,1,5.1.4H19.8l7,7V27.9A1.8,1.8,0,0,1,25.1,29.7ZM5.1,1.9a.3.3,0,0,0-.2.3V27.9a.3.3,0,0,0,.3.3h20a.3.3,0,0,0,.3-.2V8.1L19.2,1.9Z"/><polygon class="cls-1" points="26.1 8.5 18.7 8.5 18.7 1.2 20.2 1.2 20.2 7 26.1 7 26.1 8.5"/></svg>