<svg id="레이어_2" data-name="레이어 2" xmlns="http://www.w3.org/2000/svg" width="30" height="30" viewBox="0 0 30 30"><title>대지 1</title><polygon points="10.7 11.4 5.1 11.4 5.1 9.9 9.2 9.9 9.2 5.8 10.7 5.8 10.7 11.4"/><rect x="6.3" y="3.6" width="1.5" height="8.25" transform="translate(-3.4 7.2) rotate(-45)"/><polygon points="19.3 24.2 17.8 24.2 17.8 18.6 23.4 18.6 23.4 20.1 19.3 20.1 19.3 24.2"/><rect x="20.7" y="18.1" width="1.5" height="8.25" transform="translate(-9.4 21.7) rotate(-45)"/><polygon points="23.3 11.4 17.8 11.4 17.8 5.8 19.3 5.8 19.3 9.9 23.3 9.9 23.3 11.4"/><rect x="17.3" y="7" width="8.2" height="1.5" transform="translate(0.8 17.4) rotate(-45)"/><polygon points="10.8 24.2 9.3 24.2 9.3 20.1 5.3 20.1 5.3 18.6 10.8 18.6 10.8 24.2"/><rect x="3" y="21.5" width="8.2" height="1.5" transform="translate(-13.6 11.6) rotate(-45)"/></svg>