<svg id="레이어_2" data-name="레이어 2" xmlns="http://www.w3.org/2000/svg" width="30" height="30" viewBox="0 0 30 30"><title>대지 1</title><path d="M1.2,8.8a.8.8,0,0,1-.7-.7V1.2A.8.8,0,0,1,1.2.4H8.1a.7.7,0,0,1,0,1.5H1.9V8.1A.8.8,0,0,1,1.2,8.8Z"/><path d="M28.8,8.8a.8.8,0,0,1-.7-.7V1.9H21.9a.7.7,0,1,1,0-1.5h6.9a.8.8,0,0,1,.8.8V8.1A.8.8,0,0,1,28.8,8.8Z"/><path d="M8.1,29.6H1.2a.8.8,0,0,1-.7-.7V21.9a.8.8,0,0,1,1.5,0v6.2H8.1a.7.7,0,0,1,0,1.5Z"/><path d="M28.8,29.6H21.9a.8.8,0,0,1,0-1.5h6.2V21.9a.8.8,0,0,1,1.5,0v6.9A.8.8,0,0,1,28.8,29.6Z"/><path d="M25.2,26.1H4.8v-.7c0-.1.1-.7.1-.7h0a6.2,6.2,0,0,1,1.4-2.2A11.7,11.7,0,0,1,15,18.8a11.7,11.7,0,0,1,8.7,3.5A6.2,6.2,0,0,1,25,24.5a3.2,3.2,0,0,1,.2.8ZM6.5,24.6h17a6.1,6.1,0,0,0-.9-1.3,10.2,10.2,0,0,0-7.6-3,10.2,10.2,0,0,0-7.6,3A6.2,6.2,0,0,0,6.5,24.6Z"/><path d="M22.2,12.6a7.6,7.6,0,1,0-14.4,0H2.2v1.5H27.8V12.6Zm-1.6,0H9.4a6.1,6.1,0,1,1,11.2,0Z"/><path d="M17.6,15.7a6,6,0,0,1-5.3,0H9.7a7.6,7.6,0,0,0,10.5,0Z"/></svg>