<svg id="레이어_2" data-name="레이어 2" xmlns="http://www.w3.org/2000/svg" width="30" height="30" viewBox="0 0 30 30"><title>대지 1</title><path d="M6.2,29.2,5.7,29a.9.9,0,0,1-.3-.8l.3-2L6.7,21a18.4,18.4,0,0,0,.3-2L5.6,17.6,1.8,13.9.2,12.4a.8.8,0,0,1-.2-.8.8.8,0,0,1,.6-.5h0l2.1-.3L8.1,10l2-.4L11,7.9l2.4-4.8,1-1.9A.8.8,0,0,1,15,.8a.9.9,0,0,1,.7.4l.9,1.9L19,7.9l1,1.8,1.9.3,5.3.8,2.2.3a.8.8,0,0,1,.6.5.9.9,0,0,1-.2.8h-.1l-1.4,1.4-3.8,3.7L23,19.1c0,.3.1,1,.3,1.9l.9,5.2.4,2.1a.8.8,0,0,1-.3.7.9.9,0,0,1-.8.1l-6.6-3.4-1.9-.9-1.7.9L8.5,28.1l-1.9,1Zm8.6-5.9a7.5,7.5,0,0,1,2.6,1.1l5.3,2.8v-.6l-.9-5.2a21.5,21.5,0,0,1-.3-2.4c0-.2,0-.6,1.9-2.3l3.8-3.7.4-.4H27l-5.3-.8-2.4-.4c-.2-.1-.5-.2-1.6-2.5L15.3,3.8,15,3.2l-.3.6L12.3,8.6a21.1,21.1,0,0,1-1.2,2.2c-.1.1-.4.4-2.9.8L3,12.3H2.4l.4.4,3.8,3.7a19.8,19.8,0,0,1,1.7,1.8c.1.2.3.5-.1,3l-.9,5.2v.6l.6-.3,4.7-2.5,2.2-1.1ZM28.6,11.4h0Z"/></svg>