<svg id="레이어_2" data-name="레이어 2" xmlns="http://www.w3.org/2000/svg" width="30" height="30" viewBox="0 0 30 30"><title>대지 1</title><path d="M6.2,29.2,5.8,29a.9.9,0,0,1-.3-.8l.4-2L6.7,21A18.8,18.8,0,0,0,7,18.9L5.6,17.6,1.8,13.9.2,12.3a.8.8,0,0,1-.1-.7.9.9,0,0,1,.7-.5h1L8.1,10l2-.4L11,7.9l2.4-4.8,1-2A.8.8,0,0,1,15,.8a.9.9,0,0,1,.7.4v.2L19,7.9l1,1.8,1.9.3,5.3.8,2.2.3a.8.8,0,0,1,.6.5.8.8,0,0,1-.2.8h-.1l-4.8,4.6a.8.8,0,1,1-1-1.1l3.8-3.7H27l-5.3-.8-2.4-.4c-.2-.1-.5-.2-1.7-2.5L15,3.2l-.3.6L12.3,8.6a22,22,0,0,1-1.2,2.2c-.1.1-.4.4-2.9.8l-5.9.9.4.4,3.8,3.7a22.7,22.7,0,0,1,1.7,1.8c.1.2.3.5-.1,3l-.9,5.2v.6l.6-.3,6.5-3.4a.7.7,0,1,1,.7,1.3L8.5,28.1l-1.9,1Z"/><rect x="18.1" y="23.1" width="9" height="1.5"/></svg>