<svg id="레이어_2" data-name="레이어 2" xmlns="http://www.w3.org/2000/svg" width="30" height="30" viewBox="0 0 30 30"><title>대지 1</title><path d="M27.4,26.5H2.6A1.8,1.8,0,0,1,.9,24.7V5.3A1.8,1.8,0,0,1,2.6,3.5H27.4a1.8,1.8,0,0,1,1.8,1.8V24.7A1.8,1.8,0,0,1,27.4,26.5ZM2.6,5a.3.3,0,0,0-.2.3V24.7a.3.3,0,0,0,.3.3H27.4a.3.3,0,0,0,.3-.2V5.3a.3.3,0,0,0-.2-.2Z"/><path d="M26.2,20.8H3.8V9H26.2ZM5,19.6H25V10.2H5Z"/><polygon points="6.7 13.9 5.7 13.9 5.7 11 8.6 11 8.6 12 6.7 12 6.7 13.9"/><polygon points="8.6 18.9 5.7 18.9 5.7 16 6.7 16 6.7 17.9 8.6 17.9 8.6 18.9"/><polygon points="24.2 13.9 23.2 13.9 23.2 12 21.3 12 21.3 11 24.2 11 24.2 13.9"/><polygon points="24.2 18.9 21.3 18.9 21.3 17.9 23.2 17.9 23.2 16 24.2 16 24.2 18.9"/></svg>