<svg id="레이어_2" data-name="레이어 2" xmlns="http://www.w3.org/2000/svg" width="30" height="30" viewBox="0 0 30 30"><title>대지 1</title><path d="M23,27.5H21.5c0-.2,0-.4,0-.6.1-2.4.3-6.7-6.9-11.2C9.3,12.3,6.8,8,7,2.8V2.5H8.5v.4c-.1,1.7-.3,6.9,6.9,11.5S23.1,24.5,23,26.9C23,27.1,23,27.3,23,27.5Z"/><path d="M8.5,27.5H7c0-.2,0-.4,0-.6-.1-2.5-.3-7.6,7.6-12.6s7-9.8,6.9-11.5V2.5H23v.3c.3,5.2-2.3,9.5-7.6,12.8-7.1,4.5-7,8.9-6.9,11.2C8.5,27.1,8.5,27.3,8.5,27.5Z"/><rect x="8.4" y="5.2" width="13.3" height="1.5"/><rect x="10.1" y="9.6" width="9.7" height="1.5"/><rect x="8.1" y="23.3" width="13.8" height="1.5"/><rect x="10.1" y="18.9" width="9.7" height="1.5"/></svg>