<svg id="레이어_2" data-name="레이어 2" xmlns="http://www.w3.org/2000/svg" width="30" height="30" viewBox="0 0 30 30"><title>대지 1</title><path d="M29.2,13.8l-1.1-1.4.5-.8a.8.8,0,0,0-1.3-.7A14.3,14.3,0,0,1,15,17.3,14.3,14.3,0,0,1,2.7,10.8a.8.8,0,0,0-1.3.7l.5.7L.7,13.8a.8.8,0,0,0,.1,1.1l.5.2a.8.8,0,0,0,.6-.3l.9-1.2a16,16,0,0,0,4.3,3.4L6,19a.7.7,0,0,0,.3,1h.3a.7.7,0,0,0,.7-.4l1.1-2.2a16.6,16.6,0,0,0,5.8,1.2v2.4a.7.7,0,0,0,1.5,0V18.7a16.6,16.6,0,0,0,5.7-1.2l1.1,2.2a.7.7,0,0,0,.7.4h.3a.7.7,0,0,0,.3-1l-1.1-2.2a16,16,0,0,0,4.4-3.4l.9,1.2a.8.8,0,0,0,.6.3l.5-.2A.8.8,0,0,0,29.2,13.8Z"/></svg>