<svg id="레이어_2" data-name="레이어 2" xmlns="http://www.w3.org/2000/svg" width="30" height="30" viewBox="0 0 30 30"><title>대지 1</title><path d="M7.9,28.1A6.8,6.8,0,0,1,3.1,16.5l4.6-4.6a6.8,6.8,0,0,1,9.6,0A.7.7,0,1,1,16.2,13a5.3,5.3,0,0,0-7.5,0L4.1,17.6a5.3,5.3,0,0,0,7.5,7.5l2.5-2.5a.7.7,0,1,1,1.1,1.1l-2.5,2.5A6.8,6.8,0,0,1,7.9,28.1Z"/><path d="M17.5,20.1a6.8,6.8,0,0,1-4.8-2A.7.7,0,0,1,13.8,17a5.3,5.3,0,0,0,7.5,0l4.6-4.6a5.3,5.3,0,1,0-7.5-7.5L15.9,7.4a.7.7,0,0,1-1.1-1.1l2.5-2.5a6.8,6.8,0,0,1,9.6,9.6l-4.6,4.6A6.8,6.8,0,0,1,17.5,20.1Z"/></svg>