<svg id="레이어_2" data-name="레이어 2" xmlns="http://www.w3.org/2000/svg" width="30" height="30" viewBox="0 0 30 30"><title>대지 1</title><path d="M14.9,14.5h-.4L.7,7.1l.7-1.3,13.5,7.1L28.3,5.8,29,7.1,15.3,14.4Z"/><path d="M20.9,28a3,3,0,0,1-2.1-5.1.7.7,0,0,1,1.1,1.1A1.5,1.5,0,0,0,22,26l3-3a.4.4,0,0,0,0-.6h-.6L23,23.7A.7.7,0,0,1,22,22.7l1.4-1.4a1.9,1.9,0,0,1,1.4-.6h0A1.9,1.9,0,0,1,26.1,24l-3,3A3,3,0,0,1,20.9,28Z"/><path d="M28.5,24.8l-1.1-1.1a2.6,2.6,0,0,0,0-3.7,2.7,2.7,0,0,0-3.7,0l-.4.4-3.5,3.5-1.1-1.1L22.6,19a4.1,4.1,0,1,1,5.8,5.8Z"/><path d="M24.6,28.4l-.5-.2a.7.7,0,0,1,0-1.1l3.4-3.4a.7.7,0,0,1,1.1,1.1l-3.4,3.4Z"/><path d="M14.6,24.7H2.1A1.8,1.8,0,0,1,.4,23V4.5A1.8,1.8,0,0,1,2.1,2.7H27.6a1.8,1.8,0,0,1,1.8,1.8V15.6a.7.7,0,1,1-1.5,0V4.5a.3.3,0,0,0-.2-.2H2.1a.3.3,0,0,0-.3.3V23a.3.3,0,0,0,.3.3H14.6a.8.8,0,0,1,0,1.5Z"/></svg>