<svg id="레이어_2" data-name="레이어 2" xmlns="http://www.w3.org/2000/svg" width="30" height="30" viewBox="0 0 30 30"><title>대지 1</title><path d="M19,22.7l-.5-.2a.7.7,0,0,1,0-1.1L20,19.9A.7.7,0,0,1,21,21l-1.5,1.5Z"/><path d="M15.3,19.1l-.5-.2a.7.7,0,0,1,0-1.1l1.5-1.5a.7.7,0,1,1,1.1,1.1l-1.5,1.5Z"/><path d="M11.7,15.5l-.5-.2a.7.7,0,0,1,0-1.1l1.5-1.5a.7.7,0,0,1,1.1,1.1l-1.5,1.5Z"/><path d="M8.1,11.9l-.5-.2a.7.7,0,0,1,0-1.1L9.1,9a.7.7,0,0,1,1.1,1.1L8.6,11.6Z"/><path d="M15,22.5H8a.8.8,0,0,1-.7-.7V14.7a.7.7,0,0,1,1.3-.5l7.1,7.1a.7.7,0,0,1-.5,1.3ZM8.7,21h4.5L8.7,16.5Z"/><path d="M26.8,27.4H3a.8.8,0,0,1-.7-.7V2.8a.7.7,0,0,1,1.3-.5L27.3,26.1a.7.7,0,0,1-.5,1.3ZM3.7,25.9H25L3.7,4.6Z"/></svg>