<svg id="레이어_2" data-name="레이어 2" xmlns="http://www.w3.org/2000/svg" width="30" height="30" viewBox="0 0 30 30"><defs><style>.cls-1{fill:#020202;}</style></defs><title>대지 1</title><path class="cls-1" d="M27.7,25.3H2.3A1.3,1.3,0,0,1,1,24V6.2A1.3,1.3,0,0,1,2.3,4.9H27.7A1.3,1.3,0,0,1,29,6.2V24A1.3,1.3,0,0,1,27.7,25.3ZM2.5,23.8h25V6.4H2.5Z"/><rect x="18.2" y="10.4" width="6.3" height="1.5"/><rect x="18.2" y="14.1" width="6.3" height="1.5"/><rect x="18.2" y="17.7" width="6.3" height="1.5"/><path d="M10.4,14.4a2.8,2.8,0,1,1,2.8-2.8A2.8,2.8,0,0,1,10.4,14.4Zm0-4.1a1.3,1.3,0,1,0,1.3,1.3A1.3,1.3,0,0,0,10.4,10.3Z"/><path d="M14.6,21H6.3a1.1,1.1,0,0,1-1.1-1.1v-.8A2.7,2.7,0,0,1,6.1,17a6.1,6.1,0,0,1,4.4-1.7A6.1,6.1,0,0,1,14.8,17h0a2.7,2.7,0,0,1,.9,2.1v.8A1.1,1.1,0,0,1,14.6,21ZM6.7,19.5h7.5v-.4a1.2,1.2,0,0,0-.5-1.1h0a4.6,4.6,0,0,0-3.3-1.2A4.6,4.6,0,0,0,7.2,18a1.2,1.2,0,0,0-.5,1.1Z"/></svg>