<svg id="레이어_2" data-name="레이어 2" xmlns="http://www.w3.org/2000/svg" width="30" height="30" viewBox="0 0 30 30"><title>대지 1</title><path d="M24.4,29.3l-.5-.2-5.4-4.4H7.3V23.3H18.7l.5.2L23.6,27v-3a.8.8,0,0,1,.8-.7h4a.2.2,0,0,0,.2-.2V7.3a.2.2,0,0,0-.2-.2h-4V5.6h4a1.7,1.7,0,0,1,1.7,1.7V23.1a1.7,1.7,0,0,1-1.7,1.7H25.1v3.8a.8.8,0,0,1-.4.7Z"/><path d="M5.7,26.1H5.4a.8.8,0,0,1-.4-.7V21.6H1.7A1.7,1.7,0,0,1,0,19.9V4.1A1.7,1.7,0,0,1,1.7,2.3H23.4a1.7,1.7,0,0,1,1.7,1.7V19.9a1.7,1.7,0,0,1-1.7,1.7H11.6L6.2,26ZM1.7,3.8a.2.2,0,0,0-.2.2V19.9a.2.2,0,0,0,.2.2h4a.8.8,0,0,1,.8.8v3l4.4-3.5.5-.2H23.4a.2.2,0,0,0,.2-.2V4.1a.2.2,0,0,0-.2-.2Z"/><circle cx="7.7" cy="11.8" r="1.2"/><circle cx="12.6" cy="11.8" r="1.2"/><circle cx="17.4" cy="11.8" r="1.2"/></svg>