<svg id="레이어_2" data-name="레이어 2" xmlns="http://www.w3.org/2000/svg" width="30" height="30" viewBox="0 0 30 30"><title>대지 1</title><rect x="10.6" y="26.9" width="9" height="1.5"/><rect x="14.3" y="22.8" width="1.5" height="4.83"/><path d="M10.5,16.5V6.8a4.5,4.5,0,1,1,9,0v.7L21,6A6,6,0,0,0,9,6.8V17.9H9Z"/><path d="M21.1,10.6l-1.5,1.5v5.1h0v.4a4.5,4.5,0,0,1-8.3,2.5l-1.1,1.1a6,6,0,0,0,10.8-3.6v-.4h0Z"/><rect x="-1.7" y="14.4" width="34.8" height="1.5" transform="translate(-6.1 15.5) rotate(-45)"/></svg>