<svg id="레이어_2" data-name="레이어 2" xmlns="http://www.w3.org/2000/svg" width="30" height="30" viewBox="0 0 30 30"><title>대지 1</title><path d="M26.8,23.2H3.2A2.3,2.3,0,0,1,.9,21V7.9A2.3,2.3,0,0,1,3.2,5.7H26.8a2.3,2.3,0,0,1,2.3,2.3V21A2.3,2.3,0,0,1,26.8,23.2ZM3.2,7.2a.8.8,0,0,0-.7.8V21a.8.8,0,0,0,.8.8H26.8a.8.8,0,0,0,.8-.7V7.9a.8.8,0,0,0-.7-.7Z"/><path d="M23.5,26.8H6.5a.8.8,0,0,1,0-1.5h17a.8.8,0,1,1,0,1.5Z"/><path d="M12.7,19.3h-.4a.7.7,0,0,1-.4-.6v-8A.8.8,0,0,1,13,9.9l6.9,4a.7.7,0,0,1,0,1.3l-6.9,4Zm.8-7.4v5.4l4.7-2.7Z"/><rect x="14.2" y="22.5" width="1.5" height="3.62"/></svg>