<svg id="레이어_2" data-name="레이어 2" xmlns="http://www.w3.org/2000/svg" width="30" height="30" viewBox="0 0 30 30"><title>대지 1</title><rect x="1.9" y="6" width="14" height="1.5"/><rect x="1.9" y="15.1" width="8" height="1.5"/><rect x="1.9" y="24.2" width="5.6" height="1.5"/><path d="M27.8,5.6a7,7,0,0,0-4.7-2.2.8.8,0,0,0-.7.8V18a4.8,4.8,0,0,0-2.6-1,7.2,7.2,0,0,0-4.4,1.1c-2.9,1.8-4.2,5.2-2.7,7.5a4.7,4.7,0,0,0,4.1,2,7.4,7.4,0,0,0,3.9-1.1,7.2,7.2,0,0,0,3-3.5,5,5,0,0,0,.3-2.3h0V6.7a3.5,3.5,0,0,1,2.3.7c1.1.9,1.7,2.6,1.8,5a.7.7,0,0,0,.7.7h0a.7.7,0,0,0,.7-.7C29.4,12.2,29.9,7.8,27.8,5.6ZM22.1,22.4a5.7,5.7,0,0,1-2.4,2.7c-2.2,1.4-4.9,1.2-5.9-.4s0-4.1,2.3-5.4a5.9,5.9,0,0,1,3.1-.9h.4A3,3,0,0,1,22,19.7,3,3,0,0,1,22.1,22.4Z"/></svg>