<svg id="레이어_2" data-name="레이어 2" xmlns="http://www.w3.org/2000/svg" width="30" height="30" viewBox="0 0 30 30"><title>대지 1</title><path d="M13.4,4.7H13a.7.7,0,0,1-.3-.5,2.7,2.7,0,0,1,0-.4,2.9,2.9,0,0,1,5.8,0,2.5,2.5,0,0,1,0,.4.8.8,0,0,1-.3.5h-.6a7.1,7.1,0,0,0-3.9,0Zm2.1-1.8h1.2a1.4,1.4,0,0,0-2.5,0Z"/><path d="M15.6,28.2a4.1,4.1,0,0,1-4.1-4.1.8.8,0,0,1,1.5,0,2.6,2.6,0,1,0,5.3,0,.7.7,0,0,1,1.5,0A4.1,4.1,0,0,1,15.6,28.2Z"/><path d="M27.3,24.9H3.8a.7.7,0,0,1-.6-1.2l3.6-4.3V11.6a8.8,8.8,0,0,1,17.5-.1h0v7.8l3.6,4.3a.7.7,0,0,1-.6,1.2ZM5.4,23.4H25.7L23,20.1a.7.7,0,0,1-.2-.5V11.7h0a7.3,7.3,0,0,0-14.5,0v8a.8.8,0,0,1-.2.5Z"/></svg>