<svg id="레이어_2" data-name="레이어 2" xmlns="http://www.w3.org/2000/svg" width="30" height="30" viewBox="0 0 30 30"><title>대지 1</title><path d="M26.2,26.9h-.4L13.1,20a.7.7,0,0,1-.4-.7V9.8a.7.7,0,0,1,.4-.7L25.8,2.3a.7.7,0,0,1,1.1.7V26.1a.7.7,0,0,1-.4.6Zm-12-8,11.2,6V4.3l-11.2,6Z"/><path d="M8.8,26H6.9a1.8,1.8,0,0,1-1.7-1.7V20.1H3.5a1.8,1.8,0,0,1-1.7-1.7V10.8A1.8,1.8,0,0,1,3.5,9H14.2V20.1H10.5v4.1A1.8,1.8,0,0,1,8.8,26ZM3.5,10.5a.3.3,0,0,0-.2.3v7.6a.3.3,0,0,0,.3.3H6.6v5.6a.3.3,0,0,0,.3.3H8.8a.3.3,0,0,0,.3-.2V18.6h3.7V10.5Z"/></svg>