<svg id="레이어_2" data-name="레이어 2" xmlns="http://www.w3.org/2000/svg" width="30" height="30" viewBox="0 0 30 30"><defs><style>.cls-1{fill:#010101;}</style></defs><title>대지 1</title><path class="cls-1" d="M2.5,25.2H1V7A1.7,1.7,0,0,1,2.7,5.4h7.9a2.4,2.4,0,0,1,2.1,1.3l1.3,2H25.3a1.7,1.7,0,0,1,1.7,1.7v1.9H25.4V10.3l-.2-.2H13.1L11.4,7.4c-.3-.4-.5-.6-.8-.6H2.7L2.5,7Z"/><path class="cls-1" d="M23.7,26.6H2.5a1.4,1.4,0,0,1-1.2-.5,1.5,1.5,0,0,1-.2-1.3l3.4-12a2,2,0,0,1,1.9-1.4H27.6a1.4,1.4,0,0,1,1.2.5,1.5,1.5,0,0,1,.2,1.3l-3.4,12A2,2,0,0,1,23.7,26.6ZM2.6,25.1H23.7a.5.5,0,0,0,.4-.4h0l3.4-11.9H6.3a.5.5,0,0,0-.4.4Z"/></svg>