<svg id="레이어_2" data-name="레이어 2" xmlns="http://www.w3.org/2000/svg" width="30" height="30" viewBox="0 0 30 30"><title>대지 1</title><path d="M25.5,28.8h-.1a29.2,29.2,0,0,1-4.3-.5h-.7a25.6,25.6,0,0,1-6.3-2.5H14l-1.3-.8h-.3l-1.1-.8-.3-.3-.4-.4-.6-.5L9.3,22H9.1l-.2-.2-.3-.2-.6-.6-.6-.7-.7-.8L6.6,19l-.2-.2-.9-1.2v-.2L4.6,16A25.7,25.7,0,0,1,2,9.7V9a27.9,27.9,0,0,1-.4-3.4V4.7A3.2,3.2,0,0,1,4.5,1.5H8.1a3.4,3.4,0,0,1,3.1,2v.3L11.6,5C12.1,6.9,13,9.3,13,9.4a1.2,1.2,0,0,1,0,.7,1.3,1.3,0,0,1-.3.6l-2.2,2.2,1.1,1.7a18.3,18.3,0,0,0,1.8,2.1h.1a18.4,18.4,0,0,0,3.7,2.9l2.2-2.2a1.2,1.2,0,0,1,1.3-.3l3,1,2.5.7h.4a3.3,3.3,0,0,1,1.9,2.4,3.3,3.3,0,0,1,.1.6v3.6a3.2,3.2,0,0,1-3.2,3.2Zm-4.4-2h.3a27.6,27.6,0,0,0,4,.5,1.7,1.7,0,0,0,1.7-1.7V21.7A1.8,1.8,0,0,0,26,20.3h-.1l-2.6-.7-2.9-.9-2.9,2.9-.5-.3a19.9,19.9,0,0,1-4.7-3.5h-.1a19.9,19.9,0,0,1-1.9-2.2,19.9,19.9,0,0,1-1.5-2.4l-.3-.5,2.9-2.9c-.2-.6-.9-2.6-1.4-4.3L9.8,4.2A1.9,1.9,0,0,0,8.1,3H4.5A1.7,1.7,0,0,0,2.8,4.7v.8a26.4,26.4,0,0,0,.4,3.2h0v.3a25.3,25.3,0,0,0,2.4,6l.8,1.4v.2l.8,1.1.4.5.6.8.6.6.5.6.2.2.2.2h.1l.6.6.5.4.5.4.3.2,1,.7.3.2,1.2.8h.1a24.2,24.2,0,0,0,6,2.4ZM27.9,22h0ZM11.5,9.9h0Z"/><rect x="17.1" y="8.7" width="10.9" height="1.5"/><polygon points="24.5 13.9 23.4 12.8 26.8 9.4 23.4 6 24.5 5 29 9.4 24.5 13.9"/></svg>