<svg id="레이어_2" data-name="레이어 2" xmlns="http://www.w3.org/2000/svg" width="30" height="30" viewBox="0 0 30 30"><title>대지 1</title><path d="M25.5,28.8H3.9a1.7,1.7,0,0,1-1.7-1.7v-2c0-2,.2-4.8,2-7a14.6,14.6,0,0,1,10.5-4,14.6,14.6,0,0,1,10.5,4c1.5,1.5,2,5.1,2,7v2A1.7,1.7,0,0,1,25.5,28.8ZM14.7,15.6a13.1,13.1,0,0,0-9.4,3.5c-1.4,1.7-1.6,4.3-1.6,6v2l.2.2H25.5l.2-.2v-2c0-2.1-.6-5-1.6-6h0A13.1,13.1,0,0,0,14.7,15.6Z"/><path d="M14.5,12.9a6.1,6.1,0,1,1,6.1-6.1A6.1,6.1,0,0,1,14.5,12.9Zm0-10.7a4.6,4.6,0,1,0,4.6,4.6A4.6,4.6,0,0,0,14.5,2.1Z"/><rect x="14.7" y="0.2" width="1.5" height="10.3" transform="translate(3.1 16) rotate(-59.8)"/><path d="M18.4,28.8H10.6a3.6,3.6,0,0,1,0-7.2h6.1v1.5H10.6a2.1,2.1,0,0,0,0,4.2h7.7Z"/><rect x="9.7" y="21.5" width="14.4" height="1.5" transform="translate(-11 22.9) rotate(-54.1)"/><rect x="17.2" y="22" width="10.3" height="1.5" transform="translate(-4.3 40.3) rotate(-79)"/></svg>