<svg id="레이어_2" data-name="레이어 2" xmlns="http://www.w3.org/2000/svg" width="30" height="30" viewBox="0 0 30 30"><defs><style>.cls-1{fill:#010101;}</style></defs><title>대지 1</title><path class="cls-1" d="M25.6,29.3H5.6a1.8,1.8,0,0,1-1.7-1.7V1.8A1.8,1.8,0,0,1,5.6,0H20.3l7,7V27.5A1.8,1.8,0,0,1,25.6,29.3ZM5.6,1.5a.3.3,0,0,0-.2.3V27.5a.3.3,0,0,0,.3.3h20a.3.3,0,0,0,.3-.2V7.7L19.7,1.5Z"/><polygon class="cls-1" points="26.6 8.1 19.3 8.1 19.3 0.8 20.8 0.8 20.8 6.6 26.6 6.6 26.6 8.1"/><path d="M20.9,16.9H20l-1.3.2-.9.2-.8-.9-1.1-1.7.4-1a5.4,5.4,0,0,0,.4-1.6,2,2,0,0,0-1.6-2.4h-.3a1.8,1.8,0,0,0-1.3.6,2.3,2.3,0,0,0-.5,1.8,4.7,4.7,0,0,0,.6,1.9l.6,1.1-.2.5-.5,1.3L12.8,18l-.2.5-1.1.3-1.3.5a2.4,2.4,0,0,0-1.2,1.4,2,2,0,0,0,.2,1.5,1.8,1.8,0,0,0,1.6.9,2.3,2.3,0,0,0,1.8-.9,5.2,5.2,0,0,0,.8-1.5l.4-1,2.9-.7h.7l.5.5.5.5a2.8,2.8,0,0,0,1.8.7,2,2,0,0,0,2-1.6A1.9,1.9,0,0,0,20.9,16.9Zm-6-6.1h.1c.3,0,.4.5.3.8a4.2,4.2,0,0,1-.3,1.2,3.5,3.5,0,0,1-.4-1.3C14.5,11,14.6,10.8,14.9,10.8ZM11.5,21.3a.8.8,0,0,1-.6.3l-.3-.2c-.2-.3,0-.6.4-.8l1-.4A3.8,3.8,0,0,1,11.5,21.3Zm3-3.3.4-1,.3-.7h0v-.2l.6.9.4.5Zm5.7,1a1.3,1.3,0,0,1-.8-.3l-.4-.3h1.4C20.8,18.4,20.7,19,20.2,19Z"/></svg>