<svg id="레이어_2" data-name="레이어 2" xmlns="http://www.w3.org/2000/svg" width="30" height="30" viewBox="0 0 30 30"><defs><style>.cls-1{fill:#010101;}</style></defs><title>대지 1</title><path class="cls-1" d="M25.5,29.3H5.5a1.8,1.8,0,0,1-1.7-1.7V1.8A1.8,1.8,0,0,1,5.5.1H20.2l7,7V27.6A1.8,1.8,0,0,1,25.5,29.3ZM5.5,1.6a.3.3,0,0,0-.2.3V27.6a.3.3,0,0,0,.3.3h20a.3.3,0,0,0,.3-.2V7.7L19.5,1.6Z"/><polygon class="cls-1" points="26.5 8.2 19.1 8.2 19.1 0.8 20.6 0.8 20.6 6.7 26.5 6.7 26.5 8.2"/><path d="M15.5,10.8H12.6a1,1,0,0,0-1,1v9.9a1,1,0,0,0,2,0V18.4h1.9a3.8,3.8,0,1,0,0-7.5Zm0,5.5H13.6V12.8h1.9a1.8,1.8,0,1,1,0,3.6Z"/></svg>