<svg id="레이어_2" data-name="레이어 2" xmlns="http://www.w3.org/2000/svg" width="30" height="30" viewBox="0 0 30 30"><title>대지 1</title><path d="M23.3,27H6.7a.7.7,0,0,1-.7-.5L2.5,13.9a.8.8,0,0,1,1.3-.6A7.1,7.1,0,0,0,9.6,16c3.4,0,4.7-7.5,4.7-9.1a.8.8,0,0,1,1.5,0c0,1.6,1.2,9.1,4.7,9.1a7.1,7.1,0,0,0,5.7-2.8.8.8,0,0,1,1.3.6L24,26.5A.7.7,0,0,1,23.3,27ZM7.3,25.5H22.7L25.3,16a8.7,8.7,0,0,1-4.9,1.5c-3,0-4.6-3.2-5.4-6.2-.8,2.9-2.4,6.2-5.4,6.2A8.7,8.7,0,0,1,4.7,16Z"/><path d="M15,7.7a2.3,2.3,0,1,1,2.3-2.3A2.3,2.3,0,0,1,15,7.7Zm0-3.2a.8.8,0,1,0,.8.8A.8.8,0,0,0,15,4.5Z"/><path d="M26.9,14.2a2.3,2.3,0,1,1,2.3-2.3A2.3,2.3,0,0,1,26.9,14.2Zm0-3.2a.8.8,0,1,0,.8.8A.8.8,0,0,0,26.9,11Z"/><path d="M3.1,14.2a2.3,2.3,0,1,1,2.3-2.3A2.3,2.3,0,0,1,3.1,14.2Zm0-3.2a.8.8,0,1,0,.8.8A.8.8,0,0,0,3.1,11Z"/><rect x="5.4" y="22.5" width="19.2" height="1.5"/></svg>