<svg id="레이어_2" data-name="레이어 2" xmlns="http://www.w3.org/2000/svg" width="30" height="30" viewBox="0 0 30 30"><title>대지 1</title><path d="M21.3,7.9H8.7A1.3,1.3,0,0,1,7.4,6.6V1.7A1.3,1.3,0,0,1,8.7.4H21.3a1.3,1.3,0,0,1,1.3,1.3V6.6A1.3,1.3,0,0,1,21.3,7.9ZM8.9,6.4H21.1V1.9H8.9Z"/><path d="M27.8,23.9H24.4V22.4h3.2V7.9H2.4V22.4H5.6v1.5H2.2A1.3,1.3,0,0,1,.9,22.6V7.7A1.3,1.3,0,0,1,2.2,6.4H27.8a1.3,1.3,0,0,1,1.3,1.3V22.6A1.3,1.3,0,0,1,27.8,23.9Z"/><rect x="22" y="10.3" width="3.4" height="1.5"/><path d="M23.6,29.5H6.4a1.3,1.3,0,0,1-1.3-1.3V16.4A1.3,1.3,0,0,1,6.4,15H23.6a1.3,1.3,0,0,1,1.3,1.3V28.1A1.3,1.3,0,0,1,23.6,29.5ZM6.6,28H23.4V16.5H6.6Z"/><rect x="10.8" y="23.4" width="8.5" height="1.5"/><rect x="10.8" y="19.6" width="8.5" height="1.5"/></svg>