<svg id="레이어_2" data-name="레이어 2" xmlns="http://www.w3.org/2000/svg" width="30" height="30" viewBox="0 0 30 30"><title>대지 1</title><path d="M26.6,29.7H3.1A1.7,1.7,0,0,1,1.4,28V8.3A1.7,1.7,0,0,1,3.1,6.6H26.6a1.7,1.7,0,0,1,1.7,1.7V28A1.7,1.7,0,0,1,26.6,29.7ZM3.1,8.1a.2.2,0,0,0-.2.2V28a.2.2,0,0,0,.2.2H26.6a.2.2,0,0,0,.2-.2V8.3a.2.2,0,0,0-.2-.2Z"/><path d="M27.6,18.9H2.1a.8.8,0,1,1,0-1.5H27.6a.8.8,0,0,1,0,1.5Z"/><path d="M14.8,29.7a.8.8,0,0,1-.7-.7V7.3a.8.8,0,1,1,1.5,0V29A.8.8,0,0,1,14.8,29.7Z"/><path d="M17.9,8.1H13.8L15.5,3A3.8,3.8,0,0,1,17,1a3.9,3.9,0,1,1,2.2,7.1ZM15.9,6.6h3.3a2.4,2.4,0,0,0,1.5-.4h0a2.4,2.4,0,1,0-3.7-2.7Z"/><path d="M11.8,8.1H10.6a3.9,3.9,0,0,1-2.4-.7h0a3.9,3.9,0,0,1-.9-5.5A3.9,3.9,0,0,1,14.2,3l1.7,5ZM10.5,6.6h3.3L12.8,3.5a2.4,2.4,0,0,0-.9-1.3A2.4,2.4,0,0,0,8.1,4.6a2.4,2.4,0,0,0,1,1.6h0A2.4,2.4,0,0,0,10.5,6.6Z"/></svg>