<svg id="레이어_2" data-name="레이어 2" xmlns="http://www.w3.org/2000/svg" width="30" height="30" viewBox="0 0 30 30"><defs><style>.cls-1{fill:#020202;}</style></defs><title>대지 1</title><path class="cls-1" d="M26.2,8.7H21.9a.7.7,0,0,1,0-1.5h4.3a1.8,1.8,0,0,0,1.6-2,1.8,1.8,0,0,0-1.6-2H3.8a1.8,1.8,0,0,0-1.6,2,1.8,1.8,0,0,0,1.6,2H6.7a.7.7,0,1,1,0,1.5H3.8A3.3,3.3,0,0,1,.8,5.2,3.3,3.3,0,0,1,3.8,1.7H26.2a3.3,3.3,0,0,1,3.1,3.5A3.3,3.3,0,0,1,26.2,8.7Z"/><path d="M6.7,28.6H6.4a.8.8,0,0,1-.5-.7V6.9A2.8,2.8,0,0,1,8.7,4.1H23.9a.8.8,0,0,1,0,1.5,1.3,1.3,0,0,0-1.3,1.3v21a.7.7,0,0,1-1.3.5L20,27l-1.4,1.4a.8.8,0,0,1-1.1,0L16.2,27l-1.4,1.4a.8.8,0,0,1-1.1,0L12.4,27,11,28.4a.7.7,0,0,1-1.1,0L8.6,27,7.2,28.4Zm9.5-3.4.5.2,1.4,1.4,1.4-1.4a.8.8,0,0,1,1.1,0l.6.6V6.9a2.7,2.7,0,0,1,.3-1.3H8.7A1.3,1.3,0,0,0,7.4,6.9V26l.6-.6a.8.8,0,0,1,1.1,0l1.4,1.4,1.4-1.4a.8.8,0,0,1,1.1,0l1.4,1.4,1.4-1.4Z"/><path d="M15,13.9H13.2a.5.5,0,0,1,0-1H15a.5.5,0,0,1,0,1Z"/><path d="M11.4,17.4a.5.5,0,0,1-.5-.5V15.2a.5.5,0,0,1,1,0v1.7A.5.5,0,0,1,11.4,17.4Z"/><path d="M13.7,15.7H9.2V11.1h4.6Zm-3.6-1h2.6V12.1H10.2Z"/><path d="M19.2,15.7H14.6V11.1h4.6Zm-3.6-1h2.6V12.1H15.6Z"/><path d="M13.7,21.1H9.2V16.5h4.6Zm-3.6-1h2.6V17.5H10.2Z"/><rect x="10.9" y="13" width="0.9" height="0.94"/><rect x="10.9" y="18.3" width="0.9" height="0.94"/><rect x="16.3" y="13" width="0.9" height="0.94"/><rect x="14.6" y="16.6" width="1.1" height="1.09"/><rect x="15.7" y="17.7" width="1.1" height="1.09"/><rect x="16.8" y="16.6" width="1.1" height="1.09"/><rect x="15.7" y="18.8" width="1.1" height="1.09"/><rect x="17.9" y="19.9" width="1.1" height="1.09"/><rect x="14.6" y="19.9" width="1.1" height="1.09"/></svg>