<svg id="레이어_2" data-name="레이어 2" xmlns="http://www.w3.org/2000/svg" width="30" height="30" viewBox="0 0 30 30"><title>대지 1</title><path d="M14.3,21.2v6.7a.7.7,0,1,0,1.5,0V21.2Z"/><path d="M19.5,21.2v5.5a.7.7,0,0,0,1.5,0V21.2Z"/><path d="M9.1,21.2v4.3a.7.7,0,1,0,1.5,0V21.2Z"/><path d="M24.1,19.3H5.9A5.3,5.3,0,0,1,4.8,8.8a5.5,5.5,0,0,1,5.2-4,5.4,5.4,0,0,1,1.9.4A6.6,6.6,0,0,1,24.8,7.5a6.5,6.5,0,0,1-.1,1.2,5.3,5.3,0,0,1-.6,10.7ZM10,6.3A4,4,0,0,0,6.1,9.6v.5H5.5a3.8,3.8,0,0,0,.4,7.6H24.1a3.8,3.8,0,0,0,0-7.7H22.7l.3-1a5.1,5.1,0,1,0-9.9-2.7l-.2,1L12,6.9A3.9,3.9,0,0,0,10,6.3Z"/></svg>