<svg id="레이어_2" data-name="레이어 2" xmlns="http://www.w3.org/2000/svg" width="30" height="30" viewBox="0 0 30 30"><title>대지 1</title><path d="M18,28.9a1.4,1.4,0,0,1-.9-.3l-2.3-2.1-2.4,2.1a1.4,1.4,0,0,1-1.9-.1l-1.9-2-2.3,2a1,1,0,0,1-1.1.2,1,1,0,0,1-.6-1V2.2A1.3,1.3,0,0,1,5.9.8H23.8a1.3,1.3,0,0,1,1.3,1.3V27.8a1,1,0,0,1-1.7.8l-2.4-2.1-2.2,2A1.4,1.4,0,0,1,18,28.9Zm5.7-1.1ZM14.7,25a1.4,1.4,0,0,1,.9.3l2.3,2,2.2-2a1.4,1.4,0,0,1,1.8,0l1.6,1.4V2.3H6.1V26.8l1.6-1.4a1.4,1.4,0,0,1,1.9.1l1.9,2,2.3-2A1.4,1.4,0,0,1,14.7,25Z"/><rect x="9.5" y="9.1" width="6.7" height="1.5"/><rect x="9.5" y="13.1" width="6.7" height="1.5"/><rect x="9.5" y="17.1" width="4" height="1.5"/><rect x="19" y="9.1" width="1.5" height="1.5"/><rect x="19" y="13.1" width="1.5" height="1.5"/><rect x="19" y="17.1" width="1.5" height="1.5"/></svg>