<svg id="레이어_2" data-name="레이어 2" xmlns="http://www.w3.org/2000/svg" width="30" height="30" viewBox="0 0 30 30"><title>대지 1</title><path d="M12.2,20.1h0a.8.8,0,0,1-.7-.6l-2-8.6a.8.8,0,0,1,1.5-.3l1.4,6.1,1.8-5.1a.7.7,0,0,1,1.4.5l-2.6,7.5A.7.7,0,0,1,12.2,20.1Z"/><path d="M17.4,20.1a.8.8,0,0,1-.7-.5L14.1,12a.7.7,0,1,1,1.4-.5l1.8,5.1,1.4-6.1a.8.8,0,0,1,1.5.3l-2,8.6a.8.8,0,0,1-.7.6Z"/><path d="M10.6,15H9.1a.8.8,0,0,1,0-1.5h1.5a.8.8,0,0,1,0,1.5Z"/><path d="M20.5,15H19a.8.8,0,0,1,0-1.5h1.5a.8.8,0,0,1,0,1.5Z"/><path d="M14.8,29.3a14.3,14.3,0,1,1,13.5-9.7.7.7,0,0,1-1.4-.5,12.8,12.8,0,1,0-8,8,.7.7,0,1,1,.5,1.4A14.2,14.2,0,0,1,14.8,29.3Z"/><rect x="20.6" y="23.4" width="6.7" height="1.5"/><polygon points="25.3 27.2 24.3 26.1 26.2 24.1 24.3 22.1 25.3 21.1 28.4 24.1 25.3 27.2"/></svg>