<svg id="레이어_2" data-name="레이어 2" xmlns="http://www.w3.org/2000/svg" width="30" height="30" viewBox="0 0 30 30"><title>대지 1</title><path d="M4.7,29.9a4.6,4.6,0,0,1-3.2-7.8l9.2-9.2A9.9,9.9,0,0,1,23.4.7a.8.8,0,0,1,.3,1.2L19.9,5.7a3.1,3.1,0,0,0,4.4,4.4l3.8-3.8a.8.8,0,0,1,1.2.3A9.9,9.9,0,0,1,17.1,19.4L7.9,28.6A4.6,4.6,0,0,1,4.7,29.9ZM20.1,1.6a8.4,8.4,0,0,0-7.9,11.2.8.8,0,0,1-.2.8L2.5,23.1a3.1,3.1,0,0,0,4.4,4.4L16.4,18a.8.8,0,0,1,.8-.2A8.4,8.4,0,0,0,28.2,8.3l-2.9,2.9h0a4.6,4.6,0,0,1-6.5-6.5l2.9-2.9Zm4.8,9h0Z"/></svg>