<svg id="레이어_2" data-name="레이어 2" xmlns="http://www.w3.org/2000/svg" width="30" height="30" viewBox="0 0 30 30"><title>대지 1</title><polygon points="21.6 29.9 18 26.3 21.6 22.7 22.6 23.7 20.1 26.3 22.6 28.8 21.6 29.9"/><rect x="19" y="25.5" width="9.4" height="1.5"/><path d="M14.7,27.2H2.2A1.8,1.8,0,0,1,.5,25.4V6.9a.7.7,0,0,1,.4-.7L14.8.1h.6L29.1,6.2a.7.7,0,0,1,.4.7V18.1a.8.8,0,0,1-1.5,0V7.4L15.1,1.6,2,7.4v18a.3.3,0,0,0,.3.3H14.7a.7.7,0,0,1,0,1.5Z"/><path d="M15.1,13.6H8.2L.9,9.5a.8.8,0,0,1,.7-1.3l7.1,4h6.3a.8.8,0,0,1,0,1.5Z"/><path d="M21.4,13.6H14.9a.8.8,0,0,1,0-1.5h6.4l7.1-4a.8.8,0,0,1,.7,1.3l-7.3,4.1Z"/></svg>