<svg id="레이어_2" data-name="레이어 2" xmlns="http://www.w3.org/2000/svg" width="30" height="30" viewBox="0 0 30 30"><title>대지 1</title><path d="M27.7,19.5l-6-6,.6-.6a1,1,0,0,0,0-1.4L18.5,7.7a1,1,0,0,0-1.4,0l-.6.6-6-6a1,1,0,0,0-1.4,0L4.8,6.5a1,1,0,0,0,0,1.4l6,6-.7.7H9.4a6,6,0,0,0-4.2,1.8.7.7,0,0,0,0,1.1l3.2,3.2-1,1a.8.8,0,0,0,0,1.1l.5.2.5-.2,1-1,3.2,3.2.5.2.5-.2a6,6,0,0,0,1.8-4.2,5.7,5.7,0,0,0-.1-.7l.7-.7,6,6a1,1,0,0,0,1.4,0l4.2-4.2A1,1,0,0,0,27.7,19.5ZM6.2,7.2,9.8,3.7l5.7,5.7-3.5,3.5Zm6.8,16L9.9,20.1h0L6.8,17a4.5,4.5,0,0,1,2.6-.8l1.4.2a4.3,4.3,0,0,1,2.9,2.9,4.4,4.4,0,0,1-.6,4Zm1.8-5a5.9,5.9,0,0,0-1.3-1.8,6,6,0,0,0-1.8-1.3l6-6,3.1,3.1Zm7.9,5.5-5.7-5.7,3.5-3.5,5.7,5.7Z"/><path d="M10.7,25.8a4.7,4.7,0,0,1-5.8-.7,4.7,4.7,0,0,1-.7-5.8.8.8,0,1,0-1.3-.8,6.2,6.2,0,0,0,8.6,8.6.8.8,0,0,0-.8-1.3Z"/><path d="M5.7,20.1a.7.7,0,0,0-1,.4,3.7,3.7,0,0,0,3.5,5l1.3-.2a.8.8,0,1,0-.5-1.4,2.2,2.2,0,0,1-2.8-2.8A.7.7,0,0,0,5.7,20.1Z"/></svg>