<svg id="레이어_2" data-name="레이어 2" xmlns="http://www.w3.org/2000/svg" width="30" height="30" viewBox="0 0 30 30"><title>대지 1</title><path d="M14.3,24.1H3.8a1.5,1.5,0,0,1-1.5-1.5V20.9a4.9,4.9,0,0,1,1.7-4A12.5,12.5,0,0,1,13,13.5h0a13.3,13.3,0,0,1,7.4,2.1l-.8,1.2A11.8,11.8,0,0,0,13,15h0a11,11,0,0,0-7.9,2.9,3.5,3.5,0,0,0-1.3,2.9v1.7H14.3Z"/><path d="M13.1,12.4a5.3,5.3,0,1,1,5.3-5.3A5.3,5.3,0,0,1,13.1,12.4Zm0-9.1a3.8,3.8,0,1,0,3.8,3.8A3.8,3.8,0,0,0,13.1,3.3Z"/><path d="M22.4,28.1a4.8,4.8,0,1,1,4.8-4.8A4.8,4.8,0,0,1,22.4,28.1Zm0-8.1a3.3,3.3,0,1,0,3.3,3.3A3.3,3.3,0,0,0,22.4,20Z"/><path d="M28.5,29.8l-.5-.2-3.1-3.1a.7.7,0,0,1,1.1-1.1l3.1,3.1a.7.7,0,0,1,0,1.1Z"/></svg>