<svg id="레이어_2" data-name="레이어 2" xmlns="http://www.w3.org/2000/svg" width="30" height="30" viewBox="0 0 30 30"><title>대지 1</title><path d="M15,19a4,4,0,1,1,4-4A4,4,0,0,1,15,19Zm0-6.5A2.5,2.5,0,1,0,17.5,15,2.5,2.5,0,0,0,15,12.5Z"/><path d="M15.8,3.2,16,4.5a1.5,1.5,0,0,0,.9,1.2l3.1,1.3h.6a1.5,1.5,0,0,0,.9-.3l1.4-1,.4.4h0l.5.5-1,1.3a1.5,1.5,0,0,0-.2,1.5l1.5,3.4a1.5,1.5,0,0,0,1.2.9l1.4.2v1.4l-1.4.2a1.5,1.5,0,0,0-1.2.9l-1.3,3.5a1.5,1.5,0,0,0,.2,1.4l.7,1-.5.5-.5.5-.9-.7a1.5,1.5,0,0,0-.9-.3h-.6l-3.5,1.5a1.5,1.5,0,0,0-.9,1.2l-.2,1.4H14.4l-.2-1.4a1.5,1.5,0,0,0-.9-1.2L9.5,22.7H9a1.5,1.5,0,0,0-.9.3l-.8.6L6.8,23l-.5-.5.6-.8a1.5,1.5,0,0,0,.2-1.5L5.7,16.7a1.5,1.5,0,0,0-1.2-.9l-1.3-.2V14.2L4.5,14a1.5,1.5,0,0,0,1.2-.9L7.2,9.7a1.5,1.5,0,0,0-.2-1.5L6.2,7l.5-.5L7.1,6l1.3.9a1.5,1.5,0,0,0,.9.3h.6l3.5-1.4a1.5,1.5,0,0,0,.9-1.2l.2-1.3h1.4m.4-1.5H14.1c-.6,0-1,.3-1.1,1.1l-.2,1.5L9.3,5.7,7.9,4.7a1.4,1.4,0,0,0-.8-.3,1,1,0,0,0-.7.3l-.7.7h0l-.7.7c-.4.4-.5.9,0,1.6l1,1.4L4.3,12.5l-1.5.2c-.8.1-1.1.5-1.1,1.1v2.1c0,.6.3,1,1.1,1.1l1.5.2,1.4,3.5-.7,1c-.5.7-.4,1.1,0,1.6l.7.7.7.7a1,1,0,0,0,.7.3,1.5,1.5,0,0,0,.8-.3l.9-.7,3.8,1.5.2,1.5c.1.8.5,1.1,1.1,1.1h2.1c.6,0,1-.3,1.1-1.1l.2-1.5L21,24.1l1.1.8a1.5,1.5,0,0,0,.8.3,1,1,0,0,0,.7-.3l.7-.7h0l.7-.7c.4-.4.5-.9,0-1.6l-.8-1.1,1.3-3.5,1.5-.2c.8-.1,1.1-.5,1.1-1.1V13.8c0-.6-.3-1-1.1-1.1l-1.5-.2L24.1,9.1l1.1-1.5c.5-.6.4-1.1,0-1.6l-.7-.7h0l-.7-.7a1,1,0,0,0-.7-.3,1.5,1.5,0,0,0-.8.3L20.7,5.7,17.5,4.3h0l-.2-1.5c-.1-.8-.5-1.1-1.1-1.1Z"/></svg>