<svg id="레이어_2" data-name="레이어 2" xmlns="http://www.w3.org/2000/svg" width="30" height="30" viewBox="0 0 30 30"><defs><style>.cls-1{fill:#010101;}</style></defs><title>대지 1</title><polygon class="cls-1" points="25.4 8.2 18.1 8.2 18.1 0.8 19.6 0.8 19.6 6.7 25.4 6.7 25.4 8.2"/><path class="cls-1" d="M20.3,29.3H4.4a1.8,1.8,0,0,1-1.7-1.7V1.8A1.8,1.8,0,0,1,4.4.1H18.8l.5.2,6.6,6.6a.7.7,0,0,1,.2.5V18.6a.8.8,0,0,1-1.5,0V7.7L18.5,1.6H4.4a.3.3,0,0,0-.2.3V27.6a.3.3,0,0,0,.3.3H20.3a.7.7,0,0,1,0,1.5Z"/><circle cx="23.7" cy="25" r="1.4"/><circle cx="28.3" cy="22.3" r="1.4"/><circle cx="28.3" cy="27.8" r="1.4"/><polygon points="28 28.2 22.8 24.9 28 21.8 28.5 22.7 24.7 24.9 28.5 27.3 28 28.2"/><path d="M19.7,15.9h-.9l-1.3.2-.9.2-.8-.9-1.1-1.7.4-1a5.4,5.4,0,0,0,.4-1.6,2,2,0,0,0-1.6-2.4h-.3a1.8,1.8,0,0,0-1.3.6,2.3,2.3,0,0,0-.5,1.8,4.7,4.7,0,0,0,.6,1.9l.6,1.1-.2.5-.5,1.3L11.6,17l-.2.5-1.1.3-1.3.5a2.4,2.4,0,0,0-1.2,1.4,2,2,0,0,0,.2,1.5,1.8,1.8,0,0,0,1.6.9,2.3,2.3,0,0,0,1.8-.9,5.2,5.2,0,0,0,.8-1.5l.4-1,2.9-.7h.7l.5.5.5.5a2.8,2.8,0,0,0,1.8.7,2,2,0,0,0,2-1.6A1.9,1.9,0,0,0,19.7,15.9Zm-6-6.1h.1c.3,0,.4.5.3.8a4.2,4.2,0,0,1-.3,1.2,3.5,3.5,0,0,1-.4-1.3C13.3,10,13.4,9.8,13.6,9.8ZM10.3,20.3a.8.8,0,0,1-.6.3l-.3-.2c-.2-.3,0-.6.4-.8l1-.4A3.8,3.8,0,0,1,10.3,20.3Zm3-3.3.4-1,.3-.7h0v-.2l.6.9.4.5ZM19,18a1.3,1.3,0,0,1-.8-.3l-.4-.3h1.4C19.6,17.5,19.5,18,19,18Z"/></svg>