<svg id="레이어_2" data-name="레이어 2" xmlns="http://www.w3.org/2000/svg" width="30" height="30" viewBox="0 0 30 30"><defs><style>.cls-1{fill:#010101;}</style></defs><title>대지 1</title><path d="M17.7,10.7a1,1,0,0,0-1.2.8l-1.1,5.2-1.1-5.2h-.1v-.2H12.4v.2h-.1l-1.1,5.2L10,11.4a1,1,0,0,0-2,.4l2.1,9.7a1,1,0,0,0,2,0l1.1-5.2,1.1,5.2a1,1,0,0,0,2,0l2.1-9.7A1,1,0,0,0,17.7,10.7Z"/><polygon class="cls-1" points="24.4 8.1 17.1 8.1 17.1 0.8 18.6 0.8 18.6 6.6 24.4 6.6 24.4 8.1"/><path class="cls-1" d="M19.3,29.3H3.4a1.8,1.8,0,0,1-1.8-1.7V1.8A1.8,1.8,0,0,1,3.4,0H17.8l.5.2,6.6,6.6a.7.7,0,0,1,.2.5V18.6a.8.8,0,0,1-1.5,0V7.7L17.5,1.5H3.4a.3.3,0,0,0-.2.3V27.5a.3.3,0,0,0,.3.3H19.3a.8.8,0,0,1,0,1.5Z"/><circle cx="22.7" cy="25" r="1.4"/><circle cx="27.3" cy="22.3" r="1.4"/><circle cx="27.3" cy="27.8" r="1.4"/><polygon points="27 28.2 21.8 24.9 27 21.8 27.5 22.6 23.7 24.9 27.5 27.3 27 28.2"/></svg>