<svg id="레이어_2" data-name="레이어 2" xmlns="http://www.w3.org/2000/svg" width="30" height="30" viewBox="0 0 30 30"><title>대지 1</title><circle cx="22.7" cy="25.6" r="1.4"/><circle cx="27.3" cy="22.9" r="1.4"/><circle cx="27.3" cy="28.4" r="1.4"/><polygon points="27 28.8 21.8 25.5 27 22.4 27.5 23.3 23.7 25.6 27.5 28 27 28.8"/><path d="M9.1,12.6a3.3,3.3,0,1,1,3.3-3.3A3.3,3.3,0,0,1,9.1,12.6Zm0-5a1.8,1.8,0,1,0,1.8,1.8A1.8,1.8,0,0,0,9.1,7.6Z"/><path d="M7.6,26.2,6.6,25.1,18.2,13.5a3,3,0,0,1,4-.2l4.6,3.8-1,1.2-4.6-3.8a1.5,1.5,0,0,0-1.9.1Z"/><path d="M2.4,21.6l-1-1.1,4.9-4.3a3.1,3.1,0,0,1,4,0l3.3,2.9-1,1.1L9.3,17.4a1.6,1.6,0,0,0-2,0Z"/><path d="M18.5,26.6H2.8a1.7,1.7,0,0,1-1.7-1.7V2.3A1.7,1.7,0,0,1,2.8.6H25.4a1.7,1.7,0,0,1,1.7,1.7V17.7a.7.7,0,0,1-1.5,0V2.3a.2.2,0,0,0-.2-.2H2.8a.2.2,0,0,0-.2.2V24.9a.2.2,0,0,0,.2.2H18.5a.8.8,0,1,1,0,1.5Z"/></svg>