<svg id="레이어_2" data-name="레이어 2" xmlns="http://www.w3.org/2000/svg" width="30" height="30" viewBox="0 0 30 30"><defs><style>.cls-1{fill:#010101;}</style></defs><title>대지 1</title><polygon class="cls-1" points="24.3 8.1 17 8.1 17 0.8 18.5 0.8 18.5 6.6 24.3 6.6 24.3 8.1"/><path class="cls-1" d="M19.2,29.3H3.3a1.8,1.8,0,0,1-1.8-1.7V1.8A1.8,1.8,0,0,1,3.3,0H17.7l.5.2,6.6,6.6a.7.7,0,0,1,.2.5V18.6a.8.8,0,0,1-1.5,0V7.7L17.4,1.5H3.3a.3.3,0,0,0-.2.3V27.5a.3.3,0,0,0,.3.3H19.2a.8.8,0,0,1,0,1.5Z"/><circle cx="22.7" cy="25" r="1.4"/><circle cx="27.2" cy="22.3" r="1.4"/><circle cx="27.2" cy="27.8" r="1.4"/><polygon points="26.9 28.2 21.7 24.9 26.9 21.8 27.4 22.6 23.6 24.9 27.4 27.3 26.9 28.2"/><path d="M13.4,10.7H10.5a1,1,0,0,0-1,1v9.9a1,1,0,0,0,2,0V18.3h1.9a3.8,3.8,0,1,0,0-7.5Zm0,5.5H11.5V12.7h1.9a1.8,1.8,0,1,1,0,3.6Z"/></svg>