<svg id="레이어_2" data-name="레이어 2" xmlns="http://www.w3.org/2000/svg" width="30" height="30" viewBox="0 0 30 30"><title>대지 1</title><path d="M15.8,23.4H9.5V17.1h6.3ZM11,21.9h3.3V18.6H11Z"/><path d="M15.8,28.2H9.5V21.9h6.3ZM11,26.7h3.3V23.4H11Z"/><path d="M20.6,28.2H14.3V21.9h6.3Zm-4.8-1.5h3.3V23.4H15.8Z"/><path d="M28.2,28.2H22.5a.8.8,0,0,1-.7-.7V14.8H8.3V27.5a.8.8,0,0,1-.7.8H1.8a.8.8,0,0,1-.7-.7V11.7a.8.8,0,0,1,.4-.6L14.6,3.3a.7.7,0,0,1,.8,0l13.2,7.8a.8.8,0,0,1,.4.6V27.5A.8.8,0,0,1,28.2,28.2Zm-5-1.5h4.2V12.1L15,4.8,2.6,12.1V26.7H6.8V14.1a.8.8,0,0,1,.8-.7H22.5a.8.8,0,0,1,.8.8Z"/></svg>