<svg id="레이어_2" data-name="레이어 2" xmlns="http://www.w3.org/2000/svg" width="30" height="30" viewBox="0 0 30 30"><title>대지 1</title><path d="M14.9,28.8a.8.8,0,0,1-.7-.7V1.9a.8.8,0,1,1,1.5,0V28.1A.8.8,0,0,1,14.9,28.8Z"/><path d="M14.9,6.9l-3.6-2A.8.8,0,0,1,12,3.6l2.9,1.6,2.9-1.6a.8.8,0,0,1,.7,1.3Z"/><path d="M18.1,26.5h-.4l-2.9-1.6L12,26.4a.8.8,0,0,1-.7-1.3l3.6-2,3.6,2a.8.8,0,0,1-.4,1.4Z"/><path d="M25.9,13.2h-.4L22,11V6.9a.8.8,0,0,1,.7-.8.8.8,0,0,1,.8.7v3.3l2.8,1.7a.8.8,0,0,1-.4,1.4Z"/><path d="M7.3,24a.8.8,0,0,1-.7-.7V20L3.7,18.4a.8.8,0,1,1,.8-1.3L8,19.2v4.1a.8.8,0,0,1-.7.8Z"/><path d="M22.9,24a.7.7,0,0,1-.7-.7V19.1l3.5-2.2a.7.7,0,1,1,.8,1.3l-2.8,1.7v3.3a.8.8,0,0,1-.7.8Z"/><path d="M4,13.6a.7.7,0,0,1-.4-1.4l2.8-1.7V7.2a.8.8,0,0,1,.7-.8h0a.8.8,0,0,1,.8.7v4.1L4.4,13.5Z"/><path d="M3.7,22.5a.8.8,0,0,1-.4-1.4L25.9,7.8a.8.8,0,0,1,.8,1.3L4.1,22.4Z"/><path d="M26.4,22.3h-.4L3.2,9.5a.8.8,0,1,1,.7-1.3L26.8,20.9a.8.8,0,0,1-.4,1.4Z"/></svg>