<svg id="레이어_2" data-name="레이어 2" xmlns="http://www.w3.org/2000/svg" width="30" height="30" viewBox="0 0 30 30"><title>대지 1</title><path d="M24,21.1H5.9a1.8,1.8,0,0,1-1.7-1.7V3.1A1.8,1.8,0,0,1,5.9,1.4H24a1.8,1.8,0,0,1,1.8,1.8V19.4A1.8,1.8,0,0,1,24,21.1ZM5.9,2.9a.3.3,0,0,0-.2.3V19.4a.3.3,0,0,0,.3.3H24a.3.3,0,0,0,.3-.2V3.1a.3.3,0,0,0-.2-.2Z"/><path d="M25,13.9H4.9a.8.8,0,1,1,0-1.5H25a.7.7,0,0,1,0,1.5Z"/><path d="M14.9,13.7a.8.8,0,0,1-.7-.7V2.1a.7.7,0,1,1,1.5,0V12.9A.8.8,0,0,1,14.9,13.7Z"/><circle cx="9" cy="16.6" r="1.1"/><circle cx="20.9" cy="16.6" r="1.1"/><path d="M6.6,27.8H6.3a.7.7,0,0,1-.4-1l2.7-6.6a.7.7,0,1,1,1.4.6L7.3,27.3A.7.7,0,0,1,6.6,27.8Z"/><path d="M23.3,27.8a.7.7,0,0,1-.7-.5l-2.7-6.6a.7.7,0,1,1,1.4-.6L24,26.7a.7.7,0,0,1-.4,1Z"/><path d="M21.7,23.8H8.1a.8.8,0,1,1,0-1.5H21.7a.8.8,0,0,1,0,1.5Z"/></svg>