<svg id="레이어_2" data-name="레이어 2" xmlns="http://www.w3.org/2000/svg" width="30" height="30" viewBox="0 0 30 30"><title>대지 1</title><rect x="19.7" y="9" width="1.5" height="1.75" transform="translate(0 0) rotate(-0.1)"/><rect x="19.7" y="12.1" width="1.5" height="1.75" transform="translate(0 0) rotate(-0.1)"/><rect x="19.8" y="15.6" width="1.5" height="1.75" transform="translate(0 0) rotate(-0.1)"/><rect x="19.8" y="19" width="1.5" height="1.75" transform="translate(0 0) rotate(-0.1)"/><path d="M28.8,17.2H28a2.2,2.2,0,0,1,0-4.5h.8V7.5a2.3,2.3,0,0,0-2.2-2.2H3.5A2.3,2.3,0,0,0,1.2,7.5v5.3H2a2.2,2.2,0,0,1,0,4.5H1.3v5.3a2.3,2.3,0,0,0,2.2,2.2h23a2.3,2.3,0,0,0,2.2-2.3Zm-2.2,6H21.3v-.8H19.8v.8H3.5a.8.8,0,0,1-.7-.8V18.7a3.7,3.7,0,0,0,0-7.3V7.5a.8.8,0,0,1,.7-.8H19.7v.9h1.5V6.7h5.3L27,7a.7.7,0,0,1,.2.5v3.8a3.7,3.7,0,0,0-3,3.7h0a3.7,3.7,0,0,0,3,3.7v3.8A.8.8,0,0,1,26.5,23.2Z"/></svg>