<svg id="레이어_2" data-name="레이어 2" xmlns="http://www.w3.org/2000/svg" width="30" height="30" viewBox="0 0 30 30"><title>대지 1</title><path d="M15,2.6a3.7,3.7,0,0,1,3.1,5.7l-.4.6L15,13.1,12.1,8.6l-.2-.3A3.7,3.7,0,0,1,15,2.6m0-1.5a5.2,5.2,0,0,0-4.4,8h.1L15,15.8h0l4.4-6.7h0a5.2,5.2,0,0,0-4.4-8Z"/><path d="M15,5a.6.6,0,1,1-.6.6A.6.6,0,0,1,15,5m0-1.5a2.1,2.1,0,1,0,2.1,2.1A2.1,2.1,0,0,0,15,3.5Z"/><path d="M1.7,28.9H.2a14.8,14.8,0,0,1,29.6,0H28.3a13.3,13.3,0,0,0-26.6,0Z"/><path d="M21.3,28.9C21,22.1,18.2,16.6,15,16.6S9,22.1,8.7,28.9H7.2C7.5,21,10.9,15.1,15,15.1s7.5,5.9,7.8,13.7Z"/><rect x="14.3" y="15.9" width="1.5" height="12.98"/><rect x="2.9" y="22.1" width="24.3" height="1.5"/></svg>