<svg id="레이어_2" data-name="레이어 2" xmlns="http://www.w3.org/2000/svg" width="30" height="30" viewBox="0 0 30 30"><title>대지 1</title><path d="M28.6,1.5V28.6H1.5V1.5H28.6M29.1,0H1A1,1,0,0,0,0,1V29.1a1,1,0,0,0,1,1H29.1a1,1,0,0,0,1-1V1a1,1,0,0,0-1-1Z"/><path d="M20.4,29.9a.8.8,0,0,1-.7-.5L8.9,1.1A.8.8,0,0,1,10.3.6L21.1,28.9a.8.8,0,0,1-.4,1Z"/><path d="M11.6,20H10l-.8-2.3H6.3L5.5,20H4l3.1-8.4H8.4ZM6.8,16.5h2l-.6-1.7-.4-1.3-.4,1.3Z"/><path d="M26.9,20.1l-1-.4-1-.5-.9-.6-.8-.6-1.7,1.2-2,1-.7-1.1,2-.9,1.5-1.1-1.1-1.6a9.4,9.4,0,0,1-.9-1.9H19.1V12.4h3.5V11h1.3v1.5h3.5v1.1H26.1a10.7,10.7,0,0,1-.8,1.9,9.1,9.1,0,0,1-1.1,1.6l.9.6.9.5.9.4.8.3Zm-5.2-6.5a6.8,6.8,0,0,0,.7,1.5l.9,1.2.8-1.1a8.2,8.2,0,0,0,.7-1.5Z"/></svg>