<svg id="레이어_2" data-name="레이어 2" xmlns="http://www.w3.org/2000/svg" width="30" height="30" viewBox="0 0 30 30"><defs><style>.cls-1{fill:none;}</style></defs><title>대지 1</title><path class="cls-1" d="M20.4,6.6H2.7V22.5h2a3.3,3.3,0,0,1,6.4,0h9.3V6.6Z"/><path d="M26.9,22.5h-.8a2.3,2.3,0,0,1,0,1.5h.8a3,3,0,0,0,0-1.5Z"/><path d="M21.2,23.9h0Z"/><path d="M28.6,16.1l-.9-1.3h0l-1.8-2.6a.7.7,0,0,0-.6-.3H21.9V6.3a1.2,1.2,0,0,0-1.2-1.2H2.4A1.2,1.2,0,0,0,1.2,6.3V22.8A1.2,1.2,0,0,0,2.4,24H4.8a3.3,3.3,0,0,0,6.4,0h9.4a3.3,3.3,0,0,0,6.4,0h-.8a2.3,2.3,0,0,0,0-1.5h.8a3.3,3.3,0,0,0-5-2V13.4h3l2.3,3.4v5.7h-.3a3,3,0,0,1,0,1.5h.6a1.2,1.2,0,0,0,1.2-1.2V16.5A.7.7,0,0,0,28.6,16.1ZM9.6,24a1.8,1.8,0,0,1-3.2,0,1.7,1.7,0,0,1,0-1.5,1.8,1.8,0,0,1,3.4.8A1.8,1.8,0,0,1,9.6,24Zm12.5-1.5a1.8,1.8,0,0,1,3.2,0,1.7,1.7,0,0,1,0,1.5,1.8,1.8,0,0,1-3.2,0,1.7,1.7,0,0,1,0-1.5Zm-1.7,0H11.2a3.3,3.3,0,0,0-6.4,0h-2V6.6H20.4V22.5Z"/></svg>