<svg id="레이어_2" data-name="레이어 2" xmlns="http://www.w3.org/2000/svg" width="30" height="30" viewBox="0 0 30 30"><title>대지 1</title><path d="M12.4,18.4l-.5-.2a.7.7,0,0,1,0-1.1l5.2-5.2a.7.7,0,0,1,1.1,1.1l-5.2,5.2Z"/><path d="M11.6,25.5a7.1,7.1,0,0,1-5-12.1l2.1-2.1a.7.7,0,0,1,1.1,1.1L7.6,14.5a5.6,5.6,0,0,0,7.9,7.9l2.1-2.1a.7.7,0,0,1,1.1,1.1l-2.1,2.1A7.1,7.1,0,0,1,11.6,25.5Z"/><path d="M20.8,18.9l-.5-.2a.7.7,0,0,1,0-1.1l2.1-2.1a5.6,5.6,0,1,0-7.9-7.9L12.4,9.7a.7.7,0,0,1-1.1-1.1l2.1-2.1a7.1,7.1,0,1,1,10,10l-2.1,2.1Z"/></svg>