<svg id="레이어_2" data-name="레이어 2" xmlns="http://www.w3.org/2000/svg" width="30" height="30" viewBox="0 0 30 30"><title>대지 1</title><path d="M14.6,13.9a6.1,6.1,0,1,1,6.1-6.1A6.1,6.1,0,0,1,14.6,13.9Zm0-10.6a4.6,4.6,0,1,0,4.6,4.6A4.6,4.6,0,0,0,14.6,3.3Z"/><path d="M25.4,27.8H3.7A1.7,1.7,0,0,1,2,26.1v-2a5.8,5.8,0,0,1,2-4.6,14.7,14.7,0,0,1,10.5-4,14.7,14.7,0,0,1,10.5,4h0a5.8,5.8,0,0,1,2,4.6v2A1.7,1.7,0,0,1,25.4,27.8ZM14.6,17a13.2,13.2,0,0,0-9.4,3.5,4.3,4.3,0,0,0-1.6,3.6v2a.2.2,0,0,0,.2.2H25.4a.2.2,0,0,0,.2-.2v-2A4.3,4.3,0,0,0,24,20.5h0A13.1,13.1,0,0,0,14.6,17Z"/></svg>