<svg id="레이어_2" data-name="레이어 2" xmlns="http://www.w3.org/2000/svg" width="30" height="30" viewBox="0 0 30 30"><title>대지 1</title><path d="M4.5,22.2H2.3V5.7H21l1.5-1.5H2.2A1.3,1.3,0,0,0,.8,5.5V22.4a1.3,1.3,0,0,0,1.3,1.3H3Z"/><path d="M28.2,6.4a1.1,1.1,0,0,0-.7.3L25.1,8.9V6.4l3.2-3.2a.7.7,0,0,0-1.1-1.1L2.6,26.8a.7.7,0,0,0,0,1.1l.5.2.5-.2,4.1-4.1h16a1.3,1.3,0,0,0,1.3-1.3V18.5l2.4,2.3a1.1,1.1,0,0,0,.8.3,1,1,0,0,0,.9-1V7.5A1,1,0,0,0,28.2,6.4Zm-.6,12.5-2.4-2.3c-.4-.4-.6-.5-.9-.5a.8.8,0,0,0-.8.8v5.4H9.3L23.6,7.9v2.4a.9.9,0,0,0,.2.6l.6.3a1.3,1.3,0,0,0,.9-.4l2.4-2.2Z"/><rect x="4.8" y="8.1" width="3.1" height="1.5"/></svg>