<svg id="레이어_2" data-name="레이어 2" xmlns="http://www.w3.org/2000/svg" width="30" height="30" viewBox="0 0 30 30"><defs><style>.cls-1{fill:#010101;}</style></defs><title>대지 1</title><path d="M15.7,19.5a3,3,0,0,1-3-2.9V11.6a3,3,0,0,1,6.1,0v4.9A3,3,0,0,1,15.7,19.5Zm0-9.3a1.5,1.5,0,0,0-1.5,1.4v4.9a1.5,1.5,0,0,0,3.1,0V11.6A1.5,1.5,0,0,0,15.7,10.2Z"/><rect x="13.7" y="22.8" width="4" height="1.5"/><rect x="14.9" y="21.3" width="1.5" height="2.17"/><path d="M15.7,21.8c-2.4,0-4.8-1.4-4.8-4h1.5c0,3.3,6.7,3.3,6.7,0h1.5C20.5,20.4,18.1,21.8,15.7,21.8Z"/><path class="cls-1" d="M25.7,29.3H5.7a1.8,1.8,0,0,1-1.8-1.7V1.8A1.8,1.8,0,0,1,5.7,0H20.4l7,7V27.5A1.8,1.8,0,0,1,25.7,29.3ZM5.7,1.5a.3.3,0,0,0-.2.3V27.5a.3.3,0,0,0,.3.3h20a.3.3,0,0,0,.3-.2V7.7L19.8,1.5Z"/><polygon class="cls-1" points="26.7 8.1 19.3 8.1 19.3 0.8 20.8 0.8 20.8 6.6 26.7 6.6 26.7 8.1"/></svg>