<svg id="레이어_2" data-name="레이어 2" xmlns="http://www.w3.org/2000/svg" width="30" height="30" viewBox="0 0 30 30"><defs><style>.cls-1{fill:#010101;}</style></defs><title>대지 1</title><path class="cls-1" d="M15,28.8A9.9,9.9,0,0,1,7,13.1L14.5,1.6a.7.7,0,0,1,.6-.3h0a.7.7,0,0,1,.6.3l7.4,11.6A9.9,9.9,0,0,1,15,28.8Zm.1-25.4L8.2,14a8.4,8.4,0,1,0,13.6.1h0Z"/><path class="cls-1" d="M18.4,24l-.7-1.3.3-.2c2.4-1.7,1.7-5.3,1.7-5.3l1.5-.3c0,.2.9,4.7-2.3,6.9Z"/><path class="cls-1" d="M15.2,25.3V23.8a6.1,6.1,0,0,0,1.6-.4l.6,1.4A7.6,7.6,0,0,1,15.2,25.3Z"/></svg>