<svg id="레이어_2" data-name="레이어 2" xmlns="http://www.w3.org/2000/svg" width="30" height="30" viewBox="0 0 30 30"><defs><style>.cls-1{fill:#010101;}</style></defs><title>대지 1</title><path d="M19.7,11.1a1,1,0,0,0-1.2.8L17.3,17l-1.1-5.2h-.1v-.2H14.4v.2h-.1L13.1,17,12,11.9a1,1,0,0,0-2,.4L12.2,22a1,1,0,0,0,2,0l1.1-5.2L16.4,22a1,1,0,0,0,2,0l2.1-9.7A1,1,0,0,0,19.7,11.1Z"/><path class="cls-1" d="M25.4,29.6H5.4a1.8,1.8,0,0,1-1.7-1.7V2.1A1.8,1.8,0,0,1,5.4.4H20.1l7,7V27.9A1.8,1.8,0,0,1,25.4,29.6ZM5.4,1.9a.3.3,0,0,0-.2.3V27.9a.3.3,0,0,0,.3.3h20a.3.3,0,0,0,.3-.2V8L19.5,1.9Z"/><polygon class="cls-1" points="26.4 8.5 19.1 8.5 19.1 1.1 20.6 1.1 20.6 7 26.4 7 26.4 8.5"/></svg>