<svg id="레이어_2" data-name="레이어 2" xmlns="http://www.w3.org/2000/svg" width="30" height="30" viewBox="0 0 30 30"><title>대지 1</title><path d="M3.9,26.9l-.5-.2a.7.7,0,0,1-.2-.7L6.9,11.1a.7.7,0,0,1,.5-.5l7.8-2.2a.7.7,0,0,1,.7.2l5.6,5.6a.7.7,0,0,1,.2.7l-2.2,7.8a.7.7,0,0,1-.5.5L4.1,26.8Zm4.3-15L4.9,25.1l13.2-3.3,2-6.9-5-5Z"/><path d="M21,15.4l-.5-.2L14.8,9.6a.8.8,0,0,1-.1-.9l2.5-5.2a.7.7,0,0,1,.6-.4.8.8,0,0,1,.7.2l8.3,8.3a.8.8,0,0,1-.2,1.2l-5.2,2.5ZM16.2,8.9l4.9,4.9,3.7-1.8L18,5.2Z"/><path d="M3.9,26.9l-.5-.2a.7.7,0,0,1,0-1.1L12,17A.7.7,0,1,1,13,18L4.4,26.7Z"/><rect x="11.8" y="15.7" width="1.5" height="3.5" transform="translate(-8.7 14) rotate(-45)"/></svg>