<svg id="레이어_2" data-name="레이어 2" xmlns="http://www.w3.org/2000/svg" width="30" height="30" viewBox="0 0 30 30"><title>대지 1</title><polygon points="9.4 21.4 8.4 20.3 14.1 14.7 14.1 5.9 15.6 5.9 15.6 15.3 9.4 21.4"/><path d="M14.8,29.3A14.3,14.3,0,1,1,28.6,18.9l-1.4-.4a12.8,12.8,0,1,0-8.7,8.8l.4,1.4A14.3,14.3,0,0,1,14.8,29.3Z"/><path d="M24.9,29.1A4.5,4.5,0,0,1,21,26.8l1.3-.7a3,3,0,1,0-.4-1.8l-1.5-.2a4.5,4.5,0,1,1,4.5,5Z"/><polygon points="24 25.1 19.7 25.1 19.7 20.8 21.2 20.8 21.2 23.6 24 23.6 24 25.1"/></svg>