<?xml version="1.0" standalone="no"?>
<!DOCTYPE svg PUBLIC "-//W3C//DTD SVG 20010904//EN"
 "http://www.w3.org/TR/2001/REC-SVG-20010904/DTD/svg10.dtd">
<svg version="1.0" xmlns="http://www.w3.org/2000/svg"
 width="300.000000pt" height="163.000000pt" viewBox="0 0 300.000000 163.000000"
 preserveAspectRatio="xMidYMid meet">
<metadata>
Created by potrace 1.10, written by Peter Selinger 2001-2011
</metadata>
<g transform="translate(0.000000,163.000000) scale(0.050000,-0.050000)"
fill="#000000" stroke="none">
<path d="M700 3080 l0 -80 690 0 690 0 0 80 0 80 -690 0 -690 0 0 -80z m1360
0 l0 -60 -670 0 -670 0 0 60 0 60 670 0 670 0 0 -60z"/>
<path d="M760 3068 c0 -16 32 -25 90 -25 66 0 90 8 90 30 0 22 -22 28 -90 24
-55 -3 -90 -14 -90 -29z"/>
<path d="M960 3069 c0 -20 24 -29 80 -29 55 0 80 9 80 28 0 18 -26 28 -80 28
-57 1 -80 -7 -80 -27z"/>
<path d="M120 3077 c0 -27 19 -34 90 -34 64 0 90 8 90 29 0 19 -23 28 -70 28
-43 0 -70 -10 -70 -25 -1 -17 -7 -15 -20 5 -17 26 -19 25 -20 -3z"/>
<path d="M320 3069 c0 -37 136 -38 184 -2 29 22 19 26 -75 28 -82 2 -109 -5
-109 -26z"/>
<path d="M2240 3068 c0 -20 44 -26 180 -26 138 0 180 7 180 27 0 21 -42 27
-180 26 -135 0 -180 -7 -180 -27z"/>
<path d="M2680 3070 c0 -22 42 -28 201 -28 149 0 200 6 194 24 -13 37 -395 41
-395 4z"/>
<path d="M3100 3070 c0 -19 19 -30 50 -30 31 0 50 11 50 30 0 19 -19 30 -50
30 -31 0 -50 -11 -50 -30z"/>
<path d="M3220 3070 c0 -20 121 -26 550 -28 468 -2 547 1 538 26 -15 39 -1088
42 -1088 2z"/>
<path d="M3385 2905 c170 -6 175 -8 175 -55 0 -47 -6 -49 -165 -55 l-165 -7
175 -4 175 -4 0 70 0 70 -185 -4 -185 -4 175 -7z"/>
<path d="M4045 2905 c170 -6 175 -8 175 -55 0 -46 -6 -49 -155 -55 l-155 -7
165 -4 165 -4 0 70 0 70 -185 -4 -185 -4 175 -7z"/>
<path d="M5500 2850 l0 -70 160 0 160 0 0 70 0 70 -160 0 -160 0 0 -70z"/>
<path d="M706 2868 c-17 -44 37 -74 71 -39 15 15 22 37 14 49 -20 33 -70 27
-85 -10z"/>
<path d="M1069 2879 c-18 -30 28 -79 62 -66 44 17 36 87 -10 87 -21 0 -44 -9
-52 -21z"/>
<path d="M1440 2862 c0 -38 46 -70 68 -47 29 28 10 85 -28 85 -26 0 -40 -13
-40 -38z"/>
<path d="M1806 2868 c-17 -44 37 -74 71 -39 15 15 22 37 14 49 -20 33 -70 27
-85 -10z"/>
<path d="M122 2855 c-2 -28 15 -35 88 -35 52 0 90 9 90 22 0 14 -30 19 -80 15
-44 -5 -84 1 -88 12 -5 12 -10 5 -10 -14z"/>
<path d="M324 2845 c3 -15 13 -27 21 -26 8 1 47 1 86 1 95 0 71 34 -31 43 -60
6 -80 1 -76 -18z"/>
<path d="M820 2855 c0 -29 18 -35 100 -35 76 0 100 7 100 30 0 22 -22 30 -80
30 -51 0 -80 -9 -80 -25 -1 -17 -7 -15 -20 5 -17 26 -19 25 -20 -5z"/>
<path d="M1186 2853 c4 -13 54 -25 112 -28 77 -3 103 2 97 20 -5 15 -49 26
-113 28 -70 2 -101 -5 -96 -20z"/>
<path d="M1560 2845 c0 -17 33 -25 100 -25 73 0 100 8 100 28 0 21 -26 28
-100 25 -65 -2 -100 -12 -100 -28z"/>
<path d="M1920 2855 c0 -29 18 -35 100 -35 76 0 100 7 100 30 0 22 -22 30 -80
30 -51 0 -80 -9 -80 -25 -1 -17 -7 -15 -20 5 -17 26 -19 25 -20 -5z"/>
<path d="M2144 2848 c3 -17 13 -30 21 -29 8 1 51 1 95 1 55 0 80 9 80 28 0 20
-28 28 -101 29 -80 1 -100 -6 -95 -29z"/>
<path d="M2662 2855 c-2 -28 15 -35 88 -35 52 0 90 9 90 22 0 14 -30 19 -80
15 -44 -5 -84 1 -88 12 -5 12 -10 5 -10 -14z"/>
<path d="M2980 2850 c0 -20 20 -30 60 -30 70 0 80 30 15 47 -66 18 -75 16 -75
-17z"/>
<path d="M3165 2866 c-61 -12 -57 -46 5 -46 31 0 50 11 50 30 0 17 -2 29 -5
27 -3 -1 -25 -6 -50 -11z"/>
<path d="M3640 2850 c0 -20 20 -30 60 -30 70 0 80 30 15 47 -66 18 -75 16 -75
-17z"/>
<path d="M3825 2866 c-61 -12 -57 -46 5 -46 31 0 50 11 50 30 0 17 -2 29 -5
27 -3 -1 -25 -6 -50 -11z"/>
<path d="M120 1330 l0 -1170 710 0 710 0 0 1093 c0 602 -5 1089 -10 1084 -6
-6 -11 -484 -11 -1064 -1 -977 -3 -1053 -35 -1053 -29 -1 -30 -3 -4 -20 20
-13 -205 -19 -654 -20 l-684 0 -1 1129 c-1 1109 -1 1130 39 1151 52 28 1230
24 1293 -5 25 -11 49 -39 53 -63 5 -23 10 -8 11 33 l3 75 -710 0 -710 0 0
-1170z"/>
<path d="M1680 2120 l0 -340 600 0 600 0 0 340 0 340 -600 0 -600 0 0 -340z
m410 272 c69 -4 132 2 149 15 22 18 25 17 14 -2 -10 -17 -2 -25 25 -25 22 0
46 10 53 22 9 15 20 15 34 1 14 -14 80 -17 178 -9 89 7 157 4 157 -6 0 -16
-360 -230 -410 -244 -25 -6 -450 233 -450 254 0 8 29 11 65 7 36 -3 119 -10
185 -13z m75 -221 c98 -54 107 -43 -156 -188 -274 -151 -259 -159 -261 134 -2
283 -1 285 192 178 82 -45 184 -101 225 -124z m648 -7 c3 -172 6 -200 36 -269
35 -80 -172 -151 -219 -75 -11 18 -619 17 -700 0 -152 -33 -105 28 123 158
256 146 207 143 417 22 95 -55 183 -100 196 -100 31 0 -30 40 -201 132 -177
95 -178 83 10 183 85 46 187 101 225 122 96 53 110 32 113 -173z"/>
<path d="M2680 1846 c0 -17 27 -26 80 -26 52 0 80 9 80 26 0 17 -28 26 -80 26
-53 1 -80 -8 -80 -26z"/>
<path d="M3140 2120 l0 -340 600 0 600 0 0 340 0 340 -600 0 -600 0 0 -340z
m1036 269 c-22 -20 -423 -249 -438 -249 -18 0 -395 211 -422 237 -8 8 149 12
348 10 200 -2 381 4 404 12 35 13 123 5 108 -10z m78 -64 c1 -30 6 -87 12
-127 6 -39 3 -83 -5 -97 -19 -30 13 -185 42 -203 103 -63 -93 -114 -273 -70
-80 20 -73 20 -440 3 -373 -16 -372 -19 -65 157 233 134 186 133 401 11 97
-56 186 -98 197 -95 10 4 -63 51 -162 104 -100 54 -181 105 -181 112 0 13 437
259 461 260 7 0 12 -25 13 -55z m-749 -89 c220 -120 218 -117 130 -162 -36
-18 -141 -74 -235 -123 -93 -50 -175 -90 -180 -91 -9 0 -10 470 -2 497 5 19
110 -25 287 -121z"/>
<path d="M4131 1864 c-29 -28 -4 -44 69 -44 101 0 111 49 11 52 -38 2 -74 -2
-80 -8z"/>
<path d="M4580 2120 l0 -340 605 0 605 0 0 340 0 340 -605 0 -605 0 0 -340z
m1039 271 c-37 -36 -410 -251 -436 -251 -11 0 -23 -7 -26 -16 -9 -21 -477
-271 -487 -261 -17 17 -22 132 -9 192 10 44 7 65 -8 65 -13 0 -9 9 7 20 20 13
22 19 5 20 -14 0 -25 18 -25 40 0 22 11 40 23 40 13 0 18 6 11 13 -8 7 -2 27
11 44 16 19 16 26 2 17 -13 -8 -27 4 -33 27 -14 55 24 42 281 -95 235 -125
275 -128 60 -4 -306 176 -324 159 170 153 239 -3 435 2 435 10 0 8 11 15 24
15 17 0 15 -9 -5 -29z m87 -216 c-2 -96 4 -175 14 -175 10 0 14 -18 10 -40 -4
-21 1 -44 11 -51 82 -51 16 -112 -106 -98 -69 8 -298 13 -510 12 -212 -1 -385
5 -385 13 0 15 422 264 448 264 7 0 94 -46 193 -103 99 -56 185 -97 191 -91 7
6 -70 54 -170 107 -100 54 -181 102 -182 107 0 20 431 240 460 235 24 -5 29
-39 26 -180z"/>
<path d="M5580 1846 c0 -17 28 -26 80 -26 53 0 80 9 80 26 0 18 -27 27 -80 26
-52 0 -80 -9 -80 -26z"/>
<path d="M220 2314 c0 -45 5 -46 170 -45 163 1 170 3 170 46 0 43 -7 45 -170
45 -164 0 -170 -2 -170 -46z"/>
<path d="M580 2314 c0 -45 6 -46 180 -48 177 -2 180 -1 180 46 0 47 -3 48
-180 48 -175 0 -180 -1 -180 -46z"/>
<path d="M1160 2310 c0 -49 4 -50 140 -50 136 0 140 1 140 50 0 49 -4 50 -140
50 -136 0 -140 -1 -140 -50z m95 5 c-13 -38 -75 -43 -75 -6 0 18 17 31 42 31
24 0 38 -10 33 -25z m165 -5 c0 -16 -10 -30 -21 -30 -12 0 -35 14 -52 30 -27
27 -24 30 22 30 32 0 51 -11 51 -30z"/>
<path d="M265 2148 c-67 -30 31 -65 152 -54 122 11 173 46 68 46 -30 0 -86 5
-125 10 -38 5 -81 4 -95 -2z"/>
<path d="M380 1998 c0 -34 9 -40 45 -31 25 7 70 13 100 13 30 0 55 10 55 22 0
13 -21 19 -50 13 -28 -5 -56 -2 -62 8 -22 36 -88 18 -88 -25z"/>
<path d="M375 1902 c-15 -54 0 -63 83 -51 40 5 90 12 112 15 57 7 50 41 -10
45 -27 1 -78 9 -112 17 -53 12 -65 7 -73 -26z"/>
<path d="M5824 1605 l-4 -205 -629 0 -630 0 -6 190 -7 190 1 -195 1 -195 636
-5 c516 -5 637 -1 645 21 6 15 8 112 4 216 l-7 188 -4 -205z"/>
<path d="M4360 1590 l0 -189 -635 -6 -635 -6 645 -4 645 -5 0 200 c0 110 -4
200 -10 200 -5 0 -10 -85 -10 -190z"/>
<path d="M2900 1580 l0 -180 -619 0 -619 0 -7 175 -7 175 -4 -185 -4 -185 640
0 640 0 0 190 c0 105 -4 190 -10 190 -5 0 -10 -81 -10 -180z"/>
<path d="M1984 1662 c4 -20 36 -29 101 -30 131 -3 126 42 -6 51 -78 5 -99 1
-95 -21z"/>
<path d="M3200 1670 c0 -40 92 -47 395 -32 86 4 44 38 -55 45 -55 4 -100 3
-100 -3 0 -19 -210 -10 -225 10 -8 11 -15 2 -15 -20z"/>
<path d="M4662 1663 c-2 -40 5 -46 43 -36 25 7 70 13 100 13 30 0 55 10 55 22
0 14 -33 19 -90 15 -49 -4 -94 2 -98 13 -5 11 -10 -1 -10 -27z"/>
<path d="M4885 1660 c3 -16 17 -29 30 -28 14 1 63 3 109 5 111 4 75 37 -50 46
-76 6 -94 1 -89 -23z"/>
<path d="M1745 1655 c5 -14 23 -24 42 -22 18 1 65 3 103 5 116 4 79 42 -42 42
-80 0 -109 -7 -103 -25z"/>
<path d="M2230 1563 c-4 -4 -75 -6 -159 -5 -83 1 -151 -7 -151 -17 0 -10 125
-18 280 -19 154 0 280 8 280 17 0 16 -236 39 -250 24z"/>
<path d="M5065 1564 c-108 -8 -111 -36 -3 -41 45 -1 90 -8 100 -14 10 -6 18
-4 18 5 0 9 45 14 100 12 55 -3 100 3 100 13 0 20 -185 34 -315 25z"/>
<path d="M1740 1536 c0 -9 36 -16 80 -16 44 0 80 9 80 21 0 12 -35 19 -80 16
-44 -3 -80 -12 -80 -21z"/>
<path d="M3200 1540 c0 -12 73 -20 180 -20 107 0 180 8 180 20 0 12 -73 20
-180 20 -107 0 -180 -8 -180 -20z"/>
<path d="M3580 1540 c0 -17 95 -31 147 -22 10 2 57 4 105 5 164 4 89 37 -82
37 -100 0 -170 -8 -170 -20z"/>
<path d="M4660 1540 c0 -11 32 -20 70 -20 39 0 70 9 70 20 0 11 -31 20 -70 20
-38 0 -70 -9 -70 -20z"/>
<path d="M4820 1540 c0 -11 32 -20 70 -20 39 0 70 9 70 20 0 11 -31 20 -70 20
-38 0 -70 -9 -70 -20z"/>
<path d="M1680 895 l0 -345 600 0 600 0 0 345 0 345 -600 0 -600 0 0 -345z
m400 267 c0 -9 95 -19 210 -21 138 -2 210 5 210 19 0 13 46 20 120 18 140 -5
147 4 -145 -164 l-195 -112 -210 121 c-257 147 -264 157 -111 157 66 0 121 -8
121 -18z m88 -223 c437 -245 473 -264 485 -252 6 5 -67 51 -162 103 -94 51
-171 96 -171 100 0 15 436 250 463 250 24 0 30 -35 31 -185 1 -213 8 -275 30
-275 9 0 16 -22 16 -50 0 -50 -184 -79 -227 -36 -31 31 -358 36 -413 6 -25
-13 -40 -14 -40 -2 0 11 -20 15 -45 9 -71 -18 -315 -21 -315 -5 0 8 99 70 221
139 121 68 217 128 211 133 -5 6 -89 -34 -186 -88 -342 -189 -313 -198 -319
100 -5 317 -40 313 421 53z"/>
<path d="M2680 626 c0 -17 28 -26 80 -26 44 0 80 8 80 18 0 10 -36 21 -80 25
-56 6 -80 0 -80 -17z"/>
<path d="M3140 895 l0 -345 600 0 600 0 0 345 0 345 -600 0 -600 0 0 -345z
m333 264 c22 -22 196 -26 377 -9 55 5 159 14 230 21 l130 11 -168 -102 c-93
-57 -201 -119 -240 -139 l-72 -36 -194 112 c-250 146 -268 163 -164 163 44 0
90 -10 101 -21z m-128 -70 c137 -68 355 -191 355 -199 0 -12 -446 -250 -469
-250 -28 0 -29 264 -1 285 13 9 12 14 -2 15 -13 0 -20 24 -17 54 4 30 -3 66
-15 80 -15 19 -14 26 3 26 13 0 18 9 11 20 -21 34 29 22 135 -31z m919 -10 c5
-33 4 -64 -3 -68 -15 -9 -13 -134 2 -162 5 -10 12 -50 14 -88 2 -37 14 -80 26
-94 67 -82 -90 -111 -303 -57 -77 20 -410 7 -433 -16 -7 -7 -25 2 -40 21 -19
25 -24 26 -17 5 8 -24 -12 -31 -110 -33 -183 -4 -180 -1 252 245 l82 46 175
-100 c96 -55 183 -97 193 -94 10 3 -62 51 -161 105 -98 55 -177 102 -173 105
19 20 446 245 465 246 12 0 26 -27 31 -61z"/>
<path d="M4128 642 c-26 -26 1 -42 72 -42 51 0 80 9 80 25 0 23 -131 37 -152
17z"/>
<path d="M4589 1214 c-6 -14 -8 -167 -5 -340 l6 -314 596 -2 597 -1 2 336 3
337 -594 5 c-475 5 -597 0 -605 -21z m1031 -56 c0 -11 -8 -15 -18 -9 -10 6
-22 3 -25 -7 -4 -11 -92 -69 -196 -130 l-190 -110 -100 59 c-56 33 -153 88
-216 124 -164 91 -160 92 315 93 285 1 430 -6 430 -20z m-687 -140 c202 -108
225 -125 193 -147 -69 -47 -421 -231 -441 -231 -24 0 -22 177 2 215 8 14 7 25
-3 25 -9 0 -18 59 -18 130 -1 158 -14 157 267 8z m779 -19 c-3 -77 3 -146 13
-152 11 -7 9 -18 -4 -27 -18 -11 -16 -33 8 -90 41 -99 40 -150 -4 -148 -21 1
-25 5 -10 11 54 22 23 57 -49 55 -83 -2 -113 -40 -42 -54 25 -5 -8 -4 -74 3
-163 16 -296 16 -585 -3 -300 -19 -301 -13 -22 146 266 151 230 148 429 33 89
-51 175 -93 190 -92 15 0 -44 40 -132 88 -88 49 -173 97 -189 107 -29 17 393
263 453 264 16 0 22 -43 18 -141z"/>
<path d="M5820 370 l0 -190 -629 0 -629 0 -7 185 -7 185 -4 -195 -4 -195 650
0 650 0 0 200 c0 110 -4 200 -10 200 -5 0 -10 -85 -10 -190z"/>
<path d="M1644 355 l-4 -195 640 0 640 0 -4 195 -4 195 -7 -185 -7 -185 -618
0 -618 0 -7 185 -7 185 -4 -195z"/>
<path d="M4360 360 l0 -179 -635 -6 -635 -6 645 -4 645 -5 0 190 c0 105 -4
190 -10 190 -5 0 -10 -81 -10 -180z"/>
<path d="M1740 429 c0 -18 33 -26 110 -26 86 0 163 31 95 39 -136 14 -205 10
-205 -13z"/>
<path d="M1985 424 c3 -14 12 -26 20 -25 8 1 51 1 95 1 54 0 80 9 80 27 0 19
-28 26 -100 25 -71 -1 -99 -10 -95 -28z"/>
<path d="M3202 437 c-2 -28 28 -33 219 -34 165 -1 220 4 214 22 -9 28 -270 37
-359 13 -35 -9 -57 -6 -63 9 -6 13 -11 8 -11 -10z"/>
<path d="M4660 425 c0 -17 33 -25 100 -25 68 0 100 8 100 26 0 17 -32 25 -100
25 -67 -1 -100 -9 -100 -26z"/>
<path d="M4880 429 c0 -12 4 -27 9 -32 18 -18 201 13 191 32 -14 28 -200 28
-200 0z"/>
<path d="M1740 316 c0 -9 36 -16 80 -16 44 0 80 9 80 21 0 12 -35 19 -80 16
-44 -3 -80 -12 -80 -21z"/>
<path d="M1920 311 c0 -13 62 -20 175 -18 96 2 223 5 281 5 63 1 101 10 94 21
-17 28 -550 20 -550 -8z"/>
<path d="M3200 319 c0 -18 157 -31 275 -23 154 11 88 38 -95 38 -99 0 -180 -6
-180 -15z"/>
<path d="M3580 320 c0 -18 30 -25 110 -25 105 0 150 7 150 25 0 11 -57 20
-130 20 -73 0 -130 -9 -130 -20z"/>
<path d="M4660 320 c0 -11 32 -20 70 -20 39 0 70 9 70 20 0 11 -31 20 -70 20
-38 0 -70 -9 -70 -20z"/>
<path d="M4824 318 c4 -12 14 -20 22 -19 7 0 37 1 64 1 78 0 59 33 -21 36 -42
2 -69 -6 -65 -18z"/>
<path d="M4980 315 c0 -8 25 -16 55 -18 30 -1 75 -4 100 -7 28 -3 45 6 45 24
0 21 -24 27 -100 22 -55 -3 -100 -13 -100 -21z"/>
<path d="M5200 319 c0 -10 41 -19 90 -19 50 0 90 8 90 17 0 10 -40 19 -90 20
-49 1 -90 -7 -90 -18z"/>
</g>
</svg>
