<?xml version="1.0" standalone="no"?>
<!DOCTYPE svg PUBLIC "-//W3C//DTD SVG 20010904//EN"
 "http://www.w3.org/TR/2001/REC-SVG-20010904/DTD/svg10.dtd">
<svg version="1.0" xmlns="http://www.w3.org/2000/svg"
 width="300.000000pt" height="174.000000pt" viewBox="0 0 300.000000 174.000000"
 preserveAspectRatio="xMidYMid meet">
<metadata>
Created by potrace 1.10, written by Peter Selinger 2001-2011
</metadata>
<g transform="translate(0.000000,174.000000) scale(0.050000,-0.050000)"
fill="#000000" stroke="none">
<path d="M1635 3365 c773 -3 2037 -3 2810 0 773 3 141 5 -1405 5 -1545 0
-2178 -2 -1405 -5z"/>
<path d="M660 3180 l0 -80 660 0 660 0 0 80 0 80 -660 0 -660 0 0 -80z m1284
50 c6 -6 6 -33 1 -60 l-10 -50 -627 0 -628 0 0 60 0 60 627 0 c344 0 631 -5
637 -10z"/>
<path d="M720 3166 c0 -17 21 -23 65 -17 36 4 76 9 90 10 14 0 25 10 25 22 0
12 -38 19 -90 16 -58 -3 -90 -14 -90 -31z"/>
<path d="M920 3173 c0 -22 21 -29 77 -26 106 4 112 42 8 49 -64 5 -85 -1 -85
-23z"/>
<path d="M5500 3180 l0 -82 175 6 175 6 0 70 0 70 -175 6 -175 6 0 -82z m320
0 l0 -60 -150 0 -150 0 0 60 0 60 150 0 150 0 0 -60z"/>
<path d="M5580 3175 c0 -28 13 -33 65 -26 36 4 76 9 90 10 60 3 18 41 -45 41
-43 0 -70 -10 -70 -25 -1 -17 -7 -15 -20 5 -17 26 -19 25 -20 -5z"/>
<path d="M120 3171 c0 -15 63 -24 190 -25 152 -2 190 3 190 26 0 23 -38 28
-190 25 -127 -2 -190 -11 -190 -26z"/>
<path d="M120 1690 l0 -1310 650 0 650 0 0 1310 0 1310 -650 0 -650 0 0 -1310z
m1240 1269 c0 -12 8 -16 18 -10 10 6 16 -181 15 -429 -2 -280 -10 -440 -23
-440 -13 0 -12 -6 1 -15 28 -20 28 -665 1 -665 -11 0 -9 -11 4 -24 27 -27 33
-64 8 -49 -8 6 -17 -12 -20 -38 -2 -28 7 -49 21 -49 16 0 17 -6 5 -15 -28 -21
-34 -65 -10 -65 11 0 20 -10 20 -21 0 -12 -9 -16 -20 -9 -11 7 -20 -2 -20 -19
0 -17 8 -31 17 -31 9 0 16 -13 16 -29 0 -16 -7 -25 -16 -19 -9 6 -17 2 -17 -9
0 -11 11 -23 25 -28 19 -7 19 -16 -2 -42 -18 -21 -20 -33 -5 -33 12 0 22 -14
22 -31 0 -17 -9 -26 -20 -19 -11 7 -20 3 -20 -9 0 -11 9 -21 20 -21 11 0 20
-16 20 -35 -1 -30 -3 -31 -20 -5 -17 26 -19 25 -20 -3 0 -19 11 -37 25 -42 20
-7 20 -15 -1 -40 -21 -25 -21 -33 0 -40 21 -7 21 -15 -1 -42 -18 -21 -20 -33
-5 -33 12 0 22 -16 22 -35 -1 -30 -3 -31 -20 -5 -17 26 -19 25 -20 -3 0 -19
11 -39 25 -45 20 -10 20 -14 0 -24 -14 -6 -25 -27 -25 -46 0 -32 -43 -35 -605
-33 l-605 1 -6 1240 c-3 682 -1 1260 5 1285 l12 45 599 0 c409 0 600 -7 600
-21z"/>
<path d="M224 2807 c3 -30 17 -56 32 -59 14 -3 16 0 5 5 -27 13 -27 87 -1 87
11 0 20 -13 20 -28 0 -38 21 -43 140 -35 69 5 100 15 100 35 0 15 10 28 22 28
13 0 19 -21 13 -49 -5 -28 -2 -45 8 -39 9 6 17 28 17 49 0 22 14 39 30 39 17
0 30 -13 30 -28 0 -28 97 -49 165 -36 58 11 40 41 -30 50 -64 7 -64 8 10 11
55 2 75 -5 75 -27 0 -42 55 -38 66 5 7 27 10 25 12 -9 1 -26 -12 -47 -33 -52
-26 -7 -24 -10 10 -12 37 -2 45 8 45 58 l0 60 -371 0 -372 0 7 -53z"/>
<path d="M1040 2799 l0 -61 135 6 c131 6 135 8 141 61 l7 55 -142 0 -141 0 0
-61z m87 11 c-8 -22 3 -30 41 -30 33 0 52 11 52 30 0 17 14 30 30 30 40 0 39
-52 -2 -68 -77 -30 -188 -13 -188 28 0 26 13 40 39 40 27 0 36 -10 28 -30z"/>
<path d="M320 2614 c0 -16 28 -26 80 -26 53 0 80 8 80 26 0 17 -27 26 -80 26
-52 0 -80 -9 -80 -26z"/>
<path d="M400 2501 c0 -10 10 -25 23 -33 16 -10 18 -5 6 14 -13 22 -11 23 12
5 41 -32 139 -28 139 6 0 19 -27 27 -90 27 -49 0 -90 -8 -90 -19z"/>
<path d="M405 2375 c13 -39 175 -45 175 -6 0 24 -22 31 -92 31 -64 0 -89 -7
-83 -25z"/>
<path d="M2306 2985 c152 -3 395 -3 540 0 145 3 21 6 -276 6 -297 0 -416 -3
-264 -6z"/>
<path d="M3316 2985 c113 -4 293 -3 400 0 107 4 14 7 -206 7 -220 0 -307 -3
-194 -7z"/>
<path d="M4116 2985 c113 -4 293 -3 400 0 107 4 14 7 -206 7 -220 0 -307 -3
-194 -7z"/>
<path d="M4855 2985 c80 -4 210 -4 290 0 80 4 15 7 -145 7 -159 0 -225 -3
-145 -7z"/>
<path d="M5355 2986 c36 -5 90 -5 120 0 30 4 1 8 -65 8 -66 0 -91 -4 -55 -8z"/>
<path d="M1708 2802 c-30 -31 14 -42 172 -42 160 0 272 37 125 42 -239 7 -289
7 -297 0z"/>
<path d="M2520 2790 c0 -14 42 -25 110 -28 66 -2 110 4 110 17 0 12 -16 22
-35 22 -19 1 -69 4 -110 7 -47 4 -75 -3 -75 -18z"/>
<path d="M2760 2795 c0 -24 16 -35 50 -35 28 0 50 12 50 27 0 14 -13 26 -30
26 -16 0 -30 -9 -30 -21 0 -12 -9 -8 -20 8 -17 26 -19 25 -20 -5z"/>
<path d="M1900 2556 c0 -28 16 -36 70 -36 46 0 70 9 70 28 0 17 -27 31 -70 36
-57 6 -70 1 -70 -28z"/>
<path d="M1700 2562 c0 -41 161 -48 175 -7 6 18 -19 25 -83 25 -51 0 -92 -8
-92 -18z"/>
<path d="M2520 2553 c0 -17 28 -28 80 -30 59 -2 80 5 80 27 0 22 -22 30 -80
30 -53 0 -80 -9 -80 -27z"/>
<path d="M1700 2327 c0 -26 53 -38 120 -29 17 2 73 3 125 2 66 -1 95 6 95 24
0 19 -45 26 -170 28 -130 1 -170 -5 -170 -25z"/>
<path d="M2520 2330 c0 -22 22 -30 80 -30 58 0 80 8 80 30 0 22 -22 30 -80 30
-58 0 -80 -8 -80 -30z"/>
<path d="M1708 2122 c-30 -31 14 -42 172 -42 107 0 180 8 180 20 0 23 1 23
-197 27 -80 2 -150 -1 -155 -5z"/>
<path d="M2520 2109 c0 -20 24 -29 80 -29 55 0 80 9 80 28 0 18 -26 28 -80 28
-57 1 -80 -7 -80 -27z"/>
<path d="M1706 1894 c-18 -30 13 -41 124 -45 77 -2 110 4 110 22 0 29 -217 50
-234 23z"/>
<path d="M2520 1872 c0 -37 1002 -35 1015 2 5 17 -79 24 -314 25 -240 1 -321
-4 -321 -23 0 -19 -5 -19 -24 0 -36 36 -356 33 -356 -4z"/>
<path d="M1720 1658 c0 -43 146 -57 171 -17 19 31 6 38 -88 47 -71 7 -83 3
-83 -30z"/>
<path d="M1733 1447 c-23 -24 -14 -42 27 -53 48 -12 76 23 38 48 -34 21 -47
22 -65 5z"/>
<path d="M2374 1447 c-30 -30 -10 -43 76 -50 63 -5 90 0 90 18 0 14 -22 25
-48 25 -27 0 -61 5 -76 11 -16 5 -34 4 -42 -4z"/>
<path d="M4154 1447 c-33 -33 -8 -47 86 -47 55 0 100 9 100 20 0 11 -26 20
-58 20 -32 0 -71 5 -86 11 -16 5 -34 4 -42 -4z"/>
<path d="M5007 1435 c-20 -32 13 -46 92 -39 67 7 117 40 66 46 -83 8 -150 5
-158 -7z"/>
<path d="M5428 1442 c-26 -26 2 -42 74 -42 53 0 79 8 74 23 -8 22 -129 37
-148 19z"/>
<path d="M2737 1325 c575 -3 1511 -3 2080 0 568 3 97 5 -1047 5 -1144 0 -1609
-2 -1033 -5z"/>
<path d="M2375 1248 c-25 -25 7 -48 68 -48 39 0 57 9 52 25 -9 28 -99 45 -120
23z"/>
<path d="M4146 1233 c12 -37 414 -40 414 -4 0 23 -43 28 -211 28 -152 0 -209
-7 -203 -24z"/>
<path d="M5434 1247 c-23 -22 7 -47 57 -47 30 0 49 12 49 30 0 30 -80 43 -106
17z"/>
<path d="M2374 1047 c-24 -24 8 -47 67 -47 70 0 78 30 14 47 -57 16 -66 16
-81 0z"/>
<path d="M4149 1042 c-32 -32 16 -42 201 -42 187 0 210 4 210 35 -1 30 -3 31
-20 5 -11 -16 -20 -20 -20 -8 0 28 -66 28 -85 0 -10 -15 -21 -13 -35 8 -17 27
-19 27 -20 0 -1 -27 -3 -27 -20 0 -18 27 -22 27 -40 0 -17 -27 -19 -27 -20 0
0 24 -4 25 -18 3 -11 -18 -22 -20 -30 -6 -12 20 -85 24 -103 5z"/>
<path d="M5433 1047 c-28 -29 -10 -47 47 -47 40 0 60 10 60 30 0 30 -80 43
-107 17z"/>
<path d="M4149 839 c-25 -42 19 -53 210 -55 156 -2 201 4 201 25 0 35 -38 47
-100 31 -27 -7 -79 -6 -115 2 -36 7 -65 6 -65 -3 0 -9 -27 -8 -60 1 -35 10
-64 9 -71 -1z"/>
<path d="M5428 837 c-18 -29 12 -57 63 -57 28 0 49 12 49 28 0 31 -95 56 -112
29z"/>
<path d="M2371 815 c14 -36 169 -38 169 -2 0 19 -27 27 -89 27 -64 0 -87 -7
-80 -25z"/>
<path d="M2380 610 c0 -19 19 -30 50 -30 28 0 50 12 50 26 0 14 -22 27 -50 29
-33 3 -50 -6 -50 -25z"/>
<path d="M4146 613 c12 -37 414 -40 414 -4 0 23 -43 28 -211 28 -152 0 -209
-7 -203 -24z"/>
<path d="M5434 627 c-23 -22 7 -47 57 -47 30 0 49 12 49 30 0 30 -80 43 -106
17z"/>
<path d="M2737 505 c575 -3 1511 -3 2080 0 568 3 97 5 -1047 5 -1144 0 -1609
-2 -1033 -5z"/>
<path d="M1706 385 c141 -3 366 -3 500 0 134 4 19 6 -256 6 -275 0 -385 -3
-244 -6z"/>
<path d="M2655 385 c113 -3 297 -3 410 0 113 4 21 7 -205 7 -225 0 -318 -3
-205 -7z"/>
<path d="M3396 385 c69 -4 177 -4 240 0 63 4 6 7 -126 7 -132 0 -183 -3 -114
-7z"/>
<path d="M3916 385 c91 -4 235 -4 320 0 85 4 10 7 -166 7 -176 0 -245 -3 -154
-7z"/>
<path d="M4440 190 l0 -110 345 4 345 5 -335 6 -335 6 0 89 0 89 345 6 345 6
-355 5 -355 4 0 -110z"/>
<path d="M5160 200 l0 -100 340 0 340 0 0 100 0 100 -340 0 -340 0 0 -100z
m373 0 c70 0 41 -34 -31 -36 -36 -1 -63 11 -71 30 -8 22 -2 27 20 18 18 -6 55
-12 82 -12z"/>
<path d="M4680 186 c0 -21 25 -27 100 -22 134 8 138 45 5 48 -78 2 -105 -5
-105 -26z"/>
</g>
</svg>
