<?xml version="1.0" standalone="no"?>
<!DOCTYPE svg PUBLIC "-//W3C//DTD SVG 20010904//EN"
 "http://www.w3.org/TR/2001/REC-SVG-20010904/DTD/svg10.dtd">
<svg version="1.0" xmlns="http://www.w3.org/2000/svg"
 width="300.000000pt" height="166.000000pt" viewBox="0 0 300.000000 166.000000"
 preserveAspectRatio="xMidYMid meet">
<metadata>
Created by potrace 1.10, written by Peter Selinger 2001-2011
</metadata>
<g transform="translate(0.000000,166.000000) scale(0.050000,-0.050000)"
fill="#000000" stroke="none">
<path d="M815 3205 c91 -4 239 -4 330 0 91 4 17 7 -165 7 -181 0 -256 -3 -165
-7z"/>
<path d="M1826 3205 c97 -4 250 -4 340 0 90 4 11 7 -176 7 -187 0 -261 -3
-164 -7z"/>
<path d="M2835 3205 c91 -4 239 -4 330 0 91 4 17 7 -165 7 -181 0 -256 -3
-165 -7z"/>
<path d="M4204 3205 c293 -3 779 -3 1080 0 300 3 60 6 -534 6 -594 0 -840 -3
-546 -6z"/>
<path d="M300 3085 c0 -18 49 -25 180 -25 107 0 180 8 180 20 0 11 -34 21 -75
21 -41 1 -122 3 -180 5 -73 3 -105 -4 -105 -21z"/>
<path d="M1300 3086 c0 -17 52 -24 180 -24 163 0 269 36 115 39 -36 1 -117 3
-180 5 -79 3 -115 -4 -115 -20z"/>
<path d="M2302 3095 c-2 -28 15 -35 88 -35 52 0 90 9 90 22 0 14 -30 19 -80
15 -44 -5 -84 1 -88 12 -5 12 -10 5 -10 -14z"/>
<path d="M2500 3085 c0 -16 29 -25 79 -25 111 0 120 34 11 43 -63 5 -90 0 -90
-18z"/>
<path d="M3320 3085 c0 -18 49 -25 180 -25 107 0 180 8 180 20 0 11 -34 21
-75 21 -41 1 -122 3 -180 5 -73 3 -105 -4 -105 -21z"/>
<path d="M293 3027 c-7 -8 -13 -44 -13 -80 l0 -67 480 0 480 0 0 80 0 80 -467
0 c-256 0 -472 -6 -480 -13z m927 -67 l0 -60 -460 0 -460 0 0 60 0 60 460 0
460 0 0 -60z"/>
<path d="M340 2954 c0 -32 80 -39 175 -15 38 9 -13 41 -65 41 -43 0 -70 -10
-70 -25 -1 -17 -7 -15 -20 5 -16 25 -19 25 -20 -6z"/>
<path d="M544 2956 c5 -15 47 -29 95 -32 63 -5 83 0 77 20 -5 15 -47 29 -95
32 -63 5 -83 0 -77 -20z"/>
<path d="M1300 2960 l0 -80 470 0 470 0 0 80 0 80 -470 0 -470 0 0 -80z m920
0 l0 -60 -450 0 -450 0 0 60 0 60 450 0 450 0 0 -60z"/>
<path d="M1360 2953 c0 -17 53 -25 180 -28 143 -2 180 3 180 25 0 22 -38 28
-180 28 -129 0 -180 -7 -180 -25z"/>
<path d="M2300 2960 l0 -81 475 6 475 5 0 70 0 70 -475 5 -475 6 0 -81z m940
0 l0 -60 -460 0 -460 0 0 60 0 60 460 0 460 0 0 -60z"/>
<path d="M2360 2952 c0 -14 63 -23 180 -26 148 -3 180 1 180 26 0 25 -32 29
-180 26 -117 -2 -180 -11 -180 -26z"/>
<path d="M3300 2960 l0 -80 480 0 480 0 0 80 0 80 -480 0 -480 0 0 -80z m940
0 l0 -60 -460 0 -460 0 0 60 0 60 460 0 460 0 0 -60z"/>
<path d="M3360 2956 c0 -32 35 -36 165 -18 49 7 3 42 -55 42 -43 0 -70 -10
-70 -25 -1 -17 -7 -15 -20 5 -17 26 -19 25 -20 -4z"/>
<path d="M3560 2950 c0 -26 18 -31 85 -26 47 3 85 15 85 26 0 11 -38 23 -85
26 -67 5 -85 0 -85 -26z"/>
<path d="M300 2748 c0 -19 46 -26 180 -26 139 0 180 6 180 27 0 21 -41 27
-180 26 -134 0 -180 -7 -180 -27z"/>
<path d="M2300 2757 c0 -27 19 -34 90 -34 64 0 90 8 90 29 0 19 -23 28 -70 28
-43 0 -70 -10 -70 -25 -1 -17 -7 -15 -20 5 -17 26 -19 25 -20 -3z"/>
<path d="M2500 2749 c0 -24 19 -30 85 -25 106 8 103 44 -5 51 -61 3 -80 -3
-80 -26z"/>
<path d="M3320 2747 c0 -21 43 -27 180 -27 147 0 180 6 180 30 0 25 -31 30
-180 27 -135 -3 -180 -10 -180 -30z"/>
<path d="M795 2665 c58 -4 152 -4 210 0 58 4 11 8 -105 8 -116 0 -163 -4 -105
-8z"/>
<path d="M1815 2665 c58 -4 152 -4 210 0 58 4 11 8 -105 8 -115 0 -163 -4
-105 -8z"/>
<path d="M2705 2666 c73 -19 43 -103 -40 -111 l-75 -8 85 -4 c84 -3 85 -3 85
67 0 60 -6 70 -45 68 -34 -2 -36 -5 -10 -12z"/>
<path d="M3955 2665 l285 -6 0 -49 0 -49 -325 -6 -325 -6 335 -5 335 -4 0 70
0 70 -295 -4 -295 -5 285 -6z"/>
<path d="M5340 2610 l0 -70 160 0 160 0 0 70 0 70 -160 0 -160 0 0 -70z"/>
<path d="M331 2614 c15 -37 357 -47 344 -10 -6 18 -61 27 -181 31 -133 3 -170
-2 -163 -21z"/>
<path d="M1100 2610 c0 -17 18 -30 40 -30 22 0 40 13 40 30 0 17 -18 30 -40
30 -22 0 -40 -13 -40 -30z"/>
<path d="M1372 2611 c8 -20 50 -26 164 -24 217 4 217 42 0 48 -142 3 -172 -1
-164 -24z"/>
<path d="M2140 2610 c0 -17 18 -30 40 -30 22 0 40 13 40 30 0 17 -18 30 -40
30 -22 0 -40 -13 -40 -30z"/>
<path d="M2340 2609 c0 -19 21 -29 60 -29 79 0 79 49 0 54 -41 3 -60 -5 -60
-25z"/>
<path d="M2480 2605 c0 -14 23 -25 50 -25 28 0 50 11 50 25 0 14 -22 25 -50
25 -27 0 -50 -11 -50 -25z"/>
<path d="M2820 2606 c0 -16 24 -26 60 -26 35 0 60 11 60 25 0 14 -26 25 -60
26 -36 0 -60 -10 -60 -25z"/>
<path d="M2960 2605 c0 -14 23 -25 50 -25 28 0 50 11 50 25 0 14 -22 25 -50
25 -27 0 -50 -11 -50 -25z"/>
<path d="M3354 2627 c-23 -22 7 -47 57 -47 55 0 66 29 17 48 -40 15 -58 15
-74 -1z"/>
<path d="M3480 2606 c0 -16 25 -26 62 -26 38 0 58 9 54 23 -11 33 -116 35
-116 3z"/>
<path d="M786 2545 c63 -4 162 -4 220 0 57 4 5 8 -116 8 -121 -1 -168 -4 -104
-8z"/>
<path d="M1815 2545 c58 -4 152 -4 210 0 58 4 11 8 -105 8 -115 0 -163 -4
-105 -8z"/>
<path d="M846 2445 c108 -4 279 -4 380 0 101 4 13 7 -196 7 -209 0 -292 -3
-184 -7z"/>
<path d="M1825 2445 c74 -4 196 -4 270 0 74 4 14 7 -135 7 -148 0 -209 -3
-135 -7z"/>
<path d="M2615 2445 c47 -4 123 -4 170 0 47 5 9 8 -85 8 -93 0 -132 -3 -85 -8z"/>
<path d="M3115 2445 c47 -4 123 -4 170 0 47 5 9 8 -85 8 -93 0 -132 -3 -85 -8z"/>
<path d="M3985 2445 c228 -3 602 -3 830 0 228 3 42 6 -415 6 -456 0 -643 -3
-415 -6z"/>
<path d="M120 2236 c0 -28 21 -33 131 -33 93 0 129 7 124 23 -10 29 -191 36
-208 9 -7 -11 -19 -7 -29 8 -14 21 -17 20 -18 -7z"/>
<path d="M405 2221 c3 -17 17 -30 30 -29 14 1 71 3 127 5 154 5 119 53 -39 54
-102 1 -123 -5 -118 -30z"/>
<path d="M120 1986 c0 -19 29 -26 101 -23 127 4 121 43 -7 47 -66 1 -94 -6
-94 -24z"/>
<path d="M400 1986 c0 -21 13 -27 40 -20 22 6 40 4 40 -3 0 -24 227 -12 235
13 6 17 -30 24 -118 26 -70 0 -143 4 -162 8 -21 4 -35 -6 -35 -24z"/>
<path d="M140 1812 c0 -24 20 -32 80 -32 44 0 80 9 80 20 0 11 -22 20 -48 20
-27 0 -63 5 -80 12 -21 8 -32 1 -32 -20z"/>
<path d="M980 1810 c0 -22 23 -30 90 -30 67 0 90 8 90 30 0 35 6 35 -75 11
-40 -11 -65 -11 -65 0 0 11 -9 19 -20 19 -11 0 -20 -13 -20 -30z"/>
<path d="M2160 1808 c0 -19 25 -28 80 -28 64 0 122 36 65 41 -8 1 -44 4 -80 8
-45 4 -65 -2 -65 -21z"/>
<path d="M2908 1822 c-28 -28 6 -42 102 -42 91 0 166 37 85 41 -125 8 -180 8
-187 1z"/>
<path d="M3540 1813 c0 -39 18 -50 61 -38 56 14 48 56 -11 60 -30 3 -50 -6
-50 -22z"/>
<path d="M4160 1807 c0 -20 33 -27 120 -27 110 0 180 38 75 41 -25 1 -79 4
-120 7 -52 4 -75 -2 -75 -21z"/>
<path d="M4793 1827 c-28 -29 -10 -47 47 -47 40 0 60 10 60 30 0 30 -80 43
-107 17z"/>
<path d="M4010 1720 l-1760 -10 1785 -5 c982 -3 1785 3 1785 12 0 9 -11 16
-25 15 -14 -1 -817 -7 -1785 -12z"/>
<path d="M726 1705 c284 -3 743 -3 1020 0 277 3 45 6 -516 6 -561 0 -788 -3
-504 -6z"/>
<path d="M140 1614 c0 -19 30 -26 100 -25 66 1 100 10 100 26 0 17 -33 25
-100 25 -69 0 -100 -8 -100 -26z"/>
<path d="M360 1614 c0 -21 34 -27 145 -25 80 1 145 11 145 21 0 11 -65 23
-145 26 -113 4 -145 0 -145 -22z"/>
<path d="M980 1614 c0 -19 84 -26 370 -28 305 -2 370 3 370 26 0 23 -66 28
-370 28 -287 0 -370 -6 -370 -26z"/>
<path d="M2160 1614 c0 -17 28 -27 80 -28 50 -1 75 6 67 19 -7 12 -4 15 8 8
48 -29 185 -30 185 -1 0 22 -37 28 -170 28 -127 0 -170 -7 -170 -26z"/>
<path d="M2900 1614 c0 -15 28 -28 70 -31 52 -3 70 4 70 26 0 22 -20 31 -70
31 -44 0 -70 -10 -70 -26z"/>
<path d="M4160 1609 c0 -19 14 -29 33 -25 51 9 57 56 9 56 -25 0 -42 -13 -42
-31z"/>
<path d="M142 1415 c-2 -26 14 -35 58 -35 33 0 60 8 60 19 0 32 -41 45 -69 22
-20 -17 -30 -16 -37 3 -7 17 -11 13 -12 -9z"/>
<path d="M275 1405 c13 -35 272 -35 260 0 -5 16 -54 24 -139 25 -97 0 -128 -7
-121 -25z"/>
<path d="M980 1408 c0 -29 18 -30 440 -30 288 0 300 1 300 27 0 32 -542 38
-565 6 -9 -13 -15 -14 -15 -1 0 11 -36 21 -80 23 -56 1 -80 -6 -80 -25z"/>
<path d="M2160 1411 c0 -26 29 -31 170 -31 133 0 170 6 170 28 0 21 -26 29
-90 29 -49 0 -90 -10 -90 -21 0 -13 -9 -14 -25 -3 -46 34 -135 33 -135 -2z"/>
<path d="M2900 1411 c0 -22 20 -31 70 -31 44 0 70 10 70 26 0 15 -28 28 -70
31 -52 3 -70 -4 -70 -26z"/>
<path d="M140 1212 c0 -23 19 -32 70 -32 39 0 70 9 70 20 0 11 -11 20 -25 20
-14 0 -45 6 -70 13 -33 8 -45 3 -45 -21z"/>
<path d="M300 1212 c0 -23 19 -32 70 -32 39 0 70 9 70 20 0 11 -17 20 -38 20
-21 0 -53 5 -70 12 -21 8 -32 1 -32 -20z"/>
<path d="M1015 1224 c-87 -17 -22 -44 110 -45 521 -4 622 1 593 30 -11 10
-656 25 -703 15z"/>
<path d="M2160 1208 c0 -22 37 -28 172 -28 116 0 169 7 164 22 -9 28 -176 42
-176 15 0 -11 -11 -12 -25 -4 -46 29 -135 26 -135 -5z"/>
<path d="M2900 1211 c0 -22 20 -31 70 -31 58 0 105 36 55 42 -8 1 -40 5 -70
10 -40 7 -55 1 -55 -21z"/>
<path d="M140 1010 c0 -33 12 -36 130 -30 44 2 86 13 93 24 8 14 15 14 20 0
11 -31 122 -38 132 -9 5 16 -13 26 -48 27 -31 2 -93 5 -137 7 -44 2 -101 -3
-126 -12 -30 -11 -42 -10 -34 3 7 11 3 20 -9 20 -11 0 -21 -13 -21 -30z"/>
<path d="M1015 1024 c-87 -17 -22 -44 110 -45 521 -4 622 1 593 30 -11 10
-656 25 -703 15z"/>
<path d="M2160 1007 c0 -20 42 -27 172 -27 121 0 169 7 164 23 -12 35 -336 39
-336 4z"/>
<path d="M2900 1011 c0 -22 20 -31 70 -31 58 0 105 36 55 42 -8 1 -40 5 -70
10 -40 7 -55 1 -55 -21z"/>
<path d="M140 807 c0 -20 33 -27 122 -27 85 0 119 7 113 24 -11 35 -235 38
-235 3z"/>
<path d="M400 805 c0 -18 46 -25 162 -25 212 0 206 41 -7 46 -113 3 -155 -3
-155 -21z"/>
<path d="M1015 824 c-86 -17 -22 -44 110 -46 457 -6 621 3 593 31 -11 10 -656
25 -703 15z"/>
<path d="M2160 807 c0 -20 42 -27 172 -27 121 0 169 7 164 23 -12 35 -336 39
-336 4z"/>
<path d="M2900 811 c0 -22 20 -31 70 -31 58 0 105 36 55 42 -8 1 -40 5 -70 10
-40 7 -55 1 -55 -21z"/>
<path d="M140 607 c0 -20 33 -27 122 -27 85 0 119 7 113 24 -11 35 -235 38
-235 3z"/>
<path d="M400 612 c0 -25 21 -32 90 -32 50 0 90 9 90 20 0 11 -26 20 -58 20
-32 0 -73 5 -90 12 -21 8 -32 1 -32 -20z"/>
<path d="M1015 624 c-87 -17 -22 -44 110 -46 488 -6 623 1 593 30 -10 11 -656
25 -703 16z"/>
<path d="M2160 606 c0 -19 46 -26 172 -26 120 0 169 7 164 23 -12 34 -336 37
-336 3z"/>
<path d="M2900 611 c0 -22 20 -31 70 -31 58 0 105 36 55 42 -8 1 -40 5 -70 10
-40 7 -55 1 -55 -21z"/>
<path d="M140 407 c0 -21 46 -27 210 -27 214 0 307 38 105 43 -58 1 -152 4
-210 7 -78 3 -105 -3 -105 -23z"/>
<path d="M1014 424 c-86 -17 -20 -44 111 -46 456 -7 622 2 593 31 -10 10 -657
24 -704 15z"/>
<path d="M2160 406 c0 -19 46 -26 172 -26 120 0 169 7 164 23 -12 34 -336 37
-336 3z"/>
<path d="M2900 407 c0 -18 25 -27 70 -27 58 0 104 35 55 42 -94 12 -125 9
-125 -15z"/>
<path d="M4160 410 c0 -17 18 -30 40 -30 22 0 40 13 40 30 0 17 -18 30 -40 30
-22 0 -40 -13 -40 -30z"/>
<path d="M385 305 c151 -3 399 -3 550 0 151 3 28 6 -275 6 -302 0 -426 -3
-275 -6z"/>
<path d="M1604 305 c139 -3 373 -3 520 0 146 3 32 6 -254 6 -286 0 -406 -3
-266 -6z"/>
<path d="M3257 305 c476 -3 1250 -3 1720 0 469 3 79 5 -867 5 -946 0 -1330 -2
-853 -5z"/>
<path d="M3904 165 c4 -54 16 -76 41 -78 25 -2 27 0 5 7 -50 15 -39 122 15
132 38 7 36 9 -11 11 -53 3 -56 -1 -50 -72z"/>
<path d="M4097 164 c-7 -69 -3 -76 43 -78 29 -1 35 2 15 8 -82 21 -43 123 50
131 l85 8 -93 4 -93 3 -7 -76z"/>
<path d="M2520 160 c0 -92 128 -92 134 0 4 56 0 60 -65 60 -63 0 -69 -5 -69
-60z"/>
<path d="M3520 170 c0 -21 22 -30 72 -30 90 0 83 47 -9 54 -45 4 -63 -3 -63
-24z"/>
<path d="M4160 171 c0 -18 17 -31 42 -31 48 0 42 47 -9 56 -19 4 -33 -6 -33
-25z"/>
</g>
</svg>
