<?xml version="1.0" standalone="no"?>
<!DOCTYPE svg PUBLIC "-//W3C//DTD SVG 20010904//EN"
 "http://www.w3.org/TR/2001/REC-SVG-20010904/DTD/svg10.dtd">
<svg version="1.0" xmlns="http://www.w3.org/2000/svg"
 width="300.000000pt" height="173.000000pt" viewBox="0 0 300.000000 173.000000"
 preserveAspectRatio="xMidYMid meet">
<metadata>
Created by potrace 1.10, written by Peter Selinger 2001-2011
</metadata>
<g transform="translate(0.000000,173.000000) scale(0.050000,-0.050000)"
fill="#000000" stroke="none">
<path d="M640 3170 l0 -70 650 0 650 0 0 70 0 70 -650 0 -650 0 0 -70z m1280
0 l0 -50 -630 0 -630 0 0 50 0 50 630 0 630 0 0 -50z"/>
<path d="M700 3165 c0 -18 49 -25 180 -25 107 0 180 8 180 20 0 11 -34 21 -75
21 -41 1 -122 3 -180 5 -73 3 -105 -4 -105 -21z"/>
<path d="M5440 3170 l0 -70 180 0 180 0 0 70 0 70 -180 0 -180 0 0 -70z m340
0 c0 -49 -3 -50 -160 -50 -157 0 -160 1 -160 50 0 49 3 50 160 50 157 0 160
-1 160 -50z"/>
<path d="M5522 3175 c-2 -28 15 -35 88 -35 52 0 90 9 90 22 0 14 -30 19 -80
15 -44 -5 -84 1 -88 12 -5 12 -10 5 -10 -14z"/>
<path d="M100 3165 c0 -30 349 -42 378 -13 21 20 -21 27 -194 32 -138 5 -184
0 -184 -19z"/>
<path d="M495 2986 c35 -5 98 -5 140 -1 41 5 12 8 -65 8 -77 1 -111 -3 -75 -7z"/>
<path d="M2175 2985 c608 -3 1602 -3 2210 0 608 3 111 5 -1105 5 -1215 0
-1713 -2 -1105 -5z"/>
<path d="M124 2810 c5 -33 22 -40 91 -41 104 -1 116 43 15 55 -41 5 -70 -1
-70 -13 0 -12 -10 -7 -21 9 -18 25 -20 23 -15 -10z"/>
<path d="M3065 2776 c12 -37 175 -47 175 -11 0 19 -30 29 -92 32 -68 4 -90 -2
-83 -21z"/>
<path d="M3980 2769 c0 -23 17 -30 63 -25 92 9 99 56 9 56 -52 0 -72 -9 -72
-31z"/>
<path d="M140 2571 c0 -18 17 -31 42 -31 48 0 42 47 -9 56 -19 4 -33 -6 -33
-25z"/>
<path d="M560 2572 c0 -25 20 -32 90 -32 50 0 90 9 90 20 0 11 -20 20 -45 20
-25 0 -65 6 -90 13 -33 8 -45 3 -45 -21z"/>
<path d="M1215 2588 c-29 -28 10 -48 96 -48 49 0 89 9 89 20 0 11 -20 20 -45
20 -25 0 -63 5 -86 11 -22 6 -46 5 -54 -3z"/>
<path d="M2060 2567 c0 -19 28 -27 90 -27 71 0 137 36 75 41 -152 12 -165 11
-165 -14z"/>
<path d="M2480 2567 c0 -18 27 -27 82 -27 103 0 96 43 -8 49 -51 3 -74 -4 -74
-22z"/>
<path d="M3060 2556 c0 -22 27 -31 100 -33 57 -2 100 5 100 17 0 11 -17 20
-37 20 -21 0 -66 6 -100 13 -48 9 -63 5 -63 -17z"/>
<path d="M3980 2550 c0 -21 48 -26 210 -25 155 2 210 9 210 27 0 19 -54 25
-210 25 -161 -1 -210 -7 -210 -27z"/>
<path d="M816 2485 c389 -3 1019 -3 1400 0 382 3 64 6 -706 6 -770 0 -1082 -3
-694 -6z"/>
<path d="M567 2395 c-15 -23 -9 -27 68 -42 48 -9 65 -5 65 15 0 31 -116 55
-133 27z"/>
<path d="M1210 2403 c-33 -33 13 -43 200 -43 173 0 210 5 210 30 0 21 -21 30
-70 30 -43 0 -70 -10 -70 -25 0 -16 -6 -17 -15 -5 -22 30 -125 37 -125 9 0
-16 -8 -18 -25 -4 -26 20 -88 25 -105 8z"/>
<path d="M2493 2407 c-25 -25 -13 -42 36 -52 48 -9 88 32 52 54 -10 6 -22 0
-28 -14 -8 -20 -10 -20 -11 0 -2 27 -27 33 -49 12z"/>
<path d="M3071 2344 c-24 -24 18 -44 89 -44 63 0 141 37 86 41 -9 1 -50 4 -91
7 -41 3 -79 1 -84 -4z"/>
<path d="M560 2170 c0 -21 21 -30 70 -30 49 0 70 9 70 30 0 21 -21 30 -70 30
-49 0 -70 -9 -70 -30z"/>
<path d="M1205 2174 c13 -39 415 -42 415 -4 0 17 -13 30 -30 30 -16 0 -30 -11
-30 -25 -1 -19 -5 -18 -17 2 -19 29 -84 25 -108 -7 -9 -13 -14 -12 -15 3 0 14
-42 23 -111 24 -79 1 -109 -6 -104 -23z"/>
<path d="M2480 2170 c0 -19 19 -30 50 -30 34 0 50 11 50 35 -1 30 -3 31 -20 5
-13 -20 -19 -22 -20 -5 0 14 -13 25 -30 25 -16 0 -30 -13 -30 -30z"/>
<path d="M3068 2122 c-26 -26 2 -42 74 -42 53 0 79 8 74 23 -8 22 -129 37
-148 19z"/>
<path d="M3980 2110 c0 -18 19 -30 49 -30 52 0 84 30 53 49 -10 6 -23 0 -29
-14 -8 -20 -10 -20 -11 0 -3 36 -62 31 -62 -5z"/>
<path d="M560 1971 c0 -36 149 -45 170 -11 7 11 10 21 6 21 -105 21 -176 17
-176 -10z"/>
<path d="M1205 1975 c10 -30 252 -35 260 -5 3 12 -53 22 -132 25 -100 3 -134
-2 -128 -20z"/>
<path d="M1487 1970 c0 -21 20 -30 66 -30 46 0 67 9 67 30 0 21 -21 30 -67 30
-46 0 -66 -9 -66 -30z"/>
<path d="M2480 1970 c0 -20 20 -30 60 -30 40 0 60 10 60 30 0 36 -33 40 -47 5
-8 -20 -10 -20 -11 0 -3 36 -62 31 -62 -5z"/>
<path d="M3065 1876 c12 -36 235 -39 235 -4 0 21 -32 28 -122 28 -86 0 -119
-7 -113 -24z"/>
<path d="M3980 1875 c0 -20 69 -26 300 -28 235 -2 300 3 300 24 0 20 -67 26
-300 28 -233 1 -300 -4 -300 -24z"/>
<path d="M560 1767 c0 -17 23 -27 60 -27 79 0 79 49 0 52 -38 1 -60 -8 -60
-25z"/>
<path d="M1213 1787 c-37 -37 5 -47 197 -47 173 0 210 5 210 30 0 21 -21 30
-71 30 -43 0 -66 -8 -59 -20 7 -11 3 -20 -9 -20 -11 0 -21 9 -21 20 0 29 -115
25 -127 -5 -8 -20 -10 -20 -11 0 -2 26 -85 35 -109 12z"/>
<path d="M2480 1771 c0 -21 20 -31 62 -31 76 0 69 44 -8 54 -38 5 -54 -2 -54
-23z"/>
<path d="M5015 1685 l765 -5 0 -410 0 -410 -890 0 -889 0 -6 385 -6 385 -4
-395 -5 -395 910 0 910 0 0 430 0 430 -775 -5 -775 -5 765 -5z"/>
<path d="M3066 1653 c12 -37 354 -42 354 -5 0 23 -36 29 -181 29 -127 -1 -179
-8 -173 -24z"/>
<path d="M4020 1629 c0 -19 21 -29 60 -29 79 0 79 49 0 54 -41 3 -60 -5 -60
-25z"/>
<path d="M4160 1625 c0 -14 23 -25 50 -25 28 0 50 11 50 25 0 14 -22 25 -50
25 -27 0 -50 -11 -50 -25z"/>
<path d="M560 1567 c0 -17 23 -27 60 -27 79 0 79 49 0 52 -38 1 -60 -8 -60
-25z"/>
<path d="M1213 1587 c-37 -37 5 -47 197 -47 173 0 210 5 210 30 0 21 -21 30
-71 30 -43 0 -66 -8 -59 -20 7 -11 3 -20 -9 -20 -11 0 -21 9 -21 20 0 11 -27
20 -60 20 -33 0 -60 -11 -60 -24 0 -19 -5 -19 -24 0 -26 26 -81 32 -103 11z"/>
<path d="M2480 1571 c0 -21 20 -31 62 -31 76 0 69 44 -8 54 -38 5 -54 -2 -54
-23z"/>
<path d="M560 1367 c0 -17 23 -27 60 -27 79 0 79 49 0 52 -38 1 -60 -8 -60
-25z"/>
<path d="M1208 1377 c-24 -39 18 -47 210 -41 152 5 202 13 202 33 0 17 -25 27
-70 27 -39 0 -70 -10 -70 -23 -1 -15 -6 -16 -15 -3 -19 27 -125 31 -125 5 0
-13 -9 -13 -25 0 -30 24 -93 25 -107 2z"/>
<path d="M2489 1378 c-8 -12 -4 -31 7 -42 27 -27 94 -12 94 22 0 34 -83 50
-101 20z"/>
<path d="M570 1184 c-27 -28 -4 -56 50 -60 40 -3 60 5 60 23 0 28 -89 57 -110
37z"/>
<path d="M2487 1176 c-6 -11 -2 -29 9 -40 24 -24 88 -14 98 17 9 27 -90 49
-107 23z"/>
<path d="M1206 1153 c11 -35 414 -36 414 -2 0 20 -52 26 -211 26 -152 0 -209
-7 -203 -24z"/>
<path d="M560 950 c0 -20 20 -30 60 -30 40 0 60 10 60 30 0 20 -20 30 -60 30
-40 0 -60 -10 -60 -30z"/>
<path d="M1206 953 c12 -37 414 -41 414 -4 0 23 -42 28 -211 28 -152 0 -209
-7 -203 -24z"/>
<path d="M2480 949 c0 -23 16 -30 53 -25 78 9 85 56 9 56 -43 0 -62 -10 -62
-31z"/>
<path d="M560 749 c0 -19 21 -29 60 -29 37 0 60 10 60 27 0 16 -24 28 -60 29
-40 1 -60 -8 -60 -27z"/>
<path d="M1206 753 c12 -37 414 -40 414 -4 0 23 -43 28 -211 28 -152 0 -209
-7 -203 -24z"/>
<path d="M2480 747 c0 -20 16 -28 53 -23 76 9 81 50 8 52 -42 1 -61 -8 -61
-29z"/>
<path d="M3987 690 c-7 -18 -3 -42 9 -54 30 -30 88 -3 80 39 -9 46 -73 57 -89
15z"/>
<path d="M4573 691 c-13 -34 36 -80 66 -62 12 8 21 31 21 52 0 46 -70 54 -87
10z"/>
<path d="M4947 690 c-7 -18 -3 -42 9 -54 30 -30 88 -3 80 39 -9 46 -73 57 -89
15z"/>
<path d="M3072 672 c14 -36 188 -47 188 -12 0 11 -11 20 -25 21 -14 0 -59 5
-100 11 -63 9 -73 6 -63 -20z"/>
<path d="M4102 677 c-2 -27 22 -35 123 -40 163 -9 295 1 295 22 0 23 -166 35
-294 21 -66 -8 -109 -4 -114 9 -5 12 -10 6 -10 -12z"/>
<path d="M4700 665 c0 -17 33 -25 100 -25 130 0 130 34 0 43 -70 5 -100 0
-100 -18z"/>
<path d="M5064 664 c4 -14 13 -26 21 -25 8 1 55 1 104 1 64 0 87 7 80 25 -14
36 -212 35 -205 -1z"/>
<path d="M805 645 c382 -3 1008 -3 1390 0 382 3 70 6 -695 6 -765 0 -1077 -3
-695 -6z"/>
<path d="M1145 365 c580 -3 1530 -3 2110 0 580 3 106 5 -1055 5 -1160 0 -1635
-2 -1055 -5z"/>
<path d="M4380 210 l0 -110 339 0 c186 0 343 7 348 15 5 8 -143 12 -329 9
l-338 -6 0 91 0 90 345 6 345 6 -355 5 -355 4 0 -110z"/>
<path d="M5100 220 l0 -100 340 0 340 0 0 100 0 100 -340 0 -340 0 0 -100z
m420 -20 c0 -9 -31 -16 -70 -16 -41 0 -70 10 -70 24 0 16 24 21 70 16 39 -5
70 -15 70 -24z"/>
<path d="M4640 207 c0 -19 29 -26 101 -24 129 3 122 46 -8 49 -65 1 -93 -6
-93 -25z"/>
</g>
</svg>
