<?xml version="1.0" standalone="no"?>
<!DOCTYPE svg PUBLIC "-//W3C//DTD SVG 20010904//EN"
 "http://www.w3.org/TR/2001/REC-SVG-20010904/DTD/svg10.dtd">
<svg version="1.0" xmlns="http://www.w3.org/2000/svg"
 width="300.000000pt" height="166.000000pt" viewBox="0 0 300.000000 166.000000"
 preserveAspectRatio="xMidYMid meet">
<metadata>
Created by potrace 1.10, written by Peter Selinger 2001-2011
</metadata>
<g transform="translate(0.000000,166.000000) scale(0.050000,-0.050000)"
fill="#000000" stroke="none">
<path d="M600 3170 l0 -70 695 -1 c382 -1 740 -2 795 -2 55 -1 188 0 295 1
l195 2 0 70 0 70 -990 0 -990 0 0 -70z m1960 0 l0 -50 -845 3 c-465 2 -811 7
-770 12 99 10 96 39 -5 48 -66 7 -80 2 -80 -27 0 -31 -18 -36 -120 -36 -115 0
-120 2 -120 50 l0 50 970 0 970 0 0 -50z"/>
<path d="M660 3165 c0 -16 31 -25 90 -25 50 0 90 8 90 18 0 10 -40 21 -90 25
-63 5 -90 0 -90 -18z"/>
<path d="M100 3165 c0 -30 349 -42 378 -13 21 20 -21 27 -194 32 -138 5 -184
0 -184 -19z"/>
<path d="M607 2929 c-7 -18 -2 -42 10 -54 29 -29 95 29 74 63 -20 32 -70 27
-84 -9z"/>
<path d="M1192 2943 c-20 -32 11 -85 46 -79 42 8 42 84 -1 92 -18 3 -39 -2
-45 -13z"/>
<path d="M722 2915 c-2 -29 15 -35 98 -35 59 0 100 9 100 22 0 14 -33 19 -90
15 -49 -4 -94 2 -98 13 -5 11 -10 4 -10 -15z"/>
<path d="M944 2904 c4 -14 13 -26 21 -25 8 1 51 1 95 1 115 0 99 35 -21 43
-74 5 -99 0 -95 -19z"/>
<path d="M1320 2907 c0 -14 38 -23 100 -24 130 -1 130 31 0 40 -66 5 -100 -1
-100 -16z"/>
<path d="M1544 2904 c4 -14 13 -26 21 -25 8 1 51 1 95 1 115 0 99 35 -21 43
-74 5 -99 0 -95 -19z"/>
<path d="M105 2896 c9 -28 165 -24 215 5 19 12 -14 18 -97 18 -91 1 -124 -6
-118 -23z"/>
<path d="M1695 2685 l865 -5 0 -50 0 -50 -835 -5 -835 -5 845 -5 845 -5 0 70
0 70 -875 -5 -875 -5 865 -5z"/>
<path d="M3860 2630 c0 -38 7 -70 17 -70 9 0 12 26 8 58 -7 44 0 61 28 68 30
8 29 10 -8 12 -39 2 -45 -8 -45 -68z"/>
<path d="M4965 2685 l855 -5 0 -50 0 -50 -835 -5 -835 -5 845 -5 845 -5 0 70
0 70 -865 -5 -865 -5 855 -5z"/>
<path d="M100 2625 c0 -26 149 -36 208 -13 63 24 30 38 -88 38 -83 0 -120 -8
-120 -25z"/>
<path d="M640 2630 c0 -20 20 -30 60 -30 70 0 80 30 15 47 -66 18 -75 16 -75
-17z"/>
<path d="M825 2646 c-61 -12 -57 -46 5 -46 31 0 50 11 50 30 0 17 -2 29 -5 27
-3 -1 -25 -6 -50 -11z"/>
<path d="M3360 2625 c0 -26 149 -36 208 -13 63 24 30 38 -88 38 -83 0 -120 -8
-120 -25z"/>
<path d="M3900 2630 c0 -20 20 -30 60 -30 70 0 80 30 15 47 -66 18 -75 16 -75
-17z"/>
<path d="M4085 2646 c-61 -12 -57 -46 5 -46 31 0 50 11 50 30 0 17 -2 29 -5
27 -3 -1 -25 -6 -50 -11z"/>
<path d="M4965 2425 l855 -5 0 -60 0 -60 -845 -5 -845 -5 855 -5 855 -5 0 80
0 80 -865 -5 -865 -5 855 -5z"/>
<path d="M1714 2405 l843 -5 9 -45 c7 -38 9 -37 11 10 l3 55 -855 -5 -855 -5
844 -5z"/>
<path d="M100 2345 c0 -30 349 -42 378 -13 21 20 -21 27 -194 32 -138 5 -184
0 -184 -19z"/>
<path d="M640 2349 c0 -19 21 -29 60 -29 79 0 79 49 0 54 -41 3 -60 -5 -60
-25z"/>
<path d="M780 2345 c0 -14 23 -25 50 -25 28 0 50 11 50 25 0 14 -22 25 -50 25
-27 0 -50 -11 -50 -25z"/>
<path d="M3360 2351 c0 -23 37 -29 190 -29 140 0 190 7 190 25 0 18 -52 26
-190 29 -154 3 -190 -2 -190 -25z"/>
<path d="M3900 2350 c0 -20 20 -30 60 -30 40 0 60 10 60 30 0 20 -20 30 -60
30 -40 0 -60 -10 -60 -30z"/>
<path d="M4040 2350 c0 -19 19 -30 50 -30 31 0 50 11 50 30 0 19 -19 30 -50
30 -31 0 -50 -11 -50 -30z"/>
<path d="M600 2189 c0 -69 87 -63 96 6 6 37 -3 45 -45 45 -41 0 -51 -10 -51
-51z"/>
<path d="M722 2195 c-2 -29 15 -35 98 -35 71 0 100 8 100 27 0 26 -89 29 -154
4 -13 -5 -28 2 -33 15 -5 13 -11 8 -11 -11z"/>
<path d="M944 2184 c4 -14 13 -26 21 -25 8 1 51 1 95 1 52 0 80 9 80 26 0 17
-32 25 -101 25 -72 -1 -98 -8 -95 -27z"/>
<path d="M1160 2189 c0 -14 31 -25 75 -27 41 -1 100 -5 130 -9 53 -7 92 17 67
41 -24 25 -272 20 -272 -5z"/>
<path d="M1466 2194 c-15 -25 -5 -28 119 -38 101 -8 185 36 90 47 -84 10 -200
5 -209 -9z"/>
<path d="M1720 2186 c0 -16 24 -26 60 -26 35 0 60 11 60 25 0 14 -26 25 -60
26 -36 0 -60 -10 -60 -25z"/>
<path d="M1940 2184 c0 -20 17 -26 60 -20 33 5 60 1 60 -9 0 -9 11 -11 24 -2
26 16 143 13 201 -5 24 -7 35 0 35 26 0 32 -20 36 -190 38 -153 1 -190 -4
-190 -28z"/>
<path d="M2340 2185 c0 -14 25 -25 60 -25 35 0 60 11 60 25 0 14 -25 25 -60
25 -35 0 -60 -11 -60 -25z"/>
<path d="M2485 2182 c8 -43 355 -44 355 -1 0 26 -30 31 -180 30 -144 -1 -180
-7 -175 -29z"/>
<path d="M2860 2189 c0 -17 40 -28 122 -32 129 -7 181 6 135 35 -46 29 -257
27 -257 -3z"/>
<path d="M600 2071 c0 -41 10 -51 51 -51 69 0 63 87 -6 96 -37 6 -45 -3 -45
-45z"/>
<path d="M1315 2084 c-118 -10 -98 -60 25 -61 70 0 100 7 100 26 0 34 -32 43
-125 35z"/>
<path d="M1468 2082 c-38 -38 3 -58 112 -55 156 4 163 47 8 56 -61 4 -115 3
-120 -1z"/>
<path d="M2395 2086 c-76 -12 -72 -66 5 -66 47 0 60 9 60 40 0 22 -2 39 -5 37
-3 -2 -30 -7 -60 -11z"/>
<path d="M2905 2084 c-86 -13 -49 -56 50 -58 52 -1 104 -4 115 -6 44 -10 68 1
58 28 -11 28 -135 48 -223 36z"/>
<path d="M720 2056 c0 -27 19 -34 100 -33 72 1 100 9 100 29 0 19 -25 28 -80
28 -51 0 -80 -9 -80 -25 -1 -17 -7 -15 -20 5 -17 26 -19 25 -20 -4z"/>
<path d="M940 2050 c0 -23 24 -30 100 -30 76 0 100 7 100 30 0 23 -24 30 -100
30 -76 0 -100 -7 -100 -30z"/>
<path d="M1720 2050 c0 -20 20 -30 60 -30 40 0 60 10 60 30 0 20 -20 30 -60
30 -40 0 -60 -10 -60 -30z"/>
<path d="M1940 2053 c0 -16 21 -28 50 -28 29 0 50 12 50 28 0 16 -21 27 -50
27 -29 0 -50 -11 -50 -27z"/>
<path d="M2060 2050 c0 -36 23 -39 56 -6 13 13 24 15 24 4 0 -10 41 -19 90
-19 60 -1 90 8 90 25 0 19 -37 26 -130 26 -102 0 -130 -6 -130 -30z"/>
<path d="M2485 2045 c4 -19 18 -33 31 -30 70 15 268 15 276 1 15 -24 48 1 48
35 0 23 -37 29 -181 29 -163 0 -181 -4 -174 -35z"/>
<path d="M600 1820 l0 -80 990 0 990 0 0 80 0 80 -990 0 -990 0 0 -80z m1960
0 l0 -60 -970 0 -970 0 0 60 0 60 970 0 970 0 0 -60z"/>
<path d="M660 1808 c0 -16 32 -25 90 -25 66 0 90 8 90 30 0 22 -22 28 -90 24
-55 -3 -90 -14 -90 -29z"/>
<path d="M860 1809 c0 -20 24 -29 80 -29 55 0 80 9 80 28 0 18 -26 28 -80 28
-57 1 -80 -7 -80 -27z"/>
<path d="M3860 1820 l0 -80 990 0 990 0 0 80 0 80 -990 0 -990 0 0 -80z m1960
0 l0 -60 -970 0 -970 0 0 60 0 60 970 0 970 0 0 -60z"/>
<path d="M3920 1811 c0 -19 50 -26 180 -28 142 -1 180 4 180 26 0 22 -39 28
-180 28 -131 -1 -180 -8 -180 -26z"/>
<path d="M100 1825 c0 -30 349 -42 378 -13 21 20 -21 27 -194 32 -138 5 -184
0 -184 -19z"/>
<path d="M3360 1810 c0 -22 40 -28 190 -28 150 0 190 6 190 28 0 22 -40 28
-190 28 -150 0 -190 -6 -190 -28z"/>
<path d="M1715 1605 l845 -5 0 -60 0 -60 -845 -5 -845 -5 855 -5 855 -5 0 80
0 80 -855 -5 -855 -5 845 -5z"/>
<path d="M105 1534 c12 -35 375 -36 375 -1 0 18 -51 25 -191 25 -141 0 -190
-6 -184 -24z"/>
<path d="M640 1542 c0 -9 27 -21 60 -26 41 -6 60 -1 60 17 0 17 -23 27 -60 27
-33 0 -60 -8 -60 -18z"/>
<path d="M780 1530 c0 -19 17 -28 50 -25 28 2 50 15 50 29 0 14 -22 26 -50 26
-31 0 -50 -11 -50 -30z"/>
<path d="M3335 1325 l2485 -5 0 -60 0 -60 -1680 -5 -1680 -5 1685 0 1685 0 6
75 6 75 -2496 -5 -2496 -5 2485 -5z"/>
<path d="M205 1284 c-140 -8 -134 -39 10 -47 148 -9 265 1 265 22 0 21 -135
33 -275 25z"/>
<path d="M640 1270 c0 -20 20 -30 60 -30 70 0 80 30 15 47 -66 18 -75 16 -75
-17z"/>
<path d="M1035 1185 c47 -4 123 -4 170 0 47 5 9 8 -85 8 -93 0 -132 -3 -85 -8z"/>
<path d="M1586 1185 c163 -3 424 -3 580 0 156 3 23 6 -296 6 -319 0 -447 -3
-284 -6z"/>
<path d="M365 1045 c52 -4 138 -4 190 0 52 4 10 8 -95 8 -104 0 -147 -4 -95
-8z"/>
<path d="M1945 1045 c712 -3 1878 -3 2590 0 712 3 130 5 -1295 5 -1424 0
-2007 -2 -1295 -5z"/>
<path d="M600 730 l0 -170 2620 0 2620 0 0 170 0 170 -2495 -5 -2495 -5 2485
-5 2485 -5 0 -150 0 -150 -2600 0 -2600 0 0 148 c0 100 8 152 25 159 15 6 11
10 -10 11 -31 2 -35 -19 -35 -168z"/>
<path d="M105 856 c12 -37 169 -45 204 -10 24 24 11 29 -92 32 -91 2 -119 -3
-112 -22z"/>
<path d="M640 829 c0 -19 21 -29 60 -29 79 0 79 49 0 54 -41 3 -60 -5 -60 -25z"/>
<path d="M780 825 c0 -14 23 -25 50 -25 28 0 50 11 50 25 0 14 -22 25 -50 25
-27 0 -50 -11 -50 -25z"/>
<path d="M4433 327 c-18 -19 -17 -202 2 -214 8 -5 159 -2 335 6 l320 15 -315
3 -315 3 0 80 0 80 275 4 c151 2 299 4 328 5 29 0 49 8 44 16 -12 19 -655 20
-674 2z"/>
<path d="M5146 220 l-1 -100 347 0 348 0 0 100 0 100 -346 0 -346 0 -2 -100z
m474 0 c0 -11 -40 -21 -90 -22 -49 -2 -105 -4 -123 -5 -19 -2 -37 6 -41 18 -4
12 45 22 124 25 78 3 130 -3 130 -16z"/>
<path d="M4775 242 c-126 -16 -123 -50 5 -58 89 -5 100 -2 100 35 0 23 -2 40
-5 38 -3 -2 -48 -9 -100 -15z"/>
</g>
</svg>
