<?xml version="1.0" standalone="no"?>
<!DOCTYPE svg PUBLIC "-//W3C//DTD SVG 20010904//EN"
 "http://www.w3.org/TR/2001/REC-SVG-20010904/DTD/svg10.dtd">
<svg version="1.0" xmlns="http://www.w3.org/2000/svg"
 width="300.000000pt" height="174.000000pt" viewBox="0 0 300.000000 174.000000"
 preserveAspectRatio="xMidYMid meet">
<metadata>
Created by potrace 1.10, written by Peter Selinger 2001-2011
</metadata>
<g transform="translate(0.000000,174.000000) scale(0.050000,-0.050000)"
fill="#000000" stroke="none">
<path d="M1225 3225 l295 -6 0 -49 0 -49 -275 -6 -275 -6 285 -5 285 -4 0 70
0 70 -305 -4 -305 -5 295 -6z"/>
<path d="M2480 3170 c0 -54 8 -70 35 -68 21 1 25 5 10 11 -14 6 -25 31 -25 57
0 26 11 51 25 57 15 6 11 10 -10 11 -27 2 -35 -14 -35 -68z"/>
<path d="M2976 3225 c58 -4 148 -4 200 0 52 4 4 8 -106 8 -110 0 -152 -4 -94
-8z"/>
<path d="M5480 3170 l0 -70 180 0 180 0 0 70 0 70 -180 0 -180 0 0 -70z m320
0 c0 -49 -3 -50 -150 -50 -147 0 -150 1 -150 50 0 49 3 50 150 50 147 0 150
-1 150 -50z"/>
<path d="M5562 3175 c-2 -28 15 -35 88 -35 52 0 90 9 90 22 0 14 -30 19 -80
15 -44 -5 -84 1 -88 12 -5 12 -10 5 -10 -14z"/>
<path d="M160 3165 c0 -16 31 -25 90 -25 50 0 90 8 90 18 0 10 -40 21 -90 25
-63 5 -90 0 -90 -18z"/>
<path d="M360 3165 c0 -16 31 -25 90 -25 50 0 90 8 90 18 0 10 -40 21 -90 25
-63 5 -90 0 -90 -18z"/>
<path d="M720 3170 c0 -12 27 -24 60 -26 38 -3 60 5 60 21 0 14 -25 25 -60 26
-33 0 -60 -9 -60 -21z"/>
<path d="M860 3165 c0 -14 23 -25 50 -25 28 0 50 11 50 25 0 14 -22 25 -50 25
-27 0 -50 -11 -50 -25z"/>
<path d="M1960 3175 c0 -28 18 -35 90 -35 63 0 90 8 90 28 0 18 -23 27 -70 25
-38 -1 -70 -11 -70 -22 0 -12 -9 -7 -20 9 -17 26 -19 25 -20 -5z"/>
<path d="M2160 3167 c0 -19 28 -27 92 -27 63 0 89 8 83 24 -11 35 -175 38
-175 3z"/>
<path d="M2531 3174 c6 -15 37 -27 70 -27 35 0 59 11 59 27 0 16 -25 26 -69
26 -50 0 -67 -8 -60 -26z"/>
<path d="M2680 3168 c0 -18 32 -25 100 -25 68 1 100 9 100 27 0 18 -30 26
-100 25 -67 -1 -100 -10 -100 -27z"/>
<path d="M3260 3170 c0 -17 18 -30 40 -30 22 0 40 13 40 30 0 17 -18 30 -40
30 -22 0 -40 -13 -40 -30z"/>
<path d="M2976 3105 c58 -4 148 -4 200 0 52 4 4 8 -106 8 -110 0 -152 -4 -94
-8z"/>
<path d="M160 1700 l0 -1300 690 0 690 0 0 1300 0 1300 -690 0 -690 0 0 -1300z
m1353 40 c2 -676 0 -1250 -5 -1274 l-8 -44 -660 -1 -660 -1 0 1281 0 1280 665
-6 665 -5 3 -1230z"/>
<path d="M260 2800 l0 -60 170 0 170 0 0 60 0 60 -170 0 -170 0 0 -60z m320 0
c0 -35 -12 -40 -105 -36 l-105 3 95 8 c139 11 116 39 -35 43 -121 2 -176 -23
-95 -44 26 -7 24 -10 -10 -12 -32 -1 -45 9 -45 38 0 36 13 40 150 40 137 0
150 -4 150 -40z"/>
<path d="M620 2800 l0 -60 180 0 180 0 0 60 0 60 -180 0 -180 0 0 -60z m340 0
c0 -34 -12 -40 -85 -37 l-85 4 75 8 c128 13 82 45 -65 45 -142 0 -193 -31 -75
-46 64 -7 64 -8 -10 -11 -63 -2 -75 4 -75 37 0 37 13 40 160 40 147 0 160 -3
160 -40z"/>
<path d="M1160 2800 l0 -60 140 0 140 0 0 60 0 60 -140 0 -140 0 0 -60z m260
0 c0 -36 -13 -40 -120 -40 -107 0 -120 4 -120 40 0 36 13 40 120 40 107 0 120
-4 120 -40z"/>
<path d="M1250 2800 c-7 -12 13 -20 49 -20 33 0 61 9 61 20 0 11 -22 20 -49
20 -27 0 -54 -9 -61 -20z"/>
<path d="M340 2610 c0 -13 40 -25 90 -27 66 -4 87 2 79 21 -12 32 -169 37
-169 6z"/>
<path d="M440 2490 c0 -20 20 -30 60 -30 40 0 60 10 60 30 0 20 -20 30 -60 30
-40 0 -60 -10 -60 -30z"/>
<path d="M440 2370 c0 -20 20 -30 60 -30 40 0 60 10 60 30 0 20 -20 30 -60 30
-40 0 -60 -10 -60 -30z"/>
<path d="M1675 2985 c58 -4 152 -4 210 0 58 4 11 8 -105 8 -115 0 -163 -4
-105 -8z"/>
<path d="M2255 2986 c36 -5 90 -5 120 0 30 4 1 8 -65 8 -66 0 -91 -4 -55 -8z"/>
<path d="M3096 2985 c69 -4 177 -4 240 0 63 4 6 7 -126 7 -132 0 -183 -3 -114
-7z"/>
<path d="M4065 2985 c272 -3 718 -3 990 0 272 3 50 6 -495 6 -545 0 -767 -3
-495 -6z"/>
<path d="M2890 2840 c22 -9 85 -18 140 -20 123 -3 215 -35 120 -41 -33 -2 -90
-3 -127 -3 -48 1 -63 -7 -56 -26 7 -17 -6 -31 -33 -36 -24 -5 177 -8 446 -6
l490 2 6 75 6 75 -516 -1 c-307 -1 -500 -9 -476 -19z m793 -58 c-12 -7 -55
-12 -97 -9 -296 14 -297 15 -106 26 192 11 242 7 203 -17z"/>
<path d="M1820 2790 c0 -38 12 -41 195 -40 115 1 193 9 190 21 -3 10 -84 19
-180 19 -96 0 -182 9 -190 20 -8 11 -15 2 -15 -20z"/>
<path d="M2600 2781 c0 -22 20 -34 60 -37 40 -3 60 5 60 23 0 16 -26 32 -60
37 -46 7 -60 1 -60 -23z"/>
<path d="M2740 2770 c0 -19 19 -30 50 -30 31 0 50 11 50 30 0 19 -19 30 -50
30 -31 0 -50 -11 -50 -30z"/>
<path d="M2582 2541 c-34 -21 -15 -81 26 -81 44 0 61 40 29 71 -17 17 -37 21
-55 10z"/>
<path d="M3160 2530 c-30 -36 -9 -70 41 -70 25 0 39 14 39 38 0 48 -50 68 -80
32z"/>
<path d="M3542 2541 c-34 -21 -15 -81 26 -81 44 0 61 40 29 71 -17 17 -37 21
-55 10z"/>
<path d="M1822 2495 c-2 -39 161 -51 217 -16 48 30 18 37 -94 22 -67 -9 -107
-6 -113 8 -5 11 -10 5 -10 -14z"/>
<path d="M2680 2497 c0 -27 30 -32 210 -34 170 -2 210 4 210 27 0 23 -38 29
-190 28 -133 0 -190 -7 -190 -24 0 -15 -8 -12 -20 6 -17 26 -19 26 -20 -3z"/>
<path d="M3280 2488 c0 -16 35 -24 100 -25 76 -1 100 7 100 29 0 23 -23 29
-100 25 -63 -2 -100 -13 -100 -29z"/>
<path d="M3644 2489 c3 -17 13 -31 21 -30 8 1 51 1 95 1 58 0 80 8 80 30 0 23
-25 30 -101 30 -82 0 -101 -6 -95 -31z"/>
<path d="M3890 2260 c7 -11 -6 -20 -29 -20 -28 0 -41 -13 -41 -40 0 -26 13
-40 38 -40 21 0 42 -10 46 -21 4 -12 7 15 7 60 0 44 -8 81 -17 81 -9 0 -11 -9
-4 -20z"/>
<path d="M1822 2210 c-2 -47 330 -60 408 -16 32 18 -6 22 -175 20 -128 -3
-218 4 -223 16 -5 11 -10 2 -10 -20z"/>
<path d="M3080 2200 c0 -30 10 -41 35 -36 19 4 35 20 35 36 0 16 -16 32 -35
36 -25 5 -35 -6 -35 -36z"/>
<path d="M3480 2220 c-168 -11 -168 -32 0 -39 61 -2 133 -6 160 -8 31 -2 50 8
50 25 0 34 -16 35 -210 22z"/>
<path d="M2600 2203 c0 -10 56 -20 125 -22 69 -2 147 -6 173 -7 26 -2 52 6 56
19 6 16 -45 24 -173 25 -100 1 -181 -6 -181 -15z"/>
<path d="M4230 1960 l1440 -10 6 -55 7 -55 -1417 -5 -1416 -5 1420 0 1420 0 0
70 0 70 -1450 0 -1450 1 1440 -11z"/>
<path d="M1820 1895 c0 -31 23 -35 202 -35 152 0 199 6 193 25 -11 32 -355 38
-355 6 0 -12 -9 -7 -20 9 -17 26 -19 25 -20 -5z"/>
<path d="M2600 1890 c0 -20 20 -30 60 -30 40 0 60 10 60 30 0 20 -20 30 -60
30 -40 0 -60 -10 -60 -30z"/>
<path d="M2740 1890 c0 -19 19 -30 50 -30 31 0 50 11 50 30 0 19 -19 30 -50
30 -31 0 -50 -11 -50 -30z"/>
<path d="M2560 1280 l0 -380 1565 5 1565 5 5 375 6 375 -1456 -5 -1455 -5
1445 -5 1445 -5 0 -360 0 -360 -1550 0 -1550 0 0 358 c0 268 6 361 25 369 15
6 11 10 -10 11 -32 2 -35 -29 -35 -378z"/>
<path d="M1820 1615 c0 -31 23 -35 202 -35 152 0 199 6 193 25 -11 32 -355 38
-355 6 0 -12 -9 -7 -20 9 -17 26 -19 25 -20 -5z"/>
<path d="M2600 1589 c0 -19 21 -29 60 -29 79 0 79 49 0 54 -41 3 -60 -5 -60
-25z"/>
<path d="M2740 1585 c0 -14 23 -25 50 -25 28 0 50 11 50 25 0 14 -22 25 -50
25 -27 0 -50 -11 -50 -25z"/>
<path d="M2560 710 c0 -40 10 -50 50 -50 40 0 50 10 50 50 0 40 -10 50 -50 50
-40 0 -50 -10 -50 -50z"/>
<path d="M3260 710 c0 -40 10 -50 50 -50 40 0 50 10 50 50 0 40 -10 50 -50 50
-40 0 -50 -10 -50 -50z"/>
<path d="M3913 747 c-34 -34 -11 -87 37 -87 40 0 50 10 50 50 0 48 -53 71 -87
37z"/>
<path d="M1822 710 c-2 -36 9 -40 123 -36 69 2 159 5 200 5 41 1 75 11 75 22
0 14 -65 20 -190 15 -114 -3 -193 2 -198 14 -5 11 -10 2 -10 -20z"/>
<path d="M2681 707 c-1 -40 8 -42 209 -44 170 -2 210 4 210 27 0 38 -379 42
-381 4 -1 -13 -10 -6 -19 16 -17 39 -17 39 -19 -3z"/>
<path d="M4042 708 c-2 -36 10 -41 98 -43 78 -2 100 4 100 28 0 24 -19 30 -90
24 -49 -4 -94 2 -98 13 -5 11 -10 1 -10 -22z"/>
<path d="M3380 693 c0 -21 47 -26 210 -25 283 3 287 40 5 47 -168 4 -215 -1
-215 -22z"/>
<path d="M4260 690 c0 -23 24 -30 100 -30 76 0 100 7 100 30 0 23 -24 30 -100
30 -76 0 -100 -7 -100 -30z"/>
<path d="M2266 405 c384 -3 1005 -3 1380 0 376 3 63 6 -696 6 -759 0 -1067 -3
-684 -6z"/>
<path d="M4420 210 l0 -110 345 4 345 5 -335 6 -335 6 0 89 0 89 345 6 345 6
-355 5 -355 4 0 -110z"/>
<path d="M5140 220 l0 -100 340 0 340 0 0 100 0 100 -340 0 -340 0 0 -100z
m420 -20 c0 -9 -31 -16 -70 -16 -41 0 -70 10 -70 24 0 16 24 21 70 16 39 -5
70 -15 70 -24z"/>
<path d="M4680 207 c0 -18 30 -26 101 -24 129 3 122 45 -7 48 -65 1 -94 -6
-94 -24z"/>
</g>
</svg>
