<?xml version="1.0" standalone="no"?>
<!DOCTYPE svg PUBLIC "-//W3C//DTD SVG 20010904//EN"
 "http://www.w3.org/TR/2001/REC-SVG-20010904/DTD/svg10.dtd">
<svg version="1.0" xmlns="http://www.w3.org/2000/svg"
 width="300.000000pt" height="170.000000pt" viewBox="0 0 300.000000 170.000000"
 preserveAspectRatio="xMidYMid meet">
<metadata>
Created by potrace 1.10, written by Peter Selinger 2001-2011
</metadata>
<g transform="translate(0.000000,170.000000) scale(0.050000,-0.050000)"
fill="#000000" stroke="none">
<path d="M1804 3196 c-53 -53 -12 -136 68 -136 66 0 99 50 71 111 -24 53 -97
67 -139 25z"/>
<path d="M2533 3207 c-30 -31 -12 -126 28 -148 83 -44 180 72 115 137 -26 26
-121 33 -143 11z m134 -37 c26 -68 -47 -132 -100 -88 -28 24 -36 82 -14 105
25 25 103 13 114 -17z"/>
<path d="M3261 3181 c-41 -75 42 -162 117 -122 89 47 62 161 -38 161 -37 0
-66 -14 -79 -39z m138 -20 c18 -33 -14 -101 -49 -101 -57 0 -96 87 -57 127 27
26 86 12 106 -26z"/>
<path d="M4005 3197 c-67 -67 30 -183 115 -137 70 37 49 148 -30 156 -33 3
-71 -5 -85 -19z m131 -49 c11 -80 -95 -111 -124 -36 -20 52 10 90 66 84 35 -4
54 -20 58 -48z"/>
<path d="M1620 2990 c0 -21 22 -30 72 -30 90 0 83 47 -9 54 -45 4 -63 -3 -63
-24z"/>
<path d="M1780 2990 c0 -11 78 -23 182 -26 142 -5 180 -1 173 20 -10 31 -355
38 -355 6z"/>
<path d="M2360 2989 c0 -20 24 -29 80 -29 52 0 80 9 80 26 0 16 -30 27 -80 29
-58 2 -80 -5 -80 -26z"/>
<path d="M2540 2986 c0 -19 42 -26 160 -26 121 0 160 7 160 27 0 20 -39 27
-160 26 -117 -1 -160 -8 -160 -27z"/>
<path d="M3120 2988 c0 -24 37 -28 225 -24 232 6 312 43 105 49 -73 2 -106 -4
-97 -18 9 -14 3 -15 -15 -4 -52 33 -218 31 -218 -3z"/>
<path d="M3760 2989 c0 -23 30 -29 140 -29 107 0 140 7 140 28 0 22 -34 29
-140 30 -111 1 -140 -5 -140 -29z"/>
<path d="M4060 2990 c0 -23 33 -28 160 -24 214 5 218 43 5 48 -131 4 -165 -1
-165 -24z"/>
<path d="M1305 2865 c52 -4 138 -4 190 0 52 4 10 8 -95 8 -104 0 -147 -4 -95
-8z"/>
<path d="M2215 2866 c36 -5 90 -5 120 0 30 4 1 8 -65 8 -66 0 -91 -4 -55 -8z"/>
<path d="M2895 2865 c47 -4 123 -4 170 0 47 5 9 8 -85 8 -93 0 -132 -3 -85 -8z"/>
<path d="M3615 2866 c36 -5 94 -5 130 0 36 4 7 8 -65 8 -71 0 -101 -4 -65 -8z"/>
<path d="M4706 2865 c207 -3 540 -3 740 0 200 3 31 6 -376 6 -407 0 -571 -3
-364 -6z"/>
<path d="M262 2735 c-2 -31 20 -35 190 -35 139 0 189 6 183 24 -7 23 -299 28
-336 6 -8 -6 -20 1 -26 15 -6 15 -10 11 -11 -10z"/>
<path d="M880 2726 c0 -17 52 -24 180 -24 126 0 180 7 180 24 0 17 -54 24
-180 24 -127 0 -180 -7 -180 -24z"/>
<path d="M262 2517 c-2 -27 21 -35 113 -40 150 -9 265 1 265 23 0 23 -144 33
-265 19 -58 -7 -97 -4 -103 10 -5 11 -10 6 -10 -12z"/>
<path d="M880 2503 c0 -20 26 -25 100 -20 55 4 100 2 100 -4 0 -5 36 -7 80 -2
96 9 107 43 15 44 -36 1 -117 3 -180 5 -85 3 -115 -3 -115 -23z"/>
<path d="M3405 2325 l2275 -5 0 -60 0 -60 -2275 -5 -2275 -5 2285 -5 2285 -5
0 80 0 80 -2285 -5 -2285 -5 2275 -5z"/>
<path d="M260 2251 c0 -15 63 -24 190 -26 154 -2 190 3 190 26 0 24 -36 29
-190 26 -127 -2 -190 -11 -190 -26z"/>
<path d="M920 2254 c0 -19 35 -28 120 -29 93 -3 120 3 120 26 0 22 -28 29
-120 29 -86 0 -120 -7 -120 -26z"/>
<path d="M3395 2045 l2285 -5 0 -200 0 -200 -2389 0 -2389 0 -7 175 -7 175 -4
-185 -4 -185 2410 0 2410 0 0 220 0 220 -2295 -5 -2295 -5 2285 -5z"/>
<path d="M262 2015 c-2 -31 20 -35 188 -35 106 0 190 8 190 19 0 24 -142 34
-265 20 -58 -7 -97 -4 -103 10 -5 11 -10 5 -10 -14z"/>
<path d="M920 1993 c0 -25 24 -31 120 -30 66 0 120 9 120 19 0 10 -34 18 -75
18 -41 0 -95 6 -120 13 -33 8 -45 3 -45 -20z"/>
<path d="M3385 1485 l2295 -5 0 -60 0 -60 -2275 -5 -2275 -5 2285 -5 2285 -5
0 80 0 80 -2305 -5 -2305 -5 2295 -5z"/>
<path d="M260 1410 c0 -17 57 -25 190 -27 156 -2 190 3 190 27 0 25 -34 30
-190 27 -132 -2 -190 -11 -190 -27z"/>
<path d="M920 1411 c0 -22 28 -29 120 -28 90 0 120 7 120 29 0 21 -30 28 -120
28 -91 0 -120 -7 -120 -29z"/>
<path d="M3405 1205 l2275 -5 0 -200 0 -200 -2389 0 -2389 0 -7 165 -7 165 -4
-175 -4 -175 2410 0 2410 0 0 220 0 220 -2285 -5 -2285 -5 2275 -5z"/>
<path d="M262 1175 c-2 -31 20 -35 188 -35 106 0 190 8 190 19 0 24 -142 34
-265 20 -58 -7 -97 -4 -103 10 -5 11 -10 5 -10 -14z"/>
<path d="M920 1153 c0 -25 24 -31 120 -30 66 0 120 9 120 19 0 10 -34 18 -75
18 -41 0 -95 6 -120 13 -33 8 -45 3 -45 -20z"/>
<path d="M905 646 c-42 -15 -30 -86 15 -86 26 0 40 13 40 39 0 44 -19 60 -55
47z"/>
<path d="M1474 647 c-31 -31 -13 -87 27 -87 32 0 40 11 35 43 -6 46 -38 68
-62 44z"/>
<path d="M1582 607 c-2 -38 8 -42 98 -40 69 2 100 11 100 30 0 20 -24 25 -90
20 -49 -4 -94 2 -98 13 -5 11 -10 1 -10 -23z"/>
<path d="M260 595 c0 -31 22 -35 190 -35 139 0 190 7 190 25 0 18 -47 25 -170
25 -101 0 -170 -8 -170 -20 0 -11 -9 -6 -20 10 -17 26 -19 25 -20 -5z"/>
<path d="M1000 589 c0 -15 36 -23 100 -22 71 0 100 8 100 28 0 20 -27 26 -100
22 -61 -2 -100 -13 -100 -28z"/>
<path d="M1220 594 c0 -18 31 -27 100 -27 70 0 100 7 100 26 0 19 -30 27 -100
27 -69 0 -100 -8 -100 -26z"/>
<path d="M1800 593 c0 -21 24 -28 95 -26 52 2 95 12 95 23 0 11 -43 23 -95 26
-72 5 -95 -1 -95 -23z"/>
<path d="M316 385 c91 -4 235 -4 320 0 85 4 10 7 -166 7 -176 0 -245 -3 -154
-7z"/>
<path d="M1046 385 c141 -3 366 -3 500 0 134 4 19 6 -256 6 -275 0 -385 -3
-244 -6z"/>
<path d="M2445 385 c360 -3 950 -3 1310 0 360 3 66 6 -655 6 -720 0 -1015 -3
-655 -6z"/>
<path d="M4420 210 l0 -110 345 4 345 5 -335 6 -335 6 0 90 0 91 328 -6 c181
-3 324 1 319 9 -5 8 -157 15 -338 15 l-329 0 0 -110z"/>
<path d="M5120 200 l0 -100 336 0 337 0 -2 100 -1 100 -335 0 -335 0 0 -100z
m410 -1 c7 -11 -18 -19 -58 -19 -91 0 -111 33 -22 36 38 2 74 -6 80 -17z"/>
<path d="M4660 200 c0 -23 24 -31 100 -34 74 -2 100 5 100 26 0 15 -20 29 -45
30 -25 1 -70 3 -100 5 -38 3 -55 -5 -55 -27z"/>
</g>
</svg>
