<?xml version="1.0" standalone="no"?>
<!DOCTYPE svg PUBLIC "-//W3C//DTD SVG 20010904//EN"
 "http://www.w3.org/TR/2001/REC-SVG-20010904/DTD/svg10.dtd">
<svg version="1.0" xmlns="http://www.w3.org/2000/svg"
 width="300.000000pt" height="156.000000pt" viewBox="0 0 300.000000 156.000000"
 preserveAspectRatio="xMidYMid meet">
<metadata>
Created by potrace 1.10, written by Peter Selinger 2001-2011
</metadata>
<g transform="translate(0.000000,156.000000) scale(0.100000,-0.100000)"
fill="#000000" stroke="none">
<path d="M2390 1490 c0 -11 2 -20 4 -20 2 0 6 9 9 20 3 11 1 20 -4 20 -5 0 -9
-9 -9 -20z"/>
<path d="M2588 1503 c50 -2 134 -2 185 0 50 1 9 3 -93 3 -102 0 -143 -2 -92
-3z"/>
<path d="M2888 1503 c6 -2 12 -15 12 -29 l0 -24 -200 -3 -200 -3 202 1 203 0
3 33 c3 26 0 32 -15 31 -10 0 -13 -3 -5 -6z"/>
<path d="M71 1478 c-1 -14 7 -17 44 -15 25 1 45 6 45 11 0 4 -18 6 -40 4 -22
-2 -42 1 -44 7 -2 5 -5 2 -5 -7z"/>
<path d="M170 1474 c0 -7 16 -11 40 -11 22 0 40 4 40 8 0 4 -18 9 -40 11 -26
2 -40 -1 -40 -8z"/>
<path d="M260 1476 c0 -9 5 -16 10 -16 6 0 10 4 10 9 0 6 -4 13 -10 16 -5 3
-10 -1 -10 -9z"/>
<path d="M325 1479 c-22 -3 -37 -7 -32 -9 17 -6 87 -4 87 2 0 12 -14 14 -55 7z"/>
<path d="M394 1481 c-14 -15 2 -22 41 -17 31 3 45 1 45 -7 0 -9 2 -9 8 0 5 7
19 10 35 8 18 -4 27 -1 27 7 0 9 -21 13 -76 13 -41 0 -78 -2 -80 -4z"/>
<path d="M573 1483 c-18 -7 -16 -23 2 -23 8 0 15 7 15 15 0 8 -1 15 -2 14 -2
0 -9 -3 -15 -6z"/>
<path d="M600 1477 c0 -7 9 -13 20 -14 24 -2 27 12 4 21 -22 8 -24 8 -24 -7z"/>
<path d="M667 1482 c-37 -7 -14 -18 38 -19 30 0 55 3 55 7 0 9 -66 17 -93 12z"/>
<path d="M793 1483 c-31 -6 -29 -20 2 -20 15 0 25 5 25 13 0 8 -1 13 -2 13 -2
-1 -13 -4 -25 -6z"/>
<path d="M830 1473 c0 -8 19 -11 63 -9 34 2 68 -1 75 -7 8 -7 12 -5 12 7 0 10
-9 16 -22 17 -107 4 -128 3 -128 -8z"/>
<path d="M990 1475 c0 -8 22 -12 61 -12 73 0 65 17 -10 21 -33 1 -51 -2 -51
-9z"/>
<path d="M2410 1472 c0 -8 14 -11 45 -10 57 4 55 22 -2 23 -28 0 -43 -4 -43
-13z"/>
<path d="M2860 1481 c0 -5 7 -11 14 -14 10 -4 13 -1 9 9 -6 15 -23 19 -23 5z"/>
<path d="M2390 1450 c0 -5 5 -10 11 -10 5 0 7 5 4 10 -3 6 -8 10 -11 10 -2 0
-4 -4 -4 -10z"/>
<path d="M163 1393 c15 -2 37 -2 50 0 12 2 0 4 -28 4 -27 0 -38 -2 -22 -4z"/>
<path d="M643 1393 c37 -2 96 -2 130 0 34 2 4 3 -68 3 -71 0 -99 -1 -62 -3z"/>
<path d="M2608 1393 c57 -2 147 -2 200 0 53 1 7 3 -103 3 -110 0 -154 -2 -97
-3z"/>
<path d="M227 1344 c-4 -4 -7 -18 -7 -31 0 -24 0 -24 108 -21 107 3 107 3 107
28 0 25 -1 25 -101 28 -55 1 -103 0 -107 -4z m203 -24 c0 -19 -7 -20 -100 -20
-93 0 -100 1 -100 20 0 19 7 20 100 20 93 0 100 -1 100 -20z"/>
<path d="M245 1320 c-3 -5 3 -10 14 -10 12 0 21 5 21 10 0 6 -6 10 -14 10 -8
0 -18 -4 -21 -10z"/>
<path d="M80 1320 c0 -5 14 -10 30 -10 17 0 30 5 30 10 0 6 -13 10 -30 10 -16
0 -30 -4 -30 -10z"/>
<path d="M150 1317 c0 -9 7 -14 15 -13 20 3 20 20 1 24 -9 2 -16 -3 -16 -11z"/>
<path d="M70 970 l0 -290 470 0 470 0 -2 203 -3 202 -2 -197 -3 -198 -460 0
-460 0 0 280 0 280 459 0 460 0 4 -27 c4 -26 4 -26 6 5 l1 32 -470 0 -470 0 0
-290z"/>
<path d="M1020 970 l0 -290 470 0 470 0 0 290 0 290 -470 0 -470 0 0 -290z
m930 0 l0 -280 -460 0 -460 0 0 280 0 280 460 0 460 0 0 -280z"/>
<path d="M1081 1174 c-1 -16 5 -21 24 -21 15 0 25 5 25 13 0 17 -16 18 -26 2
-5 -8 -10 -6 -15 8 -7 18 -8 18 -8 -2z"/>
<path d="M1254 1165 c1 -25 29 -27 34 -2 2 9 -2 17 -8 17 -6 0 -9 -4 -5 -9 3
-5 1 -12 -4 -15 -5 -4 -11 2 -14 11 -3 14 -4 14 -3 -2z"/>
<path d="M1410 1170 c0 -13 7 -20 20 -20 24 0 27 25 4 34 -23 9 -24 8 -24 -14z"/>
<path d="M1483 1183 c-28 -10 -13 -33 22 -33 21 0 35 5 35 13 0 9 2 9 9 -1 7
-11 9 -11 14 2 5 12 0 16 -18 16 -14 0 -25 -5 -25 -12 0 -7 -5 -6 -12 4 -7 9
-19 14 -25 11z"/>
<path d="M1670 1171 c0 -20 28 -30 43 -15 13 14 -6 24 -21 12 -10 -8 -13 -9
-9 -1 4 6 3 14 -3 18 -5 3 -10 -3 -10 -14z"/>
<path d="M1740 1181 c-17 -7 -25 -31 -11 -31 5 0 12 6 14 13 4 10 6 10 6 0 1
-7 5 -13 10 -13 9 0 9 25 0 33 -2 3 -11 2 -19 -2z"/>
<path d="M1141 1164 c0 -11 3 -14 6 -6 3 7 2 16 -1 19 -3 4 -6 -2 -5 -13z"/>
<path d="M1160 1165 c0 -8 5 -15 10 -15 6 0 10 7 10 15 0 8 -4 15 -10 15 -5 0
-10 -7 -10 -15z"/>
<path d="M1190 1165 c0 -8 5 -15 10 -15 6 0 10 6 10 13 0 8 4 7 10 -3 8 -13
10 -12 10 3 0 10 -8 17 -20 17 -11 0 -20 -7 -20 -15z"/>
<path d="M1300 1168 c0 -13 8 -18 30 -18 17 0 30 5 30 13 0 8 4 7 10 -3 9 -13
10 -13 10 0 0 13 1 13 10 0 8 -13 10 -12 10 3 0 12 -8 17 -30 17 -17 0 -30 -5
-30 -12 0 -9 -4 -8 -10 2 -9 13 -10 13 -10 0 0 -13 -1 -13 -10 0 -8 13 -10 12
-10 -2z"/>
<path d="M1575 1169 c-4 -6 -4 -13 0 -17 4 -4 10 -1 13 7 2 8 7 9 11 3 3 -5
16 -12 27 -16 16 -5 23 -2 26 12 3 12 0 19 -9 19 -8 0 -12 -6 -9 -13 3 -8 0
-11 -9 -7 -8 3 -12 9 -9 14 3 5 -4 9 -15 9 -11 0 -23 -5 -26 -11z"/>
<path d="M1071 1057 c-1 -15 5 -16 41 -12 55 7 65 18 11 13 -24 -2 -45 1 -47
7 -2 5 -5 2 -5 -8z"/>
<path d="M1173 1056 c2 -5 12 -11 23 -12 23 -4 58 6 50 13 -10 10 -76 9 -73
-1z"/>
<path d="M1260 1061 c0 -5 5 -13 10 -16 6 -3 10 -2 10 4 0 5 -4 13 -10 16 -5
3 -10 2 -10 -4z"/>
<path d="M1293 1058 c-5 -10 -3 -10 47 -12 22 0 39 3 37 8 -4 11 -77 14 -84 4z"/>
<path d="M1394 1061 c-13 -13 4 -17 76 -16 46 0 80 4 80 10 0 9 -147 15 -156
6z"/>
<path d="M1571 1061 c-8 -6 -9 -11 -3 -15 6 -3 14 -1 17 5 9 14 2 20 -14 10z"/>
<path d="M1600 1057 c0 -7 9 -13 20 -13 24 0 26 11 4 20 -22 8 -24 8 -24 -7z"/>
<path d="M1668 1062 c-37 -7 -16 -17 37 -17 33 -1 55 3 55 10 0 10 -55 14 -92
7z"/>
<path d="M1770 1054 c0 -6 11 -11 25 -11 14 0 25 5 25 11 0 6 -11 11 -25 11
-14 0 -25 -5 -25 -11z"/>
<path d="M1070 1007 c0 -5 5 -5 10 -2 6 3 10 2 10 -2 0 -5 32 -9 70 -9 39 0
70 4 70 8 0 4 -10 9 -22 9 -86 4 -138 3 -138 -4z"/>
<path d="M1258 1012 c-39 -8 -15 -18 42 -18 33 0 56 4 52 8 -10 10 -67 16 -94
10z"/>
<path d="M1071 909 c-1 -14 8 -17 44 -15 25 0 45 5 45 10 0 4 -18 6 -40 4 -22
-2 -42 1 -44 7 -2 5 -5 3 -5 -6z"/>
<path d="M1173 905 c3 -9 14 -10 61 -7 32 3 9 15 -29 16 -19 1 -34 -3 -32 -9z"/>
<path d="M1260 911 c0 -5 5 -13 10 -16 6 -3 10 -2 10 4 0 5 -4 13 -10 16 -5 3
-10 2 -10 -4z"/>
<path d="M1328 912 c-53 -5 -47 -18 7 -17 25 0 45 3 45 7 0 11 -13 14 -52 10z"/>
<path d="M1394 911 c-13 -13 4 -17 76 -16 46 0 80 4 80 10 0 9 -147 15 -156 6z"/>
<path d="M1571 911 c-8 -6 -9 -11 -3 -15 6 -3 14 -1 17 5 9 14 2 20 -14 10z"/>
<path d="M1600 907 c0 -7 9 -13 20 -13 24 0 26 11 4 20 -22 8 -24 8 -24 -7z"/>
<path d="M1668 912 c-37 -7 -16 -17 37 -17 33 -1 55 3 55 10 0 10 -55 14 -92
7z"/>
<path d="M1770 905 c0 -5 11 -10 25 -10 14 0 25 5 25 10 0 6 -11 10 -25 10
-14 0 -25 -4 -25 -10z"/>
<path d="M1070 857 c0 -5 5 -5 10 -2 6 3 10 3 10 -2 0 -4 32 -8 70 -8 39 -1
70 3 70 7 0 4 -10 9 -22 9 -86 4 -138 3 -138 -4z"/>
<path d="M1253 859 c-17 -7 -16 -8 2 -10 45 -5 95 -4 95 4 0 4 -6 7 -12 8 -7
0 -25 2 -40 3 -15 1 -35 -2 -45 -5z"/>
<path d="M1364 858 c3 -15 45 -18 73 -6 12 5 3 7 -24 5 -24 -1 -45 1 -47 5 -3
5 -3 3 -2 -4z"/>
<path d="M1463 856 c2 -5 12 -11 23 -12 23 -4 58 6 50 13 -10 10 -76 9 -73 -1z"/>
<path d="M1550 860 c0 -8 25 -20 41 -20 20 0 7 18 -16 22 -14 3 -25 2 -25 -2z"/>
<path d="M1610 855 c0 -6 20 -10 48 -8 26 1 53 2 61 2 8 1 11 4 7 8 -11 11
-116 9 -116 -2z"/>
<path d="M1740 855 c0 -5 20 -10 45 -11 26 0 45 4 45 10 0 6 5 4 10 -4 9 -13
10 -13 10 0 0 13 1 13 10 0 9 -13 10 -13 10 1 0 12 -12 15 -65 15 -36 -1 -65
-5 -65 -11z"/>
<path d="M1074 811 c-14 -14 9 -18 116 -17 66 1 120 4 120 9 0 4 -19 7 -42 8
-136 4 -190 4 -194 0z"/>
<path d="M1320 804 c0 -7 11 -11 25 -10 33 1 33 21 0 21 -14 0 -25 -5 -25 -11z"/>
<path d="M1520 808 c0 -8 9 -14 20 -13 21 1 41 15 22 15 -5 0 -17 3 -26 6 -10
4 -16 1 -16 -8z"/>
<path d="M1580 805 c0 -7 16 -11 40 -11 30 0 37 3 29 12 -13 16 -69 15 -69 -1z"/>
<path d="M1680 812 c-22 -8 -8 -20 18 -17 15 2 30 4 35 4 4 1 7 4 7 9 0 7 -41
10 -60 4z"/>
<path d="M1763 813 c-20 -7 -15 -22 7 -20 20 1 27 12 13 20 -5 2 -14 2 -20 0z"/>
<path d="M1380 802 c0 -10 36 -9 46 1 4 4 -5 7 -19 7 -15 0 -27 -4 -27 -8z"/>
<path d="M1440 801 c0 -5 16 -9 35 -8 19 1 35 4 35 7 0 3 -16 7 -35 8 -19 2
-35 -2 -35 -7z"/>
<path d="M1088 758 c-31 -8 -26 -9 67 -12 44 -1 72 -1 63 2 -10 2 -18 7 -18
10 0 9 -81 9 -112 0z"/>
<path d="M1970 970 l0 -290 470 0 470 0 0 290 0 290 -470 0 -470 0 0 -290z
m930 0 l0 -280 -460 0 -460 0 0 280 0 280 460 0 460 0 0 -280z"/>
<path d="M2020 1170 c0 -16 7 -20 35 -20 21 0 35 5 35 12 0 9 3 9 12 0 16 -16
58 -15 58 1 0 8 4 7 10 -3 8 -13 10 -12 10 3 0 11 -8 17 -21 17 -11 0 -17 -4
-14 -10 3 -5 1 -10 -4 -10 -6 0 -11 4 -11 8 0 14 -73 13 -82 -1 -5 -8 -8 -7
-8 6 0 9 -4 17 -10 17 -5 0 -10 -9 -10 -20z"/>
<path d="M2200 1171 c0 -23 9 -31 26 -24 21 8 17 30 -6 36 -14 4 -20 0 -20
-12z"/>
<path d="M2360 1170 c0 -13 7 -20 20 -20 24 0 27 25 4 34 -23 9 -24 8 -24 -14z"/>
<path d="M2427 1183 c-11 -10 -8 -33 4 -33 5 0 8 4 4 9 -3 5 -1 12 5 16 5 3
10 -1 10 -9 0 -9 9 -16 20 -16 11 0 20 6 20 13 0 9 2 9 9 -1 7 -11 9 -11 14 2
5 12 0 16 -18 16 -14 0 -25 -6 -25 -12 0 -7 -5 -5 -11 5 -11 18 -21 21 -32 10z"/>
<path d="M2620 1170 c0 -16 7 -19 35 -18 19 1 35 6 35 12 0 6 5 4 10 -4 8 -12
10 -11 10 7 0 19 -3 21 -22 14 -13 -5 -33 -5 -45 0 -19 7 -23 5 -23 -11z"/>
<path d="M2250 1168 c0 -13 8 -18 29 -18 16 0 32 6 34 13 4 10 6 10 6 0 1 -7
8 -13 17 -13 26 0 9 25 -19 28 -17 2 -27 -1 -27 -10 0 -9 -3 -9 -10 2 -9 13
-10 13 -10 0 0 -13 -1 -13 -10 0 -8 13 -10 12 -10 -2z"/>
<path d="M2525 1169 c-4 -6 -4 -13 0 -17 3 -3 10 0 15 8 7 10 10 11 10 3 0 -7
5 -13 10 -13 6 0 10 7 10 15 0 17 -35 20 -45 4z"/>
<path d="M2583 1160 c1 -11 2 -20 4 -20 1 0 7 9 13 20 8 16 8 20 -4 20 -9 0
-14 -8 -13 -20z"/>
<path d="M2021 1057 c-1 -15 5 -16 41 -12 55 7 65 18 11 13 -24 -2 -45 1 -47
7 -2 5 -5 2 -5 -8z"/>
<path d="M2120 1053 c0 -8 12 -11 37 -7 50 6 52 11 4 16 -28 2 -41 0 -41 -9z"/>
<path d="M2210 1061 c0 -5 5 -13 10 -16 6 -3 10 -2 10 4 0 5 -4 13 -10 16 -5
3 -10 2 -10 -4z"/>
<path d="M2244 1061 c-12 -12 0 -17 41 -16 25 0 44 4 42 9 -3 9 -75 15 -83 7z"/>
<path d="M2344 1061 c-12 -12 0 -16 46 -16 27 0 50 3 50 6 0 8 -89 17 -96 10z"/>
<path d="M2453 1056 c4 -13 47 -15 47 -2 0 6 -11 11 -25 11 -14 0 -24 -4 -22
-9z"/>
<path d="M2520 1060 c-8 -5 -11 -12 -7 -16 4 -4 13 -2 19 4 15 15 7 24 -12 12z"/>
<path d="M2550 1057 c0 -7 9 -13 20 -13 24 0 26 11 4 20 -22 8 -24 8 -24 -7z"/>
<path d="M2617 1062 c-36 -7 -14 -17 38 -17 32 -1 55 3 55 10 0 9 -57 14 -93
7z"/>
<path d="M2720 1055 c0 -5 11 -11 25 -11 14 -1 25 3 25 10 0 6 -11 11 -25 11
-14 0 -25 -4 -25 -10z"/>
<path d="M2023 1005 c2 -5 63 -10 145 -10 90 -1 139 2 132 9 -12 12 -281 14
-277 1z"/>
<path d="M2021 907 c-1 -15 5 -16 41 -12 55 7 65 18 11 13 -24 -2 -45 1 -47 7
-2 5 -5 2 -5 -8z"/>
<path d="M2120 903 c0 -8 12 -11 37 -7 50 6 52 11 4 16 -28 2 -41 0 -41 -9z"/>
<path d="M2210 911 c0 -5 5 -13 10 -16 6 -3 10 -2 10 4 0 5 -4 13 -10 16 -5 3
-10 2 -10 -4z"/>
<path d="M2244 911 c-12 -12 0 -17 41 -16 25 0 44 4 42 9 -3 9 -75 15 -83 7z"/>
<path d="M2344 911 c-12 -12 0 -16 46 -16 27 0 50 3 50 6 0 8 -89 17 -96 10z"/>
<path d="M2453 906 c4 -13 47 -15 47 -2 0 6 -11 11 -25 11 -14 0 -24 -4 -22
-9z"/>
<path d="M2521 911 c-8 -6 -9 -11 -3 -15 6 -3 14 -1 17 5 9 14 2 20 -14 10z"/>
<path d="M2550 907 c0 -7 9 -13 20 -13 24 0 26 11 4 20 -22 8 -24 8 -24 -7z"/>
<path d="M2617 912 c-36 -7 -14 -17 38 -17 32 -1 55 3 55 10 0 9 -57 14 -93 7z"/>
<path d="M2720 905 c0 -5 11 -11 25 -11 14 -1 25 3 25 10 0 6 -11 11 -25 11
-14 0 -25 -4 -25 -10z"/>
<path d="M2023 855 c4 -12 277 -14 277 -3 0 9 0 9 -157 11 -77 1 -122 -2 -120
-8z"/>
<path d="M2310 857 c0 -14 7 -16 42 -12 54 7 58 12 14 17 -21 2 -36 0 -36 -7
0 -5 -5 -3 -10 5 -8 13 -10 12 -10 -3z"/>
<path d="M2410 853 c0 -8 12 -11 37 -7 50 6 52 11 4 16 -28 2 -41 0 -41 -9z"/>
<path d="M2500 860 c0 -8 25 -20 41 -20 20 0 7 18 -16 22 -14 3 -25 2 -25 -2z"/>
<path d="M2560 855 c0 -6 20 -10 48 -8 26 1 53 2 61 2 8 1 11 4 8 8 -11 11
-117 9 -117 -2z"/>
<path d="M2690 854 c0 -6 23 -10 55 -10 30 1 55 5 55 11 0 5 5 3 10 -5 9 -13
10 -13 10 0 0 12 -14 15 -65 15 -39 0 -65 -4 -65 -11z"/>
<path d="M2024 811 c-13 -14 3 -19 56 -18 76 2 80 22 4 22 -30 0 -57 -2 -60
-4z"/>
<path d="M2154 808 c-2 -4 -1 -9 3 -11 12 -7 87 -2 101 7 7 4 12 3 12 -2 0
-10 96 -9 107 1 3 4 -9 7 -28 8 -138 4 -191 3 -195 -3z"/>
<path d="M2395 812 c-12 -13 -2 -18 30 -18 19 1 35 4 35 7 0 8 -58 17 -65 11z"/>
<path d="M2470 808 c0 -8 9 -14 20 -13 21 1 41 15 22 15 -5 0 -17 3 -26 6 -10
4 -16 1 -16 -8z"/>
<path d="M2530 805 c0 -7 16 -11 40 -11 30 0 37 3 29 12 -13 16 -69 15 -69 -1z"/>
<path d="M2630 812 c-22 -8 -8 -20 18 -17 15 2 30 4 35 4 4 1 7 4 7 9 0 7 -41
10 -60 4z"/>
<path d="M2710 810 c-20 -12 -5 -24 16 -12 9 5 12 12 7 15 -5 3 -15 2 -23 -3z"/>
<path d="M2043 762 c-50 -7 -18 -17 56 -17 44 0 78 1 76 3 -6 6 -110 17 -132
14z"/>
<path d="M131 1174 c-1 -16 5 -21 24 -21 15 0 25 5 25 13 0 17 -16 18 -26 2
-5 -8 -10 -6 -15 8 -7 18 -8 18 -8 -2z"/>
<path d="M303 1170 c2 -28 29 -34 33 -7 1 9 -2 17 -7 17 -5 0 -9 -8 -10 -17
-1 -12 -4 -10 -10 7 l-8 25 2 -25z"/>
<path d="M470 1170 c0 -11 7 -20 15 -20 8 0 15 6 15 14 0 8 -7 16 -15 20 -10
4 -15 -1 -15 -14z"/>
<path d="M533 1183 c-7 -3 -13 -11 -13 -19 0 -10 13 -14 45 -14 29 0 45 4 45
13 0 8 4 7 10 -3 9 -13 11 -13 20 0 9 13 10 13 10 0 0 -12 2 -12 9 -2 7 11 9
11 14 -2 8 -21 24 -20 29 2 4 15 -3 18 -54 20 -40 2 -58 0 -53 -7 3 -6 2 -11
-4 -11 -5 0 -12 6 -14 13 -4 8 -6 8 -6 -2 -1 -12 -3 -12 -13 1 -7 9 -19 14
-25 11z"/>
<path d="M725 1180 c-15 -24 14 -34 44 -16 10 6 12 5 7 -2 -5 -8 1 -12 18 -12
17 0 24 5 22 18 -2 13 -10 16 -32 14 -16 -2 -35 -9 -42 -14 -9 -8 -11 -7 -6 6
7 17 -1 22 -11 6z"/>
<path d="M1003 1140 c0 -30 2 -43 4 -27 2 15 2 39 0 55 -2 15 -4 2 -4 -28z"/>
<path d="M190 1163 c0 -15 2 -16 10 -3 6 10 10 11 10 3 0 -7 5 -13 10 -13 6 0
10 7 10 15 0 8 -9 15 -20 15 -12 0 -20 -7 -20 -17z"/>
<path d="M240 1165 c0 -8 5 -15 11 -15 5 0 7 5 4 10 -3 6 -2 10 4 10 5 0 12
-6 14 -12 3 -8 6 -6 6 5 1 11 -6 17 -19 17 -11 0 -20 -7 -20 -15z"/>
<path d="M350 1165 c0 -10 10 -15 31 -15 17 0 28 4 24 10 -3 6 -1 10 4 10 6 0
11 -6 11 -12 0 -10 3 -9 9 1 7 11 9 11 14 0 4 -10 6 -9 6 4 1 12 -7 17 -28 17
-16 0 -32 -6 -34 -12 -4 -10 -6 -10 -6 0 -1 17 -31 15 -31 -3z"/>
<path d="M120 1062 c0 -18 13 -20 55 -12 38 7 38 8 8 9 -17 0 -38 4 -47 7 -9
3 -16 1 -16 -4z"/>
<path d="M223 1055 c2 -6 47 -10 105 -10 57 0 101 4 99 9 -2 5 -49 10 -105 10
-64 1 -101 -3 -99 -9z"/>
<path d="M444 1058 c-2 -4 -1 -9 3 -11 12 -7 87 -2 101 7 7 4 12 3 12 -3 0
-12 73 -8 77 5 4 11 -186 13 -193 2z"/>
<path d="M650 1055 c0 -6 33 -10 80 -10 47 0 80 4 80 10 0 6 -33 10 -80 10
-47 0 -80 -4 -80 -10z"/>
<path d="M833 1063 c-23 -8 -14 -21 12 -19 14 0 25 6 25 12 0 11 -16 14 -37 7z"/>
<path d="M123 1005 c5 -14 157 -15 157 -1 0 7 -28 11 -80 11 -49 0 -79 -4 -77
-10z"/>
<path d="M290 1005 c0 -14 83 -14 92 0 5 6 8 6 8 -2 0 -7 5 -13 12 -13 9 0 9
3 0 12 -15 15 -112 17 -112 3z"/>
<path d="M121 913 c-1 -19 11 -21 54 -12 l40 8 -42 -2 c-24 -1 -45 2 -47 8 -3
6 -5 5 -5 -2z"/>
<path d="M223 905 c2 -6 47 -10 105 -10 57 0 101 4 99 9 -2 5 -49 10 -105 10
-64 1 -101 -3 -99 -9z"/>
<path d="M444 908 c-2 -4 -1 -9 3 -11 12 -7 87 -2 101 7 7 4 12 3 12 -3 0 -5
9 -9 20 -8 11 1 20 5 20 10 0 5 6 4 13 -2 13 -10 27 -6 27 8 0 8 -191 7 -196
-1z"/>
<path d="M650 905 c0 -6 33 -10 80 -10 47 0 80 4 80 10 0 6 -33 10 -80 10 -47
0 -80 -4 -80 -10z"/>
<path d="M833 913 c-23 -8 -14 -21 12 -19 14 0 25 6 25 12 0 11 -16 14 -37 7z"/>
<path d="M123 855 c5 -14 157 -15 157 -1 0 7 -28 11 -80 11 -49 0 -79 -4 -77
-10z"/>
<path d="M290 855 c0 -14 83 -14 92 0 5 6 8 6 8 -2 0 -9 15 -11 53 -7 28 3 54
8 57 11 3 3 -14 4 -37 1 -24 -2 -45 1 -47 7 -2 5 -5 4 -5 -3 -1 -8 -6 -10 -13
-5 -19 11 -108 10 -108 -2z"/>
<path d="M513 856 c5 -14 137 -15 137 -2 0 7 -28 11 -70 11 -39 0 -69 -4 -67
-9z"/>
<path d="M660 854 c0 -8 11 -11 33 -7 44 7 44 10 3 15 -24 3 -36 0 -36 -8z"/>
<path d="M740 857 c0 -7 9 -13 20 -13 24 0 26 11 4 20 -22 8 -24 8 -24 -7z"/>
<path d="M790 855 c0 -5 20 -10 45 -11 27 -1 44 3 42 9 -4 13 -87 15 -87 2z"/>
<path d="M895 859 c-4 -6 -4 -13 -1 -16 3 -4 6 0 6 8 0 11 2 11 10 -1 8 -13
10 -12 10 3 0 19 -15 23 -25 6z"/>
<path d="M127 808 c-16 -10 -11 -10 120 -12 62 0 113 2 113 7 0 4 -21 7 -47 8
-27 1 -77 2 -111 2 -35 1 -69 -1 -75 -5z"/>
<path d="M370 803 c0 -7 11 -12 25 -11 14 1 25 7 25 13 0 5 -11 10 -25 10 -14
0 -25 -6 -25 -12z"/>
<path d="M506 813 c-15 -15 -3 -20 42 -18 76 5 79 6 54 16 -15 5 -30 5 -40 0
-10 -5 -23 -6 -33 -1 -9 5 -19 6 -23 3z"/>
<path d="M630 805 c0 -6 17 -11 40 -12 33 -1 39 2 30 12 -14 16 -70 17 -70 0z"/>
<path d="M731 812 c-28 -9 -6 -17 49 -17 33 0 60 3 60 8 0 4 -10 7 -22 8 -13
0 -35 2 -50 3 -14 1 -31 0 -37 -2z"/>
<path d="M430 802 c0 -10 36 -9 46 1 4 4 -5 7 -19 7 -15 0 -27 -4 -27 -8z"/>
<path d="M140 759 c-33 -9 -29 -10 65 -13 44 -1 72 -1 63 2 -10 2 -18 8 -18
12 0 6 -10 6 -22 1 -13 -5 -32 -5 -43 -1 -11 3 -31 3 -45 -1z"/>
<path d="M72 608 l2 -53 3 47 c4 42 7 47 31 51 24 4 24 4 -5 6 l-33 1 2 -52z"/>
<path d="M353 653 c120 -2 314 -2 430 0 117 1 19 2 -218 2 -237 0 -332 -1
-212 -2z"/>
<path d="M1003 610 c0 -30 2 -43 4 -27 2 15 2 39 0 55 -2 15 -4 2 -4 -28z"/>
<path d="M1020 370 l0 -290 470 0 470 0 -2 293 -3 292 -2 -287 -3 -288 -460 0
-461 0 3 285 c2 157 0 285 -4 285 -5 0 -8 -130 -8 -290z"/>
<path d="M1342 653 c108 -2 288 -2 400 0 112 1 23 2 -197 2 -220 0 -311 -1
-203 -2z"/>
<path d="M1974 415 c0 -137 2 -195 3 -128 2 67 2 179 0 250 -1 70 -3 16 -3
-122z"/>
<path d="M2458 653 l442 -3 0 -280 0 -280 -459 0 -460 0 -4 38 -4 37 -1 -42
-2 -43 470 0 470 0 0 290 0 290 -447 -2 -448 -3 443 -2z"/>
<path d="M131 574 c-1 -16 5 -21 24 -21 15 0 25 5 25 13 0 17 -16 18 -26 2 -5
-8 -10 -6 -15 8 -7 18 -8 18 -8 -2z"/>
<path d="M303 570 c2 -28 29 -34 33 -7 1 9 -2 17 -7 17 -5 0 -9 -8 -10 -17 -1
-12 -4 -10 -10 7 l-8 25 2 -25z"/>
<path d="M470 570 c0 -11 7 -20 15 -20 8 0 15 6 15 14 0 8 -7 16 -15 20 -10 4
-15 -1 -15 -14z"/>
<path d="M533 583 c-7 -3 -13 -11 -13 -19 0 -10 13 -14 45 -14 29 0 45 4 45
13 0 8 4 7 10 -3 9 -13 11 -13 20 0 9 13 10 13 10 0 0 -12 2 -12 9 -2 7 11 9
11 14 -2 8 -21 24 -20 29 2 4 15 -3 18 -54 20 -40 2 -58 0 -53 -7 3 -6 2 -11
-4 -11 -5 0 -12 6 -14 13 -4 8 -6 8 -6 -2 -1 -12 -3 -12 -13 1 -7 9 -19 14
-25 11z"/>
<path d="M798 585 c-3 -3 -22 -6 -42 -7 -21 -1 -35 -6 -33 -12 5 -14 28 -15
46 -2 11 8 13 8 7 -1 -5 -9 0 -13 18 -13 16 0 23 5 22 15 -3 18 -11 27 -18 20z"/>
<path d="M1081 574 c-1 -16 5 -21 24 -21 15 0 25 5 25 13 0 17 -16 18 -26 2
-5 -8 -10 -6 -15 8 -7 18 -8 18 -8 -2z"/>
<path d="M1254 565 c1 -25 29 -27 34 -2 2 9 -2 17 -8 17 -6 0 -9 -4 -5 -9 3
-5 1 -12 -4 -15 -5 -4 -11 2 -14 11 -3 14 -4 14 -3 -2z"/>
<path d="M1410 570 c0 -13 7 -20 20 -20 24 0 27 25 4 34 -23 9 -24 8 -24 -14z"/>
<path d="M1483 583 c-28 -10 -13 -33 22 -33 21 0 35 5 35 13 0 9 2 9 9 -1 7
-11 9 -11 14 2 5 12 0 16 -18 16 -14 0 -25 -5 -25 -12 0 -7 -5 -6 -12 4 -7 9
-19 14 -25 11z"/>
<path d="M1670 571 c0 -20 28 -30 43 -15 13 14 -6 24 -21 12 -10 -8 -13 -9 -9
-1 4 6 3 14 -3 18 -5 3 -10 -3 -10 -14z"/>
<path d="M1740 581 c-17 -7 -25 -31 -11 -31 5 0 12 6 14 13 4 10 6 10 6 0 1
-7 5 -13 10 -13 9 0 9 25 0 33 -2 3 -11 2 -19 -2z"/>
<path d="M2020 570 c0 -17 7 -20 38 -20 28 0 39 4 39 15 0 18 -43 20 -50 3 -3
-8 -6 -6 -6 5 -1 24 -21 22 -21 -3z"/>
<path d="M2200 571 c0 -23 9 -31 26 -24 21 8 17 30 -6 36 -14 4 -20 0 -20 -12z"/>
<path d="M2360 570 c0 -13 7 -20 20 -20 24 0 27 25 4 34 -23 9 -24 8 -24 -14z"/>
<path d="M2427 583 c-11 -10 -8 -33 4 -33 5 0 8 4 4 9 -3 5 -1 12 5 16 5 3 10
-1 10 -9 0 -9 9 -16 20 -16 11 0 20 6 20 13 0 9 2 9 9 -1 7 -11 9 -11 14 2 5
12 0 16 -18 16 -14 0 -25 -6 -25 -12 0 -7 -5 -5 -11 5 -11 18 -21 21 -32 10z"/>
<path d="M2620 570 c0 -16 7 -19 35 -18 19 1 35 6 35 12 0 6 5 4 10 -4 8 -12
10 -11 10 7 0 19 -3 21 -22 14 -13 -5 -33 -5 -45 0 -19 7 -23 5 -23 -11z"/>
<path d="M190 563 c0 -15 2 -16 10 -3 6 10 10 11 10 3 0 -7 5 -13 10 -13 6 0
10 7 10 15 0 8 -9 15 -20 15 -12 0 -20 -7 -20 -17z"/>
<path d="M240 565 c0 -8 5 -15 11 -15 5 0 7 5 4 10 -3 6 -2 10 4 10 5 0 12 -6
14 -12 3 -8 6 -6 6 5 1 11 -6 17 -19 17 -11 0 -20 -7 -20 -15z"/>
<path d="M350 565 c0 -10 10 -15 31 -15 17 0 28 4 24 10 -3 6 -1 10 4 10 6 0
11 -6 11 -12 0 -10 3 -9 9 1 7 11 9 11 14 0 4 -10 6 -9 6 4 1 12 -7 17 -28 17
-16 0 -32 -6 -34 -12 -4 -10 -6 -10 -6 0 -1 17 -31 15 -31 -3z"/>
<path d="M1141 564 c0 -11 3 -14 6 -6 3 7 2 16 -1 19 -3 4 -6 -2 -5 -13z"/>
<path d="M1160 565 c0 -8 5 -15 10 -15 6 0 10 7 10 15 0 8 -4 15 -10 15 -5 0
-10 -7 -10 -15z"/>
<path d="M1190 565 c0 -8 5 -15 10 -15 6 0 10 6 10 13 0 8 4 7 10 -3 8 -13 10
-12 10 3 0 10 -8 17 -20 17 -11 0 -20 -7 -20 -15z"/>
<path d="M1300 568 c0 -13 8 -18 30 -18 17 0 30 5 30 13 0 8 4 7 10 -3 9 -13
10 -13 10 0 0 13 1 13 10 0 8 -13 10 -12 10 3 0 12 -8 17 -30 17 -17 0 -30 -5
-30 -12 0 -9 -4 -8 -10 2 -9 13 -10 13 -10 0 0 -13 -1 -13 -10 0 -8 13 -10 12
-10 -2z"/>
<path d="M1575 569 c-4 -6 -4 -13 0 -17 4 -4 10 -1 13 7 2 8 7 9 11 3 3 -5 16
-12 27 -16 16 -5 23 -2 26 12 3 12 0 19 -9 19 -8 0 -12 -6 -9 -13 3 -8 0 -11
-9 -7 -8 3 -12 9 -9 14 3 5 -4 9 -15 9 -11 0 -23 -5 -26 -11z"/>
<path d="M2107 574 c-11 -12 3 -24 29 -24 13 0 24 6 24 13 0 8 4 7 10 -3 8
-13 10 -12 10 3 0 11 -8 17 -21 17 -11 0 -17 -4 -14 -10 3 -5 1 -10 -4 -10 -6
0 -11 5 -11 10 0 11 -13 13 -23 4z"/>
<path d="M2250 568 c0 -13 8 -18 29 -18 16 0 32 6 34 13 4 10 6 10 6 0 1 -7 8
-13 17 -13 26 0 9 25 -19 28 -17 2 -27 -1 -27 -10 0 -9 -3 -9 -10 2 -9 13 -10
13 -10 0 0 -13 -1 -13 -10 0 -8 13 -10 12 -10 -2z"/>
<path d="M2525 569 c-4 -6 -4 -13 0 -17 3 -3 10 0 15 8 7 10 10 11 10 3 0 -7
5 -13 10 -13 6 0 10 7 10 15 0 17 -35 20 -45 4z"/>
<path d="M2580 560 c0 -11 2 -20 5 -20 2 0 9 9 15 20 9 16 8 20 -5 20 -8 0
-15 -9 -15 -20z"/>
<path d="M73 510 c0 -25 2 -35 4 -22 2 12 2 32 0 45 -2 12 -4 2 -4 -23z"/>
<path d="M1000 320 l0 -230 -460 0 -460 0 -3 188 -2 187 -3 -192 -2 -193 470
0 470 0 0 235 c0 129 -2 235 -5 235 -3 0 -5 -103 -5 -230z"/>
<path d="M120 462 c0 -18 13 -20 55 -12 38 7 38 8 8 9 -17 0 -38 4 -47 7 -9 3
-16 1 -16 -4z"/>
<path d="M223 455 c2 -5 49 -9 105 -10 57 0 101 4 99 9 -2 5 -49 10 -105 10
-61 1 -101 -3 -99 -9z"/>
<path d="M444 458 c-2 -4 -1 -9 3 -11 12 -7 87 -2 101 7 7 4 12 3 12 -3 0 -12
73 -8 77 4 3 11 -186 14 -193 3z"/>
<path d="M650 455 c0 -6 33 -10 80 -10 47 0 80 4 80 10 0 6 -33 10 -80 10 -47
0 -80 -4 -80 -10z"/>
<path d="M820 454 c0 -7 11 -11 25 -10 33 1 33 22 0 22 -14 0 -25 -5 -25 -12z"/>
<path d="M1074 458 c3 -15 45 -18 73 -6 12 5 3 7 -24 5 -24 -1 -45 1 -47 5 -3
5 -3 3 -2 -4z"/>
<path d="M1173 457 c4 -13 36 -18 60 -11 26 8 14 16 -28 19 -20 1 -34 -2 -32
-8z"/>
<path d="M1260 461 c0 -5 5 -13 10 -16 6 -3 10 -2 10 4 0 5 -4 13 -10 16 -5 3
-10 2 -10 -4z"/>
<path d="M1294 461 c-12 -12 0 -17 41 -16 25 0 44 4 42 9 -3 9 -75 15 -83 7z"/>
<path d="M1394 461 c-13 -13 4 -17 76 -17 46 1 80 5 80 11 0 9 -147 15 -156 6z"/>
<path d="M1571 461 c-8 -6 -9 -11 -3 -15 6 -3 14 -1 17 5 9 14 2 20 -14 10z"/>
<path d="M1600 457 c0 -7 9 -13 20 -13 24 0 26 11 4 20 -22 8 -24 8 -24 -7z"/>
<path d="M1668 462 c-37 -7 -16 -17 37 -17 31 0 55 5 55 10 0 10 -56 14 -92 7z"/>
<path d="M1770 455 c0 -5 11 -10 25 -10 14 0 25 5 25 10 0 6 -11 10 -25 10
-14 0 -25 -4 -25 -10z"/>
<path d="M2020 457 c0 -14 7 -16 42 -12 54 7 58 12 14 17 -21 2 -36 0 -36 -7
0 -5 -5 -3 -10 5 -8 13 -10 12 -10 -3z"/>
<path d="M2120 453 c0 -8 12 -11 37 -7 50 6 52 11 4 16 -28 2 -41 0 -41 -9z"/>
<path d="M2210 461 c0 -5 5 -13 10 -16 6 -3 10 -2 10 4 0 5 -4 13 -10 16 -5 3
-10 2 -10 -4z"/>
<path d="M2244 461 c-12 -12 0 -17 41 -16 25 0 44 4 42 9 -3 9 -75 15 -83 7z"/>
<path d="M2344 461 c-12 -12 0 -16 46 -16 27 0 50 3 50 6 0 8 -89 17 -96 10z"/>
<path d="M2453 456 c4 -13 47 -15 47 -2 0 6 -11 11 -25 11 -14 0 -24 -4 -22
-9z"/>
<path d="M2521 461 c-8 -6 -9 -11 -3 -15 6 -3 14 -1 17 5 9 14 2 20 -14 10z"/>
<path d="M2550 457 c0 -7 9 -13 20 -13 24 0 26 11 4 20 -22 8 -24 8 -24 -7z"/>
<path d="M2617 462 c-36 -7 -14 -17 38 -17 32 -1 55 3 55 10 0 9 -57 14 -93 7z"/>
<path d="M2720 455 c0 -5 11 -11 25 -11 14 -1 25 3 25 10 0 6 -11 11 -25 11
-14 0 -25 -4 -25 -10z"/>
<path d="M123 405 c4 -12 107 -14 107 -3 0 5 9 4 19 -2 25 -13 31 -13 31 3 0
8 -23 12 -80 12 -49 0 -79 -4 -77 -10z"/>
<path d="M290 405 c0 -14 83 -16 92 -2 6 9 8 9 8 0 0 -7 5 -13 12 -13 9 0 9 3
0 12 -15 15 -112 17 -112 3z"/>
<path d="M1070 407 c0 -5 5 -5 10 -2 6 3 10 2 10 -2 0 -5 32 -9 70 -9 39 0 70
4 70 8 0 4 -10 9 -22 9 -86 4 -138 3 -138 -4z"/>
<path d="M1254 409 c-18 -7 -18 -8 1 -10 52 -6 104 -4 97 3 -12 12 -75 16 -98
7z"/>
<path d="M2020 405 c0 -7 52 -10 144 -10 86 0 141 4 136 9 -13 13 -280 14
-280 1z"/>
<path d="M124 308 c2 -7 8 -13 14 -12 7 1 26 2 43 3 16 0 28 5 25 10 -3 5 -21
5 -40 1 -20 -4 -37 -4 -40 1 -2 5 -3 4 -2 -3z"/>
<path d="M223 305 c2 -5 49 -9 105 -10 57 0 101 4 99 9 -2 5 -49 10 -105 10
-61 1 -101 -3 -99 -9z"/>
<path d="M444 309 c-7 -12 8 -17 54 -14 49 2 69 15 26 16 -16 0 -39 2 -52 3
-13 2 -25 -1 -28 -5z"/>
<path d="M560 303 c0 -16 6 -16 30 -3 13 7 21 7 25 0 4 -6 11 -8 16 -5 19 13
7 20 -31 20 -26 0 -40 -4 -40 -12z"/>
<path d="M650 305 c0 -6 33 -10 80 -10 47 0 80 4 80 10 0 6 -33 10 -80 10 -47
0 -80 -4 -80 -10z"/>
<path d="M820 304 c0 -7 11 -11 25 -10 33 1 33 22 0 22 -14 0 -25 -5 -25 -12z"/>
<path d="M1074 308 c3 -15 45 -18 73 -6 12 5 3 7 -24 5 -24 -1 -45 1 -47 5 -3
5 -3 3 -2 -4z"/>
<path d="M1173 305 c3 -9 14 -10 61 -7 32 3 9 15 -29 16 -19 1 -34 -3 -32 -9z"/>
<path d="M1260 311 c0 -5 5 -13 10 -16 6 -3 10 -2 10 4 0 5 -4 13 -10 16 -5 3
-10 2 -10 -4z"/>
<path d="M1294 311 c-12 -12 0 -17 41 -16 25 0 44 4 42 9 -3 9 -75 15 -83 7z"/>
<path d="M1394 311 c-13 -13 4 -17 76 -16 46 0 80 4 80 10 0 9 -147 15 -156 6z"/>
<path d="M1571 311 c-8 -6 -9 -11 -3 -15 6 -3 14 -1 17 5 9 14 2 20 -14 10z"/>
<path d="M1600 307 c0 -7 9 -13 20 -13 24 0 26 11 4 20 -22 8 -24 8 -24 -7z"/>
<path d="M1668 312 c-10 -2 -18 -7 -18 -12 0 -4 15 -4 34 0 19 4 40 4 47 -1
20 -12 29 -11 29 4 0 12 -51 17 -92 9z"/>
<path d="M1770 306 c0 -6 11 -11 25 -11 14 0 25 5 25 11 0 5 -11 10 -25 10
-14 0 -25 -5 -25 -10z"/>
<path d="M2020 308 c0 -14 7 -17 33 -14 17 3 38 5 46 5 8 1 11 4 8 8 -11 10
-67 9 -67 -2 0 -5 -5 -3 -10 5 -8 13 -10 12 -10 -2z"/>
<path d="M2120 307 c0 -13 8 -15 37 -11 44 5 57 14 20 14 -14 0 -32 3 -41 6
-10 4 -16 1 -16 -9z"/>
<path d="M2210 311 c0 -6 5 -13 10 -16 6 -3 10 1 10 9 0 9 -4 16 -10 16 -5 0
-10 -4 -10 -9z"/>
<path d="M2244 311 c-12 -12 0 -17 41 -16 25 0 44 4 42 9 -3 9 -75 15 -83 7z"/>
<path d="M2344 311 c-12 -12 0 -16 46 -16 27 0 50 3 50 6 0 8 -89 17 -96 10z"/>
<path d="M2453 306 c4 -13 47 -15 47 -2 0 6 -11 11 -25 11 -14 0 -24 -4 -22
-9z"/>
<path d="M2521 311 c-8 -6 -9 -11 -3 -15 6 -3 14 -1 17 5 9 14 2 20 -14 10z"/>
<path d="M2550 307 c0 -7 9 -13 20 -13 24 0 26 11 4 20 -22 8 -24 8 -24 -7z"/>
<path d="M2617 312 c-9 -2 -17 -7 -17 -12 0 -4 15 -4 34 0 19 4 40 4 47 -1 20
-12 29 -11 29 4 0 11 -53 17 -93 9z"/>
<path d="M2720 305 c0 -5 11 -11 25 -11 14 -1 25 3 25 10 0 6 -11 11 -25 11
-14 0 -25 -4 -25 -10z"/>
<path d="M123 255 c5 -13 157 -13 157 0 0 6 -33 10 -80 10 -48 0 -79 -4 -77
-10z"/>
<path d="M290 255 c0 -14 83 -14 92 0 5 6 8 6 8 -2 0 -9 15 -11 53 -7 28 3 54
8 57 11 3 3 -14 4 -37 1 -24 -2 -45 1 -47 7 -2 5 -5 4 -5 -3 -1 -8 -6 -10 -13
-5 -19 11 -108 10 -108 -2z"/>
<path d="M513 255 c5 -13 137 -14 137 -1 0 7 -28 11 -70 11 -41 0 -69 -4 -67
-10z"/>
<path d="M660 254 c0 -8 11 -11 33 -7 44 7 44 10 3 15 -24 3 -36 0 -36 -8z"/>
<path d="M740 257 c0 -7 9 -13 20 -13 24 0 26 11 4 20 -22 8 -24 8 -24 -7z"/>
<path d="M790 255 c0 -5 20 -10 45 -10 25 0 44 4 42 9 -4 13 -87 14 -87 1z"/>
<path d="M897 263 c-4 -3 -7 -11 -7 -17 0 -6 5 -4 10 4 7 11 10 11 10 2 0 -7
5 -10 10 -7 6 4 8 11 5 16 -7 11 -19 12 -28 2z"/>
<path d="M1070 257 c0 -5 5 -5 10 -2 6 3 10 3 10 -2 0 -4 32 -8 70 -8 40 0 70
4 70 10 0 6 -33 10 -80 10 -44 0 -80 -4 -80 -8z"/>
<path d="M1253 259 c-17 -7 -16 -8 2 -10 45 -5 95 -4 95 4 0 4 -6 7 -12 8 -7
0 -25 2 -40 3 -15 1 -35 -2 -45 -5z"/>
<path d="M1364 258 c3 -15 45 -18 73 -6 12 5 3 7 -24 5 -24 -1 -45 1 -47 5 -3
5 -3 3 -2 -4z"/>
<path d="M1463 256 c2 -5 12 -11 23 -12 23 -4 58 6 50 13 -10 10 -76 9 -73 -1z"/>
<path d="M1550 259 c0 -7 26 -19 41 -19 5 0 9 6 9 13 0 6 -11 12 -25 12 -14 0
-25 -3 -25 -6z"/>
<path d="M1610 255 c0 -6 27 -10 60 -10 33 0 60 3 60 8 0 8 -7 9 -72 11 -27 0
-48 -3 -48 -9z"/>
<path d="M1740 255 c0 -5 20 -10 45 -11 26 0 45 4 45 10 0 6 5 4 10 -4 9 -13
10 -13 10 0 0 13 1 13 10 0 9 -13 10 -13 10 1 0 12 -12 15 -65 15 -36 -1 -65
-5 -65 -11z"/>
<path d="M2020 255 c0 -7 49 -11 140 -10 77 0 140 3 140 8 0 8 0 8 -157 10
-80 1 -123 -2 -123 -8z"/>
<path d="M2310 257 c0 -14 7 -16 42 -12 54 7 58 12 14 17 -21 2 -36 0 -36 -7
0 -5 -5 -3 -10 5 -8 13 -10 12 -10 -3z"/>
<path d="M2410 253 c0 -7 11 -10 28 -8 15 2 33 4 41 4 29 2 0 14 -34 15 -21 1
-35 -4 -35 -11z"/>
<path d="M2500 259 c0 -5 3 -9 8 -10 4 0 15 -2 25 -4 9 -2 17 0 17 5 0 4 -11
10 -25 12 -14 3 -25 1 -25 -3z"/>
<path d="M2560 255 c0 -6 20 -10 48 -8 26 1 53 2 61 2 8 1 11 4 7 9 -12 11
-116 8 -116 -3z"/>
<path d="M2690 254 c0 -6 23 -10 55 -10 30 1 55 5 55 11 0 5 5 3 10 -5 9 -13
10 -13 10 0 0 12 -14 15 -65 15 -39 0 -65 -4 -65 -11z"/>
<path d="M127 208 c-16 -10 -8 -11 120 -12 62 -1 113 2 113 7 0 4 -21 7 -47 8
-27 1 -77 2 -111 2 -35 1 -69 -1 -75 -5z"/>
<path d="M370 204 c0 -7 11 -11 25 -10 33 1 33 21 0 21 -14 0 -25 -5 -25 -11z"/>
<path d="M506 213 c-15 -15 -3 -20 42 -18 76 5 79 6 54 16 -15 5 -30 5 -40 0
-10 -5 -23 -6 -33 -1 -9 5 -19 6 -23 3z"/>
<path d="M630 205 c0 -7 16 -11 40 -11 30 0 37 3 29 12 -13 16 -69 15 -69 -1z"/>
<path d="M731 212 c-28 -9 -6 -17 49 -17 33 0 60 3 60 8 0 4 -8 7 -17 6 -10
-1 -20 0 -23 1 -11 4 -59 5 -69 2z"/>
<path d="M1080 212 c-6 -2 -10 -7 -10 -11 0 -4 54 -7 120 -7 66 1 120 4 120 9
0 4 -6 7 -12 8 -44 3 -210 3 -218 1z"/>
<path d="M1320 204 c0 -7 11 -11 25 -10 33 1 33 21 0 21 -14 0 -25 -5 -25 -11z"/>
<path d="M1380 205 c0 -6 9 -11 20 -10 30 2 34 12 5 17 -15 3 -25 1 -25 -7z"/>
<path d="M1520 208 c0 -8 9 -14 20 -13 21 1 41 15 22 15 -5 0 -17 3 -26 6 -10
4 -16 1 -16 -8z"/>
<path d="M1580 205 c0 -7 16 -11 40 -11 30 0 37 3 29 12 -13 16 -69 15 -69 -1z"/>
<path d="M1680 212 c-27 -9 -4 -17 50 -17 34 -1 59 3 57 9 -3 9 -85 15 -107 8z"/>
<path d="M2024 211 c-13 -14 3 -19 56 -18 33 1 60 7 60 12 0 10 -107 15 -116
6z"/>
<path d="M2154 208 c-2 -4 -1 -8 3 -11 14 -6 212 -1 219 6 4 4 -8 7 -27 8
-138 4 -191 3 -195 -3z"/>
<path d="M2395 212 c-12 -12 -3 -18 30 -18 19 0 35 3 35 7 0 8 -58 18 -65 11z"/>
<path d="M2470 208 c0 -8 9 -14 20 -13 21 1 41 15 22 15 -5 0 -17 3 -26 6 -10
4 -16 1 -16 -8z"/>
<path d="M2530 205 c0 -7 16 -11 40 -11 30 0 37 3 29 12 -13 16 -69 15 -69 -1z"/>
<path d="M2630 212 c-21 -7 -9 -18 18 -16 42 3 42 4 42 12 0 7 -41 10 -60 4z"/>
<path d="M2710 210 c-20 -12 -5 -24 16 -12 9 5 12 12 7 15 -5 3 -15 2 -23 -3z"/>
<path d="M430 202 c0 -10 36 -9 46 1 4 4 -5 7 -19 7 -15 0 -27 -4 -27 -8z"/>
<path d="M1440 201 c0 -5 16 -9 35 -8 19 1 35 4 35 7 0 3 -16 7 -35 8 -19 2
-35 -2 -35 -7z"/>
<path d="M140 159 c-32 -9 -30 -9 62 -12 62 -3 73 -1 60 9 -10 7 -24 9 -38 4
-12 -5 -25 -6 -28 -2 -10 9 -28 10 -56 1z"/>
<path d="M1088 159 c-31 -9 -26 -10 67 -13 44 -1 72 0 63 2 -10 2 -18 7 -18
10 0 9 -81 9 -112 1z"/>
<path d="M2043 162 c-51 -7 -18 -17 59 -17 45 0 74 1 65 3 -9 2 -17 7 -17 10
0 7 -68 9 -107 4z"/>
</g>
</svg>
