<svg xmlns="http://www.w3.org/2000/svg" viewBox="0 0 30 30"><path d="M7.4,5.4a.8.8,0,0,1-.7-.7V.9A.8.8,0,0,1,8.1.9V4.7A.8.8,0,0,1,7.4,5.4Z"/><path d="M20.2,5.4a.8.8,0,0,1-.7-.7V.9A.8.8,0,0,1,21,.9V4.7A.8.8,0,0,1,20.2,5.4Z"/><rect x="22" y="25.2" width="7.8" height="1.5"/><rect x="25.2" y="22.1" width="1.5" height="7.8"/><path d="M1.2,9.1V25a1.5,1.5,0,0,0,1.5,1.5H18.6a7.8,7.8,0,0,1,7.8-7.8V9.1Zm8,11.3H6.9V18.1H9.2Zm0-4.7H6.9V13.5H9.2ZM15,20.5H12.6V18.1H15Zm0-4.7H12.6V13.5H15Zm5.8,4.7H18.4V18.1h2.3Zm0-4.7H18.4V13.5h2.3Z"/><path d="M26.4,7.7V3.8a1.5,1.5,0,0,0-1.5-1.5H2.7A1.5,1.5,0,0,0,1.2,3.8V7.7Z"/></svg>