<svg xmlns="http://www.w3.org/2000/svg" viewBox="0 0 30 30"><path d="M26,1.8H4A3.2,3.2,0,0,0,1,5.2,3.2,3.2,0,0,0,4,8.5H5.2V6.8A3.6,3.6,0,0,1,8.8,3.3H23.8a1.6,1.6,0,1,1,0,3.1.4.4,0,0,0-.4.4V8.5H26a3.2,3.2,0,0,0,3-3.4A3.2,3.2,0,0,0,26,1.8Z"/><path d="M23.8,4.2H8.8A2.7,2.7,0,0,0,6.1,6.8V27.6a.7.7,0,0,0,.4.6h.3l.5-.2,1.4-1.4L10.1,28a.7.7,0,0,0,.9,0l1.4-1.4L13.8,28a.7.7,0,0,0,.9,0l1.4-1.4L17.6,28a.7.7,0,0,0,.9,0L20,26.6,21.4,28a.7.7,0,0,0,1.1-.5V6.8a1.3,1.3,0,0,1,1.3-1.3.7.7,0,0,0,0-1.3ZM11.1,16.5h-3V10.9h3Zm1.8,0H11.5V10.9H13Zm3.8,0h-3V10.9h3Zm3.6,0H18.8V10.9h1.5Z"/></svg>