<svg xmlns="http://www.w3.org/2000/svg" viewBox="0 0 30 30"><path d="M29.7,25.3l-3.6-9.1-3.5,5.4a1.4,1.4,0,0,1-.8.7h-.8a1.4,1.4,0,0,1-.9-.8l-4.7-7.2h-.1l-.3-.5H13.7l-3.6,5.5a1.4,1.4,0,0,1-.8.7H8.5a1.4,1.4,0,0,1-.9-.8L4.7,14.6a2.5,2.5,0,0,0-.5.8L.3,25.3A1.2,1.2,0,0,0,1.5,27h27A1.2,1.2,0,0,0,29.7,25.3Z"/><path d="M16.5,13.5h.1l4.7,7.2h0l4.8-7.4h0a5.7,5.7,0,1,0-9.7,0Zm4.8-6.2a2.4,2.4,0,1,1-2.4,2.4A2.4,2.4,0,0,1,21.3,7.3Z"/><path d="M4.1,11h.1l4.7,7.2h0L13.7,11h0a5.7,5.7,0,1,0-9.7,0ZM8.9,4.8A2.4,2.4,0,1,1,6.5,7.2,2.4,2.4,0,0,1,8.9,4.8Z"/></svg>