<svg xmlns="http://www.w3.org/2000/svg" viewBox="0 0 30 30"><path d="M27.9,21.9a2.5,2.5,0,0,0-.1-.5,2.6,2.6,0,0,0-1.5-1.9h-.2l-2.6-.7-3-1a.5.5,0,0,0-.5.1l-2.6,2.6a19.1,19.1,0,0,1-4.5-3.3h0A18.9,18.9,0,0,1,11,14.9a19.1,19.1,0,0,1-1.4-2.3L12.2,10V9.8a.5.5,0,0,0,0-.3S11.4,7,10.9,5.1l-.3-1.2h-.1A2.6,2.6,0,0,0,8.1,2.1H4.5A2.4,2.4,0,0,0,2.1,4.6V5h0v.2a27,27,0,0,0,.4,3.3h0v.2h.1a24.9,24.9,0,0,0,2.5,6.2h0L6,16.9v.2L7,18.2l.3.4.8,1,.4.5.7.8h0l.5.4.8.7.8.6.5.4,1,.7.3.2,1.3.8h.1a24.8,24.8,0,0,0,6.2,2.5h.5a28.3,28.3,0,0,0,4.2.5h.1a2.4,2.4,0,0,0,2.4-2.4V21.9Z"/></svg>