<svg xmlns="http://www.w3.org/2000/svg" viewBox="0 0 30 30"><path d="M28.2,22a2.5,2.5,0,0,0-.1-.5,2.6,2.6,0,0,0-1.5-1.9h-.2l-2.6-.7-3-1a.5.5,0,0,0-.5.1l-2.6,2.6a19.1,19.1,0,0,1-4.5-3.3h0A18.9,18.9,0,0,1,11.3,15a19,19,0,0,1-1.4-2.3l2.6-2.6V9.9a.5.5,0,0,0,0-.3s-.8-2.4-1.4-4.4L10.9,4h-.1A2.6,2.6,0,0,0,8.4,2.2H4.8A2.4,2.4,0,0,0,2.4,4.7v.4h0v.2a26.8,26.8,0,0,0,.4,3.3h0v.2H3a24.8,24.8,0,0,0,2.5,6.2h0L6.4,17v.2l.8,1.2.3.4.8,1,.4.5.7.8h0l.5.4.8.7.8.6.5.4,1,.7.3.2,1.3.8h.1A24.8,24.8,0,0,0,21,27.4h.5a28.3,28.3,0,0,0,4.2.5h.1a2.4,2.4,0,0,0,2.4-2.4V22Z"/><circle cx="17.9" cy="9.5" r="1"/><circle cx="21.7" cy="9.4" r="1"/><circle cx="25.4" cy="9.4" r="1"/></svg>