<svg xmlns="http://www.w3.org/2000/svg" viewBox="0 0 30 30"><circle cx="9.6" cy="26.3" r="2.6"/><path d="M9.6,29.1a2.8,2.8,0,1,1,2.8-2.8A2.9,2.9,0,0,1,9.6,29.1Zm0-5.2A2.3,2.3,0,1,0,12,26.3,2.4,2.4,0,0,0,9.6,23.9Z"/><circle cx="23.1" cy="26.3" r="2.6"/><path d="M23.1,29.1A2.8,2.8,0,1,1,26,26.3,2.9,2.9,0,0,1,23.1,29.1Zm0-5.2a2.3,2.3,0,1,0,2.3,2.3A2.4,2.4,0,0,0,23.1,23.9Z"/><path d="M25.9,22.8H8.3a3.1,3.1,0,1,1,0-6.2v2a1.1,1.1,0,1,0,0,2.2H25.9Z"/><path d="M6.2,6.5H28s-2.2,8.7-2.6,9.6a2.6,2.6,0,0,1-2,1.5H8.3L5.3,6.5Z"/><path d="M23.4,18.6H8.3a1,1,0,0,1-1-.7L4.4,6.8a1,1,0,0,1,1-1.3H28a1,1,0,0,1,1,1.2c-.4,1.5-2.3,8.9-2.7,9.8A3.5,3.5,0,0,1,23.4,18.6Zm-14.3-2H23.4a1.7,1.7,0,0,0,1.1-.9c.2-.5,1.2-4.4,2.2-8.2H6.6Z"/><path d="M7.2,18,3.5,3.9H1.3v-2H3.7A1.8,1.8,0,0,1,5.4,3.2L9.1,17.5Z"/></svg>