<svg xmlns="http://www.w3.org/2000/svg" viewBox="0 0 30 30"><path d="M21.2,17.4l-.2-.2-.5-.4-.3-.2-.6-.3-.4-.2-.6-.2H15.1A9.5,9.5,0,0,0,8.2,18,4.3,4.3,0,0,0,7,21.2v1.4a.7.7,0,0,0,.7.7H22.4a.7.7,0,0,0,.7-.7V21.2A4.3,4.3,0,0,0,21.9,18Z"/><path d="M21.3,14.1a2.9,2.9,0,1,0-1.2-2.4A2.9,2.9,0,0,0,21.3,14.1Z"/><path d="M5.4,14.1a2.9,2.9,0,0,0,4.6-2.4,2.9,2.9,0,1,0-4.6,2.4Z"/><path d="M23,15.7H22l1.2,1A6.2,6.2,0,0,1,25,21.2v.3h3.5A.5.5,0,0,0,29,21V20a3.2,3.2,0,0,0-.9-2.4A7.1,7.1,0,0,0,23,15.7Z"/><path d="M12.8,13.8a3.9,3.9,0,1,0-1.7-3.2A3.9,3.9,0,0,0,12.8,13.8Z"/><path d="M7,15.7a7.1,7.1,0,0,0-5.1,1.9A3.2,3.2,0,0,0,1,20v1a.5.5,0,0,0,.5.5H5.1v-.3a6.2,6.2,0,0,1,1.8-4.5l1.2-1Z"/></svg>