<svg xmlns="http://www.w3.org/2000/svg" viewBox="0 0 30 30"><path d="M18.5 24.2a5.5 5.5 0 1 0 11 0a5.5 5.5 0 1 0 -11 0M23.1 26.6 L22.2 25.7 L23.9 24.1 L23.9 21.6 L25.1 21.6 L25.1 24.6 L23.1 26.6"/><path d="M24.9,2.3H21V1a.8.8,0,1,0-1.5,0V2.3H8.2V1A.8.8,0,0,0,6.7,1V2.3H2.6A1.5,1.5,0,0,0,1.1,3.8V7.7H26.3V3.8A1.5,1.5,0,0,0,24.9,2.3Z"/><path d="M17,24.2a7,7,0,0,1,9.3-6.6V9.1H1.1V25a1.5,1.5,0,0,0,1.5,1.5H17.4A6.9,6.9,0,0,1,17,24.2Zm1.3-10.7h2.3v2.3H18.3Zm-9.2,7H6.8V18.1H9.2Zm0-4.7H6.8V13.5H9.2Zm5.8,4.7H12.6V18.1h2.3Zm0-4.7H12.6V13.5h2.3Z"/></svg>