<svg xmlns="http://www.w3.org/2000/svg" viewBox="0 0 30 30"><path d="M21.3,7.4C20,3.7,18,1.2,15.7.7V7.4Z"/><path d="M7.5,14.3h6.8V8.8h-6A24.8,24.8,0,0,0,7.5,14.3Z"/><path d="M14.3,7.4V.7c-2.3.4-4.4,3-5.6,6.7Z"/><path d="M8.3,21.2h6V15.7H7.5A24.7,24.7,0,0,0,8.3,21.2Z"/><path d="M14.3,29.3V22.6H8.7C9.9,26.3,12,28.8,14.3,29.3Z"/><path d="M22.7,7.4h5.2A15,15,0,0,0,18.2.3C20.1,1.6,21.8,4.2,22.7,7.4Z"/><path d="M23.1,21.2h5.5A14.9,14.9,0,0,0,30,15.7H23.8A26.9,26.9,0,0,1,23.1,21.2Z"/><path d="M23.8,14.3H30a14.9,14.9,0,0,0-1.3-5.6H23.1A26.7,26.7,0,0,1,23.8,14.3Z"/><path d="M22.7,22.6c-1,3.2-2.6,5.7-4.6,7.1a15,15,0,0,0,9.7-7.1Z"/><path d="M1.3,8.8A14.9,14.9,0,0,0,0,14.3H6.2a26.6,26.6,0,0,1,.7-5.6Z"/><path d="M7.2,22.6H2.1a15,15,0,0,0,9.7,7.1C9.8,28.4,8.2,25.8,7.2,22.6Z"/><path d="M6.2,15.7H0a14.9,14.9,0,0,0,1.3,5.6H6.8A26.6,26.6,0,0,1,6.2,15.7Z"/><path d="M7.2,7.4c1-3.2,2.6-5.7,4.6-7.1A15,15,0,0,0,2.1,7.4Z"/><path d="M15.7,22.6v6.7c2.3-.4,4.4-3,5.6-6.7Z"/><path d="M22.4,15.7H15.7v5.6h6A24.8,24.8,0,0,0,22.4,15.7Z"/><path d="M21.7,8.8h-6v5.6h6.8A24.6,24.6,0,0,0,21.7,8.8Z"/></svg>