<svg xmlns="http://www.w3.org/2000/svg" viewBox="0 0 30 30"><path d="M24.9,6.7V4.6a1.8,1.8,0,0,0-1.7-1.7H6.9A1.8,1.8,0,0,0,5.1,4.6V6.7Z"/><path d="M5.1,22v2.1a1.8,1.8,0,0,0,1.8,1.8H23.1a1.8,1.8,0,0,0,1.8-1.7V22Z"/><polygon points="28 21.1 25.9 21.1 25.9 19.9 26.8 19.9 26.8 19 28 19 28 21.1"/><path d="M24,21.1H21V19.9H24Zm-4.9,0H16.1V19.9h2.9Zm-4.9,0H11.2V19.9h2.9Zm-4.9,0H6.3V19.9H9.3Z"/><polygon points="4.3 21.1 2.2 21.1 2.2 19 3.4 19 3.4 19.9 4.3 19.9 4.3 21.1"/><path d="M3.4,17.5H2.2V15.1H3.4Zm0-3.9H2.2V11.3H3.4Z"/><polygon points="3.4 9.7 2.2 9.7 2.2 7.6 4.3 7.6 4.3 8.8 3.4 8.8 3.4 9.7"/><path d="M24,8.8H21V7.6H24Zm-4.9,0H16.1V7.6h2.9Zm-4.9,0H11.2V7.6h2.9Zm-4.9,0H6.3V7.6H9.3Z"/><polygon points="28 9.7 26.8 9.7 26.8 8.8 25.9 8.8 25.9 7.6 28 7.6 28 9.7"/><path d="M28,17.5H26.8V15.1H28Zm0-3.9H26.8V11.3H28Z"/></svg>