<svg xmlns="http://www.w3.org/2000/svg" viewBox="0 0 30 30"><path d="M15,16.3a.8.8,0,0,1-.7-.8V12.1a.8.8,0,1,1,1.5,0v3.5A.8.8,0,0,1,15,16.3Z"/><circle cx="15" cy="17.9" r="0.8"/><path d="M11.7,16.3H8.5a.8.8,0,1,1,0-1.5h3.2a.8.8,0,1,1,0,1.5Z"/><path d="M21.5,16.3H18.3a.8.8,0,1,1,0-1.5h3.2a.7.7,0,1,1,0,1.5Z"/><path d="M8.5,5H1.7a.8.8,0,0,0-.8.8V24.3a.8.8,0,0,0,.8.8H8.5a.8.8,0,0,0,.8-.7V5.8A.8.8,0,0,0,8.5,5ZM5.9,15H4.2a.8.8,0,0,1,0-1.5H5.9a.8.8,0,1,1,0,1.5Zm0-2.6H4.2a.8.8,0,0,1,0-1.5H5.9a.8.8,0,1,1,0,1.5Zm0-2.6H4.2a.7.7,0,0,1,0-1.5H5.9a.8.8,0,0,1,0,1.5Z"/><path d="M28.3,5H21.5a.8.8,0,0,0-.7.8V24.3a.8.8,0,0,0,.8.8h6.8a.8.8,0,0,0,.8-.7V5.8A.8.8,0,0,0,28.3,5ZM25.8,15H24.1a.8.8,0,0,1,0-1.5h1.7a.8.8,0,0,1,0,1.5Zm0-2.6H24.1a.8.8,0,0,1,0-1.5h1.7a.8.8,0,0,1,0,1.5Zm0-2.6H24.1a.7.7,0,0,1,0-1.5h1.7a.7.7,0,0,1,0,1.5Z"/></svg>