<svg xmlns="http://www.w3.org/2000/svg" viewBox="0 0 30 30"><circle cx="15" cy="16.5" r="3.3"/><path d="M29.4,11a1.3,1.3,0,0,0-1.8.2l-1.2,1.6a16.3,16.3,0,0,0-3.3-3l1.2-2.4a1.2,1.2,0,1,0-2.2-1.1L21,8.5a14.2,14.2,0,0,0-4.7-1.3V5a1.2,1.2,0,0,0-2.5,0V7.2A14.2,14.2,0,0,0,9,8.5L7.9,6.2A1.2,1.2,0,1,0,5.6,7.4L6.8,9.8a16.3,16.3,0,0,0-3.3,3L2.3,11.2a1.3,1.3,0,1,0-2,1.5L2,14.9,1.4,16l-.3.5.3.5c2.8,5.5,8,8.9,13.6,8.9s10.8-3.4,13.6-8.9l.3-.5-.3-.5L28,14.9l1.7-2.2A1.3,1.3,0,0,0,29.4,11ZM15,21.3a4.8,4.8,0,1,1,4.8-4.7A4.8,4.8,0,0,1,15,21.3Z"/></svg>