<svg xmlns="http://www.w3.org/2000/svg" viewBox="0 0 30 30"><path d="M16,26.1V24.6h2v1.5Zm-2,0h-2V24.6h2Zm6.1-.2-.2-1.5,1.9-.4.4,1.4Zm4.1-1.4-1-1.2.2-.2.6-1.1,1.4.6a7.3,7.3,0,0,1-.8,1.4Zm1.9-4-1.5-.2a10.5,10.5,0,0,0,.1-1.7h1.5v.2A11.9,11.9,0,0,1,26.1,20.5Zm-.8-3.7v-.4h-.7v-.3l.7-.2v-.8c.6,0,.7.6.8.9h-.8Z"/><path d="M9.1,4a7.7,7.7,0,0,0-7.6,7.6c0,4,6.3,12.2,7.1,13.1l.6.8.6-.8c.7-.9,7.1-9.2,7.1-13.1A7.7,7.7,0,0,0,9.1,4Zm0,9.9a3.3,3.3,0,1,1,3.3-3.3A3.3,3.3,0,0,1,9.1,13.9Z"/><circle cx="25.3" cy="13.5" r="3.3"/></svg>