<svg xmlns="http://www.w3.org/2000/svg" viewBox="0 0 30 30"><polygon points="23.7 30 20.5 26.8 23.7 23.5 24.8 24.6 22.6 26.8 24.8 29 23.7 30"/><rect x="21.5" y="26" width="8.3" height="1.5"/><circle cx="14" cy="14.2" r="2.1"/><path d="M14,16.9h-.1c-3.3.1-4,2.2-4,2.8V21H18V19.7C18,19.2,17.3,17,14,16.9Z"/><path d="M17.9,26.8a7.6,7.6,0,0,1,.9-3.5H4.3a.9.9,0,0,1-1-.9V10.7a.9.9,0,0,1,1-.9H23.6a.9.9,0,0,1,1,.9v8.5h1a7.6,7.6,0,0,1,2.4.4V4.2a1.6,1.6,0,0,0-1.6-1.6H1.6A1.6,1.6,0,0,0,0,4.2V26a1.6,1.6,0,0,0,1.6,1.6H18A7.6,7.6,0,0,1,17.9,26.8ZM14,5.7a.7.7,0,1,1-.7.7A.7.7,0,0,1,14,5.7Z"/></svg>