<svg xmlns="http://www.w3.org/2000/svg" viewBox="0 0 30 30"><polygon points="19.9 1.2 19.9 7 25.7 7 19.9 1.2"/><path d="M8.7,15.3a1.2,1.2,0,0,0-1.1,1.2H9.7A1.1,1.1,0,0,0,8.7,15.3Z"/><path d="M21,15.3a1.2,1.2,0,0,0-1.1,1.2H22A1.1,1.1,0,0,0,21,15.3Z"/><path d="M18.4,8.5V.6H4.7A1.5,1.5,0,0,0,3.2,2.1V27.9a1.5,1.5,0,0,0,1.5,1.5h20a1.5,1.5,0,0,0,1.5-1.5V8.5Zm-7,9.3H7.6c.1.8.8,1.1,1.7,1.1l1.6-.2.2,1.2a5.8,5.8,0,0,1-2.1.4,2.8,2.8,0,0,1-3.2-3,3,3,0,0,1,3-3.2c1.9,0,2.6,1.5,2.6,3A4.5,4.5,0,0,1,11.4,17.8Zm4.4,2.4-.6-1.1-.5-.9h0l-.4.9-.6,1.1h-2l2-3-2-2.9h2.1l.6,1,.5.9h0l.5-.9.5-1h2l-1.9,2.8,2,3.1Zm7.8-2.4H19.8c.1.8.8,1.1,1.7,1.1l1.6-.2.2,1.2a5.8,5.8,0,0,1-2.1.4,2.8,2.8,0,0,1-3.2-3,3,3,0,0,1,3-3.2c1.9,0,2.6,1.5,2.6,3A4.5,4.5,0,0,1,23.6,17.8Z"/></svg>