<svg xmlns="http://www.w3.org/2000/svg" viewBox="0 0 30 30"><polygon points="20.5 26.9 27.1 26.9 25.6 28.3 26.7 29.4 29.9 26.1 26.7 22.9 25.6 24 27.1 25.4 20.5 25.4 20.5 26.9"/><circle cx="14" cy="13.5" r="2.1"/><path d="M10,19.1v1.3h8.2V19.1c0-.6-.7-2.7-4-2.8H14C10.7,16.3,10,18.5,10,19.1Z"/><path d="M4.4,22.6a.9.9,0,0,1-1-.9V10.1a.9.9,0,0,1,1-.9H23.6a.9.9,0,0,1,1,.9v8.5h1a7.6,7.6,0,0,1,2.4.4V3.5A1.6,1.6,0,0,0,26.4,2H1.6A1.6,1.6,0,0,0,.1,3.5V25.4A1.6,1.6,0,0,0,1.6,27H18.1a7.4,7.4,0,0,1,.8-4.4ZM14,5.1a.7.7,0,1,1-.7.7A.7.7,0,0,1,14,5.1Z"/></svg>