<svg xmlns="http://www.w3.org/2000/svg" viewBox="0 0 30 30"><rect x="17.9" y="5.9" width="9.4" height="3" transform="translate(1.4 18.1) rotate(-45)"/><rect x="21.1" y="17.8" width="3" height="9.41" transform="translate(-9.3 22.6) rotate(-45)"/><rect x="5.9" y="2.7" width="3" height="9.41" transform="translate(-3 7.4) rotate(-45)"/><polygon points="12.3 12.2 4.3 12.2 4.3 9.2 9.3 9.2 9.3 4.2 12.3 4.2 12.3 12.2"/><rect x="2.7" y="21.1" width="9.4" height="3" transform="translate(-13.8 11.9) rotate(-45)"/><polygon points="12.3 25.8 9.3 25.8 9.3 20.7 4.2 20.7 4.2 17.7 12.3 17.7 12.3 25.8"/><polygon points="25.8 12.2 17.8 12.2 17.8 4.2 20.8 4.2 20.8 9.2 25.8 9.2 25.8 12.2"/><polygon points="17.8 25.8 17.8 17.7 25.8 17.7 25.8 20.7 20.8 20.7 20.8 25.8 17.8 25.8"/></svg>