<svg xmlns="http://www.w3.org/2000/svg" viewBox="0 0 30 30"><path d="M1,9.2a1,1,0,0,1-1-1V1.3a1,1,0,0,1,1-1H8a1,1,0,0,1,0,2H2V8.2A1,1,0,0,1,1,9.2Z"/><path d="M28.7,9.2a1,1,0,0,1-1-1V2.3H21.8a1,1,0,0,1,0-2h6.9a1,1,0,0,1,1,1V8.2A1,1,0,0,1,28.7,9.2Z"/><path d="M8,30H1a1,1,0,0,1-1-1V22a1,1,0,0,1,2,0V28H8a1,1,0,1,1,0,2Z"/><path d="M28.7,30H21.8a1,1,0,0,1,0-2h5.9V22a1,1,0,1,1,2,0V29A1,1,0,0,1,28.7,30Z"/><path d="M23.5,24.6a2.5,2.5,0,0,0-.1-.6,5.2,5.2,0,0,0-1.2-1.8,10.3,10.3,0,0,0-7.6-3.1,10.3,10.3,0,0,0-7.6,3.1,5.2,5.2,0,0,0-1.2,1.8s-.1.5-.1.6Z"/><path d="M2.3,13.2H26.9V11.3H21.3a6.7,6.7,0,0,0-13.4,0H2.3Z"/><path d="M9,14.9a6.7,6.7,0,0,0,11.2,0Z"/></svg>