<svg xmlns="http://www.w3.org/2000/svg" viewBox="0 0 30 30"><g transform="scale(0.6,0.8) translate(0,3)"><path d="M27.2,1.6H27A1.4,1.4,0,0,0,25.8.8H4.2A1.4,1.4,0,0,0,3,1.4H2.8a1.4,1.4,0,0,0,.2,1.4L12,15.2V28.8a.4.4,0,0,0,.2.4h.4l5.1-3.4a.4.4,0,0,0,.2-.4V15.2L26.9,2.9A1.4,1.4,0,0,0,27.2,1.6Z"/></g><g transform="scale(0.8,1) translate(12,3)"><rect x="5.7" y="20.7" width="15.8" height="3"/><rect x="5.7" y="14.2" width="10.1" height="3"/><rect x="5.7" y="7.8" width="6.7" height="3"/><polygon points="24.1 11.2 21.6 8.7 21.6 18.2 19.6 18.2 19.6 8.8 17.1 11.3 15.7 9.9 20.6 4.9 25.5 9.8 24.1 11.2"/></g></svg>