<svg xmlns="http://www.w3.org/2000/svg" viewBox="0 0 30 30"><path d="M17.9,19.8a1,1,0,0,1-1-1,2.4,2.4,0,0,0-4.7,0,1,1,0,0,1-2,0,4.4,4.4,0,0,1,8.7,0A1,1,0,0,1,17.9,19.8Z"/><path d="M21.3,19.8a1,1,0,0,1-1-1,5.7,5.7,0,0,0-11.4,0,1,1,0,0,1-2,0,7.7,7.7,0,0,1,15.4,0A1,1,0,0,1,21.3,19.8Z"/><path d="M24.6,19.8a1,1,0,0,1-1-1,9,9,0,1,0-18,0,1,1,0,0,1-2,0,11,11,0,1,1,22,0A1,1,0,0,1,24.6,19.8Z"/><path d="M2.9,13.1H2.4a1,1,0,0,1-.4-1.4,14.4,14.4,0,0,1,25,0,1,1,0,0,1-1.7,1,12.4,12.4,0,0,0-21.5,0A1,1,0,0,1,2.9,13.1Z"/><path d="M22.8,5.1h-.5A16.1,16.1,0,0,0,6.8,5a1,1,0,1,1-1-1.7,18.1,18.1,0,0,1,17.4,0,1,1,0,0,1-.5,1.9Z"/><path d="M21.2,23.1a4.3,4.3,0,0,1-4.3-4.3,1,1,0,0,1,2,0,2.3,2.3,0,0,0,4.7,0,1,1,0,0,1,2,0A4.3,4.3,0,0,1,21.2,23.1Z"/><path d="M18.9,28.5h-.1a9.9,9.9,0,0,1-8.6-9.8,1,1,0,0,1,2,0A7.8,7.8,0,0,0,19,26.5a1,1,0,0,1-.1,2Z"/><path d="M22.8,26.6a9.8,9.8,0,0,1-9.7-8,1,1,0,0,1,2-.4,7.8,7.8,0,0,0,7.7,6.4,1,1,0,0,1,0,2Z"/><path d="M12.9,29l-.5-.2A11.6,11.6,0,0,1,6.8,19a1,1,0,0,1,2,0,9.6,9.6,0,0,0,4.6,8.2,1,1,0,0,1-.5,1.8Z"/><path d="M6,25.7a1,1,0,0,1-.9-.6,14.6,14.6,0,0,1-1.5-6.5,1,1,0,0,1,2,0,12.6,12.6,0,0,0,1.3,5.6,1,1,0,0,1-.5,1.3Z"/></svg>