<svg xmlns="http://www.w3.org/2000/svg" viewBox="0 0 30 30"><path d="M27.5,4.1H2.7A1.8,1.8,0,0,0,1,5.9V25.3a1.8,1.8,0,0,0,1.8,1.8H27.5a1.8,1.8,0,0,0,1.8-1.7V5.9A1.8,1.8,0,0,0,27.5,4.1Zm.1,17.2H2.7V10.8h25Z"/><polygon points="5 15 4 15 4 12.1 6.9 12.1 6.9 13.1 5 13.1 5 15"/><polygon points="6.9 20 4 20 4 17.1 5 17.1 5 19 6.9 19 6.9 20"/><polygon points="26.3 15 25.3 15 25.3 13.1 23.4 13.1 23.4 12.1 26.3 12.1 26.3 15"/><polygon points="26.3 20 23.4 20 23.4 19 25.3 19 25.3 17.1 26.3 17.1 26.3 20"/></svg>