<svg xmlns="http://www.w3.org/2000/svg" viewBox="0 0 30 30"><rect x="18.1" y="5.2" width="9.4" height="3" transform="translate(2 18.1) rotate(-45)"/><rect x="3.1" y="20.8" width="9.4" height="3" transform="translate(-13.5 12.1) rotate(-45)"/><rect x="21.4" y="17.5" width="3" height="9.41" transform="translate(-9 22.7) rotate(-45)"/><rect x="6.4" y="2" width="3" height="9.41" transform="translate(-2.4 7.6) rotate(-45)"/><polygon points="3 9.9 3 1.8 11 1.8 11 4.8 6 4.8 6 9.9 3 9.9"/><polygon points="27.7 9.9 24.7 9.9 24.7 4.8 19.6 4.8 19.6 1.8 27.7 1.8 27.7 9.9"/><polygon points="11.1 26.9 3.1 26.9 3.1 18.9 6.1 18.9 6.1 23.9 11.1 23.9 11.1 26.9"/><polygon points="27.7 26.9 19.7 26.9 19.7 23.9 24.7 23.9 24.7 18.9 27.7 18.9 27.7 26.9"/></svg>