<svg xmlns="http://www.w3.org/2000/svg" viewBox="0 0 30 30"><path d="M23.7,27.5h-3c0-.2,0-.4,0-.7.1-2.2.2-6.3-6.5-10.6S6,8.2,6.3,2.8V2.5h3c0,.1,0,.2,0,.4S9,9.4,15.8,13.7s8,10.8,7.9,13.2C23.7,27.2,23.7,27.3,23.7,27.5Z"/><path d="M9.3,27.5h-3c0-.2,0-.3,0-.5-.1-2.4-.3-8,7.9-13.2s6.6-9.2,6.5-10.8,0-.3,0-.4h3v.3c.3,5.5-2.4,10-7.9,13.5S9.2,24.6,9.3,26.8C9.3,27.1,9.3,27.3,9.3,27.5Z"/><rect x="8.1" y="24.1" width="13.8" height="2"/><rect x="10.1" y="19" width="9.7" height="2"/><rect x="8.1" y="3.9" width="13.8" height="2"/><rect x="10.1" y="9" width="9.7" height="2"/></svg>