<svg xmlns="http://www.w3.org/2000/svg" viewBox="0 0 30 30"><polygon points="20.2 1.1 20.2 6.9 26 6.9 20.2 1.1"/><path d="M13.5,15.3a1.1,1.1,0,0,0-.2,1.2,1.2,1.2,0,0,0,.9.5,2,2,0,0,0,1.7-.8,2.9,2.9,0,0,0,.1-1.9A3.9,3.9,0,0,0,13.5,15.3Z"/><path d="M18.7,8.4V.5H5A1.5,1.5,0,0,0,3.5,2V27.8A1.5,1.5,0,0,0,5,29.3H25a1.5,1.5,0,0,0,1.5-1.5V8.4Zm-4,.5c1.7,0,2.6,2.8,2.6,2.8a6.5,6.5,0,0,0-2-1.6,4.1,4.1,0,0,0-2-.4S13.4,8.9,14.7,8.9Zm.3,13a1,1,0,1,1,1-1A1,1,0,0,1,15,21.9Zm4.6-6.8a1,1,0,0,1-1.4-.2h-.1a4,4,0,0,1-.5,2.4A3.9,3.9,0,0,1,14.3,19h-.1a3.1,3.1,0,0,1-2.8-1.9A3.1,3.1,0,0,1,12,14a5,5,0,0,1,2-1.3,4.3,4.3,0,0,0-2.6-.1,1,1,0,0,1-.8-1.8c1.8-.8,5.1-.1,6.5,1.4v.2a3.9,3.9,0,0,1,2.5,1.4A1,1,0,0,1,19.6,15.1Z"/></svg>