<svg xmlns="http://www.w3.org/2000/svg" viewBox="0 0 30 30"><path d="M29.2,13.4l-.7-.9.2-.3a1.5,1.5,0,0,0-2.6-1.5l-.6.9h-.1A13.1,13.1,0,0,1,15,16.4,13.1,13.1,0,0,1,4.5,11.5h0l-.6-.8a1.5,1.5,0,0,0-2.6,1.5l.2.3-.7,1a1.5,1.5,0,1,0,2.4,1.8l.3-.4a16.1,16.1,0,0,0,3,2.3l-.7,1.4a1.5,1.5,0,0,0,.7,2l.7.2a1.5,1.5,0,0,0,1.3-.8l.7-1.5a16.5,16.5,0,0,0,4.3.9v1.6a1.5,1.5,0,0,0,3,0V19.4a16.5,16.5,0,0,0,4.3-.9l.7,1.5a1.5,1.5,0,0,0,1.3.8l.7-.2a1.5,1.5,0,0,0,.7-2l-.7-1.4a16,16,0,0,0,3-2.3l.3.4a1.5,1.5,0,1,0,2.4-1.8Z"/></svg>