<svg xmlns="http://www.w3.org/2000/svg" viewBox="0 0 30 30"><polygon points="20.2 0.7 20.2 6.5 26 6.5 20.2 0.7"/><path d="M18.7,8V.2H5A1.5,1.5,0,0,0,3.5,1.7V27.4A1.5,1.5,0,0,0,5,28.9H25a1.5,1.5,0,0,0,1.5-1.5V8ZM10.6,19.7H9.1V17c0-.6-.2-1.1-.8-1.1a.8.8,0,0,0-.8.5,1,1,0,0,0,0,.3v2.9H5.9V12.6H7.5v2.8h0l.6-.5.8-.2c1,0,1.7.7,1.7,2.1ZM14,15.9H12.9v1.8c0,.6.1.9.6.9H14v1.1H13a1.6,1.6,0,0,1-1.1-.4,2,2,0,0,1-.4-1.5v-2h-.6V14.8h.6V13.8l1.5-.3v1.4H14Zm7.8,3.8H20.3V17c0-.7-.2-1.1-.7-1.1a.7.7,0,0,0-.7.5,1.3,1.3,0,0,0-.1.4v2.9H17.4V17c0-.6-.2-1-.7-1a.8.8,0,0,0-.7.5,1,1,0,0,0-.1.4v2.8H14.4V16.4c0-.6,0-1.1,0-1.6h1.3v.7h0a1.7,1.7,0,0,1,1.5-.8,1.4,1.4,0,0,1,1.3.8h0l.6-.6.9-.2c.9,0,1.6.7,1.6,2.1Zm2.2,0H22.5V12.6H24Z"/></svg>