<svg xmlns="http://www.w3.org/2000/svg" xmlns:xlink="http://www.w3.org/1999/xlink" viewBox="0 0 30 30"><def><style>.opus-icon--stroke{fill:none;stroke-width:1.5px;stroke:currentColor;}</style></def><g transform="translate(2 27.843)"><g transform="translate(25.852 -6.023)"><path d="M0,0A2.369,2.369,0,0,0-.054-.484a2.587,2.587,0,0,0-1.508-1.9l-.1-.049a.541.541,0,0,0-.107-.037c-.725-.152-1.684-.425-2.6-.707-1.559-.478-3.006-.984-3.028-.992a.507.507,0,0,0-.521.119l-2.606,2.61a19.1,19.1,0,0,1-4.5-3.344l0,0a18.75,18.75,0,0,1-1.906-2.225,18.717,18.717,0,0,1-1.438-2.273l2.6-2.607a.527.527,0,0,0,.135-.245.454.454,0,0,0-.016-.277c-.01-.027-.851-2.439-1.387-4.391-.125-.449-.232-.873-.312-1.238v0a.367.367,0,0,0-.037-.107l-.043-.09a2.614,2.614,0,0,0-2.4-1.574h-3.584a2.419,2.419,0,0,0-1.747.734,2.444,2.444,0,0,0-.685,1.772c0,.021.008.187.023.449,0,.041.006.1.01.146.006.08.008.155.016.248a27.074,27.074,0,0,0,.443,3.336c0,.01,0,.02,0,.031,0,.03.016.057.02.086.013.059.025.116.037.172l.025.129a.452.452,0,0,0,.055.127,24.78,24.78,0,0,0,2.478,6.158c.013.02.026.043.041.067.262.453.532.9.821,1.344.043.062.093.126.136.189.266.4.539.787.828,1.166.09.119.187.23.28.352.256.32.511.644.781.957.145.162.3.316.449.478.231.254.459.512.7.754v0c.145.146.305.279.453.426.262.248.519.5.791.734.247.217.508.416.764.623.184.147.358.3.545.442.336.255.686.494,1.033.73.11.074.217.156.328.229.416.273.844.531,1.274.779.045.025.09.058.135.082A24.8,24.8,0,0,0-7.21,5.4a.388.388,0,0,0,.105.049c.1.022.207.041.309.063l.074.021c.019,0,.033,0,.049.006a28.166,28.166,0,0,0,4.162.486h.078A2.393,2.393,0,0,0-.744,5.338,2.414,2.414,0,0,0-.009,3.59V.006C0,0,0,0,0,0"/></g><g transform="translate(25.889 -18.631)"><path class="opus-icon--stroke" d="M0,0H-10.88"/></g><g transform="translate(18.994 -22.572)"><path class="opus-icon--stroke" d="M0,0-3.941,3.941,0,7.885"/></g></g></svg>