<svg xmlns="http://www.w3.org/2000/svg" viewBox="0 0 30 30"><path d="M15,24.6c-5.7,0-11-3.5-13.8-9L.9,15l.3-.6C4,8.8,9.3,5.4,15,5.4s11,3.5,13.8,9l.3.6-.3.6C26,21.2,20.7,24.6,15,24.6ZM3.1,15A13.7,13.7,0,0,0,15,22.6c4.8,0,9.3-2.9,11.9-7.6-2.5-4.7-7-7.6-11.9-7.6S5.6,10.3,3.1,15Z"/><path d="M15,20.8A5.8,5.8,0,1,1,20.8,15,5.8,5.8,0,0,1,15,20.8Zm0-9.6A3.8,3.8,0,1,0,18.8,15,3.8,3.8,0,0,0,15,11.2Z"/><circle cx="15" cy="12.3" r="0.4"/><circle cx="17.7" cy="15" r="0.4"/><circle cx="15" cy="17.7" r="0.4"/><circle cx="12.3" cy="15" r="0.4"/><circle cx="16.9" cy="13.1" r="0.4" transform="translate(-4.3 15.8) rotate(-45)"/><circle cx="16.9" cy="16.9" r="0.4" transform="translate(-7 16.9) rotate(-45.1)"/><circle cx="13.1" cy="16.9" r="0.4" transform="translate(-8.1 14.2) rotate(-44.9)"/><circle cx="13.1" cy="13.1" r="0.4" transform="translate(-5.4 13.1) rotate(-45.1)"/><path d="M15,16.4A1.3,1.3,0,1,1,16.3,15,1.4,1.4,0,0,1,15,16.4Zm0-1.7a.3.3,0,0,0-.3.3.4.4,0,0,0,.3.4.3.3,0,0,0,0-.7Z"/></svg>