<svg xmlns="http://www.w3.org/2000/svg" viewBox="0 0 30 30"><path d="M2.5,29.2a1.5,1.5,0,0,1-1.1-2.6L12,16.1a1.5,1.5,0,0,1,2.1,2.1L3.6,28.7A1.5,1.5,0,0,1,2.5,29.2Z"/><path d="M20.1,11.5A1.5,1.5,0,0,1,19.1,9l3.6-3.6a1.5,1.5,0,0,1,2.1,2.1l-3.6,3.6A1.5,1.5,0,0,1,20.1,11.5Z"/><rect x="12.9" y="1" width="3" height="8.11" rx="1.5" ry="1.5"/><path d="M8.7,11.5a1.5,1.5,0,0,1-1.1-.4L4,7.5A1.5,1.5,0,0,1,6.1,5.4L9.7,9a1.5,1.5,0,0,1-1.1,2.6Z"/><path d="M23.8,26a1.5,1.5,0,0,1-1.1-.4l-3.6-3.6a1.5,1.5,0,1,1,2.1-2.1l3.6,3.6A1.5,1.5,0,0,1,23.8,26Z"/><path d="M27.5,17H22.4a1.5,1.5,0,0,1,0-3h5.1a1.5,1.5,0,0,1,0,3Z"/></svg>