<svg xmlns="http://www.w3.org/2000/svg" viewBox="0 0 30 30"><path d="M19.6,14.2h-.8v4.4h.8a2.1,2.1,0,0,0,1.6-.6,2.3,2.3,0,0,0,.6-1.6,2.1,2.1,0,0,0-.6-1.5A2.2,2.2,0,0,0,19.6,14.2Z"/><path d="M27.8,7.5H2.2A1.3,1.3,0,0,0,.9,8.9v15a1.3,1.3,0,0,0,1.3,1.3H27.8a1.3,1.3,0,0,0,1.3-1.3V8.9A1.3,1.3,0,0,0,27.8,7.5ZM11.5,19.8H7.4V12.9H8.9v5.6h2.5Zm4.8-5.6H13.8v1.7h2.2v1.3H13.8v2.7H12.3V12.9h4Zm6.1,4.7a3.7,3.7,0,0,1-2.7,1H17.3V12.9h2.4q3.7,0,3.7,3.4A3.4,3.4,0,0,1,22.4,18.9Z"/><polygon points="18.8 4.1 15.2 0.5 11.6 4.1 12.7 5.1 14.5 3.4 14.5 10.1 16 10.1 16 3.4 17.8 5.1 18.8 4.1"/><path d="M23.5,28.7H6.5a.8.8,0,0,1,0-1.5h17a.8.8,0,0,1,0,1.5Z"/><rect x="14.2" y="24.3" width="1.5" height="3.62"/></svg>