<svg xmlns="http://www.w3.org/2000/svg" xmlns:xlink="http://www.w3.org/1999/xlink" viewBox="0 0 30 30"><path d="M0,0H-7.059V-5.816a3.534,3.534,0,0,1,3.528-3.53A3.533,3.533,0,0,1,0-5.816V0ZM-3.53,13.159A2.829,2.829,0,0,1-6.36,10.33,2.829,2.829,0,0,1-4.174,7.58V5.386h1.287V7.58A2.828,2.828,0,0,1-.7,10.33,2.829,2.829,0,0,1-3.53,13.159M4.361,0H2.573V-5.816a6.109,6.109,0,0,0-6.1-6.1,6.109,6.109,0,0,0-6.1,6.1V0h-1.79a.943.943,0,0,0-.944.941V16.725a.943.943,0,0,0,.944.941H4.36a.944.944,0,0,0,.944-.941V.941A.942.942,0,0,0,4.361,0" transform="translate(18.365 11.92)"/></svg>