<svg xmlns="http://www.w3.org/2000/svg" viewBox="0 0 30 30"><path d="M21,28.9a3,3,0,0,1-2.1-5.1A.7.7,0,0,1,20,24.9,1.5,1.5,0,0,0,22.1,27l3-3a.4.4,0,0,0,0-.6h-.6l-1.4,1.4a.7.7,0,0,1-1.1-1.1l1.4-1.4a1.9,1.9,0,0,1,1.4-.6h0A1.9,1.9,0,0,1,26.2,25l-3,3A3,3,0,0,1,21,28.9Z"/><path d="M28.6,25.7l-1.1-1.1a2.6,2.6,0,0,0,0-3.7,2.7,2.7,0,0,0-3.7,0l-.4.4L20,24.9l-1.1-1.1,3.9-3.9a4.1,4.1,0,1,1,5.8,5.8Z"/><path d="M24.7,29.3l-.5-.2a.7.7,0,0,1,0-1.1l3.4-3.4a.7.7,0,0,1,1.1,1.1l-3.4,3.4Z"/><path d="M15.1,13.8,29.5,6.1V5.4a1.8,1.8,0,0,0-1.7-1.7H2.3A1.8,1.8,0,0,0,.5,5.4v.8Z"/><path d="M15.3,23.8a8.2,8.2,0,0,1,14.2-5.5V7.8L15.4,15.3h-.7L.5,7.9v16a1.8,1.8,0,0,0,1.7,1.8H15.5A8.2,8.2,0,0,1,15.3,23.8Z"/></svg>