<svg xmlns="http://www.w3.org/2000/svg" viewBox="0 0 30 30"><path d="M28.3,5.2h-2V19.5a2.9,2.9,0,0,1-2.9,2.9H12l-2.5,2h9l5.4,4.4.5.2h.3a.7.7,0,0,0,.4-.7V24.5h3.3A1.7,1.7,0,0,0,30,22.8V6.9A1.7,1.7,0,0,0,28.3,5.2Z"/><path d="M23.4,2H1.7A1.7,1.7,0,0,0,0,3.7V19.5a1.7,1.7,0,0,0,1.7,1.7H5V25a.7.7,0,0,0,.4.7h.3l.5-.2,5.4-4.4H23.4a1.7,1.7,0,0,0,1.7-1.7V3.7A1.7,1.7,0,0,0,23.4,2ZM7.7,12.6a1.2,1.2,0,1,1,1.2-1.2A1.2,1.2,0,0,1,7.7,12.6Zm4.8,0a1.2,1.2,0,1,1,1.2-1.2A1.2,1.2,0,0,1,12.5,12.6Zm4.8,0a1.2,1.2,0,1,1,1.2-1.2A1.2,1.2,0,0,1,17.4,12.6Z"/></svg>