<svg xmlns="http://www.w3.org/2000/svg" viewBox="0 0 30 30"><path d="M20,14a5,5,0,0,1-5.1,4.8h0A5,5,0,0,1,9.8,14V6.8a5,5,0,0,1,5.1-4.8h0A5,5,0,0,1,20,6.8Z"/><path d="M14.9,19.6A5.7,5.7,0,0,1,9.1,14V6.8a5.7,5.7,0,0,1,5.8-5.6,5.7,5.7,0,0,1,5.8,5.6V14A5.7,5.7,0,0,1,14.9,19.6Zm0-16.9a4.2,4.2,0,0,0-4.3,4.1V14a4.2,4.2,0,0,0,4.3,4.1A4.2,4.2,0,0,0,19.2,14V6.8A4.2,4.2,0,0,0,14.9,2.7Z"/><rect x="10.5" y="26.4" width="9" height="2.5"/><rect x="13.4" y="22.8" width="3" height="4.83"/><path d="M14.9,24.1c-5.7,0-9.7-3.5-9.7-8.6H7.7c0,4.5,3.9,6.1,7.2,6.1s7.2-1.6,7.2-6.1h2.5C24.6,20.6,20.6,24.1,14.9,24.1Z"/></svg>