<svg xmlns="http://www.w3.org/2000/svg" viewBox="0 0 30 30"><polygon points="11.7 8.3 9.6 6.1 14.7 1 19.9 6.1 17.8 8.3 14.7 5.2 11.7 8.3"/><polygon points="23.7 20.2 21.5 18.1 24.6 15.1 21.5 12 23.7 9.9 28.8 15.1 23.7 20.2"/><polygon points="14.7 29.2 9.6 24 11.7 21.9 14.7 24.9 17.8 21.9 19.9 24 14.7 29.2"/><rect x="13.2" y="3.6" width="3" height="7.9"/><polygon points="5.8 20.3 0.6 15.1 5.8 9.9 7.9 12 4.8 15.1 7.9 18.1 5.8 20.3"/><rect x="3.3" y="13.6" width="7.9" height="3"/><rect x="18.3" y="13.6" width="7.9" height="3"/><rect x="13.2" y="18.6" width="3" height="7.9"/></svg>