<svg xmlns="http://www.w3.org/2000/svg" viewBox="0 0 30 30"><path d="M28.5,20.9H27.2V17.7a1.3,1.3,0,0,0-1.3-1.3h-10V13.2h3.3a1.3,1.3,0,0,0,1.3-1.3V3.5a1.3,1.3,0,0,0-1.3-1.3H10.8A1.3,1.3,0,0,0,9.5,3.5v8.3a1.3,1.3,0,0,0,1.3,1.3h3.5v3.2H4.2a1.3,1.3,0,0,0-1.3,1.3v3.2H1.5A1.3,1.3,0,0,0,.2,22.3v4.2a1.3,1.3,0,0,0,1.3,1.3H5.7A1.3,1.3,0,0,0,7,26.4V22.3a1.3,1.3,0,0,0-1.3-1.3H4.4v-3h10v3H13a1.3,1.3,0,0,0-1.3,1.3v4.2A1.3,1.3,0,0,0,13,27.8h4.2a1.3,1.3,0,0,0,1.3-1.3V22.3a1.3,1.3,0,0,0-1.3-1.3H15.9v-3h9.8v3H24.3A1.3,1.3,0,0,0,23,22.3v4.2a1.3,1.3,0,0,0,1.3,1.3h4.2a1.3,1.3,0,0,0,1.3-1.3V22.3A1.3,1.3,0,0,0,28.5,20.9Z"/></svg>