<svg xmlns="http://www.w3.org/2000/svg" viewBox="0 0 30 30"><path d="M27.9,22a2.5,2.5,0,0,0-.1-.5,2.6,2.6,0,0,0-1.5-1.9h-.2l-2.6-.7-3-1a.5.5,0,0,0-.5.1l-2.6,2.6a19.1,19.1,0,0,1-4.5-3.3h0A19,19,0,0,1,11,15a19,19,0,0,1-1.4-2.3l2.6-2.6V9.9a.5.5,0,0,0,0-.3s-.8-2.4-1.4-4.4L10.6,4h-.1A2.6,2.6,0,0,0,8.1,2.2H4.5A2.4,2.4,0,0,0,2.1,4.7v.4h0v.2a26.8,26.8,0,0,0,.4,3.3h0v.2h.1a24.8,24.8,0,0,0,2.5,6.2h0L6,17v.2L7,18.4l.3.4.8,1,.4.5.7.8h0l.5.4.8.7.8.6.5.4,1,.7.3.2,1.3.8h.1a24.8,24.8,0,0,0,6.2,2.5h.5a28.3,28.3,0,0,0,4.2.5h.1a2.4,2.4,0,0,0,2.4-2.4V22Z"/><rect x="17.1" y="8.7" width="10.9" height="1.5"/><polygon points="24.5 13.9 23.4 12.8 26.8 9.4 23.4 6 24.5 5 29 9.4 24.5 13.9"/></svg>