<svg xmlns="http://www.w3.org/2000/svg" viewBox="0 0 30 30"><path d="M28.3,9.1H1.7a.8.8,0,0,0-.7.8V20.2a.8.8,0,0,0,.8.8H28.3a.8.8,0,0,0,.8-.7V9.8A.8.8,0,0,0,28.3,9.1ZM8.6,15.2l-.8.2.5.8a.6.6,0,0,1-.2.8H7.8a.6.6,0,0,1-.5-.3l-.5-.7-.5.7a.6.6,0,0,1-1.1-.3.6.6,0,0,1,.1-.3l.5-.8-.8-.2a.6.6,0,0,1-.5-.6h0a.6.6,0,0,1,.7-.5l.9.2v-.8a.6.6,0,0,1,1.2,0v.8l.9-.2a.6.6,0,0,1,.7.5H9A.6.6,0,0,1,8.6,15.2Zm5.4,0-.8.2.5.8a.6.6,0,0,1-.2.8h-.3a.6.6,0,0,1-.5-.3l-.5-.7-.5.7a.6.6,0,0,1-1-.7l.5-.8-.8-.2a.6.6,0,0,1-.5-.6h0a.6.6,0,0,1,.7-.5l.9.2v-.8a.6.6,0,1,1,1.2,0v.8l.9-.2a.6.6,0,0,1,.7.5h0A.6.6,0,0,1,14,15.2Zm5.4,0-.8.2.5.8a.6.6,0,0,1-.2.8h-.3a.6.6,0,0,1-.5-.3l-.5-.7-.5.7a.6.6,0,0,1-1-.7l.5-.8-.8-.2a.6.6,0,0,1-.5-.6h0a.6.6,0,0,1,.7-.5l.9.2v-.8a.6.6,0,1,1,1.2,0v.8l.9-.2a.6.6,0,0,1,.7.5h0A.6.6,0,0,1,19.4,15.2Zm5.4,0-.8.2.5.8a.6.6,0,0,1-.2.8h-.3a.6.6,0,0,1-.5-.3l-.5-.7-.5.7a.6.6,0,0,1-1.1-.3.6.6,0,0,1,.1-.3l.5-.8-.8-.2a.6.6,0,0,1-.5-.6h0a.6.6,0,0,1,.7-.5l.9.2v-.8a.6.6,0,1,1,1.2,0v.8l.9-.2a.6.6,0,0,1,.7.5h0A.6.6,0,0,1,24.9,15.2Z"/></svg>