<svg xmlns="http://www.w3.org/2000/svg" viewBox="0 0 30 30"><polygon points="20.8 1.2 20.8 7 26.6 7 20.8 1.2"/><path d="M15.3,12c0-.4,0-.8-.3-.8h-.1c-.2,0-.4.2-.4.7a3.5,3.5,0,0,0,.4,1.3A4.2,4.2,0,0,0,15.3,12Z"/><path d="M10.7,21.8l.3.2a.8.8,0,0,0,.6-.3,3.8,3.8,0,0,0,.6-1.1L11,21C10.7,21.2,10.5,21.5,10.7,21.8Z"/><path d="M15.2,16.5v.2h0l-.3.7-.4,1,1.8-.4-.4-.5Z"/><path d="M20.4,18.6H19l.4.3a1.3,1.3,0,0,0,.8.3C20.8,19.4,20.9,18.8,20.4,18.6Z"/><path d="M19.3,8.5V.6H5.7A1.5,1.5,0,0,0,4.2,2.1V27.9a1.5,1.5,0,0,0,1.5,1.5h20a1.5,1.5,0,0,0,1.5-1.5V8.5Zm2.9,10.8a2,2,0,0,1-2,1.6,2.8,2.8,0,0,1-1.8-.7l-.5-.5-.5-.5h-.7l-2.9.7-.4,1a5.2,5.2,0,0,1-.8,1.5,2.3,2.3,0,0,1-1.7.9,1.8,1.8,0,0,1-1.6-.9A2,2,0,0,1,9.2,21a2.4,2.4,0,0,1,1.2-1.4l1.3-.5,1.1-.3.2-.5.6-1.6.5-1.3.2-.5-.6-1.1A4.7,4.7,0,0,1,13,12a2.3,2.3,0,0,1,.5-1.8,1.8,1.8,0,0,1,1.3-.6h.3a2,2,0,0,1,1.6,2.4,5.4,5.4,0,0,1-.4,1.6l-.4,1L17,16.5l.8.9.9-.2,1.3-.2h.9A1.9,1.9,0,0,1,22.2,19.3Z"/></svg>