<svg xmlns="http://www.w3.org/2000/svg" viewBox="0 0 30 30"><polygon points="15.6 8.2 15.6 8.2 14.9 8.2 15.6 8.2"/><polygon points="14.1 8.2 14.1 8.2 14.9 8.2 14.1 8.2"/><path d="M15.6,29.7H27a1,1,0,0,0,1-1V19.4H15.6Z"/><path d="M1.9,28.7a1,1,0,0,0,1,1H14.1V19.4H1.9Z"/><path d="M27,7.5H21.7a4,4,0,0,0,.9-5.6A4,4,0,0,0,17.1,1,3.9,3.9,0,0,0,15.6,3l-.7,2-.7-2A4,4,0,0,0,10.4.3,4,4,0,0,0,6.5,4.9,4,4,0,0,0,8.1,7.5H2.9a1,1,0,0,0-1,1v9.4H14.1V8.2h1.5v9.6H28V8.5A1,1,0,0,0,27,7.5ZM11.8,6.7H10.4a2.5,2.5,0,0,1-2-3.9,2.6,2.6,0,0,1,3.5-.6,2.5,2.5,0,0,1,.9,1.3l1.1,3.2Zm9.1-.5a2.5,2.5,0,0,1-1.5.5H15.9L17,3.5A2.5,2.5,0,0,1,18,2.2a2.6,2.6,0,0,1,3.5.6,2.5,2.5,0,0,1-.6,3.5Z"/></svg>