<svg xmlns="http://www.w3.org/2000/svg" viewBox="0 0 30 30"><path d="M26.1,1.6H4A3.2,3.2,0,0,0,1.1,5,3.2,3.2,0,0,0,4,8.3H5.3V6.6A3.6,3.6,0,0,1,8.8,3.1H23.9a1.6,1.6,0,1,1,0,3.1.4.4,0,0,0-.4.4V8.3h2.6a3.2,3.2,0,0,0,3-3.4A3.2,3.2,0,0,0,26.1,1.6Z"/><path d="M18.1,11.9H15.6v2.5h2.5Zm-.8,1.7h-.9v-.9h.9Z"/><path d="M10.3,19.7h2.5V17.2H10.3Zm.8-1.7H12v.9h-.9Z"/><path d="M10.3,14.4h2.5V11.9H10.3Zm.8-1.7H12v.9h-.9Z"/><path d="M23.9,4H8.8A2.7,2.7,0,0,0,6.2,6.6V27.4a.7.7,0,0,0,.4.6h.3l.5-.2,1.4-1.4,1.4,1.4a.7.7,0,0,0,.9,0l1.4-1.4,1.4,1.4a.7.7,0,0,0,.9,0l1.4-1.4,1.4,1.4a.7.7,0,0,0,.9,0L20,26.4l1.4,1.4a.7.7,0,0,0,1.1-.5V6.6a1.3,1.3,0,0,1,1.3-1.3.7.7,0,0,0,0-1.3ZM15.8,20.6H14.7V19.5h1.1Zm1.1-3.2v2.1H15.8V17.4H14.7V16.3h1.1v1.1h1.1V16.3h1.1v1.1ZM19,20.6H17.9V19.5H19Zm.1-5.2H14.6V13.6h-.8v1.8H12v.8h1.8v4.5H9.3V16.2H11v-.8H9.3V10.9h4.5v1.8h.8V10.9h4.5Z"/></svg>