<svg xmlns="http://www.w3.org/2000/svg" viewBox="0 0 30 30"><path d="M18.1,24.1a6,6,0,0,1,10.3-4.3,14.2,14.2,0,0,0,.9-4.9,14.3,14.3,0,1,0-9.4,13.4A6,6,0,0,1,18.1,24.1Zm-.5-4.1a.8.8,0,0,1-.7-.5L15,14l-1.9,5.5a.7.7,0,0,1-.7.5h0a.8.8,0,0,1-.7-.6l-1-4.4H9.3a.8.8,0,0,1,0-1.5h1l-.6-2.7a.8.8,0,0,1,1.5-.3l1.4,6.1,1.8-5.1h1.4l1.8,5.1,1.4-6.1a.8.8,0,0,1,1.5.3l-.6,2.7h1a.8.8,0,0,1,0,1.5H19.3l-1,4.4a.8.8,0,0,1-.7.6Z"/><rect x="20.8" y="23.4" width="6.7" height="1.5"/><polygon points="25.5 27.2 24.4 26.1 26.4 24.1 24.4 22.1 25.5 21.1 28.5 24.1 25.5 27.2"/></svg>