<svg xmlns="http://www.w3.org/2000/svg" viewBox="0 0 30 30"><path d="M22.3,11.4,18.5,7.6a1,1,0,0,0-1.4,0l-.6.6h0l-5.7,5.7-.6.6v.2H9.4a6,6,0,0,0-4.2,1.8.7.7,0,0,0,0,1.1l3.2,3.2-1,1a.7.7,0,0,0,0,1.1l.5.2.5-.2,1-1,3.2,3.2.5.2.5-.2a6,6,0,0,0,1.7-5h.2l6.8-6.8A1,1,0,0,0,22.3,11.4Z"/><path d="M27.7,19.4l-5-5-5.7,5.7,5,5a1,1,0,0,0,1.4,0l4.2-4.2A1,1,0,0,0,27.7,19.4Z"/><path d="M9.8,12.7l5.7-5.7-5-5a1,1,0,0,0-1.4,0L4.8,6.4a1,1,0,0,0,0,1.4Z"/><path d="M10.7,25.7A4.7,4.7,0,0,1,4.8,25a4.7,4.7,0,0,1-.7-5.8.8.8,0,0,0-1.3-.8A6.2,6.2,0,0,0,11.5,27a.7.7,0,0,0-.8-1.3Z"/><path d="M8.2,25.4l1.3-.2a.8.8,0,0,0-.5-1.4,2.2,2.2,0,0,1-2.8-2.8.7.7,0,1,0-1.4-.5,3.7,3.7,0,0,0,3.5,5Z"/></svg>