<svg xmlns="http://www.w3.org/2000/svg" viewBox="0 0 30 30"><path d="M27.2,12.7l-1.5-.2L24.1,9.1l1.1-1.5c.5-.6.4-1.1,0-1.6l-.7-.7h0l-.7-.7c-.4-.4-.9-.5-1.6,0L20.7,5.7,17.5,4.3h0l-.2-1.5c-.1-.8-.5-1.1-1.1-1.1H14.1c-.6,0-1,.3-1.1,1.1l-.2,1.5L9.3,5.7,7.9,4.6c-.6-.5-1.1-.4-1.6,0l-.7.7h0l-.7.7c-.4.4-.5.9,0,1.6L5.9,9,4.3,12.5l-1.5.2c-.8.1-1.1.5-1.1,1.1v2.1c0,.6.3,1,1.1,1.1l1.5.2,1.4,3.5-.7,1c-.5.7-.4,1.1,0,1.6l.7.7.7.7c.4.4.9.5,1.6,0l.9-.7,3.8,1.5.2,1.5c.1.8.5,1.1,1.1,1.1h2.1c.6,0,1-.3,1.1-1.1l.2-1.5L21,24.1l1.1.8c.7.5,1.1.4,1.6,0l.7-.7h0l.7-.7c.4-.4.5-.9,0-1.6l-.8-1.1,1.3-3.5,1.5-.2c.8-.1,1.1-.5,1.1-1.1V13.8C28.3,13.2,28,12.8,27.2,12.7ZM15,19a4,4,0,1,1,4-4A4,4,0,0,1,15,19Z"/></svg>