<svg xmlns="http://www.w3.org/2000/svg" viewBox="0 0 30 30"><path d="M10.4,17.3l2.8,2.4,5.2-5.2a3,3,0,0,1,4-.2l4.1,3.4V3.3a.9.9,0,0,0-.9-.9H3a.9.9,0,0,0-.9.9V21.1l4.4-3.8A3.1,3.1,0,0,1,10.4,17.3ZM9.3,7.9a2.5,2.5,0,1,1-2.5,2.5A2.5,2.5,0,0,1,9.3,7.9Z"/><path d="M9.4,18.4a1.6,1.6,0,0,0-2,0L2,23.1v2.8a.9.9,0,0,0,.9.9H6.1l6.1-6.1Z"/><path d="M24.1,17.7l-2.7-2.1a1.5,1.5,0,0,0-2,.1L8.2,26.9h9.5a7.2,7.2,0,0,1,6.4-9.2Z"/><path d="M26.6,26.2l-.8.3L23.4,25v-.2a1.4,1.4,0,0,0,0-.3l2.2-1.3a1.4,1.4,0,1,0-.5-1.1v.2l-2.3,1.4a1.4,1.4,0,1,0,.1,2.2l2.3,1.4a1.4,1.4,0,0,0,0,.3,1.4,1.4,0,1,0,1.4-1.4Z"/></svg>