<svg xmlns="http://www.w3.org/2000/svg" viewBox="0 0 30 30"><circle cx="23" cy="25.8" r="1.4"/><circle cx="27.5" cy="23.1" r="1.4"/><circle cx="27.5" cy="28.6" r="1.4"/><polygon points="27.2 29 22 25.7 27.2 22.6 27.7 23.5 23.9 25.7 27.7 28.1 27.2 29"/><polygon points="18.8 0.5 18.8 6.3 24.6 6.3 18.8 0.5"/><path d="M17.3,7.8V0H3.8A1.5,1.5,0,0,0,2.3,1.5V27a1.5,1.5,0,0,0,1.5,1.5H18.9a7.2,7.2,0,0,1,6.3-9.8V7.8Zm1,12.8a1,1,0,0,1-.2,1.4l-.6.2a1,1,0,0,1-.8-.4l-3.1-4-3.1,4a1,1,0,0,1-.8.4L9.3,22a1,1,0,0,1-.2-1.4l3.4-4.4L9.1,11.8a1,1,0,0,1,1.6-1.2l3.1,4,3.1-4a1,1,0,0,1,1.6,1.2L15,16.2Z"/></svg>