<svg xmlns="http://www.w3.org/2000/svg" viewBox="0 0 30 30"><polygon points="18.6 0.5 18.6 6.3 24.4 6.3 18.6 0.5"/><path d="M27.3,27.2l-.8.3L24.2,26v-.2a1.4,1.4,0,0,0,0-.3l2.2-1.3a1.4,1.4,0,1,0-.5-1.1v.2l-2.3,1.4a1.4,1.4,0,1,0,.1,2.2l2.2,1.4a1.4,1.4,0,0,0,0,.3,1.4,1.4,0,1,0,1.4-1.4Z"/><path d="M13.1,15.8v.2h0l-.3.7-.4,1,1.7-.4-.4-.5Z"/><path d="M13.2,11.3c0-.3,0-.8-.3-.8h-.1c-.2,0-.4.2-.4.7a3.4,3.4,0,0,0,.4,1.3A4.1,4.1,0,0,0,13.2,11.3Z"/><path d="M8.6,21.1l.3.2a.8.8,0,0,0,.6-.3,3.8,3.8,0,0,0,.5-1.1l-1,.4C8.6,20.4,8.4,20.8,8.6,21.1Z"/><path d="M17.2,7.8V0H3.6A1.5,1.5,0,0,0,2.1,1.5V27a1.5,1.5,0,0,0,1.5,1.5H18.7a7.2,7.2,0,0,1,6.2-9.8V7.8ZM20,18.6a1.9,1.9,0,0,1-2,1.6,2.8,2.8,0,0,1-1.8-.7l-.5-.5-.5-.5h-.7l-2.9.7-.4,1a5.1,5.1,0,0,1-.8,1.5,2.3,2.3,0,0,1-1.7.9,1.8,1.8,0,0,1-1.6-.9,1.9,1.9,0,0,1-.2-1.5,2.3,2.3,0,0,1,1.1-1.4l1.3-.5,1.1-.3.2-.5.6-1.5.5-1.3.2-.5-.6-1.1a4.6,4.6,0,0,1-.6-1.9,2.2,2.2,0,0,1,.5-1.8A1.8,1.8,0,0,1,12.8,9h.3a2,2,0,0,1,1.6,2.4,5.4,5.4,0,0,1-.4,1.6l-.4,1,1.1,1.7.8.9.9-.2,1.3-.2h.9A1.8,1.8,0,0,1,20,18.6Z"/><path d="M18.3,17.9H16.9l.4.3a1.3,1.3,0,0,0,.8.3C18.6,18.6,18.7,18.1,18.3,17.9Z"/></svg>