<svg xmlns="http://www.w3.org/2000/svg" viewBox="0 0 30 30"><polygon points="18.2 0.5 18.2 6.3 24 6.3 18.2 0.5"/><path d="M26.9,27.2l-.8.3L23.8,26v-.2a1.4,1.4,0,0,0,0-.3L26,24.2a1.4,1.4,0,1,0-.5-1.1v.2l-2.3,1.4a1.4,1.4,0,1,0,.1,2.2l2.2,1.4a1.4,1.4,0,0,0,0,.3,1.4,1.4,0,1,0,1.4-1.4Z"/><path d="M13.2,12.4H11.3v3.5h1.9a1.8,1.8,0,1,0,0-3.5Z"/><path d="M16.7,7.8V0H3.2A1.5,1.5,0,0,0,1.7,1.5V27a1.5,1.5,0,0,0,1.5,1.5H18.3a7.2,7.2,0,0,1,6.2-9.8V7.8ZM13.2,17.9H11.3v3.3a1,1,0,0,1-2,0V11.4a1,1,0,0,1,1-1h2.9a3.7,3.7,0,1,1,0,7.5Z"/></svg>