<svg xmlns="http://www.w3.org/2000/svg" viewBox="0 0 30 30"><polygon points="18.2 0.6 18.2 6.3 24 6.3 18.2 0.6"/><path d="M26.9,27.2l-.8.3L23.7,26v-.2a1.4,1.4,0,0,0,0-.3l2.2-1.3a1.4,1.4,0,1,0-.5-1.1v.2l-2.3,1.4a1.4,1.4,0,0,0-.8-.3,1.4,1.4,0,1,0,.9,2.5l2.2,1.4a1.4,1.4,0,0,0,0,.3,1.4,1.4,0,1,0,1.4-1.4Z"/><path d="M16.7,7.8V0H3.2A1.5,1.5,0,0,0,1.8,1.5V27a1.5,1.5,0,0,0,1.5,1.5H18.3a7.1,7.1,0,0,1,6.2-9.8V7.8Zm1.5,3.5-2.1,9.6a1,1,0,0,1-1.9,0l-1.1-5.1L12,20.9a1,1,0,0,1-1.9,0L8,11.3a1,1,0,0,1,1.9-.4L11,16l1.1-5.1h.1v-.2H14v.2h.1L15.2,16l1.1-5.1a1,1,0,1,1,1.9.4Z"/></svg>