<svg xmlns="http://www.w3.org/2000/svg" viewBox="0 0 30 30"><path d="M14.9,28.9a1.5,1.5,0,0,1-1.5-1.5V2.7a1.5,1.5,0,1,1,3,0V27.4A1.5,1.5,0,0,1,14.9,28.9Z"/><path d="M14.9,8.3,11.1,6.2a1.5,1.5,0,0,1,1.5-2.6l2.3,1.3,2.3-1.3a1.5,1.5,0,1,1,1.5,2.6Z"/><path d="M17.9,26.7l-.7-.2-2.3-1.3-2.3,1.3a1.5,1.5,0,0,1-1.5-2.6l3.8-2.1,3.8,2.1a1.5,1.5,0,0,1-.7,2.8Z"/><path d="M25.3,14.1l-.8-.2-3.7-2.2V7.4a1.5,1.5,0,0,1,3-.1V10l2.3,1.3a1.5,1.5,0,0,1-.8,2.8Z"/><path d="M7.7,24.4a1.5,1.5,0,0,1-1.5-1.5V20.3L3.9,18.9a1.5,1.5,0,0,1,1.5-2.6l3.7,2.2v4.3a1.5,1.5,0,0,1-1.5,1.5Z"/><path d="M22.5,24.3A1.5,1.5,0,0,1,21,22.8V18.5l3.7-2.3a1.5,1.5,0,0,1,1.6,2.5l-2.2,1.4v2.6a1.5,1.5,0,0,1-1.5,1.5Z"/><path d="M4.6,14.5a1.5,1.5,0,0,1-.8-2.8l2.2-1.4V7.7A1.5,1.5,0,0,1,7.5,6.2h0A1.5,1.5,0,0,1,9,7.7V12L5.4,14.3Z"/><path d="M4.4,22.9a1.5,1.5,0,0,1-.8-2.8L24.9,7.5a1.5,1.5,0,1,1,1.5,2.6L5.1,22.7Z"/><path d="M25.8,22.7l-.7-.2L3.5,10.6A1.5,1.5,0,0,1,4.9,7.9l21.6,12a1.5,1.5,0,0,1-.7,2.8Z"/></svg>