<svg xmlns="http://www.w3.org/2000/svg" viewBox="0 0 30 30"><path d="M19.3,16.2l4.2.2s.9.1,1.1-1,2.1-6.6-1-12.2A3.7,3.7,0,0,0,19,1.7s-2.6.7-2.7,5.7A8.8,8.8,0,0,0,17.6,12a9.1,9.1,0,0,1,.9,3.4A.9.9,0,0,0,19.3,16.2Z"/><path d="M18.5,20.5a2.7,2.7,0,1,0,5.4.2v-.6s0-.5-.4-.5l-4.5-.2a.6.6,0,0,0-.5.6Z"/><path d="M10.1,20.9l-4.2.2s-.9.1-1.1-1-2.1-6.6,1-12.2a3.7,3.7,0,0,1,4.6-1.5s2.6.7,2.7,5.7a8.8,8.8,0,0,1-1.2,4.6,9.1,9.1,0,0,0-.9,3.4A.9.9,0,0,1,10.1,20.9Z"/><path d="M10.8,25.2a2.7,2.7,0,1,1-5.4.2v-.5s0-.5.4-.5l4.4-.2a.6.6,0,0,1,.5.5Z"/></svg>