<svg xmlns="http://www.w3.org/2000/svg" viewBox="0 0 30 30"><path d="M24.3,1.8H6.3A1.8,1.8,0,0,0,4.5,3.5V19.8a1.8,1.8,0,0,0,1.8,1.8H8.5l-.7,1.7h0l-1.6,4a.7.7,0,0,0,.4,1H7a.7.7,0,0,0,.7-.5L9,24.3H21.6L23,27.7a.7.7,0,0,0,.7.5H24a.7.7,0,0,0,.4-1l-1.6-4h0l-.7-1.7h2.2a1.8,1.8,0,0,0,1.8-1.7V3.5A1.8,1.8,0,0,0,24.3,1.8ZM6,12.8V3.5a.3.3,0,0,1,.3-.2h8.3v9.5Zm3.8,5.3A1.1,1.1,0,1,1,11,17,1.1,1.1,0,0,1,9.8,18.1ZM21,22.8H9.6l.5-1.2H20.5Zm.8-4.6A1.1,1.1,0,1,1,22.9,17,1.1,1.1,0,0,1,21.8,18.1Zm2.8-5.3H16.1V3.3h8.3a.3.3,0,0,1,.3.3Z"/></svg>