<svg xmlns="http://www.w3.org/2000/svg" viewBox="0 0 30 30"><polygon points="20.2 0.8 20.2 6.6 26 6.6 20.2 0.8"/><path d="M18.7,8.1V.3H5A1.5,1.5,0,0,0,3.5,1.8V27.5A1.5,1.5,0,0,0,5,29H25a1.5,1.5,0,0,0,1.5-1.5V8.1Zm-7.2,7.1H10.1v2.1c0,.7.2,1,.7,1h.5v1.4l-1.2.2a1.9,1.9,0,0,1-1.4-.5,2.5,2.5,0,0,1-.5-1.8V15.2H7.5V13.9h.8V12.6l1.8-.4v1.7h1.3Zm4.5,4.6-.6-1.1-.5-.9h0l-.4.9-.6,1.1h-2l2-3-2-2.9h2.1l.6,1,.5.9h0l.5-.9.5-1h2L16,16.7l2,3.1Zm6.4-4.6H21v2.1c0,.7.2,1,.7,1h.5v1.4l-1.2.2a1.9,1.9,0,0,1-1.4-.5,2.5,2.5,0,0,1-.5-1.8V15.2h-.8V13.9h.8V12.6l1.8-.4v1.7h1.3Z"/></svg>