<svg xmlns="http://www.w3.org/2000/svg" viewBox="0 0 30 30"><path d="M7.7,13.5l-.4,1.3-.6,1.7h2l-.6-1.7Z"/><path d="M8.8.1H1a1,1,0,0,0-1,1V29a1,1,0,0,0,1,1H20.2Zm.4,17.6H6.3L5.5,20H4l3.1-8.3H8.4L11.6,20H10Z"/><path d="M21.6,13.6a6.6,6.6,0,0,0,.7,1.5l.8,1.2.8-1.1a8.1,8.1,0,0,0,.7-1.5Z"/><path d="M29,.1H9.9L21.3,30H29a1,1,0,0,0,1-1V1.1A1,1,0,0,0,29,.1Zm-2.1,20-1-.4-1-.5-.9-.6-.8-.6-1.7,1.2-2,1-.7-1.1,2-.9,1.5-1.1-1.1-1.6a9.5,9.5,0,0,1-.9-1.9H19V12.5h3.4V11h1.2v1.4h3.5v1.1H26a10.5,10.5,0,0,1-.8,1.9A9.1,9.1,0,0,1,24,17.1l.9.6.9.5.9.4.8.3Z"/></svg>