<svg xmlns="http://www.w3.org/2000/svg" viewBox="0 0 30 30"><path d="M12.4,19.1a1.5,1.5,0,0,1-1.1-2.6l5.2-5.2a1.5,1.5,0,0,1,2.1,2.1l-5.2,5.2A1.5,1.5,0,0,1,12.4,19.1Z"/><path d="M11.6,26.2h0A7.8,7.8,0,0,1,6.1,12.9l1.6-1.6a1.5,1.5,0,1,1,2.1,2.1L8.2,15a4.8,4.8,0,0,0,3.4,8.2h0A4.8,4.8,0,0,0,15,21.8l1.6-1.6a1.5,1.5,0,1,1,2.1,2.1l-1.6,1.6A7.8,7.8,0,0,1,11.6,26.2Z"/><path d="M21.3,19.1a1.5,1.5,0,0,1-1.1-2.6L21.8,15A4.8,4.8,0,1,0,15,8.2L13.4,9.7a1.5,1.5,0,0,1-2.1-2.1l1.6-1.6A7.8,7.8,0,1,1,23.9,17.1l-1.6,1.6A1.5,1.5,0,0,1,21.3,19.1Z"/></svg>