<svg xmlns="http://www.w3.org/2000/svg" viewBox="0 0 30 30"><path d="M10.7,11.9A5.1,5.1,0,1,0,8.5,7.7,5.1,5.1,0,0,0,10.7,11.9Z"/><path d="M20.3,15.7l-2.3-1a14.5,14.5,0,0,0-4.4-.7,12.4,12.4,0,0,0-8.9,3.4A5.6,5.6,0,0,0,3,21.6v1.8a.9.9,0,0,0,.9.9H14.1c0-.2,0-.5,0-.7A8.2,8.2,0,0,1,20.3,15.7Z"/><path d="M27.6,22.7H27l-.6-1.5.5-.6c.2-.3.2-.5,0-.7l-.3-.3-.3-.3c-.2-.2-.4-.2-.7,0l-.7.5-1.3-.6h0v-.6c-.1-.3-.2-.5-.5-.5h-.9c-.3,0-.4.1-.5.5v.6l-1.5.6-.6-.4c-.3-.2-.5-.2-.7,0l-.3.3-.3.3c-.2.2-.2.4,0,.7l.4.6L18,22.7h-.6c-.3.1-.5.2-.5.5v.9c0,.3.1.4.5.5H18l.6,1.5-.3.4c-.2.3-.2.5,0,.7l.3.3.3.3c.2.2.4.2.7,0l.4-.3,1.6.6v.7c.1.3.2.5.5.5H23c.3,0,.4-.1.5-.5v-.7l1.5-.6.4.3c.3.2.5.2.7,0l.3-.3.3-.3c.2-.2.2-.4,0-.7l-.3-.5.6-1.5h.7c.3-.1.5-.2.5-.5v-.9C28.1,22.9,28,22.8,27.6,22.7Zm-5.1,2.3a1.4,1.4,0,1,1,1.4-1.4A1.4,1.4,0,0,1,22.5,25.1Z"/></svg>