<svg xmlns="http://www.w3.org/2000/svg" viewBox="0 0 30 30"><path d="M26.2,12.1h-.4L23.4,5.7a1.8,1.8,0,0,0-1.7-1.5H9.2A1.8,1.8,0,0,0,7.5,5.7L5.1,12.1H4.7a1.8,1.8,0,0,0-1.7,1.8v6.6a1.7,1.7,0,0,0,1.7,1.7v1.5a1.8,1.8,0,0,0,1.8,1.8H9.1a1.8,1.8,0,0,0,1.8-1.7V22.1h9.3v1.5a1.8,1.8,0,0,0,1.8,1.8h2.7a1.8,1.8,0,0,0,1.8-1.7V22.1a1.7,1.7,0,0,0,1.6-1.7V13.8A1.8,1.8,0,0,0,26.2,12.1Zm-19,6a1,1,0,1,1,1-1A1,1,0,0,1,7.1,18.1Zm12.1-.2H11.6V16.3h7.7ZM6.7,12.1,8.9,6.2c.1-.4.2-.5.3-.5H21.7l.2.5,2.2,5.9Zm17,6a1,1,0,1,1,1-1A1,1,0,0,1,23.7,18.1Z"/></svg>