<svg xmlns="http://www.w3.org/2000/svg" viewBox="0 0 30 30"><path d="M7.6,8.5,6.7,5.8a.4.4,0,0,0-.4-.3H1.2a.4.4,0,0,0-.4.4V8.5Z"/><path d="M12.9,13.5l-2.3-3.3-.3-.2H.8v.4h0v3.1Z"/><path d="M28.8,15.2l-.3-.2H.8v9H22.4l.3-.2,6-8.3A.4.4,0,0,0,28.8,15.2ZM4.2,19.9a.5.5,0,0,1-.5.5H2.2a.5.5,0,0,1-.5-.5V18.4a.5.5,0,0,1,.5-.5H3.7a.5.5,0,0,1,.5.5Zm7.7,0a.5.5,0,0,1-.5.5H9.9a.5.5,0,0,1-.5-.5V18.4a.5.5,0,0,1,.5-.5h1.5a.5.5,0,0,1,.5.5Zm7.7,0a.5.5,0,0,1-.5.5H17.6a.5.5,0,0,1-.5-.5V18.4a.5.5,0,0,1,.5-.5h1.5a.5.5,0,0,1,.5.5Z"/></svg>