<svg xmlns="http://www.w3.org/2000/svg" viewBox="0 0 30 30"><polygon points="20.2 0.8 20.2 6.6 26 6.6 20.2 0.8"/><path d="M18.7,8.1V.3H5A1.5,1.5,0,0,0,3.5,1.8V27.5A1.5,1.5,0,0,0,5,29H25a1.5,1.5,0,0,0,1.5-1.5V8.1ZM12.3,19.8H7.2V18.8L9,16.4l.9-1.1H7.4V13.9h4.8V15l-1.8,2.2-1,1.1h2.8Zm2.8,0H13.3V13.9h1.8Zm-.9-6.6a.9.9,0,1,1,0-1.9.9.9,0,1,1,0,1.9ZM20,20a1.8,1.8,0,0,1-1.5-.7h0v2.9H16.6V15.9c0-.8,0-1.4,0-2h1.6v.8h0a2.3,2.3,0,0,1,2-1c1.3,0,2.5,1.1,2.5,3S21.3,20,20,20Z"/><path d="M19.6,15.2a1.2,1.2,0,0,0-1.1.9,1.5,1.5,0,0,0,0,.3v.8a1.9,1.9,0,0,0,0,.4,1.1,1.1,0,0,0,1.1.9c.8,0,1.3-.7,1.3-1.7S20.4,15.2,19.6,15.2Z"/></svg>