<svg id="레이어_2" data-name="레이어 2" xmlns="http://www.w3.org/2000/svg" width="30" height="30" viewBox="0 0 30 30"><title>대지 1</title><path d="M7.6,5.5a.8.8,0,0,1-.7-.7V1A.8.8,0,0,1,8.3,1V4.8A.8.8,0,0,1,7.6,5.5Z"/><path d="M20.4,5.5a.8.8,0,0,1-.7-.7V1a.8.8,0,0,1,1.5,0V4.8A.8.8,0,0,1,20.4,5.5Z"/><rect x="1.9" y="7.8" width="24.2" height="1.5"/><rect x="7" y="13.8" width="2.3" height="2.34"/><rect x="12.8" y="13.8" width="2.3" height="2.34"/><rect x="18.6" y="13.8" width="2.3" height="2.34"/><rect x="7" y="18.4" width="2.3" height="2.34"/><rect x="12.8" y="18.4" width="2.3" height="2.34"/><rect x="18.6" y="18.4" width="2.3" height="2.34"/><path d="M18.2,26.8H2.8a1.7,1.7,0,0,1-1.7-1.7V3.9A1.7,1.7,0,0,1,2.8,2.1H25.1a1.7,1.7,0,0,1,1.7,1.7V16.6a.8.8,0,0,1-1.5,0V3.9a.2.2,0,0,0-.2-.2H2.8a.2.2,0,0,0-.2.2V25.1a.2.2,0,0,0,.2.2H18.2a.8.8,0,0,1,0,1.5Z"/><rect x="22.2" y="25.3" width="7.8" height="1.5"/><rect x="25.4" y="22.2" width="1.5" height="7.81"/></svg>