<svg id="레이어_2" data-name="레이어 2" xmlns="http://www.w3.org/2000/svg" width="30" height="30" viewBox="0 0 30 30"><title>대지 1</title><path d="M13.2,5.1a6.6,6.6,0,0,0-5.3,6.5.8.8,0,0,0,1.5,0,5.1,5.1,0,0,1,4.1-5,.7.7,0,0,0-.3-1.5Z"/><path d="M5.1,23.1H3.6V19.9a.3.3,0,0,1,.3-.2H8.6l1.5-1.5H6.6V11.7a8.3,8.3,0,0,1,14.9-5l1.1-1.1A9.8,9.8,0,0,0,5.1,11.7v6.4H3.9a1.8,1.8,0,0,0-1.7,1.8v4a.8.8,0,0,0,.8.8h.8Z"/><path d="M28.8,3.1a.7.7,0,0,0-1.1,0L3.2,27.8a.7.7,0,0,0,0,1.1l.5.2.5-.2,4.2-4.2H26.7a.8.8,0,0,0,.8-.7v-4a1.8,1.8,0,0,0-1.7-1.7H24.7V11.7a9.7,9.7,0,0,0-.4-2.9l4.6-4.6A.7.7,0,0,0,28.8,3.1ZM25.7,19.6a.3.3,0,0,1,.3.3v3.2H10l3.5-3.5Zm-2.6-7.9v6.4H14.9L23,10.1A8.1,8.1,0,0,1,23.2,11.7Z"/></svg>