<svg id="레이어_2" data-name="레이어 2" xmlns="http://www.w3.org/2000/svg" width="30" height="30" viewBox="0 0 30 30"><defs><style>.cls-1{fill:#020202;}</style></defs><title>대지 1</title><path class="cls-1" d="M26.2,8.5H21.9a.8.8,0,1,1,0-1.5h4.3a1.8,1.8,0,0,0,1.6-2,1.8,1.8,0,0,0-1.6-2H3.8A1.8,1.8,0,0,0,2.3,5,1.8,1.8,0,0,0,3.8,7H6.7a.8.8,0,0,1,0,1.5H3.8A3.3,3.3,0,0,1,.8,5,3.3,3.3,0,0,1,3.8,1.5H26.2A3.3,3.3,0,0,1,29.3,5,3.3,3.3,0,0,1,26.2,8.5Z"/><path d="M6.7,28.5H6.4a.8.8,0,0,1-.5-.7V6.7A2.8,2.8,0,0,1,8.7,4H23.9a.8.8,0,1,1,0,1.5,1.3,1.3,0,0,0-1.3,1.3v21a.7.7,0,0,1-1.3.5L20,26.9l-1.4,1.4a.8.8,0,0,1-1.1,0l-1.4-1.4-1.4,1.4a.8.8,0,0,1-1.1,0l-1.4-1.4L11,28.2a.8.8,0,0,1-1.1,0L8.6,26.9,7.2,28.2Zm9.5-3.4.5.2,1.4,1.4,1.4-1.4a.8.8,0,0,1,1.1,0l.6.6V6.7a2.7,2.7,0,0,1,.3-1.3H8.7A1.3,1.3,0,0,0,7.4,6.7V25.9l.6-.6a.8.8,0,0,1,1.1,0l1.4,1.4,1.4-1.4a.8.8,0,0,1,1.1,0l1.4,1.4,1.4-1.4Z"/><rect class="cls-1" x="8.1" y="10.6" width="3" height="5.71"/><rect class="cls-1" x="13.8" y="10.6" width="3" height="5.71"/><rect class="cls-1" x="11.5" y="10.6" width="1.5" height="5.71"/><rect class="cls-1" x="18.9" y="10.6" width="1.5" height="5.71"/></svg>