<svg id="레이어_2" data-name="레이어 2" xmlns="http://www.w3.org/2000/svg" width="30" height="30" viewBox="0 0 30 30"><title>대지 1</title><path d="M24,25.3H5.8a1.8,1.8,0,0,1-1.7-1.7V5.2A1.8,1.8,0,0,1,5.8,3.4H24a1.8,1.8,0,0,1,1.8,1.7V23.6A1.8,1.8,0,0,1,24,25.3ZM5.8,4.9a.3.3,0,0,0-.2.3V23.6a.3.3,0,0,0,.3.3H24a.3.3,0,0,0,.3-.2V5.2a.3.3,0,0,0-.2-.2Z"/><path d="M25,10.3H4.8a.8.8,0,0,1,0-1.5H25a.8.8,0,0,1,0,1.5Z"/><path d="M25,17.4H4.8a.8.8,0,1,1,0-1.5H25a.8.8,0,0,1,0,1.5Z"/><rect x="12.2" y="6" width="5.3" height="1.5"/><circle cx="9" cy="20.3" r="1.1"/><circle cx="20.7" cy="20.3" r="1.1"/><path d="M9.1,28.3H6.8a1.8,1.8,0,0,1-1.7-1.7v-2a.7.7,0,0,1,1.5,0v2a.3.3,0,0,0,.3.3H9.1a.3.3,0,0,0,.3-.2v-2a.7.7,0,1,1,1.5,0v2A1.8,1.8,0,0,1,9.1,28.3Z"/><path d="M22.8,28.3H20.5a1.8,1.8,0,0,1-1.7-1.7v-2a.7.7,0,0,1,1.5,0v2a.3.3,0,0,0,.3.3h2.3a.3.3,0,0,0,.3-.2v-2a.7.7,0,0,1,1.5,0v2A1.8,1.8,0,0,1,22.8,28.3Z"/></svg>