<svg id="레이어_2" data-name="레이어 2" xmlns="http://www.w3.org/2000/svg" width="30" height="30" viewBox="0 0 30 30"><title>대지 1</title><path d="M27.8,3.8V28.3H2.2V3.8H27.8m.3-1.5H1.8A1.2,1.2,0,0,0,.7,3.5V28.7a1.2,1.2,0,0,0,1.2,1.2H28.2a1.2,1.2,0,0,0,1.2-1.2V3.5a1.2,1.2,0,0,0-1.2-1.2Z"/><path d="M7.2,6a.8.8,0,0,1-.7-.7V.8A.8.8,0,0,1,8,.8V5.2A.8.8,0,0,1,7.2,6Z"/><path d="M22.4,6a.8.8,0,0,1-.7-.7V.8a.8.8,0,1,1,1.5,0V5.2A.8.8,0,0,1,22.4,6Z"/><path d="M28.6,9.8H1.4a.8.8,0,1,1,0-1.5H28.6a.7.7,0,0,1,0,1.5Z"/><rect x="6.8" y="15.2" width="2.8" height="2.77"/><rect x="13.6" y="15.2" width="2.8" height="2.77"/><rect x="20.4" y="15.2" width="2.8" height="2.77"/><rect x="6.8" y="20.8" width="2.8" height="2.77"/><rect x="13.6" y="20.8" width="2.8" height="2.77"/><rect x="20.4" y="20.8" width="2.8" height="2.77"/></svg>