<svg id="레이어_2" data-name="레이어 2" xmlns="http://www.w3.org/2000/svg" width="30" height="30" viewBox="0 0 30 30"><title>대지 1</title><path d="M25.5,28.7h-.1a29.2,29.2,0,0,1-4.3-.5h-.7a25.6,25.6,0,0,1-6.3-2.5h-.1l-1.3-.8h-.3l-1.1-.8-.3-.3-.4-.4-.6-.5-.7-.6L9,21.6l-.3-.2-.6-.6-.4-.4L7.5,20l-.7-.9-.2-.3-.2-.2-.9-1.2v-.2l-.9-1.4A25.7,25.7,0,0,1,2,9.6V8.9a27.6,27.6,0,0,1-.5-3.4V5.3l.7-.2H1.3V4.6A3.2,3.2,0,0,1,4.5,1.3H8.1a3.4,3.4,0,0,1,3.1,2v.3l.3,1.2C12.1,6.8,13,9.2,13,9.2a1.2,1.2,0,0,1,0,.7,1.3,1.3,0,0,1-.3.6l-2.2,2.2,1.1,1.7a18.2,18.2,0,0,0,1.8,2.1h.1a18.3,18.3,0,0,0,3.8,2.9l2.2-2.2a1.3,1.3,0,0,1,1.3-.3l3,1,2.5.7h.4a3.4,3.4,0,0,1,2,3v.6h0v3a3.2,3.2,0,0,1-3.2,3.2Zm-4.4-2h.3a28.1,28.1,0,0,0,4.1.5,1.7,1.7,0,0,0,1.7-1.7V21.6a1.8,1.8,0,0,0-1.1-1.4h-.1l-2.6-.7-2.9-1-2.9,2.9-.5-.3a19.9,19.9,0,0,1-4.7-3.5h-.1a19.9,19.9,0,0,1-1.9-2.2A20,20,0,0,1,8.9,13l-.3-.5,2.9-2.9c-.2-.6-.9-2.6-1.4-4.3L9.8,4A1.9,1.9,0,0,0,8.1,2.8H4.5A1.7,1.7,0,0,0,2.8,4.6V5l-.7.2h.7v.2a26.4,26.4,0,0,0,.4,3.2h0V9a25.3,25.3,0,0,0,2.4,6l.8,1.4v.2l.8,1.1.4.5.7.8.6.6.5.5.2.2.2.2h.1l.6.6.5.4.5.4.3.2,1,.7.4.3,1.2.8h.1a24.1,24.1,0,0,0,6,2.4Zm-.5-8.3h0Z"/></svg>