<svg id="레이어_2" data-name="레이어 2" xmlns="http://www.w3.org/2000/svg" width="30" height="30" viewBox="0 0 30 30"><title>대지 1</title><path d="M9.5,29.8a3.3,3.3,0,1,1,3.3-3.3A3.4,3.4,0,0,1,9.5,29.8Zm0-5.2a1.8,1.8,0,1,0,1.8,1.8A1.9,1.9,0,0,0,9.5,24.6Z"/><path d="M23.1,29.8a3.3,3.3,0,1,1,3.3-3.3A3.4,3.4,0,0,1,23.1,29.8Zm0-5.2a1.8,1.8,0,1,0,1.8,1.8A1.9,1.9,0,0,0,23.1,24.6Z"/><path d="M25.8,22.6H8.2a2.8,2.8,0,1,1,0-5.7v1.5a1.3,1.3,0,1,0,0,2.7H25.8Z"/><path d="M8.1,18.4a.8.8,0,0,1-.7-.6L4.5,6.7a.8.8,0,0,1,.7-.9H27.9a.7.7,0,0,1,.7.9c-.2.9-2.3,8.8-2.6,9.7a3.3,3.3,0,0,1-2.7,1.9H8.1ZM6.2,7.3l2.4,9.6H23.3a1.9,1.9,0,0,0,1.3-1c.2-.5,1.5-5.2,2.3-8.6Z"/><path d="M7.3,17.9,3.6,3.6H1.3V2.1H3.7A1.5,1.5,0,0,1,5.1,3.2L8.8,17.5Z"/></svg>