<svg id="레이어_2" data-name="레이어 2" xmlns="http://www.w3.org/2000/svg" width="30" height="30" viewBox="0 0 30 30"><title>대지 1</title><path d="M16.5,25.1H6A6.7,6.7,0,0,1,3.4,12.7,6.5,6.5,0,0,1,9.8,7.2l1.6.2a7.6,7.6,0,0,1,13.7,4.5c0,.2,0,.3,0,.5a6.5,6.5,0,0,1,4.5,8,.7.7,0,1,1-1.4-.4,5,5,0,0,0-4-6.3h-.7v-.7a6,6,0,0,0-6-7,6,6,0,0,0-5.2,2.9l-.3.5L11.5,9,9.8,8.7a5,5,0,0,0-5,4.5v.4l-.4.2a5.2,5.2,0,0,0,2.3,9.8h9.8a.8.8,0,0,1,0,1.5Z"/><rect x="22.3" y="19.3" width="1.5" height="7.14"/><polygon points="25.2 22.6 23 20.4 20.9 22.6 19.8 21.5 23 18.3 26.2 21.5 25.2 22.6"/></svg>