<svg id="레이어_2" data-name="레이어 2" xmlns="http://www.w3.org/2000/svg" width="30" height="30" viewBox="0 0 30 30"><title>대지 1</title><path d="M24.1,29.9H5.9a1.8,1.8,0,0,1-1.7-1.7V4A1.8,1.8,0,0,1,5.9,2.2h4.6V5.4a.3.3,0,0,0,.3.3h8.5a.3.3,0,0,0,.3-.2V2.2h4.6A1.8,1.8,0,0,1,25.8,4V28.1A1.8,1.8,0,0,1,24.1,29.9ZM5.9,3.7a.3.3,0,0,0-.2.3V28.1a.3.3,0,0,0,.3.3H24.1a.3.3,0,0,0,.3-.2V4a.3.3,0,0,0-.2-.2H21V5.4a1.8,1.8,0,0,1-1.7,1.8H10.7A1.8,1.8,0,0,1,9,5.4V3.7Z"/><polygon points="13.1 21.8 8.7 17.3 9.7 16.3 13.1 19.7 20 12.8 21.1 13.9 13.1 21.8"/><path d="M19.3,7.1H10.7A1.8,1.8,0,0,1,9,5.4V1.9A1.8,1.8,0,0,1,10.7.1h8.5A1.8,1.8,0,0,1,21,1.9V5.4A1.8,1.8,0,0,1,19.3,7.1ZM10.7,1.6a.3.3,0,0,0-.2.3V5.4a.3.3,0,0,0,.3.3h8.5a.3.3,0,0,0,.3-.2V1.9a.3.3,0,0,0-.2-.2Z"/></svg>