<svg id="레이어_2" data-name="레이어 2" xmlns="http://www.w3.org/2000/svg" width="30" height="30" viewBox="0 0 30 30"><title>대지 1</title><rect x="7" y="13.7" width="2.3" height="2.34"/><rect x="12.7" y="13.7" width="2.3" height="2.34"/><rect x="18.5" y="13.7" width="2.3" height="2.34"/><rect x="7" y="18.4" width="2.3" height="2.34"/><rect x="12.7" y="18.4" width="2.3" height="2.34"/><path d="M25,2.1H21V1a.8.8,0,1,0-1.5,0V2.1H8.2V1A.8.8,0,1,0,6.7,1V2.1h-4A1.7,1.7,0,0,0,1,3.8V25a1.7,1.7,0,0,0,1.7,1.7H15.1a.8.8,0,1,0,0-1.5H2.8a.2.2,0,0,1-.2-.2V9.2H25.2v6.4a.7.7,0,0,0,1.5,0V3.8A1.7,1.7,0,0,0,25,2.1ZM2.5,7.7V3.8a.2.2,0,0,1,.2-.2h4V4.7a.8.8,0,0,0,1.5,0V3.6H19.5V4.7a.8.8,0,1,0,1.5,0V3.6h4a.2.2,0,0,1,.2.2V7.7Z"/><polygon points="23.1 26.6 22.2 25.7 23.9 24.1 23.9 21.6 25.1 21.6 25.1 24.6 23.1 26.6"/><path d="M24,29.7a5.5,5.5,0,1,1,5.5-5.5A5.5,5.5,0,0,1,24,29.7Zm0-9.5a4,4,0,1,0,4,4A4,4,0,0,0,24,20.2Z"/></svg>