<svg id="레이어_2" data-name="레이어 2" xmlns="http://www.w3.org/2000/svg" width="30" height="30" viewBox="0 0 30 30"><title>대지 1</title><path d="M18,1.6V28.4H4.4V1.6H18M18.6.1H3.7a.9.9,0,0,0-.9.9V29a.9.9,0,0,0,.9.9H18.6a.9.9,0,0,0,.9-.9V1a.9.9,0,0,0-.9-.9Z"/><path d="M25.6,17.9V28.4h-6V17.9h6m.6-1.5H19a.9.9,0,0,0-.9.9V29a.9.9,0,0,0,.9.9h7.3a.9.9,0,0,0,.9-.9V17.3a.9.9,0,0,0-.9-.9Z"/><rect x="7.4" y="4.5" width="2.5" height="2.55"/><rect x="7.4" y="9.3" width="2.5" height="2.55"/><rect x="7.4" y="14.1" width="2.5" height="2.55"/><rect x="12.4" y="4.5" width="2.5" height="2.55"/><rect x="12.4" y="9.3" width="2.5" height="2.55"/><rect x="12.4" y="14.1" width="2.5" height="2.55"/><path d="M15.2,29.8H13.7V21.3H8.6v8.5H7.1V21.3a1.6,1.6,0,0,1,1.6-1.6h4.9a1.6,1.6,0,0,1,1.6,1.6Z"/><rect x="21.5" y="19.7" width="2.4" height="1.5"/><rect x="21.5" y="22.7" width="2.4" height="1.5"/><rect x="14.5" y="28.4" width="6" height="1.5"/></svg>