<svg id="레이어_2" data-name="레이어 2" xmlns="http://www.w3.org/2000/svg" width="30" height="30" viewBox="0 0 30 30"><defs><style>.cls-1{fill:#010101;}</style></defs><title>대지 1</title><path class="cls-1" d="M15,1.8A13.2,13.2,0,1,1,1.8,15,13.2,13.2,0,0,1,15,1.8M15,.3A14.7,14.7,0,1,0,29.7,15,14.7,14.7,0,0,0,15,.3Z"/><rect class="cls-1" x="14.2" y="0.3" width="1.5" height="29.44"/><rect class="cls-1" x="2.4" y="21" width="25.1" height="1.5"/><rect class="cls-1" x="0.3" y="14.2" width="29.4" height="1.5"/><rect class="cls-1" x="2.4" y="7.5" width="25.1" height="1.5"/><path class="cls-1" d="M15,29.8c-4.9,0-8.7-6.5-8.7-14.8S10.1.2,15,.2,23.7,6.7,23.7,15,19.9,29.8,15,29.8Zm0-28C11.1,1.7,7.8,7.8,7.8,15S11.1,28.3,15,28.3s7.2-6.1,7.2-13.3S18.9,1.7,15,1.7Z"/></svg>