<svg id="레이어_2" data-name="레이어 2" xmlns="http://www.w3.org/2000/svg" width="30" height="30" viewBox="0 0 30 30"><title>대지 1</title><path d="M19,2.5v2H11v-2h8M19.4,1H10.6A1.1,1.1,0,0,0,9.5,2.1V4.9A1.1,1.1,0,0,0,10.6,6h8.8a1.1,1.1,0,0,0,1.1-1.1V2.1A1.1,1.1,0,0,0,19.4,1Z"/><rect x="9" y="11.9" width="1.5" height="11.38"/><rect x="14.3" y="11.9" width="1.5" height="11.38"/><rect x="19.5" y="11.9" width="1.5" height="11.38"/><path d="M23.1,29.6H6.9a2.8,2.8,0,0,1-2.7-2.7V5.4H5.7V26.9a1.3,1.3,0,0,0,1.3,1.3H23.1a1.3,1.3,0,0,0,1.3-1.2V5.4h1.5V26.9A2.8,2.8,0,0,1,23.1,29.6Z"/><path d="M28,6.2H2A.8.8,0,0,1,2,4.7H28a.8.8,0,0,1,0,1.5Z"/></svg>