<svg id="레이어_2" data-name="레이어 2" xmlns="http://www.w3.org/2000/svg" width="30" height="30" viewBox="0 0 30 30"><defs><style>.cls-1{fill:#010101;}</style></defs><title>대지 1</title><path d="M15,1.5a9.1,9.1,0,0,1,7.7,13.9L15,27.2,7.6,15.9l-.3-.5A9.1,9.1,0,0,1,15,1.5M15,0A10.6,10.6,0,0,0,6.1,16.2h0v.2h0L15,29.9h0l8.9-13.7A10.6,10.6,0,0,0,15,0Z"/><path class="cls-1" d="M16.8,8.6v3.5H13.2V8.6h3.5m.4-1.5H12.8a1.1,1.1,0,0,0-1.1,1.1v4.4a1.1,1.1,0,0,0,1.1,1.1h4.4a1.1,1.1,0,0,0,1.1-1.1V8.2a1.1,1.1,0,0,0-1.1-1.1Z"/></svg>