<svg id="레이어_2" data-name="레이어 2" xmlns="http://www.w3.org/2000/svg" width="30" height="30" viewBox="0 0 30 30"><title>대지 1</title><path d="M21.5,28.4a4.8,4.8,0,1,1,4.8-4.8A4.8,4.8,0,0,1,21.5,28.4Zm0-8.1a3.3,3.3,0,1,0,3.3,3.3A3.3,3.3,0,0,0,21.5,20.3Z"/><path d="M27.6,30.2,27,30l-3.1-3.1A.7.7,0,1,1,25,25.8l3.1,3.1a.7.7,0,0,1,0,1.1Z"/><path d="M14.3,27.3H5A1.3,1.3,0,0,1,3.7,26V1.8A1.3,1.3,0,0,1,5,.5H23.7A1.3,1.3,0,0,1,25,1.8V16a.8.8,0,0,1-1.5,0V2H5.2V25.8h9.2a.8.8,0,1,1,0,1.5Z"/><rect x="9.3" y="7.5" width="10" height="1.5"/><rect x="9.3" y="12.3" width="5.4" height="1.5"/><rect x="9.3" y="17.1" width="1.9" height="1.5"/></svg>