<svg id="레이어_2" data-name="레이어 2" xmlns="http://www.w3.org/2000/svg" width="30" height="30" viewBox="0 0 30 30"><title>대지 1</title><path d="M9.1,13.8a3.3,3.3,0,1,1,3.3-3.3A3.3,3.3,0,0,1,9.1,13.8Zm0-5a1.8,1.8,0,1,0,1.8,1.8A1.8,1.8,0,0,0,9.1,8.7Z"/><path d="M25.3,16.7a3.3,3.3,0,1,1,3.3-3.3A3.3,3.3,0,0,1,25.3,16.7Zm0-5A1.8,1.8,0,1,0,27,13.4,1.8,1.8,0,0,0,25.3,11.6Z"/><path d="M9.1,25.4l-.6-.8c-.7-.9-7.1-9.2-7.1-13.1a7.6,7.6,0,1,1,15.3,0c0,4-6.3,12.2-7.1,13.1Zm0-20A6.2,6.2,0,0,0,3,11.5c0,2.6,4,8.6,6.1,11.4,2.1-2.9,6.2-8.8,6.2-11.4A6.2,6.2,0,0,0,9.1,5.4Z"/><path d="M16,26V24.5h2v1.5Zm-2,0h-2V24.4h2Zm6.1-.2-.2-1.5,1.9-.4.4,1.4Zm4.1-1.4-1-1.2.2-.2.6-1.1,1.4.6a7.3,7.3,0,0,1-.8,1.4Zm1.9-4-1.5-.2a10.5,10.5,0,0,0,.1-1.7h1.5v.2A11.9,11.9,0,0,1,26.1,20.3Zm-.8-3.7v-.4h-.7v-.3l.7-.2v-.8c.6,0,.7.6.8.9h-.8Z"/></svg>