<svg id="레이어_2" data-name="레이어 2" xmlns="http://www.w3.org/2000/svg" width="30" height="30" viewBox="0 0 30 30"><title>대지 1</title><path d="M23.2,16.6a.8.8,0,0,1-.7-.7c0-4.8-3.4-8.8-7.5-8.8S7.5,11,7.5,15.8a.8.8,0,0,1-1.5,0c0-5.7,4-10.3,9-10.3s9,4.6,9,10.3A.8.8,0,0,1,23.2,16.6Z"/><path d="M5.9,24.4a4.6,4.6,0,1,1,0-9.3.8.8,0,0,1,0,1.5,3.1,3.1,0,1,0,0,6.3.8.8,0,0,1,0,1.5Z"/><path d="M6.8,24.4H5.9a.8.8,0,0,1,0-1.5h.9l.2-.2V16.9l-.2-.2H5.9a.7.7,0,0,1,0-1.5h.9a1.7,1.7,0,0,1,1.7,1.7v5.9A1.7,1.7,0,0,1,6.8,24.4Z"/><path d="M24.1,24.4a.8.8,0,0,1,0-1.5,3.1,3.1,0,1,0,0-6.3.8.8,0,1,1,0-1.5,4.6,4.6,0,1,1,0,9.3Z"/><path d="M24.1,24.4h-.9a1.7,1.7,0,0,1-1.7-1.7V16.9a1.7,1.7,0,0,1,1.7-1.7h.9a.7.7,0,1,1,0,1.5h-.9l-.2.2v5.9l.2.2h.9a.8.8,0,0,1,0,1.5Z"/></svg>