<svg id="레이어_2" data-name="레이어 2" xmlns="http://www.w3.org/2000/svg" width="30" height="30" viewBox="0 0 30 30"><title>대지 1</title><path d="M15,3A11.5,11.5,0,1,1,3.5,14.5,11.5,11.5,0,0,1,15,3m0-1.5a13,13,0,1,0,13,13,13,13,0,0,0-13-13"/><path d="M12.4,10.6a1.3,1.3,0,1,1-1.3-1.3,1.3,1.3,0,0,1,1.3,1.3"/><path d="M20.3,10.6a1.3,1.3,0,1,1-1.3-1.3,1.3,1.3,0,0,1,1.3,1.3"/><path d="M15,21.9c-3.7,0-6.7-2.2-6.9-5a.8.8,0,1,1,1.5-.1c.2,2.1,2.5,3.7,5.4,3.7s5.2-1.6,5.4-3.7a.7.7,0,0,1,.8-.7.7.7,0,0,1,.7.8C21.6,19.8,18.7,21.9,15,21.9Z"/></svg>