<svg id="레이어_2" data-name="레이어 2" xmlns="http://www.w3.org/2000/svg" width="30" height="30" viewBox="0 0 30 30"><title>대지 1</title><path d="M27.9,14.4l-.4-.4-2-1.5h-.2l-1.9-1h0a19.4,19.4,0,0,0-3.1-1.2l-1.2-.3h-.2l-1.1-.2H12.4l-1,.2h-.3l-1.2.3H9.8a19.5,19.5,0,0,0-4.7,2l-.5.3A21.6,21.6,0,0,0,2,14.5a2.6,2.6,0,0,0,0,3.6l1.6,1.6h0l.3.3.4.3a2.7,2.7,0,0,0,2.5.3h.3l1.7-1,2.1-1.1a1.1,1.1,0,0,0,.6-1V15.3a13.7,13.7,0,0,1,3.3-.4H15l2.1.2,1.3.3v2.2a1.2,1.2,0,0,0,.2.6l.4.4h.1l3,1.5.8.5h.3l1,.2a2.7,2.7,0,0,0,1.9-.8L28,18.1a2.6,2.6,0,0,0,.8-1.9A2.6,2.6,0,0,0,27.9,14.4Zm-1,2.7L25,19a1.2,1.2,0,0,1-1.3.3l-.9-.5-2.9-1.5V14.1l-.5-.2-2.1-.5-2.2-.2H15a15.1,15.1,0,0,0-4.4.6l-.5.2v3.1l-2,1-1.8,1H6.3a1.2,1.2,0,0,1-1.1-.1H5l-2-2a1.1,1.1,0,0,1,0-1.5,20.5,20.5,0,0,1,2.4-1.9l.3-.2a18,18,0,0,1,4.4-1.9h.1l1.1-.3h.3l.9-.2h4.9l1,.2h.2l1.2.3a17.9,17.9,0,0,1,4.4,1.9h.3l1.9,1.5.5.4a1.1,1.1,0,0,1,0,1.6Z"/></svg>