<svg id="레이어_2" data-name="레이어 2" xmlns="http://www.w3.org/2000/svg" width="30" height="30" viewBox="0 0 30 30"><title>대지 1</title><polygon points="23.9 29.6 20.6 26.3 23.9 23 24.9 24.1 22.7 26.3 24.9 28.5 23.9 29.6"/><rect x="21.7" y="25.5" width="8.4" height="1.5"/><circle cx="14.2" cy="5.5" r="0.7"/><path d="M14.2,18h0a3,3,0,0,1,0-6.1h0a3.1,3.1,0,0,1,3,3.1h0A3.1,3.1,0,0,1,14.2,18Zm0-4.6a1.5,1.5,0,1,0,0,3.1h0a1.5,1.5,0,0,0,0-3.1Z"/><path d="M10.4,22.5H8.9V21.1c0-1.3,1.1-3.8,5.3-3.8v1.5c-3,0-3.8,1.5-3.8,2.3Z"/><path d="M18,23.2V21.1c0-.1,0-2.3-3.8-2.3V17.3c4.2,0,5.3,2.5,5.3,3.8v2.1Z"/><path d="M19.3,23.3H4.5a1.7,1.7,0,0,1-1.7-1.6V9.9A1.7,1.7,0,0,1,4.5,8.3H23.9a1.7,1.7,0,0,1,1.7,1.6v10H24.1V9.9H4.3V21.7H19.3Z"/><path d="M19.3,27H1.6A1.6,1.6,0,0,1,0,25.4V3.3A1.6,1.6,0,0,1,1.6,1.6H26.7a1.6,1.6,0,0,1,1.6,1.6V19.9H26.9V3.3H1.5V25.4H19.3Z"/></svg>