<svg id="레이어_2" data-name="레이어 2" xmlns="http://www.w3.org/2000/svg" width="30" height="30" viewBox="0 0 30 30"><defs><style>.cls-1{fill:#010101;}</style></defs><title>대지 1</title><polygon class="cls-1" points="26.7 8 19.4 8 19.4 0.7 20.9 0.7 20.9 6.5 26.7 6.5 26.7 8"/><path class="cls-1" d="M25.7,29.3H5.7a1.8,1.8,0,0,1-1.7-1.7V1.8A1.8,1.8,0,0,1,5.7.1H20.4l7,7V27.6A1.8,1.8,0,0,1,25.7,29.3ZM5.7,1.6a.3.3,0,0,0-.2.3V27.6a.3.3,0,0,0,.3.3h20a.3.3,0,0,0,.3-.2V7.7L19.8,1.6Z"/><path d="M8.5,17.2c.1.8.8,1.1,1.7,1.1l1.6-.2.2,1.2a5.8,5.8,0,0,1-2.1.4,2.8,2.8,0,0,1-3.2-3,3,3,0,0,1,3-3.2c1.9,0,2.6,1.5,2.6,3a4.4,4.4,0,0,1-.1.7Zm2.2-1.3a1.1,1.1,0,0,0-1-1.2,1.2,1.2,0,0,0-1.1,1.2Z"/><path d="M14.8,13.6l.6,1,.5.9h0l.5-.9.5-1h2l-1.9,2.8,2,3.1H16.8l-.6-1.1-.5-.9h0l-.4.9-.6,1.1h-2l2-3-2-2.9Z"/><path d="M20.8,17.2c.1.8.8,1.1,1.7,1.1l1.6-.2.2,1.2a5.8,5.8,0,0,1-2.1.4,2.8,2.8,0,0,1-3.2-3,3,3,0,0,1,3-3.2c1.9,0,2.6,1.5,2.6,3a4.5,4.5,0,0,1-.1.7ZM23,15.9a1.1,1.1,0,0,0-1-1.2,1.2,1.2,0,0,0-1.1,1.2Z"/></svg>