<svg id="레이어_2" data-name="레이어 2" xmlns="http://www.w3.org/2000/svg" width="30" height="30" viewBox="0 0 30 30"><title>대지 1</title><path d="M28.2,29.1h-8a.8.8,0,0,1-.7-.7V21.2H10.5v7.2a.8.8,0,0,1-.8.8h-8a.8.8,0,0,1-.7-.7V12.2a.7.7,0,0,1,.3-.6L14.5,1a.7.7,0,0,1,.9,0L28.7,11.6a.8.8,0,0,1,.3.6V28.4A.8.8,0,0,1,28.2,29.1ZM21,27.6h6.5V12.5L14.9,2.6,2.5,12.5V27.6H9V20.5a.8.8,0,0,1,.8-.7H20.3a.8.8,0,0,1,.8.8Z"/><rect x="8.9" y="10.7" width="2.9" height="2.87"/><rect x="13.6" y="10.7" width="2.9" height="2.87"/><rect x="18.2" y="10.7" width="2.9" height="2.87"/><rect x="8.9" y="15" width="2.9" height="2.87"/><rect x="13.6" y="15" width="2.9" height="2.87"/><rect x="18.2" y="15" width="2.9" height="2.87"/></svg>