<svg id="레이어_2" data-name="레이어 2" xmlns="http://www.w3.org/2000/svg" width="30" height="30" viewBox="0 0 30 30"><title>대지 1</title><path d="M27.4,26.5H2.6A1.8,1.8,0,0,1,.9,24.7V5.3A1.8,1.8,0,0,1,2.6,3.5H27.4a1.8,1.8,0,0,1,1.8,1.8V24.7A1.8,1.8,0,0,1,27.4,26.5ZM2.6,5a.3.3,0,0,0-.2.3V24.7a.3.3,0,0,0,.3.3H27.4a.3.3,0,0,0,.3-.2V5.3a.3.3,0,0,0-.2-.2Z"/><polygon points="26.2 12.6 24.7 12.6 24.7 8.1 20.1 8.1 20.1 6.6 26.2 6.6 26.2 12.6"/><polygon points="9.9 23.5 3.8 23.5 3.8 17.5 5.3 17.5 5.3 22 9.9 22 9.9 23.5"/></svg>