<svg id="레이어_2" data-name="레이어 2" xmlns="http://www.w3.org/2000/svg" width="30" height="30" viewBox="0 0 30 30"><title>대지 1</title><path d="M26.1,23.9H3.9a1.8,1.8,0,0,1-1.7-1.7V7.3A1.8,1.8,0,0,1,3.9,5.6H26.1a1.8,1.8,0,0,1,1.8,1.8V22.1A1.8,1.8,0,0,1,26.1,23.9ZM3.9,7.1a.3.3,0,0,0-.2.3V22.1a.3.3,0,0,0,.3.3H26.1a.3.3,0,0,0,.3-.2V7.3a.3.3,0,0,0-.2-.2Z"/><path d="M5.8,15.5H1.5a.8.8,0,0,1,0-1.5H5.8a.8.8,0,0,1,0,1.5Z"/><path d="M13.4,15.5H9.1a.8.8,0,0,1,0-1.5h4.3a.8.8,0,0,1,0,1.5Z"/><path d="M21,15.5H16.6a.8.8,0,1,1,0-1.5H21a.7.7,0,0,1,0,1.5Z"/><path d="M28.5,15.5H24.2a.8.8,0,0,1,0-1.5h4.3a.7.7,0,0,1,0,1.5Z"/></svg>