<svg id="레이어_2" data-name="레이어 2" xmlns="http://www.w3.org/2000/svg" width="30" height="30" viewBox="0 0 30 30"><title>대지 1</title><path d="M26.1,24H3.9a1.8,1.8,0,0,1-1.7-1.7V7.4A1.8,1.8,0,0,1,3.9,5.7H26.1a1.8,1.8,0,0,1,1.8,1.8V22.3A1.8,1.8,0,0,1,26.1,24ZM3.9,7.2a.3.3,0,0,0-.2.3V22.3a.3.3,0,0,0,.3.3H26.1a.3.3,0,0,0,.3-.2V7.4a.3.3,0,0,0-.2-.2Z"/><path d="M15,26.3a.8.8,0,0,1-.7-.7V22.1a.8.8,0,0,1,1.5,0v3.4A.8.8,0,0,1,15,26.3Z"/><path d="M15,20.3a.8.8,0,0,1-.7-.7V16.1a.8.8,0,0,1,1.5,0v3.4A.8.8,0,0,1,15,20.3Z"/><path d="M15,14.3a.8.8,0,0,1-.7-.7V10.1a.8.8,0,0,1,1.5,0v3.4A.8.8,0,0,1,15,14.3Z"/><path d="M15,8.3a.8.8,0,0,1-.7-.7V4.1a.8.8,0,0,1,1.5,0V7.6A.8.8,0,0,1,15,8.3Z"/></svg>