<svg id="레이어_2" data-name="레이어 2" xmlns="http://www.w3.org/2000/svg" width="30" height="30" viewBox="0 0 30 30"><title>대지 1</title><polygon points="25.7 29.9 24.6 28.8 27.1 26.3 24.6 23.7 25.7 22.7 29.2 26.3 25.7 29.9"/><rect x="18.8" y="25.5" width="9.4" height="1.5"/><path d="M14.4,27.2H2A1.8,1.8,0,0,1,.3,25.4V6.9a.7.7,0,0,1,.4-.7L14.5.1h.6L28.8,6.2a.7.7,0,0,1,.4.7V18.1a.8.8,0,0,1-1.5,0V7.4L14.8,1.6,1.8,7.4v18a.3.3,0,0,0,.3.3H14.4a.8.8,0,0,1,0,1.5Z"/><path d="M14.8,13.6H7.9L.6,9.5a.8.8,0,0,1,.7-1.3l7.1,4h6.3a.8.8,0,0,1,0,1.5Z"/><path d="M21.2,13.6H14.6a.8.8,0,0,1,0-1.5H21l7.1-4a.8.8,0,0,1,.7,1.3l-7.3,4.1Z"/></svg>