<svg id="레이어_2" data-name="레이어 2" xmlns="http://www.w3.org/2000/svg" width="30" height="30" viewBox="0 0 30 30"><title>대지 1</title><polygon points="26.6 9.4 25.1 9.4 25.1 4.6 20.4 4.6 20.4 3.1 26.6 3.1 26.6 9.4"/><rect x="17.9" y="6.4" width="9.4" height="1.5" transform="translate(1.5 18.1) rotate(-45)"/><polygon points="9.7 26.9 3.5 26.9 3.5 20.6 5 20.6 5 25.4 9.7 25.4 9.7 26.9"/><rect x="2.8" y="22.1" width="9.4" height="1.5" transform="translate(-13.9 12) rotate(-45)"/><polygon points="26.7 26.9 20.4 26.9 20.4 25.4 25.2 25.4 25.2 20.7 26.7 20.7 26.7 26.9"/><rect x="21.8" y="18.1" width="1.5" height="9.41" transform="translate(-9.5 22.7) rotate(-45)"/><polygon points="5 9.4 3.5 9.4 3.5 3.1 9.9 3.2 9.9 4.7 5 4.7 5 9.4"/><rect x="6.9" y="2.5" width="1.5" height="9.41" transform="translate(-2.9 7.5) rotate(-45)"/></svg>