<svg id="레이어_2" data-name="레이어 2" xmlns="http://www.w3.org/2000/svg" width="30" height="30" viewBox="0 0 30 30"><defs><style>.cls-1{fill:#070707;}</style></defs><title>대지 1</title><path class="cls-1" d="M22.8,22.7H7.5a1.3,1.3,0,0,1-1.3-1.3V8.6A1.3,1.3,0,0,1,7.5,7.3H22.8a1.3,1.3,0,0,1,1.3,1.3V21.4A1.3,1.3,0,0,1,22.8,22.7ZM7.7,21.2H22.6V8.8H7.7Z"/><path class="cls-1" d="M27,19.7a.8.8,0,0,1-.7-.7V10.8a.8.8,0,1,1,1.5,0V19A.8.8,0,0,1,27,19.7Z"/><path class="cls-1" d="M3,19.7a.8.8,0,0,1-.7-.7V10.8a.8.8,0,0,1,1.5,0V19A.8.8,0,0,1,3,19.7Z"/></svg>