<svg id="레이어_2" data-name="레이어 2" xmlns="http://www.w3.org/2000/svg" width="30" height="30" viewBox="0 0 30 30"><defs><style>.cls-1{fill:#010101;}</style></defs><title>대지 1</title><path class="cls-1" d="M14.9,22.6c6.8,0,10.4,1.8,10.7,2.5s-3.9,2.5-10.7,2.5S4.5,25.8,4.2,25.1s3.9-2.5,10.7-2.5m0-1.5c-6.7,0-12.2,1.8-12.2,4s5.5,4,12.2,4,12.2-1.8,12.2-4-5.5-4-12.2-4Z"/><path class="cls-1" d="M14.9,25a.8.8,0,0,1-.7-.7V14a.8.8,0,0,1,1.5,0V24.2A.8.8,0,0,1,14.9,25Z"/><path d="M14.9,3A5.1,5.1,0,1,1,9.8,8.1,5.1,5.1,0,0,1,14.9,3m0-1.5a6.6,6.6,0,1,0,6.6,6.6,6.6,6.6,0,0,0-6.6-6.6Z"/></svg>