<svg id="레이어_2" data-name="레이어 2" xmlns="http://www.w3.org/2000/svg" width="30" height="30" viewBox="0 0 30 30"><defs><style>.cls-1{fill:#010101;}</style></defs><title>대지 1</title><path class="cls-1" d="M25.2,29.6H5.2a1.8,1.8,0,0,1-1.7-1.7V2.1A1.8,1.8,0,0,1,5.2.4H19.9l7,7V27.9A1.8,1.8,0,0,1,25.2,29.6ZM5.2,1.9a.3.3,0,0,0-.2.3V27.9a.3.3,0,0,0,.3.3h20a.3.3,0,0,0,.3-.2V8L19.3,1.9Z"/><polygon class="cls-1" points="26.2 8.5 18.8 8.5 18.8 1.1 20.3 1.1 20.3 7 26.2 7 26.2 8.5"/><path d="M15,10.2a6.5,6.5,0,0,1,2,1.6S16.1,9,14.3,9s-1.4.9-1.4.9A4.1,4.1,0,0,1,15,10.2Z"/><path d="M16.9,12.4v-.2c-1.5-1.5-4.8-2.2-6.5-1.4a1,1,0,0,0,.8,1.8,4.4,4.4,0,0,1,2.6.1,5,5,0,0,0-2,1.3,3.1,3.1,0,0,0-.6,3.1,3.1,3.1,0,0,0,2.8,1.9H14a3.9,3.9,0,0,0,3.3-1.8,4,4,0,0,0,.5-2.4h.1a1,1,0,1,0,1.6-1.2A3.9,3.9,0,0,0,16.9,12.4Zm-1.3,3.8a2,2,0,0,1-1.7.8,1.2,1.2,0,0,1-.9-.5,1.1,1.1,0,0,1,.2-1.2,3.9,3.9,0,0,1,2.5-1A2.9,2.9,0,0,1,15.6,16.3Z"/><circle cx="14.6" cy="21" r="1"/></svg>