<svg id="레이어_2" data-name="레이어 2" xmlns="http://www.w3.org/2000/svg" width="30" height="30" viewBox="0 0 30 30"><defs><style>.cls-1{fill:#010101;}</style></defs><title>대지 1</title><polygon class="cls-1" points="26.7 8.5 19.4 8.5 19.4 1.1 20.9 1.1 20.9 7 26.7 7 26.7 8.5"/><path class="cls-1" d="M25.7,29.8H5.7A1.8,1.8,0,0,1,3.9,28V2.3A1.8,1.8,0,0,1,5.7.5H20.4l7,7V28A1.8,1.8,0,0,1,25.7,29.8ZM5.7,2a.3.3,0,0,0-.2.3V28a.3.3,0,0,0,.3.3h20a.3.3,0,0,0,.3-.2V8.2L19.8,2Z"/><path d="M6.6,12.9H8.2v2.8h0l.6-.5.8-.2c1,0,1.7.7,1.7,2.1V20H9.8V17.3c0-.6-.2-1.1-.8-1.1a.8.8,0,0,0-.8.5,1,1,0,0,0,0,.3V20H6.6Z"/><path d="M13.6,13.7v1.4h1.1v1.1H13.6V18c0,.6.1.9.6.9h.5v1.1h-1a1.6,1.6,0,0,1-1.1-.4,2,2,0,0,1-.4-1.4v-2h-.6V15.1h.6V14Z"/><path d="M15.1,16.6c0-.6,0-1.1,0-1.6h1.3v.7h0a1.7,1.7,0,0,1,1.5-.8,1.4,1.4,0,0,1,1.3.8h0l.6-.6.9-.2c.9,0,1.6.7,1.6,2.1V20H21V17.3c0-.7-.2-1.1-.7-1.1a.7.7,0,0,0-.7.5,1.3,1.3,0,0,0-.1.4V20H18.1V17.2c0-.6-.2-1-.7-1a.8.8,0,0,0-.7.5,1,1,0,0,0-.1.4V20H15.1Z"/><path d="M23.2,12.9h1.5V20H23.2Z"/></svg>