<svg id="레이어_2" data-name="레이어 2" xmlns="http://www.w3.org/2000/svg" width="30" height="30" viewBox="0 0 30 30"><title>대지 1</title><path d="M26.4,27.5H3.8a1.7,1.7,0,0,1-1.7-1.7V3.2A1.7,1.7,0,0,1,3.8,1.5H26.4a1.7,1.7,0,0,1,1.7,1.7V25.8A1.7,1.7,0,0,1,26.4,27.5ZM3.8,3a.2.2,0,0,0-.2.2V25.8a.2.2,0,0,0,.2.2H26.4a.2.2,0,0,0,.2-.2V3.2a.2.2,0,0,0-.2-.2Z"/><path d="M10.2,13.5a3.3,3.3,0,1,1,3.3-3.3A3.3,3.3,0,0,1,10.2,13.5Zm0-5a1.8,1.8,0,1,0,1.8,1.8A1.8,1.8,0,0,0,10.2,8.5Z"/><path d="M8.6,27.1,7.6,26,19.3,14.4a3,3,0,0,1,4-.2l4.5,3.6L26.7,19l-4.5-3.6a1.5,1.5,0,0,0-2,.1Z"/><path d="M3.4,22.5l-1-1.1,4.9-4.3a3.1,3.1,0,0,1,4,0L14.6,20l-1,1.1-3.3-2.9a1.6,1.6,0,0,0-2,0Z"/></svg>