<svg id="레이어_2" data-name="레이어 2" xmlns="http://www.w3.org/2000/svg" width="30" height="30" viewBox="0 0 30 30"><title>대지 1</title><polygon points="21.4 25.9 17.8 22.3 21.4 18.7 22.5 19.7 20 22.3 22.5 24.8 21.4 25.9"/><rect x="18.9" y="21.5" width="9.4" height="1.5"/><path d="M14.9,12.9h-.4L.7,5.5l.7-1.3,13.5,7.1L28.3,4.2,29,5.5,15.3,12.8Z"/><path d="M14.6,23.2H2.1A1.8,1.8,0,0,1,.4,21.4V2.9A1.8,1.8,0,0,1,2.1,1.2H27.6a1.8,1.8,0,0,1,1.8,1.7V14.1a.8.8,0,0,1-1.5,0V2.9a.3.3,0,0,0-.2-.2H2.1a.3.3,0,0,0-.3.3V21.4a.3.3,0,0,0,.3.3H14.6a.8.8,0,0,1,0,1.5Z"/></svg>