<svg xmlns="http://www.w3.org/2000/svg" xmlns:xlink="http://www.w3.org/1999/xlink" viewBox="0 0 30 30">
  <defs>
    <style>
      .cls-1, .cls-4 {
        fill: none;
      }

      .cls-2 {
        clip-path: url(#clip-사용자_정의_크기_1);
      }

      .cls-3 {
        clip-path: url(#clip-path);
      }

      .cls-4 {
        stroke: #000;
        stroke-width: 1.5px;
      }

      .cls-5 {
        fill: #fff;
      }
    </style>
    <clipPath id="clip-path">
      <path id="Path_4" data-name="Path 4" class="cls-1" d="M0-27.343H27.351V0H0Z"/>
    </clipPath>
    <clipPath id="clip-사용자_정의_크기_1">
      <rect width="30" height="30"/>
    </clipPath>
  </defs>
  <g id="사용자_정의_크기_1" data-name="사용자 정의 크기 – 1" class="cls-2">
    <rect class="cls-5" width="30" height="30"/>
    <rect id="Rectangle_1" data-name="Rectangle 1" class="cls-1" width="30" height="30"/>
    <g id="Group_5" data-name="Group 5" transform="translate(1.3 28.643)">
      <g id="Group_4" data-name="Group 4" class="cls-3">
        <g id="Group_1" data-name="Group 1" transform="translate(26.601 -6.773)">
          <path id="Path_1" data-name="Path 1" class="cls-4" d="M0,0A2.44,2.44,0,0,0-.053-.484a2.586,2.586,0,0,0-1.509-1.9l-.1-.049a.531.531,0,0,0-.106-.037c-.726-.152-1.685-.425-2.6-.707-1.559-.478-3.006-.984-3.028-.992a.506.506,0,0,0-.521.119l-2.607,2.61a19.07,19.07,0,0,1-4.495-3.344l0,0a18.852,18.852,0,0,1-1.907-2.225,18.84,18.84,0,0,1-1.438-2.273l2.6-2.607a.545.545,0,0,0,.135-.245.461.461,0,0,0-.016-.277c-.011-.027-.851-2.439-1.388-4.391-.125-.449-.231-.873-.311-1.238v0a.4.4,0,0,0-.037-.107l-.043-.09a2.615,2.615,0,0,0-2.4-1.574h-3.584a2.421,2.421,0,0,0-1.748.734,2.439,2.439,0,0,0-.684,1.772c0,.021.008.187.022.449,0,.041.007.1.011.146,0,.08.008.155.016.248a26.691,26.691,0,0,0,.443,3.336c0,.01,0,.02,0,.031,0,.03.016.057.02.086.012.059.024.116.037.172l.025.129a.425.425,0,0,0,.055.127,24.815,24.815,0,0,0,2.477,6.158c.013.02.027.043.041.067.263.453.533.9.822,1.344.043.062.092.126.135.189.267.4.539.787.828,1.166.09.119.187.23.281.352.256.32.51.644.781.957.145.162.3.316.449.478.231.254.459.512.7.754v0c.146.146.305.279.453.426.263.248.519.5.791.734.248.217.508.416.765.623.184.147.358.3.545.442.336.255.686.494,1.032.73.111.074.218.156.328.229.416.273.845.531,1.275.779.045.025.09.058.135.082A24.783,24.783,0,0,0-7.209,5.4a.388.388,0,0,0,.105.049c.1.022.207.041.309.063.024.008.049.015.074.021a.466.466,0,0,0,.049.006,28.152,28.152,0,0,0,4.162.486h.078A2.391,2.391,0,0,0-.744,5.338,2.411,2.411,0,0,0-.008,3.59V.006C0,0,0,0,0,0Z"/>
        </g>
        <g id="Group_2" data-name="Group 2" transform="translate(26.638 -19.381)">
          <path id="Path_2" data-name="Path 2" class="cls-4" d="M0,0H-10.879"/>
        </g>
        <g id="Group_3" data-name="Group 3" transform="translate(19.743 -23.322)">
          <path id="Path_3" data-name="Path 3" class="cls-4" d="M0,0-3.94,3.941,0,7.885"/>
        </g>
      </g>
    </g>
  </g>
</svg>
