<svg id="레이어_2" data-name="레이어 2" xmlns="http://www.w3.org/2000/svg" width="30" height="30" viewBox="0 0 30 30"><title>대지 1</title><path d="M15,24.4C9.4,24.4,4.2,21,1.4,15.5L1.2,15l.3-.5C4.2,9,9.4,5.6,15,5.6S25.8,9,28.6,14.5l.3.5-.3.5C25.8,21,20.6,24.4,15,24.4ZM2.8,15C5.4,19.9,10,22.9,15,22.9s9.6-3,12.2-7.9C24.6,10.1,20,7.1,15,7.1S5.4,10.1,2.8,15Z"/><path d="M15,20.6A5.6,5.6,0,1,1,20.6,15,5.6,5.6,0,0,1,15,20.6Zm0-9.6A4.1,4.1,0,1,0,19.1,15,4.1,4.1,0,0,0,15,10.9Z"/><circle cx="15" cy="12.3" r="0.4"/><circle cx="17.7" cy="15" r="0.4"/><circle cx="15" cy="17.7" r="0.4"/><circle cx="12.3" cy="15" r="0.4"/><circle cx="16.9" cy="13.1" r="0.4" transform="translate(-4.3 15.8) rotate(-45)"/><circle cx="16.9" cy="16.9" r="0.4" transform="translate(-7 16.9) rotate(-45.1)"/><circle cx="13.1" cy="16.9" r="0.4" transform="translate(-8.1 14.2) rotate(-44.9)"/><circle cx="13.1" cy="13.1" r="0.4" transform="translate(-5.4 13.1) rotate(-45.1)"/><path d="M15,16.4A1.3,1.3,0,1,1,16.3,15,1.4,1.4,0,0,1,15,16.4Zm0-1.7a.3.3,0,0,0-.3.3.4.4,0,0,0,.3.4.3.3,0,0,0,0-.7Z"/></svg>