<svg id="레이어_2" data-name="레이어 2" xmlns="http://www.w3.org/2000/svg" width="30" height="30" viewBox="0 0 30 30"><title>대지 1</title><path d="M2,28.8l-.5-.2a.7.7,0,0,1,0-1.1L13.7,15.3a.7.7,0,0,1,1.1,1.1L2.5,28.5Z"/><path d="M20.5,10.3l-.5-.2a.7.7,0,0,1,0-1.1l4.2-4.2a.7.7,0,1,1,1.1,1.1L21,10.1Z"/><path d="M24.7,22.1l-.5-.2L20,17.7a.7.7,0,1,1,1.1-1.1l4.2,4.2a.7.7,0,0,1,0,1.1Z"/><path d="M28,14.1H22.1a.8.8,0,0,1,0-1.5H28a.7.7,0,0,1,0,1.5Z"/><path d="M12.8,10.2l-.5-.2L8.1,5.8A.7.7,0,0,1,9.1,4.7l4.2,4.2a.7.7,0,0,1,0,1.1Z"/><path d="M16.6,8.7h0a.7.7,0,0,1-.8-.7V2a.8.8,0,0,1,.8-.8h0a.7.7,0,0,1,.8.8V7.9A.8.8,0,0,1,16.6,8.7Z"/></svg>