<svg id="레이어_2" data-name="레이어 2" xmlns="http://www.w3.org/2000/svg" width="30" height="30" viewBox="0 0 30 30"><title>대지 1</title><path d="M2.2,25.1A1.3,1.3,0,0,1,.9,23.8V8.8A1.3,1.3,0,0,1,2.2,7.5H8.5a.8.8,0,0,1,0,1.5H2.4V23.6H27.6V8.9H21.5a.8.8,0,0,1,0-1.5h6.2a1.3,1.3,0,0,1,1.3,1.3v15a1.3,1.3,0,0,1-1.3,1.3Z"/><path d="M11.5,19.7H7.4V12.8H8.9v5.6h2.5Z"/><path d="M16.3,14.1H13.8v1.7h2.2v1.3H13.8v2.7H12.3V12.8h4Z"/><path d="M17.3,19.7V12.8h2.4q3.7,0,3.7,3.4a3.4,3.4,0,0,1-1,2.6,3.7,3.7,0,0,1-2.7,1Zm1.5-5.6v4.4h.8a2.1,2.1,0,0,0,1.6-.6,2.3,2.3,0,0,0,.6-1.6,2.1,2.1,0,0,0-.6-1.5,2.2,2.2,0,0,0-1.6-.6Z"/><polygon points="17.8 5 15.2 2.5 12.7 5 11.6 4 15.2 0.4 18.8 4 17.8 5"/><rect x="14.5" y="1.4" width="1.5" height="8.52"/><path d="M23.5,28.6H6.5a.8.8,0,0,1,0-1.5h17a.8.8,0,0,1,0,1.5Z"/><rect x="14.2" y="24.2" width="1.5" height="3.62"/></svg>