<svg id="레이어_2" data-name="레이어 2" xmlns="http://www.w3.org/2000/svg" width="30" height="30" viewBox="0 0 30 30"><title>대지 1</title><path d="M11.8,10.8A1.2,1.2,0,1,1,10.7,12a1.2,1.2,0,0,1,1.2-1.2m0-1.5A2.7,2.7,0,1,0,14.5,12a2.7,2.7,0,0,0-2.7-2.7Z"/><path d="M5.1,17.6a1.2,1.2,0,1,1-1.2,1.2,1.2,1.2,0,0,1,1.2-1.2m0-1.5a2.7,2.7,0,1,0,2.7,2.7,2.7,2.7,0,0,0-2.7-2.7Z"/><path d="M24.9,10.1a1.2,1.2,0,1,1-1.2,1.2,1.2,1.2,0,0,1,1.2-1.2m0-1.5a2.7,2.7,0,1,0,2.7,2.7,2.7,2.7,0,0,0-2.7-2.7Z"/><path d="M9.5,13.2,6.3,16.4a2.6,2.6,0,0,1,1.1,1.1l3.2-3.2A2.7,2.7,0,0,1,9.5,13.2Z"/><path d="M16.8,15.7l-2.6-2.5a2.7,2.7,0,0,1-1,1.1l2.6,2.5A2.7,2.7,0,0,1,16.8,15.7Z"/><path d="M22.6,12.5l-3.1,3.2a2.7,2.7,0,0,1,1.1,1.1l3.2-3.2A2.6,2.6,0,0,1,22.6,12.5Z"/><path d="M18.2,16.9A1.2,1.2,0,1,1,17,18a1.2,1.2,0,0,1,1.2-1.2m0-1.5A2.7,2.7,0,1,0,20.8,18a2.7,2.7,0,0,0-2.7-2.7Z"/></svg>