<svg id="레이어_2" data-name="레이어 2" xmlns="http://www.w3.org/2000/svg" width="30" height="30" viewBox="0 0 30 30"><title>대지 1</title><path d="M15.2,5.1a1.7,1.7,0,1,1-1.7,1.7,1.7,1.7,0,0,1,1.7-1.7m0-1.5a3.2,3.2,0,1,0,3.2,3.2,3.2,3.2,0,0,0-3.2-3.2Z"/><path d="M29.9,28.1,26,18.4a3.2,3.2,0,0,0-2.7-1.9H18.8l-1,1.5h5.5a1.7,1.7,0,0,1,1.3.9l3.8,9.5H2L5.8,19a1.7,1.7,0,0,1,1.3-.9h5.6l-1-1.5H7.1a3.2,3.2,0,0,0-2.7,1.9L.6,28.1A1.3,1.3,0,0,0,1.8,30H28.6A1.3,1.3,0,0,0,29.9,28.1Z"/><path d="M15.2,1.5a6.2,6.2,0,0,1,5.3,9.6l-.5.8-4.8,7.4-5.1-7.7-.2-.4a6.2,6.2,0,0,1,5.3-9.6m0-1.5A7.7,7.7,0,0,0,8.7,11.9h0v.2h0L15.2,22h0l6.5-10h0A7.7,7.7,0,0,0,15.2,0Z"/></svg>