<svg id="레이어_2" data-name="레이어 2" xmlns="http://www.w3.org/2000/svg" width="30" height="30" viewBox="0 0 30 30"><title>대지 1</title><path d="M15,19.8a5.7,5.7,0,0,1-5.8-5.6V7A5.7,5.7,0,0,1,15,1.4,5.7,5.7,0,0,1,20.8,7v7.2A5.7,5.7,0,0,1,15,19.8ZM15,2.9A4.2,4.2,0,0,0,10.7,7v7.2A4.2,4.2,0,0,0,15,18.3a4.2,4.2,0,0,0,4.3-4.1V7A4.2,4.2,0,0,0,15,2.9Z"/><rect x="10.5" y="27.1" width="9" height="1.5"/><rect x="14.3" y="23" width="1.5" height="4.83"/><path d="M15,23.8c-5.4,0-9.2-3.3-9.2-8.1H7.3c0,4.5,3.9,6.6,7.7,6.6s7.7-2,7.7-6.6h1.5C24.2,20.5,20.4,23.8,15,23.8Z"/></svg>