<svg id="레이어_2" data-name="레이어 2" xmlns="http://www.w3.org/2000/svg" width="30" height="30" viewBox="0 0 30 30"><title>대지 1</title><polygon points="10.7 16.3 9.6 15.2 22.3 2.5 27 7.3 26 8.3 22.3 4.7 10.7 16.3"/><path d="M26.5,8.9,21.2,3.6l3-3a1.6,1.6,0,0,1,2.3,0l2.9,2.9a1.6,1.6,0,0,1,0,2.3ZM23.4,3.6l3.1,3.1,2-2a.1.1,0,0,0,0-.2L25.5,1.6h-.2Z"/><path d="M24.1,29.9H1.5A1.7,1.7,0,0,1-.2,28.2V5.6A1.7,1.7,0,0,1,1.5,3.8H17.4a.8.8,0,0,1,0,1.5H1.5a.2.2,0,0,0-.2.2V28.2a.2.2,0,0,0,.2.2H24.1a.2.2,0,0,0,.2-.2V12.3a.8.8,0,0,1,1.5,0V28.2A1.7,1.7,0,0,1,24.1,29.9Z"/><polygon points="8 22.1 8.6 16.3 9.8 15.1 10.8 16.1 10 16.9 9.6 20.5 13.2 20.1 26 7.3 27 8.3 13.8 21.5 8 22.1"/></svg>