<svg id="레이어_2" data-name="레이어 2" xmlns="http://www.w3.org/2000/svg" width="30" height="30" viewBox="0 0 30 30"><title>대지 1</title><polygon points="18.2 6.5 14.8 3.1 11.5 6.4 10.4 5.3 14.8 1 19.2 5.4 18.2 6.5"/><rect x="14.1" y="2" width="1.5" height="9.29"/><polygon points="14.9 29 10.4 24.6 11.5 23.5 14.9 26.9 18.2 23.6 19.2 24.7 14.9 29"/><rect x="14.1" y="18.7" width="1.5" height="9.29"/><polygon points="24.6 19.3 23.6 18.3 26.9 14.9 23.6 11.6 24.7 10.5 29.1 14.9 24.6 19.3"/><rect x="18.7" y="14.2" width="9.3" height="1.5"/><polygon points="5.3 19.3 0.9 15 5.3 10.5 6.4 11.6 3 15 6.3 18.3 5.3 19.3"/><rect x="2" y="14.2" width="9.3" height="1.5"/></svg>