<svg id="레이어_2" data-name="레이어 2" xmlns="http://www.w3.org/2000/svg" width="30" height="30" viewBox="0 0 30 30"><title>대지 1</title><path d="M22.9,5.1a7,7,0,0,0-4.7-2.2.8.8,0,0,0-.7.8V17.5a4.8,4.8,0,0,0-2.6-1,7.2,7.2,0,0,0-4.4,1.1C7.5,19.4,6.2,22.7,7.7,25a4.5,4.5,0,0,0,3.5,2h.6a7.4,7.4,0,0,0,3.9-1.2,7.2,7.2,0,0,0,3-3.5,5,5,0,0,0,.3-2.3h0V6.2a3.5,3.5,0,0,1,2.3.7c1.1.9,1.7,2.6,1.8,5a.7.7,0,0,0,.7.7h0a.7.7,0,0,0,.7-.7C24.5,11.7,25,7.3,22.9,5.1ZM17.2,21.9a5.7,5.7,0,0,1-2.4,2.7,5.7,5.7,0,0,1-3.5.9,3,3,0,0,1-2.4-1.3c-1-1.6,0-4.1,2.3-5.4a5.9,5.9,0,0,1,3.1-.9h.4a3,3,0,0,1,2.4,1.3A3,3,0,0,1,17.2,21.9Z"/></svg>