<svg id="레이어_2" data-name="레이어 2" xmlns="http://www.w3.org/2000/svg" width="30" height="30" viewBox="0 0 30 30"><title>대지 1</title><rect x="25.2" y="10.1" width="1.5" height="10.19" transform="translate(-3.2 22.8) rotate(-45)"/><rect x="20.8" y="14.5" width="10.2" height="1.5" transform="translate(-3.2 22.8) rotate(-45)"/><path d="M19.8,29.6,4.4,20.5V10L19.8.9ZM5.9,19.6l12.3,7.3V3.5L5.9,10.9Z"/><path d="M4.6,20.8H1.3A1.3,1.3,0,0,1,0,19.4V11A1.3,1.3,0,0,1,1.3,9.7H4.6A1.3,1.3,0,0,1,5.9,11v8.4A1.3,1.3,0,0,1,4.6,20.8ZM1.5,19.3H4.4V11.2H1.5Z"/></svg>