<svg id="레이어_2" data-name="레이어 2" xmlns="http://www.w3.org/2000/svg" width="30" height="30" viewBox="0 0 30 30"><title>대지 1</title><path d="M23,1.7a1,1,0,0,1,1,1V26.6l-8.4-7-.6-.2-.6.2L6,26.6V2.7a1,1,0,0,1,1-1H23M23,.2H7A2.5,2.5,0,0,0,4.5,2.7V29.8l2.5-2L15,21l8.1,6.7,2.5,2V2.7A2.5,2.5,0,0,0,23,.2"/><path d="M15,15.1h-.2V10l-1.9,4.9H11.5L9.6,10v5.1H8.3V7.8a.4.4,0,0,1,0-.2H9.9l2.3,5.7,2.3-5.7.2-.2h1.3a.4.4,0,0,1,0,.3v7.2H15Z"/><path d="M19.6,15.3a2.3,2.3,0,0,1-.6,1,1.4,1.4,0,0,1-.9.3h-.9s0-.1,0-.1v-.8h1l.2-.4.2-.5L17,9.8c0-.1,0-.2,0-.2h1.3l1,3.1,1-3.1h1.3a.3.3,0,0,1,0,.2Z"/></svg>