<svg id="레이어_2" data-name="레이어 2" xmlns="http://www.w3.org/2000/svg" width="30" height="30" viewBox="0 0 30 30"><defs><style>.cls-1{fill:#010101;}</style></defs><title>대지 1</title><rect class="cls-1" x="19.1" y="24.5" width="9.7" height="1.5"/><rect class="cls-1" x="23.2" y="20.4" width="1.5" height="9.68"/><path class="cls-1" d="M15.3,26H2.7A1.8,1.8,0,0,1,1,24.3V6A1.8,1.8,0,0,1,2.7,4.2h8.7a2.5,2.5,0,0,1,2.3,1.4l1.5,2.2H27.8a1.8,1.8,0,0,1,1.8,1.8V19.6a.8.8,0,0,1-1.5,0V9.5a.3.3,0,0,0-.2-.2h-13a.7.7,0,0,1-.6-.3L12.5,6.4a1.1,1.1,0,0,0-1-.7H2.7a.3.3,0,0,0-.2.3V24.3a.3.3,0,0,0,.3.3H15.3a.8.8,0,0,1,0,1.5Z"/></svg>