<svg id="레이어_2" data-name="레이어 2" xmlns="http://www.w3.org/2000/svg" width="30" height="30" viewBox="0 0 30 30"><defs><style>.cls-1{fill:#010101;}</style></defs><title>대지 1</title><polygon class="cls-1" points="24.5 8.5 17.7 8.5 17.7 1.6 19.2 1.6 19.2 7 24.5 7 24.5 8.5"/><path class="cls-1" d="M15.6,28.1H5.1a1.7,1.7,0,0,1-1.7-1.7V2.5A1.7,1.7,0,0,1,5.1.8H18.7l6.5,6.5v11a.8.8,0,0,1-1.5,0V8L18.1,2.3H5.1l-.2.2V26.4l.2.2H15.6a.7.7,0,0,1,0,1.5Z"/><rect class="cls-1" x="19.1" y="24.9" width="8.7" height="1.5"/><rect class="cls-1" x="22.7" y="21.3" width="1.5" height="8.74"/></svg>