<svg id="레이어_2" data-name="레이어 2" xmlns="http://www.w3.org/2000/svg" width="30" height="30" viewBox="0 0 30 30"><title>대지 1</title><path d="M28.5,20.9H27.1V17.6a1.3,1.3,0,0,0-1.3-1.3H15.8V13.2h3.4a1.3,1.3,0,0,0,1.3-1.3V3.5a1.3,1.3,0,0,0-1.3-1.3H10.8A1.3,1.3,0,0,0,9.5,3.5v8.3a1.3,1.3,0,0,0,1.3,1.3h3.4v3.1H4.2a1.3,1.3,0,0,0-1.3,1.3v3.3H1.5A1.3,1.3,0,0,0,.2,22.3v4.2a1.3,1.3,0,0,0,1.3,1.3H5.7A1.3,1.3,0,0,0,7,26.4V22.3a1.3,1.3,0,0,0-1.3-1.3H4.4V17.8h9.9v3.2H12.9a1.3,1.3,0,0,0-1.3,1.3v4.2a1.3,1.3,0,0,0,1.3,1.3h4.2a1.3,1.3,0,0,0,1.3-1.3V22.3a1.3,1.3,0,0,0-1.3-1.3H15.8V17.8h9.9v3.2H24.3A1.3,1.3,0,0,0,23,22.3v4.2a1.3,1.3,0,0,0,1.3,1.3h4.2a1.3,1.3,0,0,0,1.3-1.3V22.3A1.3,1.3,0,0,0,28.5,20.9ZM11,3.7h8v8H11ZM5.5,26.3H1.7V22.4H5.5Zm11.4,0H13.1V22.4h3.8Zm11.4,0H24.5V22.4h3.8Z"/></svg>