<svg id="레이어_2" data-name="레이어 2" xmlns="http://www.w3.org/2000/svg" width="30" height="30" viewBox="0 0 30 30"><title>대지 1</title><path d="M24.2,29H5.8A1.8,1.8,0,0,1,4,27.2V2.8A1.8,1.8,0,0,1,5.8,1H24.2A1.8,1.8,0,0,1,26,2.8V27.2A1.8,1.8,0,0,1,24.2,29ZM5.8,2.5a.3.3,0,0,0-.2.3V27.2a.3.3,0,0,0,.3.3H24.2a.3.3,0,0,0,.3-.2V2.8a.3.3,0,0,0-.2-.2Z"/><rect x="4.8" y="6.4" width="20.4" height="1"/><rect x="9.4" y="12" width="10.9" height="1.5"/><rect x="9.4" y="16.4" width="10.9" height="1.5"/><rect x="9.4" y="20.7" width="6.1" height="1.5"/></svg>