<svg id="레이어_2" data-name="레이어 2" xmlns="http://www.w3.org/2000/svg" width="30" height="30" viewBox="0 0 30 30"><title>대지 1</title><path d="M5.9,17.1H5.5a.6.6,0,0,1-.2-.8l.5-.8-.8-.2a.6.6,0,0,1-.5-.6h0a.6.6,0,0,1,.7-.5l.9.2v-.8a.6.6,0,1,1,1.2,0v.8l.9-.2a.6.6,0,0,1,.7.5H9a.6.6,0,0,1-.5.6l-.8.2.5.8a.6.6,0,0,1-1,.7l-.5-.7-.5.7A.6.6,0,0,1,5.9,17.1Z"/><path d="M13.3,17.1a.6.6,0,0,1-.5-.3l-.5-.7-.5.7a.6.6,0,0,1-1.1-.3.6.6,0,0,1,.1-.3l.5-.8-.8-.2a.6.6,0,0,1-.5-.6h0a.6.6,0,0,1,.7-.5l.9.2v-.8a.6.6,0,1,1,1.2,0v.8l.9-.2a.6.6,0,0,1,.7.5h0a.6.6,0,0,1-.5.6l-.8.2.5.8a.6.6,0,0,1-.2.8Z"/><path d="M18.7,17.1a.6.6,0,0,1-.5-.3l-.5-.7-.5.7a.6.6,0,0,1-1.1-.3.6.6,0,0,1,.1-.3l.5-.8-.8-.2a.6.6,0,0,1-.5-.6h0a.6.6,0,0,1,.7-.5l.9.2v-.8a.6.6,0,1,1,1.2,0v.8l.9-.2a.6.6,0,0,1,.7.5h0a.6.6,0,0,1-.5.6l-.8.2.5.8a.6.6,0,0,1-.2.8Z"/><path d="M24.1,17.1a.6.6,0,0,1-.5-.3l-.5-.7-.5.7a.6.6,0,0,1-1.1-.3.6.6,0,0,1,.1-.3l.5-.8-.8-.2a.6.6,0,0,1-.5-.6h0a.6.6,0,0,1,.7-.5l.9.2v-.8a.6.6,0,1,1,1.2,0v.8l.9-.2a.6.6,0,0,1,.7.5h0a.6.6,0,0,1-.5.6l-.8.2.5.8a.6.6,0,0,1-.2.8Z"/><path d="M28.3,20.9H1.7a.8.8,0,0,1-.7-.7V9.8a.8.8,0,0,1,.7-.7H28.3a.8.8,0,0,1,.8.8V20.2A.8.8,0,0,1,28.3,20.9ZM2.4,19.4H27.6V10.6H2.4Z"/></svg>