<svg id="레이어_2" data-name="레이어 2" xmlns="http://www.w3.org/2000/svg" width="30" height="30" viewBox="0 0 30 30"><title>대지 1</title><circle cx="5.8" cy="5.2" r="0.8"/><circle cx="15.2" cy="5.2" r="0.8"/><circle cx="24.6" cy="5.2" r="0.8"/><circle cx="5.8" cy="15.5" r="0.7"/><circle cx="15.2" cy="15.5" r="0.7"/><circle cx="24.6" cy="15.5" r="0.7"/><circle cx="5.8" cy="25.7" r="0.8"/><circle cx="15.2" cy="25.7" r="0.8"/><circle cx="24.6" cy="25.7" r="0.8"/><path d="M15.2,18.4a3,3,0,1,1,3-3A3,3,0,0,1,15.2,18.4Zm0-4.9a2,2,0,1,0,2,2A2,2,0,0,0,15.2,13.5Z"/><path d="M24.6,28.7a3,3,0,1,1,3-3A3,3,0,0,1,24.6,28.7Zm0-4.9a2,2,0,1,0,2,2A2,2,0,0,0,24.6,23.8Z"/><path d="M24.6,26.5l-.6-.2L5.2,5.7a.7.7,0,0,1,1.1-1L25.2,25.2a.8.8,0,0,1,0,1.1Z"/><path d="M5.8,8.3A3.2,3.2,0,1,1,8.9,5.2,3.2,3.2,0,0,1,5.8,8.3ZM5.8,3A2.2,2.2,0,1,0,7.9,5.2,2.2,2.2,0,0,0,5.8,3Z"/></svg>