<svg id="레이어_2" data-name="레이어 2" xmlns="http://www.w3.org/2000/svg" width="30" height="30" viewBox="0 0 30 30"><title>대지 1</title><path d="M17,5.5V24.6H13.4V5.5H17M17.4,4H13a1.1,1.1,0,0,0-1.1,1.1V25A1.1,1.1,0,0,0,13,26.1h4.4A1.1,1.1,0,0,0,18.5,25V5.1A1.1,1.1,0,0,0,17.4,4Z"/><path d="M24.8,11.5V24.6H21.5V11.5h3.3m.4-1.5H21.1A1.1,1.1,0,0,0,20,11.1V25a1.1,1.1,0,0,0,1.1,1.1h4.1A1.1,1.1,0,0,0,26.3,25V11.1A1.1,1.1,0,0,0,25.2,10Z"/><path d="M8.7,17.5v7.1H5.2V17.5H8.7M9.1,16H4.8a1.1,1.1,0,0,0-1.1,1.1V25a1.1,1.1,0,0,0,1.1,1.1H9.1A1.1,1.1,0,0,0,10.2,25V17.1A1.1,1.1,0,0,0,9.1,16Z"/></svg>