<svg id="레이어_2" data-name="레이어 2" xmlns="http://www.w3.org/2000/svg" width="30" height="30" viewBox="0 0 30 30"><defs><style>.cls-1{fill:#010101;}</style></defs><title>대지 1</title><path class="cls-1" d="M17.7,3.7c1.6,0,2.6,2.3,2.6,3.6v5.1h7.5a.5.5,0,0,1,.3.6L25.3,23.7a.5.5,0,0,1-.5.4H3.8a.5.5,0,0,1-.5-.5V13.7a.5.5,0,0,1,.5-.5H9.5c5.1,0,7-3.1,7.7-5.7a6.9,6.9,0,0,0,.2-2.1,5.6,5.6,0,0,1,.1-1.7h.2m0-1.5C15,2.2,16.2,5.6,15.8,7c-1.2,4.4-4.6,4.7-6.2,4.7H3.8a2,2,0,0,0-2,2v9.9a2,2,0,0,0,2,2h21a2,2,0,0,0,1.9-1.5l2.9-10.6A2,2,0,0,0,28.2,11L26,10.8H21.8V7.2c0-1.9-1.5-5.1-4.1-5.1Z"/><rect class="cls-1" x="6.6" y="12.1" width="1.5" height="12.83"/></svg>