<svg id="레이어_2" data-name="레이어 2" xmlns="http://www.w3.org/2000/svg" width="30" height="30" viewBox="0 0 30 30"><title>대지 1</title><path d="M18.7,1.6V3.4H11.3V1.6h7.5M19.2.1H10.8a1,1,0,0,0-1,1V3.8a1,1,0,0,0,1,1h8.4a1,1,0,0,0,1-1V1.1a1,1,0,0,0-1-1Z"/><path d="M27.4,4.9H2.6a.8.8,0,0,1,0-1.5H27.4a.8.8,0,1,1,0,1.5Z"/><path d="M13.7,27.2H7.3a2.7,2.7,0,0,1-2.7-2.7V3.4H25.4V16.3a.8.8,0,1,1-1.5,0V4.9H6.1V24.6a1.2,1.2,0,0,0,1.2,1.2h6.4a.8.8,0,1,1,0,1.5Z"/><path d="M22.3,29.8A5,5,0,0,1,18,27.2l1.3-.7a3.5,3.5,0,1,0-.4-2.1l-1.5-.2a5,5,0,1,1,5,5.5Z"/><polygon points="21.2 25.2 16.5 25.2 16.5 20.5 18 20.5 18 23.7 21.2 23.7 21.2 25.2"/></svg>