<svg id="레이어_2" data-name="레이어 2" xmlns="http://www.w3.org/2000/svg" width="30" height="30" viewBox="0 0 30 30"><title>대지 1</title><path d="M15.7,29.1H9.6a.8.8,0,0,1-.7-1l2-6.5a.8.8,0,0,1,1.4.4l-1.7,5.5h4.1l-1.5-4.7a.8.8,0,0,1,1.4-.4l1.8,5.7a.8.8,0,0,1-.7,1Z"/><path d="M16.6,23.6A13.1,13.1,0,0,1,7.3,1.2a.8.8,0,0,1,1.1,0L25.9,18.7a.7.7,0,0,1,0,1.1A13.1,13.1,0,0,1,16.6,23.6ZM7.9,2.8A11.6,11.6,0,0,0,24.3,19.2Z"/><path d="M19.1,13.5l-.5-.2L14.2,9a.7.7,0,0,1,.2-1.2L21,4.3a.7.7,0,0,1,.9.1l1.2,1.2a.8.8,0,0,1,.1.9l-3.5,6.6a.7.7,0,0,1-.6.4ZM16,8.6l2.9,2.9,2.7-5.2-.4-.4Z"/><path d="M23.6,6.8a2.9,2.9,0,1,1,2.9-2.9A2.9,2.9,0,0,1,23.6,6.8Zm0-4.4A1.4,1.4,0,1,0,25,3.9,1.4,1.4,0,0,0,23.6,2.4Z"/></svg>