<svg id="레이어_2" data-name="레이어 2" xmlns="http://www.w3.org/2000/svg" width="30" height="30" viewBox="0 0 30 30"><defs><style>.cls-1{fill:#010101;}</style></defs><title>대지 1</title><path class="cls-1" d="M27.9,29.7H2.1A1.9,1.9,0,0,1,.3,27.9V2.1A1.9,1.9,0,0,1,2.1.3H21.4l.5.2,7.6,6.3a.7.7,0,0,1,.3.6V27.9A1.9,1.9,0,0,1,27.9,29.7ZM2.1,1.8a.4.4,0,0,0-.4.4V27.9a.4.4,0,0,0,.4.4H27.9a.4.4,0,0,0,.4-.4V7.6L21.1,1.8Z"/><path class="cls-1" d="M21.1,12.8H8.6a.8.8,0,0,1-.7-.7V1.5a.8.8,0,1,1,1.5,0v9.8h11V1.5a.8.8,0,1,1,1.5,0V12.1A.8.8,0,0,1,21.1,12.8Z"/><rect class="cls-1" x="10.9" y="4.2" width="1.5" height="3.68"/></svg>