<svg id="레이어_2" data-name="레이어 2" xmlns="http://www.w3.org/2000/svg" width="30" height="30" viewBox="0 0 30 30"><title>대지 1</title><path d="M15.3,16.8a5.5,5.5,0,0,1-2.1-.4L3.1,12c-1-.5-1.2-1.1-1.2-1.5S2,9.5,3,9L13.2,4.4a5.8,5.8,0,0,1,4.3,0L27.5,9c1,.5,1.2,1.1,1.2,1.5s-.2,1-1.2,1.5L17.4,16.4A5.5,5.5,0,0,1,15.3,16.8ZM3.4,10.5h.2L13.8,15a4.5,4.5,0,0,0,3.1,0l10.1-4.4h0L16.8,5.8h0a4.3,4.3,0,0,0-3,0L3.7,10.4Z"/><path d="M15.3,25.5c-3.6,0-6.1-.8-7.5-2.2a5.1,5.1,0,0,1-1.3-3.9V13H8v6.4a3.6,3.6,0,0,0,.9,2.8C10,23.4,12.2,24,15.3,24s5.3-.6,6.4-1.8a3.6,3.6,0,0,0,.9-2.8V13h1.5v6.3a5.1,5.1,0,0,1-1.3,3.9C21.4,24.8,18.9,25.5,15.3,25.5Z"/><path d="M26,22.3a.8.8,0,0,1-.7-.7V11.9a.8.8,0,0,1,1.5,0v9.7A.8.8,0,0,1,26,22.3Z"/></svg>