<svg id="레이어_2" data-name="레이어 2" xmlns="http://www.w3.org/2000/svg" width="30" height="30" viewBox="0 0 30 30"><title>대지 1</title><polygon points="25.8 25.9 24.7 24.9 27.2 22.3 24.7 19.8 25.8 18.7 29.4 22.3 25.8 25.9"/><rect x="18.9" y="21.6" width="9.4" height="1.5"/><path d="M14.9,13h-.4L.7,5.6l.7-1.3,13.5,7.1L28.3,4.3,29,5.6,15.3,12.9Z"/><path d="M14.6,23.3H2.1A1.8,1.8,0,0,1,.4,21.5V3A1.8,1.8,0,0,1,2.1,1.3H27.6A1.8,1.8,0,0,1,29.4,3V14.2a.8.8,0,1,1-1.5,0V3a.3.3,0,0,0-.2-.2H2.1a.3.3,0,0,0-.3.3V21.5a.3.3,0,0,0,.3.3H14.6a.7.7,0,0,1,0,1.5Z"/></svg>