<svg id="레이어_2" data-name="레이어 2" xmlns="http://www.w3.org/2000/svg" width="30" height="30" viewBox="0 0 30 30"><defs><style>.cls-1{fill:#010101;}</style></defs><title>대지 1</title><polygon class="cls-1" points="24.3 8.3 17 8.3 17 1 18.5 1 18.5 6.8 24.3 6.8 24.3 8.3"/><path class="cls-1" d="M19.3,29.5H3.4a1.8,1.8,0,0,1-1.8-1.7V2A1.8,1.8,0,0,1,3.4.2H17.8l.5.2L24.9,7a.7.7,0,0,1,.2.5V18.8a.7.7,0,0,1-1.5,0V7.9L17.5,1.7H3.4a.3.3,0,0,0-.2.3V27.7a.3.3,0,0,0,.3.3H19.3a.7.7,0,0,1,0,1.5Z"/><path d="M17.9,10.9a1,1,0,0,0-1.4.2l-3.1,4-3.1-4a1,1,0,1,0-1.6,1.2l3.4,4.4L8.7,21.2a1,1,0,0,0,.2,1.4l.6.2a1,1,0,0,0,.8-.4l3.1-4,3.1,4a1,1,0,0,0,.8.4l.6-.2a1,1,0,0,0,.2-1.4l-3.4-4.4,3.4-4.4A1,1,0,0,0,17.9,10.9Z"/><circle cx="22.9" cy="25.2" r="1.4"/><circle cx="27.4" cy="22.5" r="1.4"/><circle cx="27.4" cy="28" r="1.4"/><polygon points="27.2 28.4 21.9 25.1 27.2 22 27.7 22.8 23.9 25.1 27.7 27.5 27.2 28.4"/></svg>