<svg id="레이어_2" data-name="레이어 2" xmlns="http://www.w3.org/2000/svg" width="30" height="30" viewBox="0 0 30 30"><defs><style>.cls-1{fill:#010101;}</style></defs><title>대지 1</title><path class="cls-1" d="M23.9,17.1h-.2l-4.2-.2h-.1A1.7,1.7,0,0,1,18,15.4a8.4,8.4,0,0,0-.8-3.1,9.5,9.5,0,0,1-1.3-5C16,1.9,19,1,19.1.9a4.4,4.4,0,0,1,5.4,1.8c3.3,5.8,1.1,12.5,1.1,12.8A1.8,1.8,0,0,1,23.9,17.1Zm-4.2-1.7,4.2.2h0c.2,0,.3-.2.3-.4s2-6.5-.9-11.7a2.9,2.9,0,0,0-3.7-1.2c-.1,0-2.1.8-2.2,5a8.1,8.1,0,0,0,1.1,4.2,9.8,9.8,0,0,1,1,3.7Z"/><path class="cls-1" d="M21.6,24h-.1a3.5,3.5,0,0,1-3.3-3.6V20a1.3,1.3,0,0,1,1.3-1.3l4.5.2a1.1,1.1,0,0,1,.8.4,1.3,1.3,0,0,1,.3.9v.6A3.5,3.5,0,0,1,21.6,24Zm-2-3.8v.3h0a2,2,0,0,0,1.9,2,2.1,2.1,0,0,0,1.4-.5,1.9,1.9,0,0,0,.6-1.4v-.3Zm3.9-.1h0Z"/><path class="cls-1" d="M6,21.8a1.8,1.8,0,0,1-1.7-1.7C4.3,20,2.1,13.2,5.4,7.5a4.4,4.4,0,0,1,5.5-1.8c.1,0,3,.9,3.2,6.3a9.5,9.5,0,0,1-1.3,5h0a8.5,8.5,0,0,0-.8,3.1,1.7,1.7,0,0,1-1.5,1.5h-.1l-4.2.2Zm3.1-15A3,3,0,0,0,6.7,8.2c-2.9,5.2-.9,11.5-.9,11.6s.3.5.3.5h0l4.3-.2h.2a9.8,9.8,0,0,1,1-3.7,8.1,8.1,0,0,0,1.1-4.2c-.1-4.3-2.1-5-2.2-5Z"/><path class="cls-1" d="M8.5,28.7a3.4,3.4,0,0,1-3.4-3.3v-.6a1.3,1.3,0,0,1,.3-.9,1.1,1.1,0,0,1,.8-.4l4.4-.2a1.3,1.3,0,0,1,1.3,1.3v.5h0a3.4,3.4,0,0,1-3.3,3.6ZM6.5,25v.3a1.9,1.9,0,0,0,2,1.8,1.9,1.9,0,0,0,1.8-2v-.3Zm-.3,0h0Zm.3-.3h0Z"/></svg>