<svg id="레이어_2" data-name="레이어 2" xmlns="http://www.w3.org/2000/svg" width="30" height="30" viewBox="0 0 30 30"><title>대지 1</title><path d="M15,6.9a2.8,2.8,0,1,1,2.8-2.8A2.8,2.8,0,0,1,15,6.9Zm0-4.1a1.3,1.3,0,1,0,1.3,1.3A1.3,1.3,0,0,0,15,2.8Z"/><path d="M14.9,27.7c-5.2,0-10.4-1.4-10.4-4S9,20,12.9,19.7a.7.7,0,0,1,.8.7l.2,2.5h2l.2-2.5a.7.7,0,0,1,.8-.7c3.9.3,8.4,1.5,8.4,3.9S20.1,27.7,14.9,27.7Zm-2.7-6.4c-4,.4-6.3,1.6-6.3,2.4s3.6,2.5,8.9,2.5,8.9-1.5,8.9-2.5-2.2-2-6.3-2.4l-.2,2.4a.7.7,0,0,1-.7.7H13.2a.7.7,0,0,1-.7-.7Z"/><path d="M16.6,24.4H13.2a.7.7,0,0,1-.7-.7l-.5-6.1a1.7,1.7,0,0,1-1.7-1.8V11.8a4.8,4.8,0,0,1,9.6,0v4.1A1.7,1.7,0,0,1,18,17.6h-.1l-.5,6.1A.7.7,0,0,1,16.6,24.4Zm-2.7-1.5h2l.5-6.1a.7.7,0,0,1,.7-.7H18a.2.2,0,0,0,.2-.3V11.8a3.3,3.3,0,0,0-6.6,0v4.1a.2.2,0,0,0,.2.3h.7a.7.7,0,0,1,.7.7Z"/></svg>