<svg id="레이어_2" data-name="레이어 2" xmlns="http://www.w3.org/2000/svg" width="30" height="30" viewBox="0 0 30 30"><title>대지 1</title><path d="M21.6,29.1H4a1.8,1.8,0,0,1-1.7-1.7V2.9A1.8,1.8,0,0,1,4,1.2H21.6a1.8,1.8,0,0,1,1.8,1.7V7.6a.8.8,0,0,1-1.5,0V2.9a.3.3,0,0,0-.2-.2H4a.3.3,0,0,0-.2.3V27.3a.3.3,0,0,0,.3.3H21.6a.3.3,0,0,0,.3-.2V24.2a.7.7,0,0,1,1.5,0v3.2A1.8,1.8,0,0,1,21.6,29.1Z"/><polygon points="15.3 20.6 14.2 19.5 23 10.7 27.1 14.8 26.1 15.9 23 12.9 15.3 20.6"/><path d="M26.6,16.4,22,11.8l2.7-2.7a1.5,1.5,0,0,1,2.1,0l2.5,2.5a1.5,1.5,0,0,1,0,2.1Zm-2.5-4.6,2.5,2.5,1.6-1.6-2.5-2.5Z"/><polygon points="12.8 25.7 13.3 20.5 14.3 19.4 15.4 20.5 14.7 21.2 14.4 24 17.2 23.7 26.1 14.8 27.1 15.9 17.9 25.1 12.8 25.7"/><path d="M11,10.5H6.2V5.8H11ZM7.7,9H9.5V7.3H7.7Z"/><path d="M11,16.7H6.2V11.9H11ZM7.7,15.2H9.5V13.4H7.7Z"/><rect x="12.6" y="7.4" width="6.1" height="1.5"/><rect x="12.6" y="13.6" width="3" height="1.5"/></svg>