<svg id="레이어_2" data-name="레이어 2" xmlns="http://www.w3.org/2000/svg" width="30" height="30" viewBox="0 0 30 30"><defs><style>.cls-1{fill:#070707;}</style></defs><title>대지 1</title><polygon class="cls-1" points="27.6 10.5 18.9 10.5 18.9 9 26.1 9 26.1 1.9 27.6 1.9 27.6 10.5"/><path class="cls-1" d="M25.9,10.1A11.7,11.7,0,0,0,5.2,9.2L3.9,8.5a13.2,13.2,0,0,1,23.4,1Z"/><polygon class="cls-1" points="4.5 28.1 3 28.1 3 19.5 11.7 19.5 11.7 21 4.5 21 4.5 28.1"/><path class="cls-1" d="M15.3,28.1a13.2,13.2,0,0,1-12-7.6l1.4-.6a11.7,11.7,0,0,0,20.7.9l1.3.8A13.2,13.2,0,0,1,15.3,28.1Z"/></svg>