<svg id="레이어_2" data-name="레이어 2" xmlns="http://www.w3.org/2000/svg" width="30" height="30" viewBox="0 0 30 30"><defs><style>.cls-1{fill:#010101;}</style></defs><title>대지 1</title><path class="cls-1" d="M25.7,29.3H5.7a1.8,1.8,0,0,1-1.7-1.7V1.8A1.8,1.8,0,0,1,5.7,0H20.4l7,7V27.5A1.8,1.8,0,0,1,25.7,29.3ZM5.7,1.5a.3.3,0,0,0-.2.3V27.5a.3.3,0,0,0,.3.3h20a.3.3,0,0,0,.3-.2V7.7L19.8,1.5Z"/><polygon class="cls-1" points="26.7 8.1 19.4 8.1 19.4 0.8 20.9 0.8 20.9 6.6 26.7 6.6 26.7 8.1"/><path d="M10.8,11.9v1.7h1.3v1.4H10.8V17c0,.7.2,1,.7,1h.5v1.4l-1.2.2a1.9,1.9,0,0,1-1.4-.5A2.5,2.5,0,0,1,9,17.3V14.9H8.2V13.5H9V12.3Z"/><path d="M14.6,13.5l.6,1,.5.9h0l.5-.9.5-1h2l-1.9,2.8,2,3.1H16.6L16,18.4l-.5-.9h0l-.4.9-.6,1.1h-2l2-3-2-2.9Z"/><path d="M21.7,11.9v1.7H23v1.4H21.7V17c0,.7.2,1,.7,1H23v1.4l-1.2.2a1.9,1.9,0,0,1-1.4-.5,2.5,2.5,0,0,1-.5-1.8V14.9h-.8V13.5h.8V12.3Z"/></svg>