<svg id="레이어_2" data-name="레이어 2" xmlns="http://www.w3.org/2000/svg" width="30" height="30" viewBox="0 0 30 30"><title>대지 1</title><path d="M12.6,13.6H4.4a1.3,1.3,0,0,1-1.3-1.3V4A1.3,1.3,0,0,1,4.4,2.7h8.2A1.3,1.3,0,0,1,14,4v8.2A1.3,1.3,0,0,1,12.6,13.6Zm-8-1.5h7.8V4.2H4.6Z"/><path d="M25.6,13.6H17.4A1.3,1.3,0,0,1,16,12.2V4a1.3,1.3,0,0,1,1.3-1.3h8.2A1.3,1.3,0,0,1,26.9,4v8.2A1.3,1.3,0,0,1,25.6,13.6Zm-8-1.5h7.8V4.2H17.5Z"/><path d="M12.6,26.7H4.4a1.3,1.3,0,0,1-1.3-1.3V17.2a1.3,1.3,0,0,1,1.3-1.3h8.2A1.3,1.3,0,0,1,14,17.2v8.2A1.3,1.3,0,0,1,12.6,26.7Zm-8-1.5h7.8V17.4H4.6Z"/><path d="M25.6,26.7H17.4A1.3,1.3,0,0,1,16,25.4V17.2a1.3,1.3,0,0,1,1.3-1.3h8.2a1.3,1.3,0,0,1,1.3,1.3v8.2A1.3,1.3,0,0,1,25.6,26.7Zm-8-1.5h7.8V17.4H17.5Z"/></svg>