<svg id="레이어_2" data-name="레이어 2" xmlns="http://www.w3.org/2000/svg" width="30" height="30" viewBox="0 0 30 30"><title>대지 1</title><path d="M9.3,15.7a4.1,4.1,0,1,1,4.1-4.1A4.1,4.1,0,0,1,9.3,15.7Zm0-6.8a2.6,2.6,0,1,0,2.6,2.6A2.6,2.6,0,0,0,9.3,8.9Z"/><path d="M16.2,24.6H2.4A1.3,1.3,0,0,1,1,23.2V21.9a3.9,3.9,0,0,1,1.4-3.1,9.6,9.6,0,0,1,6.9-2.6,9.6,9.6,0,0,1,6.9,2.6,3.9,3.9,0,0,1,1.4,3.1v1.3A1.3,1.3,0,0,1,16.2,24.6ZM2.5,23.1H16V21.9a2.5,2.5,0,0,0-1-2.1h0a8.1,8.1,0,0,0-5.8-2.2,8.1,8.1,0,0,0-5.8,2.2,2.5,2.5,0,0,0-1,2.1Z"/><path d="M20.8,15.7a4.1,4.1,0,1,1,4.1-4.1A4.1,4.1,0,0,1,20.8,15.7Zm0-6.8a2.6,2.6,0,1,0,2.6,2.6A2.6,2.6,0,0,0,20.8,8.9Z"/><path d="M27.7,24.6H16.2V23.1H27.5V21.9a2.5,2.5,0,0,0-1-2.1,8.1,8.1,0,0,0-5.8-2.2,8.5,8.5,0,0,0-5.3,1.7l-.9-1.2a10,10,0,0,1,6.2-2,9.6,9.6,0,0,1,6.9,2.6A3.9,3.9,0,0,1,29,21.9v1.3A1.3,1.3,0,0,1,27.7,24.6Z"/></svg>