<svg id="레이어_2" data-name="레이어 2" xmlns="http://www.w3.org/2000/svg" width="30" height="30" viewBox="0 0 30 30"><title>대지 1</title><path d="M14.3,24.1H3.8a1.5,1.5,0,0,1-1.5-1.5V20.9a4.9,4.9,0,0,1,1.7-4A12.5,12.5,0,0,1,13,13.5h0a13.3,13.3,0,0,1,7.4,2.1l-.8,1.2A11.8,11.8,0,0,0,13,15h0a11,11,0,0,0-7.9,2.9,3.5,3.5,0,0,0-1.3,2.9v1.7H14.3Z"/><path d="M13.1,12.4a5.3,5.3,0,1,1,5.3-5.3A5.3,5.3,0,0,1,13.1,12.4Zm0-9.1a3.8,3.8,0,1,0,3.8,3.8A3.8,3.8,0,0,0,13.1,3.3Z"/><path d="M22.8,25.5a1.8,1.8,0,1,1,1.8-1.8A1.8,1.8,0,0,1,22.8,25.5Zm0-2.4a.6.6,0,1,0,.6.6A.6.6,0,0,0,22.8,23.1Z"/><path d="M23.2,29.2h-.8a1,1,0,0,1-1-.9v-.2l-.8-.3h-.1a1,1,0,0,1-1.4-.1l-.5-.5a1,1,0,0,1-.1-1.4h.1l-.3-.7h-.2a1,1,0,0,1-.9-1v-.8a1,1,0,0,1,.9-1h.2l.3-.7-.2-.2a1,1,0,0,1,.1-1.4l.5-.6a1,1,0,0,1,1.4-.1l.3.2.6-.3v-.2a1,1,0,0,1,1-.9h.8a1,1,0,0,1,1,.9v.2l.5.2.3-.2a1,1,0,0,1,1.4.1l.6.6a1,1,0,0,1,.1,1.4l-.2.3.3.6h.2a1,1,0,0,1,.9,1V24a1,1,0,0,1-.9,1h-.2l-.3.7H27a1,1,0,0,1-.1,1.4l-.6.6a1,1,0,0,1-1.4.1h-.1l-.7.3v.2A1,1,0,0,1,23.2,29.2ZM22.6,28H23v-.5a.6.6,0,0,1,.4-.5l1.3-.6a.6.6,0,0,1,.6.1l.3.2.3-.3-.2-.3a.6.6,0,0,1-.1-.6l.5-1.3a.6.6,0,0,1,.5-.4h.5v-.4h-.5a.6.6,0,0,1-.5-.4l-.5-1.3a.6.6,0,0,1,.1-.6l.3-.5-.3-.3-.5.4a.6.6,0,0,1-.6.1l-1.2-.5a.6.6,0,0,1-.4-.5v-.4h-.4v.4a.6.6,0,0,1-.4.5l-1.3.5a.6.6,0,0,1-.6-.1l-.4-.3-.3.3.3.4a.6.6,0,0,1,.1.6L19.4,23a.6.6,0,0,1-.5.4h-.4v.4h.4a.6.6,0,0,1,.5.4l.5,1.3a.6.6,0,0,1-.1.6l-.2.3.3.3.3-.2a.6.6,0,0,1,.6-.1l1.4.6a.6.6,0,0,1,.4.5Zm4.6-4.6h0v0Z"/></svg>