<svg id="레이어_2" data-name="레이어 2" xmlns="http://www.w3.org/2000/svg" width="30" height="30" viewBox="0 0 30 30"><title>대지 1</title><path d="M25.8,21.9H4.3a1.8,1.8,0,0,1-1.8-1.7V13.6a1.8,1.8,0,0,1,1.8-1.7H25.8a1.8,1.8,0,0,1,1.8,1.8v6.6A1.8,1.8,0,0,1,25.8,21.9ZM4.3,13.3a.3.3,0,0,0-.2.3v6.6a.3.3,0,0,0,.3.3H25.8a.3.3,0,0,0,.3-.2V13.6a.3.3,0,0,0-.2-.2Z"/><path d="M24.8,13.3H5.2a.7.7,0,0,1-.7-1L7.1,5.4A1.8,1.8,0,0,1,8.8,4H21.3A1.8,1.8,0,0,1,23,5.4h0l2.5,6.9a.7.7,0,0,1-.7,1ZM6.3,11.8H23.7L21.6,6l-.2-.5H8.8c-.1,0-.1.1-.3.5Z"/><rect x="11.2" y="16.1" width="7.7" height="1.5"/><circle cx="6.7" cy="16.8" r="1"/><circle cx="23.3" cy="16.8" r="1"/><path d="M8.7,25.1H6a1.8,1.8,0,0,1-1.7-1.7V21.1a.7.7,0,0,1,1.5,0v2.2a.3.3,0,0,0,.3.3H8.7a.3.3,0,0,0,.3-.2V21.1a.7.7,0,1,1,1.5,0v2.2A1.8,1.8,0,0,1,8.7,25.1Z"/><path d="M24.2,25.1H21.5a1.8,1.8,0,0,1-1.7-1.7V21.1a.8.8,0,0,1,1.5,0v2.2a.3.3,0,0,0,.3.3h2.7a.3.3,0,0,0,.3-.2V21.1a.8.8,0,1,1,1.5,0v2.2A1.8,1.8,0,0,1,24.2,25.1Z"/></svg>