<svg id="레이어_2" data-name="레이어 2" xmlns="http://www.w3.org/2000/svg" width="30" height="30" viewBox="0 0 30 30"><title>대지 1</title><path d="M23,24.8H1V23.3H22.6l4.9-6.8H1V15H29a.8.8,0,0,1,.6,1.2l-6,8.3A.8.8,0,0,1,23,24.8Z"/><path d="M13.7,16.1l-3.3-4.7H1V10h9.8a.7.7,0,0,1,.6.3l3.5,5Z"/><path d="M7.6,11,6.3,7H2.5v3.7H1V6.3a.8.8,0,0,1,.8-.7H6.9a.8.8,0,0,1,.7.5l1.4,4.5Z"/><rect x="2.3" y="18.3" width="2.5" height="2.5" rx="0.5" ry="0.5"/><rect x="10" y="18.3" width="2.5" height="2.5" rx="0.5" ry="0.5"/><rect x="17.7" y="18.3" width="2.5" height="2.5" rx="0.5" ry="0.5"/></svg>