<svg id="레이어_2" data-name="레이어 2" xmlns="http://www.w3.org/2000/svg" width="30" height="30" viewBox="0 0 30 30"><title>대지 1</title><path d="M28.3,26H1.4A1.3,1.3,0,0,1,0,24.6V5.4A1.3,1.3,0,0,1,1.4,4H28.3a1.3,1.3,0,0,1,1.3,1.3V24.6A1.3,1.3,0,0,1,28.3,26ZM1.5,24.5H28.1V5.5H1.5Z"/><rect x="5" y="4.8" width="1.5" height="20.43"/><rect x="0.2" y="9.2" width="5.6" height="1.5"/><rect x="0.2" y="14.2" width="5.6" height="1.5"/><rect x="0.2" y="19.2" width="5.6" height="1.5"/><rect x="23.2" y="9.2" width="5.6" height="1.5"/><rect x="23.2" y="14.2" width="5.6" height="1.5"/><rect x="23.2" y="19.2" width="5.6" height="1.5"/><path d="M12.4,19.7h-.5a1.1,1.1,0,0,1-.5-1V11.4a1,1,0,0,1,1.6-.9L18.9,14a1.1,1.1,0,0,1,0,1.9L13,19.5Zm.5-7.5v5.7L17.5,15Z"/><rect x="22.6" y="4.8" width="1.5" height="20.43"/></svg>