<svg id="레이어_2" data-name="레이어 2" xmlns="http://www.w3.org/2000/svg" width="30" height="30" viewBox="0 0 30 30"><title>대지 1</title><path d="M12.8,12.6l-4.7-4A.7.7,0,0,1,7.8,8V1.3A.8.8,0,0,1,8.5.5H15a.8.8,0,0,1,.8.8V11.4H14.2V2H9.3V7.6l4.5,3.8Z"/><path d="M17.4,12.4l-1-1.1,4.3-3.7V2H15.8v9.4H14.3V1.3A.8.8,0,0,1,15,.5h6.4a.8.8,0,0,1,.8.8V8a.7.7,0,0,1-.3.6Z"/><path d="M15,29.3a9.2,9.2,0,1,1,9.2-9.2A9.2,9.2,0,0,1,15,29.3Zm0-16.9a7.7,7.7,0,1,0,7.7,7.7A7.7,7.7,0,0,0,15,12.4Z"/><path d="M14.9,24h0a.8.8,0,0,1-.7-.5l-2.4-6.2,1.4-.5,1.7,4.5,1.8-4.5,1.4.6-2.6,6.3A.7.7,0,0,1,14.9,24Z"/></svg>