<svg id="레이어_2" data-name="레이어 2" xmlns="http://www.w3.org/2000/svg" width="30" height="30" viewBox="0 0 30 30"><title>대지 1</title><path d="M19.8,29.3,4.4,20.3V9.8L19.8.7ZM5.9,19.4l12.3,7.3V3.3L5.9,10.7Z"/><path d="M4.6,20.5H1.3A1.3,1.3,0,0,1,0,19.2V10.8A1.3,1.3,0,0,1,1.3,9.5H4.6a1.3,1.3,0,0,1,1.3,1.3v8.4A1.3,1.3,0,0,1,4.6,20.5ZM1.5,19H4.4V11H1.5Z"/><path d="M24,18.7l-1.5-.3a18,18,0,0,0,.3-3.4,17.8,17.8,0,0,0-.3-3.5l1.5-.3a19.4,19.4,0,0,1,.4,3.8A19.5,19.5,0,0,1,24,18.7Z"/><path d="M27.8,22.2l-1.4-.4a23.7,23.7,0,0,0,.9-6.8,23.8,23.8,0,0,0-.9-6.7l1.4-.4a25.3,25.3,0,0,1,1,7.2A25.3,25.3,0,0,1,27.8,22.2Z"/></svg>