<svg id="레이어_2" data-name="레이어 2" xmlns="http://www.w3.org/2000/svg" width="30" height="30" viewBox="0 0 30 30"><title>대지 1</title><path d="M28.2,20.4H17.7a.7.7,0,0,1-.7-1c.1-.3,2-6.2,5.7-7.3a5.1,5.1,0,0,1,4.8,1.2.8.8,0,0,1-.4,1.3s-2,.1-1.9,1.3S27,18.4,28.5,19a.7.7,0,0,1-.3,1.4Zm-9.5-1.5h6.6a4,4,0,0,1-1.7-3,2.4,2.4,0,0,1,1.5-2.4,3,3,0,0,0-2-.1C21.1,14.2,19.5,17.1,18.8,18.9Z"/><path d="M17.9,20.4H1.7a.7.7,0,0,1-.5-1.3A16.7,16.7,0,0,0,4.4,15l.3-.6c2.2-4.1,4.8-8.7,8.4-9,2.1-.2,4.2,1.1,6.4,4a.7.7,0,0,1-.9,1.1,3.9,3.9,0,0,0-2.9-.1,2.5,2.5,0,0,0-1.1,1.9A5.8,5.8,0,0,0,18.2,19a.7.7,0,0,1-.3,1.4ZM3.4,18.9H15.3a7,7,0,0,1-2.3-6.9,3.9,3.9,0,0,1,1.9-3,3.9,3.9,0,0,1,1.9-.4c-1.3-1.3-2.5-1.9-3.6-1.8C10.4,7.1,8,11.5,6,15.1l-.3.6A19.8,19.8,0,0,1,3.4,18.9Z"/><path d="M23.1,22.5H1.7a.7.7,0,0,0,0,1.4H29V22.4H23.1Z"/></svg>