<svg id="레이어_2" data-name="레이어 2" xmlns="http://www.w3.org/2000/svg" width="30" height="30" viewBox="0 0 30 30"><defs><style>.cls-1{fill:#010101;}</style></defs><title>대지 1</title><polygon class="cls-1" points="26.7 8.5 19.4 8.5 19.4 1.2 20.9 1.2 20.9 7 26.7 7 26.7 8.5"/><path class="cls-1" d="M25.7,29.8H5.7a1.8,1.8,0,0,1-1.7-1.7V2.3A1.8,1.8,0,0,1,5.7.6H20.4l7,7V28.1A1.8,1.8,0,0,1,25.7,29.8ZM5.7,2.1a.3.3,0,0,0-.2.3V28.1a.3.3,0,0,0,.3.3h20a.3.3,0,0,0,.3-.2V8.2L19.8,2.1Z"/><path d="M7.8,19l1.9-2.3.9-1.1H8.1V14.1h4.8v1.1l-1.8,2.2-1,1.1H13V20H7.8Z"/><path d="M15.9,12.5a.9.9,0,0,1-1,.9.9.9,0,1,1,0-1.9A.9.9,0,0,1,15.9,12.5ZM14,20V14.1h1.8V20Z"/><path d="M17.3,16.1c0-.8,0-1.4,0-2h1.6v.8h0a2.3,2.3,0,0,1,2-1c1.3,0,2.5,1.1,2.5,3s-1.4,3.2-2.7,3.2a1.8,1.8,0,0,1-1.5-.7h0v2.9H17.3Zm1.8,1.4a1.9,1.9,0,0,0,0,.4,1.1,1.1,0,0,0,1.1.9c.8,0,1.3-.7,1.3-1.7s-.4-1.7-1.2-1.7a1.2,1.2,0,0,0-1.1.9,1.4,1.4,0,0,0,0,.3Z"/></svg>