<svg id="레이어_2" data-name="레이어 2" xmlns="http://www.w3.org/2000/svg" width="30" height="30" viewBox="0 0 30 30"><title>대지 1</title><rect x="22.6" y="18.3" width="1.5" height="10"/><rect x="18.3" y="22.5" width="10" height="1.5"/><path d="M13.1,24.1H2.4a1.3,1.3,0,0,1-1.3-1.3V3.5A1.3,1.3,0,0,1,2.4,2.2H27.3a1.3,1.3,0,0,1,1.3,1.3V16.4a.8.8,0,0,1-1.5,0V3.7H2.6V22.6H13.1a.8.8,0,0,1,0,1.5Z"/><path d="M27.5,8.8H2.1a.8.8,0,1,1,0-1.5H27.5a.7.7,0,0,1,0,1.5Z"/><path d="M10.8,17.1H4.9V11.2h5.9ZM6.4,15.6H9.3V12.7H6.4Z"/></svg>