<svg id="레이어_2" data-name="레이어 2" xmlns="http://www.w3.org/2000/svg" width="30" height="30" viewBox="0 0 30 30"><title>대지 1</title><path d="M17.2,13.4,11.6,7.1H10.2l2.7,5.8-1.4.6L8.6,7.1a1.2,1.2,0,0,1,.1-1.2,1.2,1.2,0,0,1,1-.5h1.5a1.7,1.7,0,0,1,1.4.7l5.7,6.4Z"/><path d="M10.5,24.7H8.7A1.2,1.2,0,0,1,7.5,24a1.1,1.1,0,0,1,.1-1.2l2.7-3.5H4.1l-.5-.2L1.3,16.9a.7.7,0,0,1-.2-.5V7.8a.8.8,0,0,1,.8-.7H5.1a.7.7,0,0,1,.7.5l1.8,4.6H25.4a3.6,3.6,0,0,1,0,7.1h-7l-5.9,4.5A3.3,3.3,0,0,1,10.5,24.7ZM9.3,23.2h1.2a1.9,1.9,0,0,0,1.2-.5L17.8,18l.5-.2h7.2a2.1,2.1,0,0,0,0-4.1H7.1a.7.7,0,0,1-.7-.5L4.6,8.6H2.5V16l1.8,1.8h7.6a.8.8,0,0,1,.6,1.2Z"/></svg>