<svg id="레이어_2" data-name="레이어 2" xmlns="http://www.w3.org/2000/svg" width="30" height="30" viewBox="0 0 30 30"><title>대지 1</title><path d="M6.9,27.4a5.2,5.2,0,0,1-3.7-1.5l-.5-.5a5.3,5.3,0,0,1,0-7.4L15.8,4.9A.7.7,0,0,1,16.9,6L3.8,19.1a3.8,3.8,0,0,0,0,5.3l.5.5a3.8,3.8,0,0,0,5.3,0L13.4,21,21,13.4a2,2,0,0,0-2.8-2.8l-7.6,7.6a.7.7,0,0,1-1.1-1.1l7.6-7.6A3.5,3.5,0,0,1,22,14.5l-7.6,7.6h0l-3.8,3.8A5.2,5.2,0,0,1,6.9,27.4Z"/><path d="M16.9,25.4l-.5-.2a.7.7,0,0,1,0-1.1L25.5,15a6.2,6.2,0,1,0-8.8-8.8L7.5,15.3a.7.7,0,0,1-1.1-1.1l9.1-9.1A7.7,7.7,0,1,1,26.5,16.1l-9.1,9.1Z"/></svg>