<svg id="Layer_1" data-name="Layer 1" xmlns="http://www.w3.org/2000/svg" viewBox="0 0 48 48"><title>i_</title><g id="Group_17387" data-name="Group 17387"><path id="Path_18898" data-name="Path 18898" d="M5.66,9.41H42.34a4.61,4.61,0,0,1,4.31,4.86V33.73a4.61,4.61,0,0,1-4.31,4.86H5.66a4.61,4.61,0,0,1-4.31-4.86V14.27A4.61,4.61,0,0,1,5.66,9.41Zm0,3.64a1.15,1.15,0,0,0-1.07,1.22V33.73a1.14,1.14,0,0,0,1.07,1.21H42.34a1.14,1.14,0,0,0,1.07-1.21V14.27a1.16,1.16,0,0,0-1.07-1.22ZM8.9,16.71H39.1a1.16,1.16,0,0,1,1.08,1.21v1.22a1.16,1.16,0,0,1-1.08,1.21H8.9a1.16,1.16,0,0,1-1.08-1.21V17.92A1.16,1.16,0,0,1,8.9,16.71Zm0,7.3H24.8a1.16,1.16,0,0,1,1.08,1.21v1.22a1.16,1.16,0,0,1-1.08,1.21H8.9a1.16,1.16,0,0,1-1.08-1.21V25.22A1.16,1.16,0,0,1,8.9,24Z"/></g></svg>