<svg xmlns="http://www.w3.org/2000/svg" width="112" height="72" viewBox="0 0 112 72">
    <defs>
        <style>
            .prefix__cls-3{fill:#ccc}.prefix__cls-4{fill:#dbdbdb}
        </style>
    </defs>
    <g id="prefix__그룹_23512" data-name="그룹 23512" transform="translate(-32 -522)">
        <rect id="prefix__사각형_14872" width="112" height="72" data-name="사각형 14872" rx="4" transform="translate(32 522)" style="fill:rgba(255,255,255,.1)"/>
        <path id="prefix__사각형_11819" d="M0 0H72V48H0z" data-name="사각형 11819" transform="translate(52 534)" style="fill:#f8f8f8"/>
        <path id="prefix__사각형_11820" d="M0 0H54V4H0z" class="prefix__cls-3" data-name="사각형 11820" transform="translate(60 542)"/>
        <path id="prefix__사각형_14873" d="M0 0H44V4H0z" class="prefix__cls-3" data-name="사각형 14873" transform="translate(60 548)"/>
        <path id="prefix__사각형_11821" d="M0 0H54V2H0z" class="prefix__cls-4" data-name="사각형 11821" transform="translate(60 557)"/>
        <path id="prefix__사각형_11821-2" d="M0 0H54V2H0z" class="prefix__cls-4" data-name="사각형 11821" transform="translate(60 561)"/>
        <path id="prefix__사각형_11821-3" d="M0 0H54V2H0z" class="prefix__cls-4" data-name="사각형 11821" transform="translate(60 565)"/>
        <path id="prefix__사각형_11821-4" d="M0 0H54V2H0z" class="prefix__cls-4" data-name="사각형 11821" transform="translate(60 569)"/>
        <path id="prefix__사각형_14874" d="M0 0H54V2H0z" class="prefix__cls-4" data-name="사각형 14874" transform="translate(60 573)"/>
    </g>
</svg>
