<svg width="48" height="48" xmlns="http://www.w3.org/2000/svg">
 <!-- Generator: Sketch 50.2 (55047) - http://www.bohemiancoding.com/sketch -->
 <title>icon/html-checkbox</title>
 <desc>Created with Sketch.</desc>

 <g>
  <title>background</title>
  <rect fill="none" id="canvas_background" height="402" width="582" y="-1" x="-1"/>
 </g>
 <g>
  <title>Layer 1</title>
  <path stroke="null" id="svg_4" fill-rule="nonzero" fill="#000000" d="m34.50766,8.433085l11.725853,0c0.925155,0 1.675139,0.749984 1.675139,1.675139l0,11.725936c0,0.925155 -0.749984,1.675139 -1.675139,1.675139l-11.725853,0c-0.925155,0 -1.675139,-0.749984 -1.675139,-1.675139l0,-11.725936c0,-0.925155 0.749984,-1.675139 1.675139,-1.675139zm0,1.256357c-0.231289,0 -0.418782,0.187493 -0.418782,0.418782l0,11.725936c0,0.231289 0.187493,0.418782 0.418782,0.418782l11.725853,0c0.231289,0 0.418782,-0.187493 0.418782,-0.418782l0,-11.725936c0,-0.231289 -0.187493,-0.418782 -0.418782,-0.418782l-11.725853,0zm5.325488,7.208529l3.777622,-3.656587c0.162494,-0.157288 0.420513,-0.157145 0.582841,0.000308l0.473452,0.459245c0.166016,0.161035 0.170048,0.42617 0.009013,0.592174c-0.003036,0.003143 -0.006131,0.006226 -0.009262,0.009274l-4.542406,4.39878c-0.162363,0.157228 -0.420193,0.157252 -0.582592,0.000059l-3.467327,-3.356219c-0.166182,-0.160857 -0.170499,-0.42598 -0.009641,-0.592174c0.003072,-0.003155 0.006179,-0.006273 0.009333,-0.009333l0.473488,-0.459281c0.162292,-0.157418 0.420217,-0.157596 0.582734,-0.000415l2.702745,2.614169z"/>
  <path stroke="null" id="svg_5" fill-rule="nonzero" fill="#000000" d="m18.173869,8.432816l11.72585,0c0.92515,0 1.67514,0.74998 1.67514,1.67514l0,11.72593c0,0.92516 -0.74999,1.67514 -1.67514,1.67514l-11.72585,0c-0.92516,0 -1.67514,-0.74998 -1.67514,-1.67514l0,-11.72593c0,-0.92516 0.74998,-1.67514 1.67514,-1.67514zm0,1.25636c-0.23129,0 -0.41879,0.18749 -0.41879,0.41878l0,11.72593c0,0.23129 0.1875,0.41879 0.41879,0.41879l11.72585,0c0.23129,0 0.41878,-0.1875 0.41878,-0.41879l0,-11.72593c0,-0.23129 -0.18749,-0.41878 -0.41878,-0.41878l-11.72585,0zm5.32548,7.20853l3.77763,-3.65659c0.16249,-0.15729 0.42051,-0.15715 0.58284,0.00031l0.47345,0.45924c0.16602,0.16104 0.17005,0.42617 0.00901,0.59218c-0.00303,0.00314 -0.00613,0.00622 -0.00926,0.00927l-4.54241,4.39878c-0.16236,0.15723 -0.42019,0.15725 -0.58259,0.00006l-3.46732,-3.35622c-0.16619,-0.16086 -0.1705,-0.42598 -0.00965,-0.59217c0.00308,-0.00316 0.00618,-0.00628 0.00934,-0.00934l0.47349,-0.45928c0.16229,-0.15742 0.42021,-0.15759 0.58273,-0.00041l2.70274,2.61417z"/>
  <path stroke="null" id="svg_6" fill-rule="nonzero" fill="#000000" d="m1.836293,8.5026l11.72585,0c0.92515,0 1.67514,0.74998 1.67514,1.67514l0,11.72593c0,0.92516 -0.74999,1.67514 -1.67514,1.67514l-11.72585,0c-0.92516,0 -1.67514,-0.74998 -1.67514,-1.67514l0,-11.72593c0,-0.92516 0.74998,-1.67514 1.67514,-1.67514zm0,1.25636c-0.23129,0 -0.41879,0.18749 -0.41879,0.41878l0,11.72593c0,0.23129 0.1875,0.41879 0.41879,0.41879l11.72585,0c0.23129,0 0.41878,-0.1875 0.41878,-0.41879l0,-11.72593c0,-0.23129 -0.18749,-0.41878 -0.41878,-0.41878l-11.72585,0zm5.32548,7.20853l3.77763,-3.65659c0.16249,-0.15729 0.42051,-0.15715 0.58284,0.00031l0.47345,0.45924c0.16602,0.16104 0.17005,0.42617 0.00901,0.59218c-0.00303,0.00314 -0.00613,0.00622 -0.00926,0.00927l-4.54241,4.39878c-0.16236,0.15723 -0.42019,0.15725 -0.58259,0.00006l-3.46732,-3.35622c-0.16619,-0.16086 -0.1705,-0.42598 -0.00965,-0.59217c0.00308,-0.00316 0.00618,-0.00628 0.00934,-0.00934l0.47349,-0.45928c0.16229,-0.15742 0.42021,-0.15759 0.58273,-0.00041l2.70274,2.61417z"/>
  <text xml:space="preserve" text-anchor="start" font-family="Helvetica, Arial, sans-serif" font-size="12" id="svg_7" y="36.286137" x="0.70774" fill-opacity="null" stroke-opacity="null" stroke-width="0" stroke="null" fill="#000000">Wrapper</text>
 </g>
</svg>