<svg id="Layer_1" data-name="Layer 1" xmlns="http://www.w3.org/2000/svg" viewBox="0 0 48 48"><title>i_</title><g id="Group_17379" data-name="Group 17379"><g id="Group_153" data-name="Group 153"><path d="M20.18,39.55a2.48,2.48,0,0,1-2.45-2.16,2.77,2.77,0,0,1,0-.5V11a2.63,2.63,0,0,1,2.67-2.57h7.18a2.48,2.48,0,0,1,2.69,2.15,2.08,2.08,0,0,1,0,.5V37h0a2.61,2.61,0,0,1-2.61,2.55H20.18Zm.17-29.09a.62.62,0,0,0-.63.6V37.14a.43.43,0,0,0,.18.31.42.42,0,0,0,.34.09h7.4a.61.61,0,0,0,.63-.59V11l1-.3-1,.13a.47.47,0,0,0-.18-.31.46.46,0,0,0-.35-.1h-7.4Z"/></g><g id="Group_154" data-name="Group 154"><path d="M42.73,39.54H36A2.69,2.69,0,0,1,34.08,39a2.72,2.72,0,0,1-1-1.82c0-.06,0-.12,0-.18V18.23a2.7,2.7,0,0,1,2.77-2.63h6.64a2.69,2.69,0,0,1,1.93.58,2.72,2.72,0,0,1,1,1.82c0,.06,0,.12,0,.18V36.94A2.69,2.69,0,0,1,42.73,39.54ZM35.81,17.6a.69.69,0,0,0-.73.66V36.91a.7.7,0,0,0,.26.48.72.72,0,0,0,.51.15h6.82a.72.72,0,0,0,.75-.65V18.23a.7.7,0,0,0-.77-.63H35.81Z"/></g><g id="Group_17393" data-name="Group 17393"><path d="M12,39.54H5.46c-1.7,0-2.88-.89-2.88-2.17V24c0-1.07,1-2.16,2.88-2.16H12c1.7,0,2.88.89,2.88,2.16V37.37C14.92,38.45,13.93,39.54,12,39.54ZM5.46,23.87a1.29,1.29,0,0,0-.9.23l0,13.27a2.39,2.39,0,0,0,.88.17H12a1.33,1.33,0,0,0,.88-.22V24a2.5,2.5,0,0,0-.88-.16Z"/></g></g></svg>