<svg xmlns="http://www.w3.org/2000/svg" width="112" height="72" viewBox="0 0 112 72">
    <defs>
        <style>
            .prefix__cls-2{fill:#fff}.prefix__cls-3{fill:#dbdbdb}
        </style>
    </defs>
    <g id="prefix__그룹_23524" data-name="그룹 23524" transform="translate(-32 -1044)">
        <rect id="prefix__사각형_14878" width="112" height="72" data-name="사각형 14878" rx="4" transform="translate(32 1044)" style="fill:rgba(255,255,255,.1)"/>
        <g id="prefix__img_dropdownlist" transform="translate(-1046 701)">
            <path id="prefix__box" d="M1 0h78a1 1 0 0 1 1 1v42H0V1a1 1 0 0 1 1-1z" class="prefix__cls-2" transform="translate(1094 372)"/>
            <path id="prefix__사각형_11392" d="M0 0H59V5H0z" class="prefix__cls-3" data-name="사각형 11392" transform="translate(1102 380)"/>
            <path id="prefix__사각형_11393" d="M0 0H46V5H0z" data-name="사각형 11393" transform="translate(1102 391)" style="fill:#a5a5a5"/>
            <path id="prefix__사각형_11394" d="M0 0H59V5H0z" class="prefix__cls-3" data-name="사각형 11394" transform="translate(1102 402)"/>
            <g id="prefix__그룹_16891" data-name="그룹 16891" transform="translate(1094 354)">
                <rect id="prefix__box-2" width="80" height="16" class="prefix__cls-2" data-name="box" rx="1" transform="translate(0 1)"/>
                <path id="prefix__사각형_11391" d="M0 0H33V5H0z" data-name="사각형 11391" transform="translate(8 6)" style="fill:#ccc"/>
                <g id="prefix__ico_collapse" transform="translate(66 4)">
                    <path id="prefix__click_area" d="M0 0H9V9H0z" style="fill:transparent"/>
                    <path id="prefix__ico_collapse-2" d="M0 5.516l2.758-2.758L0 0" data-name="ico_collapse" transform="rotate(-90 3.813 2.282)" style="fill:none;stroke:#bbb;stroke-linecap:round;stroke-miterlimit:10;stroke-width:.8px"/>
                </g>
            </g>
        </g>
    </g>
</svg>
