<svg width="48" height="48" xmlns="http://www.w3.org/2000/svg">
 <!-- Generator: Sketch 51.2 (57519) - http://www.bohemiancoding.com/sketch -->

 <title>icon/dropdown</title>
 <desc>Created with Sketch.</desc>
 <g>
  <title>background</title>
  <rect x="-1" y="-1" width="5.829786" height="5.829786" id="canvas_background" fill="none"/>
 </g>
 <g>
  <title>Layer 1</title>
  <path d="m41,3zm-34,18l34,0c2.20914,0 4,1.79086 4,4l0,16c0,2.20914 -1.79086,4 -4,4l-34,0c-2.20914,0 -4,-1.79086 -4,-4l0,-16c0,-2.20914 1.79086,-4 4,-4zm0,3c-0.55228,0 -1,0.44772 -1,1l0,16c0,0.55228 0.44772,1 1,1l34,0c0.55228,0 1,-0.44772 1,-1l0,-16c0,-0.55228 -0.44772,-1 -1,-1l-34,0zm3,3l28,0c0.55228,0 1,0.44772 1,1l0,1c0,0.55228 -0.44772,1 -1,1l-28,0c-0.55228,0 -1,-0.44772 -1,-1l0,-1c0,-0.55228 0.44772,-1 1,-1z" fill="#000000" fill-rule="nonzero" id="svg_2"/>
  <rect fill="none" stroke-width="3" x="4.571858" y="4.407297" width="12" height="12" id="svg_5" stroke="#000000" rx="2"/>
 </g>
</svg>