<svg xmlns="http://www.w3.org/2000/svg" width="112" height="72" viewBox="0 0 112 72">
    <defs>
        <clipPath id="prefix__clip-path">
            <path d="M0 0H7V7H0z" class="prefix__cls-1"/>
        </clipPath>
        <style>
            .prefix__cls-1,.prefix__cls-7{fill:none}.prefix__cls-5{clip-path:url(#prefix__clip-path)}.prefix__cls-6{fill:#666}.prefix__cls-7{stroke:#707070}
        </style>
    </defs>
    <g id="prefix__그룹_23527" data-name="그룹 23527" transform="translate(-264 -1317)">
        <rect id="prefix__사각형_14878" width="112" height="72" data-name="사각형 14878" rx="4" transform="translate(264 1317)" style="fill:rgba(255,255,255,.1)"/>
        <g id="prefix__그룹_23336" data-name="그룹 23336" transform="translate(274 1343)">
            <path id="prefix__box" d="M0 0H98V10H0z" transform="translate(-3 4)" style="fill:#fff"/>
        </g>
        <text id="prefix__LOGO" transform="translate(313 1354)" style="fill:#333;font-size:5px;font-family:NotoSansCJKkr-Bold,Noto Sans CJK KR;font-weight:700">
            <tspan x="0" y="0">LOGO</tspan>
        </text>
        <g id="prefix__그룹_23337" data-name="그룹 23337" transform="translate(238 -.5)">
            <g id="prefix__ic_setting" class="prefix__cls-5" transform="translate(121 1349)">
                <path id="prefix__icon_box" d="M0 0H7V7H0z" class="prefix__cls-1"/>
                <path id="prefix__ic_setting-2" d="M1.885 4.116a.274.274 0 0 1-.235-.175l-.058-.267-.331-.137-.213.139a.246.246 0 0 1-.288-.013l-.286-.282a.27.27 0 0 1-.042-.286l.15-.231-.137-.33L.2 2.483A.271.271 0 0 1 0 2.27v-.4a.273.273 0 0 1 .176-.233l.269-.057.137-.329-.139-.21A.27.27 0 0 1 .457.755L.74.471A.258.258 0 0 1 1.031.43l.23.148.332-.136L1.645.2a.269.269 0 0 1 .214-.2h.4A.274.274 0 0 1 2.5.177l.057.265.331.136L3.1.44a.248.248 0 0 1 .29.014l.285.28a.271.271 0 0 1 .042.287l-.15.231.137.329.249.052a.27.27 0 0 1 .194.215v.4a.268.268 0 0 1-.175.232l-.272.054-.137.329.139.211a.27.27 0 0 1-.015.288l-.282.283a.279.279 0 0 1-.176.067.261.261 0 0 1-.114-.026l-.231-.149-.331.136-.053.247a.267.267 0 0 1-.214.192.115.115 0 0 1-.027 0zm-.579-.9l.486.2a.159.159 0 0 1 .1.113l.058.274h.257l.056-.272a.158.158 0 0 1 .1-.113l.486-.2a.161.161 0 0 1 .149.013l.236.152.171-.183-.155-.234a.157.157 0 0 1-.014-.147l.2-.482a.158.158 0 0 1 .115-.094l.275-.057V1.93l-.274-.056a.158.158 0 0 1-.115-.095l-.2-.483a.158.158 0 0 1 .013-.146L3.4.915 3.223.737l-.235.152A.162.162 0 0 1 2.84.9L2.353.7a.159.159 0 0 1-.095-.111L2.2.315h-.256l-.057.274A.16.16 0 0 1 1.792.7l-.486.2a.162.162 0 0 1-.149-.01L.923.737.741.918l.154.232a.157.157 0 0 1 .014.15l-.2.483a.16.16 0 0 1-.114.095l-.276.058v.255l.274.056a.159.159 0 0 1 .115.094l.2.483a.158.158 0 0 1-.014.147L.741 3.2l.182.178.235-.152a.157.157 0 0 1 .087-.026.168.168 0 0 1 .06.013zm.129-1.155a.638.638 0 1 1 .638.634.636.636 0 0 1-.639-.637zm.319 0a.319.319 0 1 0 .319-.317.319.319 0 0 0-.32.314z" class="prefix__cls-6" data-name="ic_setting" transform="translate(1.387 1.408)"/>
            </g>
            <g id="prefix__ic_notification" class="prefix__cls-5" transform="translate(114 1349)">
                <path id="prefix__box-2" d="M0 0H7V7H0z" class="prefix__cls-1" data-name="box"/>
                <path id="prefix__notification" d="M1318.216 19.673l-.09-.137-.081-.131a1.034 1.034 0 0 1-.222-.732 1.158 1.158 0 0 0-.7-1.087.138.138 0 0 0 .022-.045.408.408 0 0 0 .014-.1.458.458 0 0 0-.915 0 .43.43 0 0 0 .013.1.135.135 0 0 0 .022.046 1.16 1.16 0 0 0-.7 1.089 1.032 1.032 0 0 1-.222.732l-.078.126-.094.144a1.006 1.006 0 0 0-.161.445.354.354 0 0 0 .362.344h.684v.043a.64.64 0 0 0 1.278 0v-.043h.682a.356.356 0 0 0 .362-.355 1 1 0 0 0-.176-.439zm-1.679-2.2a.166.166 0 0 1-.006-.04.168.168 0 0 1 .336 0 .146.146 0 0 1-.005.037.13.13 0 0 0 0 .04 1.169 1.169 0 0 0-.165-.014h-.007a1.127 1.127 0 0 0-.151.013.118.118 0 0 0-.002-.032zm.512 3.031a.35.35 0 0 1-.7 0 .306.306 0 0 1 0-.043h.689a.316.316 0 0 1 .011.047zm.969-.318h-2.638a.073.073 0 0 1-.072-.08.777.777 0 0 1 .118-.291l.095-.145.079-.128a1.28 1.28 0 0 0 .262-.873.852.852 0 0 1 .835-.9.85.85 0 0 1 .833.9 1.28 1.28 0 0 0 .262.873l.082.132.091.138a.756.756 0 0 1 .12.3.07.07 0 0 1-.068.078z" class="prefix__cls-6" transform="translate(-1313.24 -15.594)"/>
            </g>
        </g>
        <path id="prefix__패스_19294" d="M-11738.745-3910h5" class="prefix__cls-7" data-name="패스 19294" transform="translate(12012.745 5260)"/>
        <path id="prefix__패스_19295" d="M-11738.745-3910h5" class="prefix__cls-7" data-name="패스 19295" transform="translate(12012.745 5262)"/>
        <path id="prefix__패스_19296" d="M-11738.745-3910h5" class="prefix__cls-7" data-name="패스 19296" transform="translate(12012.745 5264)"/>
    </g>
</svg>
