<svg width="32" height="32" xmlns="http://www.w3.org/2000/svg">

 <g>
  <rect fill="none" id="canvas_background" height="402" width="582" y="-1" x="-1"/>
 </g>
 <g>
  <path stroke="null" id="star" fill="#333333" d="m26.45014,12.32981c-0.18712,-0.53975 -0.66743,-0.93495 -1.24569,-1.02074l-5.62455,-0.83632l-2.44478,-5.07601c-0.25738,-0.533 -0.80795,-0.87415 -1.41323,-0.87415c-0.60528,0 -1.15585,0.34115 -1.41323,0.87415l-2.44478,5.07601l-5.62522,0.83632c-0.57759,0.08579 -1.0579,0.48099 -1.24435,1.02074c-0.18577,0.54111 -0.04526,1.13694 0.36277,1.54361l4.12214,4.11539l-0.95588,5.70899c-0.09728,0.57488 0.15199,1.1518 0.64041,1.48822c0.26819,0.18442 0.58366,0.27832 0.89914,0.27832c0.25941,0 0.51949,-0.0635 0.75525,-0.18983l4.90375,-2.64001l4.90442,2.64001c0.23576,0.12633 0.49585,0.18983 0.75458,0.18983c0.31548,0 0.63095,-0.0939 0.89982,-0.27832c0.48841,-0.33642 0.73634,-0.91334 0.63974,-1.48822l-0.95657,-5.70899l4.1235,-4.11539c0.40735,-0.40735 0.54718,-1.00318 0.36276,-1.54361zm-5.60225,4.59773c-0.34588,0.34452 -0.5026,0.83024 -0.42357,1.30649l0.95657,5.70899l-4.90442,-2.63866c-0.23509,-0.127 -0.4945,-0.18982 -0.75526,-0.18982c-0.2594,0 -0.51949,0.0635 -0.75457,0.18982l-4.90442,2.63866l0.95656,-5.70899c0.07971,-0.47625 -0.07701,-0.96197 -0.42289,-1.30649l-4.12214,-4.11539l5.62454,-0.83767c0.51409,-0.07634 0.95657,-0.3979 1.17747,-0.85659l2.44613,-5.07465l2.44546,5.07533c0.22157,0.45869 0.66338,0.77957 1.17679,0.85658l5.62589,0.83767l-4.12214,4.11472z"/>
  <rect fill-opacity="0" id="svg_1" height="29.015058" width="29.015058" y="1.281" x="1.561996" stroke-width="null" stroke="#000000" fill="#ed1212"/>
 </g>
</svg>
