<svg xmlns="http://www.w3.org/2000/svg" width="112" height="72" viewBox="0 0 112 72">
    <defs>
        <style>
            .prefix__cls-2{fill:#fff}.prefix__cls-3{fill:#a5a5a5}.prefix__cls-4{fill:transparent}.prefix__cls-10,.prefix__cls-5,.prefix__cls-8{fill:none}.prefix__cls-5{stroke:#bbb;stroke-linecap:round;stroke-miterlimit:10;stroke-width:.8px}.prefix__cls-6{fill:#dbdbdb}.prefix__cls-8{stroke:#707070;stroke-width:.5px}.prefix__cls-9{stroke:none}
        </style>
    </defs>
    <g id="prefix__그룹_23501" data-name="그룹 23501" transform="translate(-148 -156)">
        <rect id="prefix__사각형_16254" width="112" height="72" data-name="사각형 16254" rx="4" transform="translate(148 156)" style="fill:rgba(255,255,255,.1)"/>
        <g id="prefix__그룹_23326" data-name="그룹 23326" transform="translate(164 176)">
            <rect id="prefix__box" width="80" height="15" class="prefix__cls-2" rx="1" transform="translate(0 1)"/>
            <path id="prefix__사각형_11391" d="M0 0H28V2H0z" class="prefix__cls-3" data-name="사각형 11391" transform="translate(10 5)"/>
            <path id="prefix__사각형_16262" d="M0 0H49V2H0z" class="prefix__cls-3" data-name="사각형 16262" transform="translate(10 10)"/>
            <g id="prefix__ico_collapse" transform="translate(66 4.051)">
                <path id="prefix__click_area" d="M0 0H9V9H0z" class="prefix__cls-4"/>
                <path id="prefix__ico_collapse-2" d="M0 0l2.758 2.758L0 5.516" class="prefix__cls-5" data-name="ico_collapse" transform="rotate(90 1.833 5.214)"/>
            </g>
        </g>
        <path id="prefix__box-2" d="M1 0h78a1 1 0 0 1 1 1v24H0V1a1 1 0 0 1 1-1z" class="prefix__cls-2" data-name="box" transform="translate(164 203)"/>
        <path id="prefix__사각형_16265" d="M0 0H59V2H0z" class="prefix__cls-6" data-name="사각형 16265" transform="translate(174 212)"/>
        <path id="prefix__패스_19292" d="M0 0h46v2H0z" class="prefix__cls-6" data-name="패스 19292" transform="translate(174 222)"/>
        <path id="prefix__사각형_16267" d="M0 0H59V2H0z" class="prefix__cls-6" data-name="사각형 16267" transform="translate(174 217)"/>
        <g id="prefix__그룹_23330" data-name="그룹 23330" transform="translate(164 192)">
            <rect id="prefix__box-3" width="80" height="12" class="prefix__cls-2" data-name="box" rx="1" transform="translate(0 1)"/>
            <g id="prefix__ico_collapse-3" data-name="ico_collapse" transform="translate(66 4.47)">
                <path id="prefix__click_area-2" d="M0 0H9V9H0z" class="prefix__cls-4" data-name="click_area"/>
                <path id="prefix__ico_collapse-4" d="M0 5.516l2.758-2.758L0 0" class="prefix__cls-5" data-name="ico_collapse" transform="rotate(-90 3.575 2.044)"/>
            </g>
        </g>
        <path id="prefix__패스_19291" d="M-11718.488-5057h72.553" data-name="패스 19291" transform="translate(11885.988 5265)" style="opacity:.5;stroke:#707070;stroke-width:.5px;fill:none"/>
        <path id="prefix__사각형_16272" d="M0 0H80V0.5H0z" class="prefix__cls-6" data-name="사각형 16272" transform="translate(164 167)"/>
        <path id="prefix__사각형_16273" d="M0 0H28V2H0z" class="prefix__cls-3" data-name="사각형 16273" transform="translate(174 197)"/>
        <path id="prefix__사각형_16274" d="M0 0H49V2H0z" class="prefix__cls-3" data-name="사각형 16274" transform="translate(174 202)"/>
        <g id="prefix__사각형_16275" class="prefix__cls-8" data-name="사각형 16275">
            <path d="M0 0H4V4H0z" class="prefix__cls-9" transform="translate(167.25 170)"/>
            <path d="M0.25 0.25H3.75V3.75H0.25z" class="prefix__cls-10" transform="translate(167.25 170)"/>
        </g>
        <g id="prefix__사각형_16276" class="prefix__cls-8" data-name="사각형 16276">
            <path d="M0 0H4V4H0z" class="prefix__cls-9" transform="translate(167 183)"/>
            <path d="M0.25 0.25H3.75V3.75H0.25z" class="prefix__cls-10" transform="translate(167 183)"/>
        </g>
        <g id="prefix__사각형_16277" class="prefix__cls-8" data-name="사각형 16277">
            <path d="M0 0H4V4H0z" class="prefix__cls-9" transform="translate(167 198)"/>
            <path d="M0.25 0.25H3.75V3.75H0.25z" class="prefix__cls-10" transform="translate(167 198)"/>
        </g>
        <path id="prefix__사각형_16279" d="M0 0H28V2H0z" class="prefix__cls-3" data-name="사각형 16279" transform="translate(174 171.25)"/>
    </g>
</svg>
