<svg xmlns="http://www.w3.org/2000/svg" width="112" height="72" viewBox="0 0 112 72">
    <defs>
        <style>
            .prefix__cls-2{fill:#a5a5a5;font-family:NotoSansCJKkr-Regular,Noto Sans CJK KR;font-size:5px}.prefix__cls-5,.prefix__cls-7{fill:none}.prefix__cls-5{stroke:#767676}.prefix__cls-6{fill:transparent}.prefix__cls-7{stroke:#a5a5a5;stroke-linecap:round;stroke-miterlimit:10;stroke-width:.5px}
        </style>
    </defs>
    <g id="prefix__그룹_23532" data-name="그룹 23532" transform="translate(-148 -1580)">
        <rect id="prefix__사각형_14878" width="112" height="72" data-name="사각형 14878" rx="4" transform="translate(148 1580)" style="fill:rgba(255,255,255,.1)"/>
        <g id="prefix__그룹_23339" data-name="그룹 23339" transform="translate(101 -1144)">
            <text id="prefix__LNB_Menu3" class="prefix__cls-2" data-name="LNB Menu3" transform="translate(62 2782)">
                <tspan x="0" y="0">LNB Menu3</tspan>
            </text>
            <text id="prefix__LNB_Menu2" class="prefix__cls-2" data-name="LNB Menu2" transform="translate(62 2758)">
                <tspan x="0" y="0">LNB Menu2</tspan>
            </text>
            <text id="prefix___2depth_Menu2" data-name="2depth Menu2" transform="translate(67 2773)" style="font-size:4px;fill:#a5a5a5;font-family:NotoSansCJKkr-Regular,Noto Sans CJK KR">
                <tspan x="0" y="0">2depth Menu2</tspan>
            </text>
            <text id="prefix__LNB_Menu1" class="prefix__cls-2" data-name="LNB Menu1" transform="translate(62 2749)">
                <tspan x="0" y="0">LNB Menu1</tspan>
            </text>
            <text id="prefix___2depth_Menu1" data-name="2depth Menu1" transform="translate(67 2766)" style="fill:#fff;font-family:NotoSansCJKkr-Bold,Noto Sans CJK KR;font-weight:700;font-size:4px">
                <tspan x="0" y="0">2depth Menu1</tspan>
            </text>
        </g>
        <path id="prefix__선_1734" d="M0 0L85 0" class="prefix__cls-5" data-name="선 1734" transform="translate(162.5 1595.5)"/>
        <path id="prefix__선_1733" d="M0 0L0 46" class="prefix__cls-5" data-name="선 1733" transform="translate(214.5 1595.5)"/>
        <g id="prefix__ico_collapse" transform="translate(203 1600)">
            <path id="prefix__click_area" d="M0 0H7V7H0z" class="prefix__cls-6"/>
            <path id="prefix__ico_collapse-2" d="M0 0l2.2 2.2L0 4.406" class="prefix__cls-7" data-name="ico_collapse" transform="rotate(90 1.653 3.975)"/>
        </g>
        <g id="prefix__ico_collapse-3" data-name="ico_collapse" transform="translate(203 1632)">
            <path id="prefix__click_area-2" d="M0 0H7V7H0z" class="prefix__cls-6" data-name="click_area"/>
            <path id="prefix__ico_collapse-4" d="M0 0l2.2 2.2L0 4.406" class="prefix__cls-7" data-name="ico_collapse" transform="rotate(90 1.653 3.975)"/>
        </g>
        <g id="prefix__ico_collapse-5" data-name="ico_collapse" transform="translate(203 1609)">
            <path id="prefix__click_area-3" d="M0 0H7V7H0z" class="prefix__cls-6" data-name="click_area"/>
            <path id="prefix__ico_collapse-6" d="M0 4.406L2.2 2.2 0 0" class="prefix__cls-7" data-name="ico_collapse" transform="rotate(-90 2.95 1.727)"/>
        </g>
    </g>
</svg>
