<?xml version="1.0" encoding="utf-8"?>
<!-- Svg Vector Icons : http://www.onlinewebfonts.com/icon -->
<!DOCTYPE svg PUBLIC "-//W3C//DTD SVG 1.1//EN" "http://www.w3.org/Graphics/SVG/1.1/DTD/svg11.dtd">
<svg version="1.1" xmlns="http://www.w3.org/2000/svg" xmlns:xlink="http://www.w3.org/1999/xlink" x="0px" y="0px" viewBox="0 0 1000 1000" enable-background="new 0 0 1000 1000" xml:space="preserve">
<metadata> Svg Vector Icons : http://www.onlinewebfonts.com/icon </metadata>
<g><g transform="translate(0.000000,511.000000) scale(0.100000,-0.100000)"><path d="M2373.2,110v-3404.2h2630.5h2630.5V110v3404.2H5003.7H2373.2V110z M7258.4,110v-3028.4H5003.7H2749V110v3028.4h2254.7h2254.7V110z"/><path d="M107.5,3111.9c-6.6-15.5-8.8-1377.1-6.6-3024l6.6-2995.2l183.5-6.6l181.3-6.6V110v3028.4H295.4C173.8,3138.4,114.1,3129.6,107.5,3111.9z"/><path d="M9535.3,110v-3030.6l183.5,6.6l181.3,6.6V110v3017.3l-181.3,6.6l-183.5,6.6V110z"/><path d="M848,112.2c0-2018.2,6.6-3008.5,22.1-3008.5c13.3,0,265.3,61.9,563.7,134.8l541.6,134.9v194.5v194.5l-324.9-86.2c-181.3-48.6-349.3-92.8-375.8-99.5l-50.8-13.3V107.8c0,1399.3,6.6,2544.3,13.3,2544.3c13.3,0,660.9-172.4,711.8-187.9c19.9-6.6,26.5,39.8,26.5,185.7v194.5l-490.7,123.8c-271.9,68.5-526.1,130.4-563.7,139.3l-72.9,15.5V112.2z"/><path d="M8551.6,2979.2c-278.5-70.7-510.6-134.8-515-137.1c-2.2-4.4-4.4-92.8,0-194.5l6.6-187.9l353.7,95.1c194.5,53,360.3,97.3,371.4,97.3c8.8,0,15.5-1145,15.5-2544.3v-2544.3l-48.6,13.3c-28.7,6.6-196.7,50.8-375.8,99.5l-327.1,86.2v-194.5v-194.5l541.6-134.9c298.4-72.9,550.4-134.8,563.7-134.8c15.5,0,22.1,988.1,22.1,3006.3v3006.3l-48.6-2.2C9082.1,3111.9,8832.3,3052.2,8551.6,2979.2z"/></g></g>
</svg>