<svg xmlns="http://www.w3.org/2000/svg" width="112" height="72" viewBox="0 0 112 72">
    <defs>
        <style>
            .prefix__cls-7{fill:none}.prefix__cls-6{stroke:none}
        </style>
    </defs>
    <g id="prefix__그룹_23506" data-name="그룹 23506" transform="translate(-264 -408)">
        <rect id="prefix__사각형_14813" width="112" height="72" data-name="사각형 14813" rx="4" transform="translate(264 408)" style="fill:rgba(255,255,255,.1)"/>
        <g id="prefix__comp_segmented_button" data-name="comp_segmented button" transform="translate(281 436)">
            <g id="prefix__그룹_17983" data-name="그룹 17983" transform="translate(39.256 -4)">
                <g id="prefix__button_unselected_Min_width_:_60px" data-name="button_unselected_Min width : 60px" style="stroke:#ccc;fill:none">
                    <path d="M0 0h38a2 2 0 0 1 2 2v12a2 2 0 0 1-2 2H0V0z" class="prefix__cls-6" transform="translate(-.256 4)"/>
                    <path d="M1 .5h37A1.5 1.5 0 0 1 39.5 2v12a1.5 1.5 0 0 1-1.5 1.5H1a.5.5 0 0 1-.5-.5V1A.5.5 0 0 1 1 .5z" class="prefix__cls-7" transform="translate(-.256 4)"/>
                </g>
                <text id="prefix__Text:_Regular_12pt" data-name="Text: Regular/ 12pt" transform="translate(19.744 15)" style="font-size:8px;font-family:NotoSansCJKkr-Regular,Noto Sans CJK KR;fill:#ccc">
                    <tspan x="-15.012" y="0">Button2</tspan>
                </text>
            </g>
            <g id="prefix__그룹_17982" data-name="그룹 17982" transform="translate(-.326 -4)">
                <g id="prefix__button_selected_Min_width_:_60px" data-name="button_selected_Min width : 60px" style="fill:#fff;stroke:#fff">
                    <path d="M2 0h38v16H2a2 2 0 0 1-2-2V2a2 2 0 0 1 2-2z" class="prefix__cls-6" transform="translate(.326 4)"/>
                    <path d="M2 .5h37a.5.5 0 0 1 .5.5v14a.5.5 0 0 1-.5.5H2A1.5 1.5 0 0 1 .5 14V2A1.5 1.5 0 0 1 2 .5z" class="prefix__cls-7" transform="translate(.326 4)"/>
                </g>
                <text id="prefix__Text:_Regular_12pt-2" data-name="Text: Regular/ 12pt" transform="translate(20.326 15)" style="fill:#2b2b2b;font-size:8px;font-family:NotoSansCJKkr-Regular,Noto Sans CJK KR">
                    <tspan x="-15.012" y="0">Button1</tspan>
                </text>
            </g>
        </g>
    </g>
</svg>
