<svg xmlns="http://www.w3.org/2000/svg" width="112" height="72" viewBox="0 0 112 72">
    <defs>
        <style>
            .prefix__cls-3{fill:#fff}.prefix__cls-4{fill:rgba(255,255,255,.2)}
        </style>
    </defs>
    <g id="prefix__그룹_23543" data-name="그룹 23543" transform="translate(-148 -2227)">
        <rect id="prefix__사각형_14907" width="112" height="72" data-name="사각형 14907" rx="4" transform="translate(148 2227)" style="fill:rgba(255,255,255,.1)"/>
        <g id="prefix__img_slider" transform="translate(-263 984)">
            <g id="prefix__Slider_range_normal" transform="translate(428 1274.875)">
                <rect id="prefix__사각형_14905" width="80" height="4" data-name="사각형 14905" rx="2" transform="translate(-1 10.125)" style="fill:#767676"/>
                <rect id="prefix__사각형_14906" width="38" height="4" class="prefix__cls-3" data-name="사각형 14906" rx="2" transform="translate(21 10.125)"/>
                <path id="prefix__selected" d="M7.653 0A7.653 7.653 0 1 1 0 7.653 7.653 7.653 0 0 1 7.653 0z" class="prefix__cls-4" transform="translate(49.592 4.472)"/>
                <path id="prefix__selected-2" d="M7.653 0a7.653 7.653 0 0 1 7.653 7.653 9.117 9.117 0 0 1-.067 1.021A7.654 7.654 0 1 1 7.653 0z" class="prefix__cls-4" data-name="selected" transform="translate(13.101 4.472)"/>
                <circle id="prefix__타원_7" cx="4" cy="4" r="4" class="prefix__cls-3" data-name="타원 7" transform="translate(53 8.125)"/>
                <circle id="prefix__타원_662" cx="4" cy="4" r="4" class="prefix__cls-3" data-name="타원 662" transform="translate(17 8.125)"/>
            </g>
            <g id="prefix__Slider_selected" transform="translate(461.375 1256)">
                <g id="prefix__tooltip" transform="translate(4.377)">
                    <g id="prefix__그룹_17094" data-name="그룹 17094" transform="translate(-23.594 1.118)">
                        <path id="prefix__합치기_48" d="M18.138 14H1.686C.754 14 0 13.477 0 12.833V1.166C0 .522.754 0 1.686 0h38.765c.931 0 1.686.522 1.686 1.166v11.667c0 .644-.754 1.167-1.686 1.167H24.219l-3.04 4.256z" class="prefix__cls-3" data-name="합치기 48"/>
                        <text id="prefix___30_-_70_" data-name="30 - 70%" transform="translate(20.842 10.882)" style="fill:#161616;font-size:9px;font-family:NotoSansCJKkr-Regular,Noto Sans CJK KR">
                            <tspan x="-17.712" y="0">30 - 70%</tspan>
                        </text>
                    </g>
                </g>
            </g>
        </g>
    </g>
</svg>
