<svg xmlns="http://www.w3.org/2000/svg" width="112" height="72" viewBox="0 0 112 72">
    <defs>
        <style>
            .prefix__cls-4{fill:#fff}
        </style>
    </defs>
    <g id="prefix__그룹_23549" data-name="그룹 23549" transform="translate(-32 -2509)">
        <path id="prefix__패스_19396" d="M4 0h104a4 4 0 0 1 4 4v64a4 4 0 0 1-4 4H4a4 4 0 0 1-4-4V4a4 4 0 0 1 4-4z" data-name="패스 19396" transform="translate(32 2509)" style="fill:rgba(255,255,255,.1)"/>
        <g id="prefix__사각형_16437" data-name="사각형 16437" style="stroke:#ccc;fill:#fff">
            <path d="M0 0H34V13H0z" style="stroke:none" transform="translate(70 2540)"/>
            <path d="M0.5 0.5H33.5V12.5H0.5z" style="fill:none" transform="translate(70 2540)"/>
        </g>
        <text id="prefix___5" data-name="5" transform="translate(85 2549)" style="fill:#333;font-size:6px;font-family:NotoSansCJKkr-Bold,Noto Sans CJK KR;font-weight:700">
            <tspan x="0" y="0">5</tspan>
        </text>
        <g id="prefix__그룹_23726" data-name="그룹 23726" transform="translate(-8.6 .11)">
            <path id="prefix__패스_19399" d="M2.11 0l2.11 2.64H0z" class="prefix__cls-4" data-name="패스 19399" transform="translate(117 2542)"/>
            <path id="prefix__패스_19400" d="M2.11 2.64L4.22 0H0z" class="prefix__cls-4" data-name="패스 19400" transform="translate(117 2549)"/>
            <path id="prefix__패스_19401" d="M0 0h7v1H0z" data-name="패스 19401" transform="translate(115.6 2546.3)" style="fill:#ccc"/>
        </g>
    </g>
</svg>
