<svg xmlns="http://www.w3.org/2000/svg" width="112" height="72" viewBox="0 0 112 72">
    <defs>
        <style>
            .prefix__cls-10{fill:#fff}.prefix__cls-6{fill:#767676}.prefix__cls-10,.prefix__cls-9{stroke:none}
        </style>
    </defs>
    <g id="prefix__그룹_23548" data-name="그룹 23548" transform="translate(-148 -2368)">
        <rect id="prefix__사각형_16249" width="112" height="72" data-name="사각형 16249" rx="4" transform="translate(148 2368)" style="fill:rgba(255,255,255,.1)"/>
        <g id="prefix__그룹_23345" data-name="그룹 23345" transform="translate(124)">
            <g id="prefix__step_number_off" transform="translate(47 2398)">
                <g id="prefix__Ellipse_3_copy" data-name="Ellipse 3 copy" style="fill:transparent">
                    <path d="M6 11.75C2.83 11.75.25 9.17.25 6S2.83.25 6 .25 11.75 2.83 11.75 6 9.17 11.75 6 11.75z" class="prefix__cls-9"/>
                    <path d="M6 .5C2.967.5.5 2.967.5 6s2.467 5.5 5.5 5.5 5.5-2.467 5.5-5.5S9.033.5 6 .5M6 0c3.314 0 6 2.686 6 6s-2.686 6-6 6-6-2.686-6-6 2.686-6 6-6z" class="prefix__cls-10"/>
                </g>
            </g>
            <g id="prefix__step_number_off-2" data-name="step_number_off" transform="translate(74 2398)">
                <g id="prefix__Ellipse_3_copy-2" data-name="Ellipse 3 copy" style="fill:#fff">
                    <path d="M6 11.75C2.83 11.75.25 9.17.25 6S2.83.25 6 .25 11.75 2.83 11.75 6 9.17 11.75 6 11.75z" class="prefix__cls-9"/>
                    <path d="M6 .5C2.967.5.5 2.967.5 6s2.467 5.5 5.5 5.5 5.5-2.467 5.5-5.5S9.033.5 6 .5M6 0c3.314 0 6 2.686 6 6s-2.686 6-6 6-6-2.686-6-6 2.686-6 6-6z" class="prefix__cls-10"/>
                </g>
            </g>
            <g id="prefix__step_number_off-3" data-name="step_number_off" transform="translate(101 2398)">
                <g id="prefix__Ellipse_3_copy-3" data-name="Ellipse 3 copy" style="stroke:#767676;stroke-width:.5px;fill:none">
                    <circle cx="6" cy="6" r="6" class="prefix__cls-9"/>
                    <circle cx="6" cy="6" r="5.75" style="fill:none"/>
                </g>
                <text id="prefix___1" data-name="1" transform="translate(4.7 8)" style="font-size:5px;font-family:NotoSansCJKkr-Medium,Noto Sans CJK KR;font-weight:500;fill:#767676">
                    <tspan x="0" y="0">3</tspan>
                </text>
            </g>
            <g id="prefix__그룹_23342" data-name="그룹 23342" transform="translate(62.843 2402.906)">
                <circle id="prefix__타원_143" cx=".5" cy=".5" r=".5" class="prefix__cls-6" data-name="타원 143" transform="translate(.157 .094)"/>
                <circle id="prefix__타원_144" cx=".5" cy=".5" r=".5" class="prefix__cls-6" data-name="타원 144" transform="translate(3.157 .094)"/>
                <circle id="prefix__타원_145" cx=".5" cy=".5" r=".5" class="prefix__cls-6" data-name="타원 145" transform="translate(6.157 .094)"/>
            </g>
            <g id="prefix__그룹_23343" data-name="그룹 23343" transform="translate(89.843 2402.906)">
                <circle id="prefix__타원_143-2" cx=".5" cy=".5" r=".5" class="prefix__cls-6" data-name="타원 143" transform="translate(.157 .094)"/>
                <circle id="prefix__타원_144-2" cx=".5" cy=".5" r=".5" class="prefix__cls-6" data-name="타원 144" transform="translate(3.157 .094)"/>
                <circle id="prefix__타원_145-2" cx=".5" cy=".5" r=".5" class="prefix__cls-6" data-name="타원 145" transform="translate(6.157 .094)"/>
            </g>
        </g>
        <text id="prefix___1-2" data-name="1" transform="translate(202.7 2406)" style="font-size:5px;font-family:NotoSansCJKkr-Medium,Noto Sans CJK KR;font-weight:500">
            <tspan x="0" y="0">2</tspan>
        </text>
        <path id="prefix__check_icon" d="M1.752 3.394L0 1.642l.383-.383L1.77 2.628 4.544 0l.383.4z" transform="translate(174.342 2402.745)" style="fill:#fff"/>
    </g>
</svg>
