<svg xmlns="http://www.w3.org/2000/svg" width="112" height="72" viewBox="0 0 112 72">
    <defs>
        <style>
            .prefix__cls-4{fill:transparent}.prefix__cls-5{fill:#161616}
        </style>
    </defs>
    <g id="prefix__그룹_23553" data-name="그룹 23553" transform="translate(-30 -2794)">
        <rect id="prefix__사각형_16178" width="112" height="72" data-name="사각형 16178" rx="4" transform="translate(30 2794)" style="fill:rgba(255,255,255,.1)"/>
        <g id="prefix__그룹_23714" data-name="그룹 23714" transform="translate(6 727)">
            <path id="prefix__사각형_16226" d="M2 0h35a2 2 0 0 1 2 2v13H0V2a2 2 0 0 1 2-2z" data-name="사각형 16226" transform="translate(48 2096)" style="fill:#fff"/>
            <path id="prefix__패스_19297" d="M2 0h19a2 2 0 0 1 2 2v13H0V2a2 2 0 0 1 2-2z" data-name="패스 19297" transform="translate(88 2096)" style="fill:#767676"/>
            <g id="prefix__그룹_23310" data-name="그룹 23310" transform="translate(-5 -1)">
                <g id="prefix__Ico_Cart_Default" transform="translate(63 2100.881)">
                    <path id="prefix__Area" d="M0 0H7V7H0z" class="prefix__cls-4" transform="translate(0 .119)"/>
                    <path id="prefix__Ico_Cart" d="M4.009 5.638a.793.793 0 1 1 .793.793.794.794 0 0 1-.793-.793zm.447 0a.346.346 0 1 0 .344-.346.346.346 0 0 0-.344.346zm-3.438 0a.793.793 0 1 1 .793.793.794.794 0 0 1-.792-.793zm.447 0a.346.346 0 1 0 .346-.345.346.346 0 0 0-.345.345zM1.5 4.67a.7.7 0 0 1-.71-.7.825.825 0 0 1 .358-.622L.44.573A.043.043 0 0 0 .4.529H0V0h.4a.571.571 0 0 1 .569.44l.088.4h4.8a.256.256 0 0 1 .22.088c.041.065.027.126 0 .22-.088.308-.485 1.938-.573 2.158a.765.765 0 0 1-.661.485h-3.3c-.088 0-.226.05-.226.182a.208.208 0 0 0 .226.215h3.831v.482zm.264-1.41H4.89a.618.618 0 0 0 .176-.176c.044-.088.264-.925.485-1.762H1.233z" class="prefix__cls-5" transform="translate(.529 .352)"/>
                </g>
                <text id="prefix__Tab" transform="translate(77 2107)" style="font-size:6px;font-family:NotoSansCJKkr-Bold,Noto Sans CJK KR;font-weight:700;fill:#333">
                    <tspan x="-5.355" y="0">Tab</tspan>
                </text>
            </g>
            <g id="prefix__Ico_Cart_Default-2" data-name="Ico_Cart_Default" transform="translate(98 2099.881)">
                <path id="prefix__Area-2" d="M0 0H7V7H0z" class="prefix__cls-4" data-name="Area" transform="translate(0 .119)"/>
                <path id="prefix__Ico_Cart-2" d="M4.009 5.638a.793.793 0 1 1 .793.793.794.794 0 0 1-.793-.793zm.447 0a.346.346 0 1 0 .344-.346.346.346 0 0 0-.344.346zm-3.438 0a.793.793 0 1 1 .793.793.794.794 0 0 1-.792-.793zm.447 0a.346.346 0 1 0 .346-.345.346.346 0 0 0-.345.345zM1.5 4.67a.7.7 0 0 1-.71-.7.825.825 0 0 1 .358-.622L.44.573A.043.043 0 0 0 .4.529H0V0h.4a.571.571 0 0 1 .569.44l.088.4h4.8a.256.256 0 0 1 .22.088c.041.065.027.126 0 .22-.088.308-.485 1.938-.573 2.158a.765.765 0 0 1-.661.485h-3.3c-.088 0-.226.05-.226.182a.208.208 0 0 0 .226.215h3.831v.482zm.264-1.41H4.89a.618.618 0 0 0 .176-.176c.044-.088.264-.925.485-1.762H1.233z" class="prefix__cls-5" data-name="Ico_Cart" transform="translate(.529 .352)"/>
            </g>
            <path id="prefix__패스_19390" d="M-3.723 0h.7v-3.834h1.3v-.582h-3.296v.582h1.3z" data-name="패스 19390" transform="translate(112 2106)" style="fill:#333"/>
            <path id="prefix__선_1745" d="M0 0L62.5 0" data-name="선 1745" transform="translate(48.5 2110.5)" style="fill:none;stroke:#fff"/>
        </g>
    </g>
</svg>
