<svg width="50" height="50" xmlns="http://www.w3.org/2000/svg">

 <g>
  <title>background</title>
  <rect fill="none" id="canvas_background" height="402" width="582" y="-1" x="-1"/>
 </g>
 <g>
  <title>Layer 1</title>
  <path stroke="null" id="svg_1" d="m45.59628,8.24196l-41.3374,0l0,41.3374l41.3374,0l0,-41.3374zm-1.72239,1.72239l0,7.75076l-37.89262,0l0,-7.75076l37.89262,0zm-24.97468,31.86424l0,-4.30597l12.05674,0l0,4.30597l-12.05674,0zm12.05674,1.7224l0,4.30598l-12.05674,0l0,-4.30598l12.05674,0zm-12.05674,-13.77914l0,-4.30598l12.05674,0l0,4.30598l-12.05674,0zm12.05674,1.72239l0,4.30598l-12.05674,0l0,-4.30598l12.05674,0zm-12.05674,-7.75076l0,-4.30598l12.05674,0l0,4.30598l-12.05674,0zm-1.72239,0l-11.19555,0l0,-4.30598l11.19555,0l0,4.30598zm0,1.72239l0,4.30598l-11.19555,0l0,-4.30598l11.19555,0zm0,6.02837l0,4.30598l-11.19555,0l0,-4.30598l11.19555,0zm0,6.02838l0,4.30597l-11.19555,0l0,-4.30597l11.19555,0zm15.50152,0l11.19555,0l0,4.30597l-11.19555,0l0,-4.30597zm0,-1.7224l0,-4.30598l11.19555,0l0,4.30598l-11.19555,0zm0,-6.02837l0,-4.30598l11.19555,0l0,4.30598l-11.19555,0zm0,-6.02837l0,-4.30598l11.19555,0l0,4.30598l-11.19555,0zm-26.69707,19.80751l11.19555,0l0,4.30598l-11.19555,0l0,-4.30598zm26.69707,4.30598l0,-4.30598l11.19555,0l0,4.30598l-11.19555,0z"/>
  <rect stroke="null" id="svg_4" height="2.679525" width="4.490019" y="4.971459" x="40.968515" fill-opacity="null" stroke-opacity="null" stroke-width="null" fill="null"/>
  <rect stroke="null" id="svg_5" height="2.679525" width="4.490019" y="4.971459" x="35.754305" fill-opacity="null" stroke-opacity="null" stroke-width="null" fill="null"/>
  <rect stroke="null" id="svg_6" height="2.679525" width="4.490019" y="4.971459" x="30.467676" fill-opacity="null" stroke-opacity="null" stroke-width="null" fill="null"/>
 </g>
</svg>